<svg width="180" height="180" viewBox="0 0 180 180" fill="none" xmlns="http://www.w3.org/2000/svg">
<g clip-path="url(#clip0_37_8)">
<path d="M90 0C112.142 0 133.506 8.16198 150.008 22.925C166.51 37.688 176.99 58.0159 179.445 80.0209C181.9 102.026 176.157 124.164 163.315 142.201C150.473 160.237 131.432 172.907 109.835 177.787C88.2379 182.667 65.5998 179.414 46.2503 168.651C26.9008 157.888 12.1979 140.369 4.95352 119.446C-2.29083 98.5235 -1.56821 75.6643 6.98319 55.2407C15.5346 34.8171 31.3146 18.2625 51.3053 8.74289L90 90V0Z" fill="#FFF0D1"/>
<path d="M51.3053 8.74294C59.9183 4.64142 69.1287 1.93535 78.5914 0.726074L90 90.0001L51.3053 8.74294Z" fill="#DE6B48"/>
<path d="M78.5914 0.725959C80.4802 0.484591 82.3761 0.303223 84.2763 0.182129L90 89.9999L78.5914 0.725959Z" fill="#8F443D"/>
<path d="M84.2764 0.182185C86.1766 0.0610913 88.0802 0.000332329 89.9843 0L90 90L84.2764 0.182185Z" fill="#7C2D16"/>
<path d="M97.5008 120.839C97.7096 120.841 97.9184 120.881 98.1272 120.959C98.336 121.037 98.5266 121.166 98.6989 121.347C98.8713 121.526 99.0096 121.77 99.114 122.08C99.2184 122.39 99.2706 122.778 99.2706 123.246C99.2706 123.698 99.2276 124.1 99.1414 124.451C99.0569 124.801 98.9342 125.096 98.7735 125.336C98.6144 125.577 98.4205 125.759 98.1918 125.883C97.9648 126.007 97.7079 126.07 97.4212 126.07C97.1362 126.07 96.8818 126.013 96.6581 125.901C96.436 125.786 96.2537 125.628 96.1112 125.426C95.9703 125.222 95.88 124.986 95.8402 124.717H96.4468C96.5015 124.951 96.61 125.144 96.7724 125.297C96.9365 125.447 97.1527 125.523 97.4212 125.523C97.814 125.523 98.1239 125.351 98.3509 125.008C98.5796 124.665 98.6939 124.18 98.6939 123.554H98.6542C98.5614 123.693 98.4512 123.813 98.3236 123.914C98.1959 124.016 98.0543 124.093 97.8985 124.148C97.7427 124.203 97.577 124.23 97.4013 124.23C97.1097 124.23 96.842 124.158 96.5984 124.014C96.3565 123.868 96.1626 123.668 96.0167 123.415C95.8726 123.16 95.8005 122.868 95.8005 122.54C95.8005 122.228 95.8701 121.943 96.0093 121.685C96.1501 121.424 96.3473 121.217 96.6009 121.063C96.8561 120.909 97.1561 120.835 97.5008 120.839ZM97.5008 121.386C97.2919 121.386 97.1039 121.439 96.9365 121.543C96.7708 121.646 96.639 121.785 96.5412 121.961C96.4451 122.135 96.3971 122.328 96.3971 122.54C96.3971 122.752 96.4435 122.945 96.5363 123.119C96.6307 123.291 96.7592 123.429 96.9216 123.532C97.0856 123.633 97.2721 123.683 97.4809 123.683C97.6383 123.683 97.785 123.653 97.9209 123.591C98.0567 123.528 98.1752 123.443 98.2763 123.335C98.3791 123.226 98.4594 123.102 98.5174 122.965C98.5754 122.826 98.6044 122.681 98.6044 122.53C98.6044 122.331 98.5564 122.145 98.4603 121.971C98.3658 121.797 98.2349 121.656 98.0675 121.548C97.9018 121.44 97.7129 121.386 97.5008 121.386ZM100.248 126V125.553L101.929 123.713C102.126 123.498 102.288 123.31 102.416 123.151C102.543 122.991 102.638 122.84 102.699 122.699C102.762 122.556 102.794 122.407 102.794 122.251C102.794 122.072 102.751 121.917 102.664 121.787C102.58 121.656 102.464 121.555 102.316 121.483C102.169 121.412 102.003 121.376 101.819 121.376C101.624 121.376 101.453 121.417 101.307 121.498C101.163 121.578 101.051 121.69 100.972 121.834C100.894 121.978 100.855 122.147 100.855 122.341H100.268C100.268 122.043 100.337 121.781 100.474 121.555C100.612 121.33 100.799 121.154 101.036 121.028C101.275 120.902 101.542 120.839 101.839 120.839C102.137 120.839 102.402 120.902 102.632 121.028C102.862 121.154 103.043 121.324 103.174 121.538C103.305 121.752 103.37 121.99 103.37 122.251C103.37 122.439 103.336 122.622 103.268 122.801C103.202 122.978 103.086 123.176 102.92 123.395C102.756 123.612 102.528 123.877 102.237 124.19L101.093 125.413V125.453H103.46V126H100.248ZM107.082 125.045V124.777C107.082 124.591 107.12 124.422 107.196 124.267C107.274 124.112 107.387 123.987 107.534 123.895C107.683 123.8 107.864 123.753 108.076 123.753C108.291 123.753 108.472 123.8 108.618 123.895C108.764 123.987 108.874 124.112 108.948 124.267C109.023 124.422 109.06 124.591 109.06 124.777V125.045C109.06 125.231 109.022 125.402 108.946 125.558C108.871 125.712 108.76 125.836 108.613 125.93C108.467 126.023 108.288 126.07 108.076 126.07C107.861 126.07 107.679 126.023 107.532 125.93C107.384 125.836 107.272 125.712 107.196 125.558C107.12 125.402 107.082 125.231 107.082 125.045ZM107.589 124.777V125.045C107.589 125.2 107.625 125.338 107.698 125.461C107.771 125.582 107.897 125.642 108.076 125.642C108.25 125.642 108.373 125.582 108.444 125.461C108.517 125.338 108.553 125.2 108.553 125.045V124.777C108.553 124.623 108.518 124.485 108.449 124.364C108.379 124.242 108.255 124.18 108.076 124.18C107.902 124.18 107.777 124.242 107.701 124.364C107.626 124.485 107.589 124.623 107.589 124.777ZM104.546 122.132V121.864C104.546 121.678 104.584 121.508 104.66 121.354C104.738 121.198 104.851 121.074 104.999 120.981C105.148 120.887 105.328 120.839 105.54 120.839C105.756 120.839 105.937 120.887 106.082 120.981C106.228 121.074 106.338 121.198 106.413 121.354C106.488 121.508 106.525 121.678 106.525 121.864V122.132C106.525 122.318 106.487 122.488 106.41 122.644C106.336 122.798 106.225 122.923 106.077 123.017C105.932 123.11 105.753 123.156 105.54 123.156C105.325 123.156 105.144 123.11 104.996 123.017C104.849 122.923 104.737 122.798 104.66 122.644C104.584 122.488 104.546 122.318 104.546 122.132ZM105.053 121.864V122.132C105.053 122.286 105.09 122.425 105.163 122.547C105.236 122.668 105.361 122.729 105.54 122.729C105.714 122.729 105.837 122.668 105.908 122.547C105.981 122.425 106.018 122.286 106.018 122.132V121.864C106.018 121.71 105.983 121.572 105.913 121.451C105.844 121.328 105.719 121.267 105.54 121.267C105.366 121.267 105.241 121.328 105.165 121.451C105.091 121.572 105.053 121.71 105.053 121.864ZM104.735 126L108.235 120.909H108.802L105.302 126H104.735ZM77.5022 134V128.909H78.1187V131.176H80.8332V128.909H81.4497V134H80.8332V131.723H78.1187V134H77.5022ZM82.6043 134V130.182H83.191V134H82.6043ZM82.9026 129.545C82.7883 129.545 82.6897 129.507 82.6068 129.429C82.5256 129.351 82.485 129.257 82.485 129.148C82.485 129.038 82.5256 128.945 82.6068 128.867C82.6897 128.789 82.7883 128.75 82.9026 128.75C83.017 128.75 83.1147 128.789 83.1959 128.867C83.2788 128.945 83.3202 129.038 83.3202 129.148C83.3202 129.257 83.2788 129.351 83.1959 129.429C83.1147 129.507 83.017 129.545 82.9026 129.545ZM86.97 131.037L86.443 131.186C86.4099 131.098 86.361 131.013 86.2963 130.93C86.2334 130.846 86.1472 130.776 86.0378 130.721C85.9284 130.667 85.7884 130.639 85.6177 130.639C85.3841 130.639 85.1893 130.693 85.0336 130.801C84.8794 130.907 84.8024 131.042 84.8024 131.206C84.8024 131.352 84.8554 131.467 84.9615 131.551C85.0675 131.636 85.2333 131.706 85.4586 131.763L86.0254 131.902C86.3668 131.985 86.6212 132.112 86.7885 132.282C86.9559 132.451 87.0396 132.669 87.0396 132.936C87.0396 133.155 86.9766 133.35 86.8507 133.523C86.7264 133.695 86.5524 133.831 86.3287 133.93C86.1049 134.03 85.8448 134.08 85.5481 134.08C85.1587 134.08 84.8364 133.995 84.5811 133.826C84.3259 133.657 84.1644 133.41 84.0964 133.085L84.6532 132.946C84.7063 133.152 84.8065 133.306 84.954 133.408C85.1032 133.511 85.2979 133.562 85.5382 133.562C85.8116 133.562 86.0287 133.504 86.1895 133.388C86.3519 133.271 86.4331 133.13 86.4331 132.966C86.4331 132.833 86.3867 132.722 86.2939 132.633C86.2011 132.542 86.0585 132.474 85.8663 132.429L85.2299 132.28C84.8803 132.197 84.6234 132.069 84.4593 131.895C84.2969 131.719 84.2157 131.499 84.2157 131.236C84.2157 131.02 84.2762 130.83 84.3972 130.664C84.5198 130.498 84.6864 130.368 84.8968 130.274C85.109 130.179 85.3493 130.132 85.6177 130.132C85.9956 130.132 86.2922 130.215 86.5076 130.381C86.7247 130.546 86.8788 130.765 86.97 131.037ZM87.9227 135.432V130.182H88.4894V130.788H88.559C88.6021 130.722 88.6618 130.638 88.738 130.535C88.8159 130.43 88.9269 130.338 89.0711 130.256C89.2169 130.174 89.4142 130.132 89.6627 130.132C89.9842 130.132 90.2676 130.212 90.5129 130.373C90.7581 130.534 90.9495 130.762 91.0871 131.057C91.2246 131.352 91.2934 131.7 91.2934 132.101C91.2934 132.505 91.2246 132.856 91.0871 133.152C90.9495 133.447 90.759 133.676 90.5154 133.838C90.2718 133.999 89.9909 134.08 89.6727 134.08C89.4274 134.08 89.231 134.039 89.0835 133.958C88.936 133.875 88.8225 133.781 88.743 133.677C88.6634 133.571 88.6021 133.483 88.559 133.413H88.5093V135.432H87.9227ZM88.4994 132.091C88.4994 132.379 88.5416 132.634 88.6262 132.854C88.7107 133.073 88.8341 133.244 88.9965 133.369C89.1589 133.491 89.3578 133.553 89.5931 133.553C89.8384 133.553 90.0431 133.488 90.2071 133.359C90.3728 133.228 90.4971 133.052 90.58 132.832C90.6645 132.61 90.7068 132.363 90.7068 132.091C90.7068 131.822 90.6653 131.58 90.5825 131.365C90.5013 131.148 90.3778 130.976 90.2121 130.85C90.048 130.723 89.8417 130.659 89.5931 130.659C89.3545 130.659 89.154 130.72 88.9916 130.841C88.8292 130.96 88.7065 131.127 88.6237 131.343C88.5408 131.556 88.4994 131.806 88.4994 132.091ZM93.3119 134.089C93.0699 134.089 92.8503 134.044 92.6531 133.953C92.4559 133.86 92.2993 133.727 92.1833 133.553C92.0673 133.377 92.0093 133.165 92.0093 132.916C92.0093 132.697 92.0524 132.52 92.1386 132.384C92.2248 132.247 92.3399 132.139 92.4841 132.061C92.6283 131.983 92.7874 131.925 92.9614 131.887C93.137 131.847 93.3135 131.816 93.4909 131.793C93.7229 131.763 93.911 131.74 94.0551 131.725C94.201 131.709 94.307 131.682 94.3733 131.643C94.4413 131.605 94.4752 131.539 94.4752 131.445V131.425C94.4752 131.179 94.4081 130.989 94.2739 130.853C94.1413 130.717 93.94 130.649 93.6698 130.649C93.3898 130.649 93.1702 130.71 93.0111 130.833C92.852 130.956 92.7401 131.087 92.6755 131.226L92.1187 131.027C92.2181 130.795 92.3507 130.614 92.5164 130.485C92.6838 130.354 92.8661 130.263 93.0633 130.212C93.2622 130.159 93.4577 130.132 93.6499 130.132C93.7726 130.132 93.9134 130.147 94.0725 130.177C94.2333 130.205 94.3882 130.264 94.5374 130.353C94.6882 130.443 94.8133 130.578 94.9127 130.759C95.0122 130.939 95.0619 131.181 95.0619 131.484V134H94.4752V133.483H94.4454C94.4056 133.566 94.3393 133.654 94.2465 133.749C94.1537 133.843 94.0303 133.924 93.8762 133.99C93.722 134.056 93.5339 134.089 93.3119 134.089ZM93.4014 133.562C93.6334 133.562 93.8289 133.517 93.988 133.426C94.1488 133.335 94.2697 133.217 94.3509 133.073C94.4338 132.929 94.4752 132.777 94.4752 132.618V132.081C94.4504 132.111 94.3957 132.138 94.3112 132.163C94.2283 132.186 94.1322 132.207 94.0228 132.225C93.9151 132.242 93.8099 132.257 93.7071 132.27C93.606 132.281 93.524 132.291 93.461 132.3C93.3086 132.32 93.166 132.352 93.0335 132.397C92.9026 132.44 92.7965 132.505 92.7153 132.593C92.6357 132.679 92.596 132.797 92.596 132.946C92.596 133.15 92.6714 133.304 92.8222 133.408C92.9746 133.511 93.1677 133.562 93.4014 133.562ZM96.7193 131.703V134H96.1326V130.182H96.6994V130.778H96.7491C96.8386 130.585 96.9745 130.429 97.1568 130.311C97.3391 130.192 97.5744 130.132 97.8627 130.132C98.1213 130.132 98.3475 130.185 98.5414 130.291C98.7353 130.396 98.8861 130.555 98.9938 130.768C99.1015 130.981 99.1554 131.249 99.1554 131.574V134H98.5687V131.614C98.5687 131.314 98.4908 131.08 98.335 130.913C98.1793 130.744 97.9655 130.659 97.6937 130.659C97.5065 130.659 97.3391 130.7 97.1916 130.781C97.0458 130.862 96.9306 130.981 96.8461 131.136C96.7615 131.292 96.7193 131.481 96.7193 131.703ZM100.227 134V130.182H100.814V134H100.227ZM100.526 129.545C100.411 129.545 100.313 129.507 100.23 129.429C100.149 129.351 100.108 129.257 100.108 129.148C100.108 129.038 100.149 128.945 100.23 128.867C100.313 128.789 100.411 128.75 100.526 128.75C100.64 128.75 100.738 128.789 100.819 128.867C100.902 128.945 100.943 129.038 100.943 129.148C100.943 129.257 100.902 129.351 100.819 129.429C100.738 129.507 100.64 129.545 100.526 129.545ZM103.44 134.08C103.082 134.08 102.773 133.995 102.515 133.826C102.256 133.657 102.058 133.424 101.918 133.127C101.779 132.831 101.71 132.492 101.71 132.111C101.71 131.723 101.781 131.381 101.923 131.084C102.067 130.786 102.268 130.553 102.525 130.386C102.783 130.217 103.085 130.132 103.43 130.132C103.698 130.132 103.94 130.182 104.156 130.281C104.371 130.381 104.547 130.52 104.685 130.699C104.823 130.878 104.908 131.087 104.941 131.325H104.354C104.31 131.151 104.21 130.997 104.056 130.863C103.904 130.727 103.698 130.659 103.44 130.659C103.211 130.659 103.01 130.719 102.838 130.838C102.667 130.956 102.534 131.122 102.438 131.338C102.343 131.551 102.296 131.803 102.296 132.091C102.296 132.386 102.343 132.643 102.435 132.862C102.53 133.08 102.662 133.25 102.833 133.371C103.005 133.492 103.208 133.553 103.44 133.553C103.592 133.553 103.73 133.526 103.855 133.473C103.979 133.42 104.084 133.344 104.17 133.244C104.257 133.145 104.318 133.026 104.354 132.886H104.941C104.908 133.112 104.826 133.315 104.695 133.495C104.566 133.674 104.394 133.817 104.18 133.923C103.968 134.027 103.721 134.08 103.44 134.08ZM107.598 128.67L105.958 134.766H105.421L107.061 128.67H107.598ZM108.373 134V128.909H108.99V133.453H111.356V134H108.373ZM113.355 134.089C113.113 134.089 112.893 134.044 112.696 133.953C112.499 133.86 112.342 133.727 112.226 133.553C112.11 133.377 112.052 133.165 112.052 132.916C112.052 132.697 112.095 132.52 112.182 132.384C112.268 132.247 112.383 132.139 112.527 132.061C112.671 131.983 112.83 131.925 113.004 131.887C113.18 131.847 113.357 131.816 113.534 131.793C113.766 131.763 113.954 131.74 114.098 131.725C114.244 131.709 114.35 131.682 114.416 131.643C114.484 131.605 114.518 131.539 114.518 131.445V131.425C114.518 131.179 114.451 130.989 114.317 130.853C114.184 130.717 113.983 130.649 113.713 130.649C113.433 130.649 113.213 130.71 113.054 130.833C112.895 130.956 112.783 131.087 112.718 131.226L112.162 131.027C112.261 130.795 112.394 130.614 112.559 130.485C112.727 130.354 112.909 130.263 113.106 130.212C113.305 130.159 113.501 130.132 113.693 130.132C113.816 130.132 113.956 130.147 114.116 130.177C114.276 130.205 114.431 130.264 114.58 130.353C114.731 130.443 114.856 130.578 114.956 130.759C115.055 130.939 115.105 131.181 115.105 131.484V134H114.518V133.483H114.488C114.449 133.566 114.382 133.654 114.29 133.749C114.197 133.843 114.073 133.924 113.919 133.99C113.765 134.056 113.577 134.089 113.355 134.089ZM113.444 133.562C113.676 133.562 113.872 133.517 114.031 133.426C114.192 133.335 114.313 133.217 114.394 133.073C114.477 132.929 114.518 132.777 114.518 132.618V132.081C114.493 132.111 114.439 132.138 114.354 132.163C114.271 132.186 114.175 132.207 114.066 132.225C113.958 132.242 113.853 132.257 113.75 132.27C113.649 132.281 113.567 132.291 113.504 132.3C113.352 132.32 113.209 132.352 113.076 132.397C112.946 132.44 112.839 132.505 112.758 132.593C112.679 132.679 112.639 132.797 112.639 132.946C112.639 133.15 112.714 133.304 112.865 133.408C113.018 133.511 113.211 133.562 113.444 133.562ZM117.836 130.182V130.679H115.857V130.182H117.836ZM116.434 129.267H117.021V132.906C117.021 133.072 117.045 133.196 117.093 133.279C117.143 133.36 117.206 133.415 117.282 133.443C117.36 133.47 117.442 133.483 117.528 133.483C117.593 133.483 117.646 133.48 117.687 133.473C117.728 133.465 117.762 133.458 117.786 133.453L117.906 133.98C117.866 133.995 117.81 134.01 117.739 134.025C117.668 134.041 117.578 134.05 117.468 134.05C117.302 134.05 117.14 134.014 116.981 133.943C116.824 133.872 116.693 133.763 116.588 133.617C116.485 133.471 116.434 133.287 116.434 133.065V129.267ZM118.719 134V130.182H119.305V134H118.719ZM119.017 129.545C118.903 129.545 118.804 129.507 118.721 129.429C118.64 129.351 118.599 129.257 118.599 129.148C118.599 129.038 118.64 128.945 118.721 128.867C118.804 128.789 118.903 128.75 119.017 128.75C119.131 128.75 119.229 128.789 119.31 128.867C119.393 128.945 119.434 129.038 119.434 129.148C119.434 129.257 119.393 129.351 119.31 129.429C119.229 129.507 119.131 129.545 119.017 129.545ZM120.966 131.703V134H120.38V130.182H120.946V130.778H120.996C121.086 130.585 121.222 130.429 121.404 130.311C121.586 130.192 121.821 130.132 122.11 130.132C122.368 130.132 122.595 130.185 122.788 130.291C122.982 130.396 123.133 130.555 123.241 130.768C123.349 130.981 123.402 131.249 123.402 131.574V134H122.816V131.614C122.816 131.314 122.738 131.08 122.582 130.913C122.426 130.744 122.213 130.659 121.941 130.659C121.754 130.659 121.586 130.7 121.439 130.781C121.293 130.862 121.178 130.981 121.093 131.136C121.009 131.292 120.966 131.481 120.966 131.703ZM126.026 134.08C125.681 134.08 125.378 133.998 125.118 133.833C124.86 133.669 124.658 133.44 124.512 133.145C124.368 132.85 124.295 132.505 124.295 132.111C124.295 131.713 124.368 131.366 124.512 131.069C124.658 130.773 124.86 130.542 125.118 130.378C125.378 130.214 125.681 130.132 126.026 130.132C126.37 130.132 126.672 130.214 126.93 130.378C127.191 130.542 127.393 130.773 127.537 131.069C127.683 131.366 127.756 131.713 127.756 132.111C127.756 132.505 127.683 132.85 127.537 133.145C127.393 133.44 127.191 133.669 126.93 133.833C126.672 133.998 126.37 134.08 126.026 134.08ZM126.026 133.553C126.287 133.553 126.503 133.485 126.672 133.351C126.841 133.217 126.966 133.04 127.047 132.822C127.128 132.603 127.169 132.366 127.169 132.111C127.169 131.856 127.128 131.618 127.047 131.397C126.966 131.177 126.841 130.999 126.672 130.863C126.503 130.727 126.287 130.659 126.026 130.659C125.764 130.659 125.548 130.727 125.379 130.863C125.21 130.999 125.085 131.177 125.004 131.397C124.923 131.618 124.882 131.856 124.882 132.111C124.882 132.366 124.923 132.603 125.004 132.822C125.085 133.04 125.21 133.217 125.379 133.351C125.548 133.485 125.764 133.553 126.026 133.553Z" fill="#DE6B48"/>
<path d="M67.9605 20.0497C67.7522 20.0497 67.5646 20.0083 67.3977 19.9254C67.2308 19.8426 67.097 19.7289 66.9964 19.5845C66.8958 19.4401 66.8407 19.2756 66.8313 19.0909H67.2574C67.274 19.2554 67.3486 19.3916 67.4811 19.4993C67.6149 19.6058 67.7747 19.6591 67.9605 19.6591C68.1097 19.6591 68.2423 19.6242 68.3583 19.5543C68.4755 19.4845 68.5672 19.3886 68.6335 19.2667C68.7009 19.1436 68.7347 19.0045 68.7347 18.8494C68.7347 18.6908 68.6998 18.5494 68.6299 18.4251C68.5613 18.2996 68.4666 18.2008 68.3458 18.1286C68.2251 18.0563 68.0872 18.0196 67.9321 18.0185C67.8209 18.0173 67.7066 18.0344 67.5894 18.07C67.4723 18.1043 67.3758 18.1487 67.3 18.2031L66.8881 18.1534L67.1083 16.3636H68.9975V16.7543H67.4776L67.3497 17.8267H67.371C67.4456 17.7675 67.5391 17.7184 67.6516 17.6793C67.764 17.6403 67.8812 17.6207 68.0032 17.6207C68.2257 17.6207 68.424 17.674 68.598 17.7805C68.7732 17.8859 68.9105 18.0303 69.0099 18.2138C69.1105 18.3973 69.1608 18.6068 69.1608 18.8423C69.1608 19.0743 69.1087 19.2815 69.0046 19.4638C68.9016 19.6449 68.7595 19.7881 68.5784 19.8935C68.3973 19.9976 68.1914 20.0497 67.9605 20.0497ZM71.7199 19.3182V19.1264C71.7199 18.9938 71.7471 18.8725 71.8015 18.7624C71.8572 18.6512 71.9377 18.5624 72.043 18.4961C72.1495 18.4286 72.2786 18.3949 72.4301 18.3949C72.584 18.3949 72.713 18.4286 72.8172 18.4961C72.9213 18.5624 73 18.6512 73.0533 18.7624C73.1066 18.8725 73.1332 18.9938 73.1332 19.1264V19.3182C73.1332 19.4508 73.106 19.5727 73.0515 19.6839C72.9983 19.794 72.919 19.8828 72.8136 19.9503C72.7094 20.0166 72.5816 20.0497 72.4301 20.0497C72.2762 20.0497 72.1466 20.0166 72.0412 19.9503C71.9359 19.8828 71.856 19.794 71.8015 19.6839C71.7471 19.5727 71.7199 19.4508 71.7199 19.3182ZM72.0821 19.1264V19.3182C72.0821 19.4283 72.1081 19.5271 72.1602 19.6147C72.2123 19.7011 72.3022 19.7443 72.4301 19.7443C72.5544 19.7443 72.642 19.7011 72.6929 19.6147C72.745 19.5271 72.771 19.4283 72.771 19.3182V19.1264C72.771 19.0163 72.7461 18.9181 72.6964 18.8317C72.6467 18.7441 72.5579 18.7003 72.4301 18.7003C72.3058 18.7003 72.2164 18.7441 72.162 18.8317C72.1087 18.9181 72.0821 19.0163 72.0821 19.1264ZM69.9088 17.2372V17.0455C69.9088 16.9129 69.936 16.7915 69.9905 16.6815C70.0461 16.5702 70.1266 16.4814 70.2319 16.4151C70.3385 16.3477 70.4675 16.3139 70.619 16.3139C70.7729 16.3139 70.9019 16.3477 71.0061 16.4151C71.1102 16.4814 71.189 16.5702 71.2422 16.6815C71.2955 16.7915 71.3221 16.9129 71.3221 17.0455V17.2372C71.3221 17.3698 71.2949 17.4917 71.2405 17.603C71.1872 17.7131 71.1079 17.8018 71.0025 17.8693C70.8984 17.9356 70.7705 17.9688 70.619 17.9688C70.4651 17.9688 70.3355 17.9356 70.2302 17.8693C70.1248 17.8018 70.0449 17.7131 69.9905 17.603C69.936 17.4917 69.9088 17.3698 69.9088 17.2372ZM70.271 17.0455V17.2372C70.271 17.3473 70.297 17.4461 70.3491 17.5337C70.4012 17.6201 70.4912 17.6634 70.619 17.6634C70.7433 17.6634 70.8309 17.6201 70.8818 17.5337C70.9339 17.4461 70.9599 17.3473 70.9599 17.2372V17.0455C70.9599 16.9354 70.9351 16.8371 70.8853 16.7507C70.8356 16.6631 70.7468 16.6193 70.619 16.6193C70.4947 16.6193 70.4053 16.6631 70.3509 16.7507C70.2976 16.8371 70.271 16.9354 70.271 17.0455ZM70.0437 20L72.5437 16.3636H72.9486L70.4486 20H70.0437ZM64.3089 26L63.3145 22.3636H63.762L64.5219 25.3253H64.5574L65.3316 22.3636H65.8287L66.6029 25.3253H66.6384L67.3983 22.3636H67.8458L66.8515 26H66.3969L65.5944 23.1023H65.566L64.7634 26H64.3089ZM68.7567 24.3594V26H68.3376V22.3636H68.7567V23.6989H68.7922C68.8561 23.558 68.952 23.4461 69.0798 23.3633C69.2088 23.2792 69.3805 23.2372 69.5947 23.2372C69.7806 23.2372 69.9433 23.2745 70.083 23.3491C70.2227 23.4225 70.331 23.5355 70.4079 23.6882C70.4861 23.8397 70.5251 24.0327 70.5251 24.267V26H70.1061V24.2955C70.1061 24.0788 70.0499 23.9113 69.9374 23.793C69.8261 23.6734 69.6717 23.6136 69.474 23.6136C69.3367 23.6136 69.2136 23.6426 69.1047 23.7006C68.997 23.7586 68.9117 23.8433 68.849 23.9545C68.7874 24.0658 68.7567 24.2008 68.7567 24.3594ZM71.2917 26V23.2727H71.7108V26H71.2917ZM71.5048 22.8182C71.4231 22.8182 71.3527 22.7904 71.2935 22.7347C71.2355 22.6791 71.2065 22.6122 71.2065 22.5341C71.2065 22.456 71.2355 22.3891 71.2935 22.3335C71.3527 22.2778 71.4231 22.25 71.5048 22.25C71.5865 22.25 71.6563 22.2778 71.7143 22.3335C71.7735 22.3891 71.8031 22.456 71.8031 22.5341C71.8031 22.6122 71.7735 22.6791 71.7143 22.7347C71.6563 22.7904 71.5865 22.8182 71.5048 22.8182ZM73.6643 23.2727V23.6278H72.251V23.2727H73.6643ZM72.6629 22.6193H73.0819V25.2188C73.0819 25.3371 73.0991 25.4259 73.1334 25.4851C73.1689 25.5431 73.2139 25.5821 73.2684 25.6023C73.324 25.6212 73.3826 25.6307 73.4442 25.6307C73.4903 25.6307 73.5282 25.6283 73.5578 25.6236C73.5874 25.6177 73.6111 25.6129 73.6288 25.6094L73.714 25.9858C73.6856 25.9964 73.646 26.0071 73.5951 26.0178C73.5442 26.0296 73.4797 26.0355 73.4015 26.0355C73.2832 26.0355 73.1672 26.0101 73.0535 25.9592C72.9411 25.9083 72.8476 25.8307 72.773 25.7266C72.6996 25.6224 72.6629 25.491 72.6629 25.3324V22.6193ZM75.4088 26.0568C75.146 26.0568 74.9194 25.9988 74.7288 25.8828C74.5394 25.7656 74.3932 25.6023 74.2902 25.3928C74.1884 25.1821 74.1375 24.937 74.1375 24.6577C74.1375 24.3783 74.1884 24.1321 74.2902 23.919C74.3932 23.7048 74.5364 23.5379 74.7199 23.4183C74.9046 23.2976 75.12 23.2372 75.3662 23.2372C75.5083 23.2372 75.6485 23.2609 75.787 23.3082C75.9255 23.3556 76.0516 23.4325 76.1652 23.5391C76.2789 23.6444 76.3694 23.7841 76.4369 23.9581C76.5044 24.1321 76.5381 24.3464 76.5381 24.6009V24.7784H74.4358V24.4162H76.1119C76.1119 24.2623 76.0812 24.125 76.0196 24.0043C75.9593 23.8835 75.8728 23.7882 75.7604 23.7184C75.6491 23.6486 75.5177 23.6136 75.3662 23.6136C75.1993 23.6136 75.0549 23.6551 74.933 23.7379C74.8122 23.8196 74.7193 23.9261 74.6542 24.0575C74.5891 24.1889 74.5566 24.3298 74.5566 24.4801V24.7216C74.5566 24.9276 74.5921 25.1022 74.6631 25.2454C74.7353 25.3874 74.8353 25.4957 74.9632 25.5703C75.091 25.6437 75.2396 25.6804 75.4088 25.6804C75.5189 25.6804 75.6183 25.665 75.7071 25.6342C75.7971 25.6023 75.8746 25.5549 75.9397 25.4922C76.0048 25.4283 76.0551 25.349 76.0906 25.2543L76.4955 25.3679C76.4529 25.5052 76.3812 25.6259 76.2806 25.7301C76.18 25.8331 76.0557 25.9136 75.9078 25.9716C75.7598 26.0284 75.5935 26.0568 75.4088 26.0568Z" fill="#8F443D"/>
<path d="M79.9615 4.36364V8H79.5211V4.82528H79.4998L78.612 5.41477V4.96733L79.5211 4.36364H79.9615ZM82.861 7.31818V7.12642C82.861 6.99384 82.8882 6.87251 82.9426 6.76243C82.9983 6.65116 83.0788 6.56238 83.1841 6.49609C83.2907 6.42862 83.4197 6.39489 83.5712 6.39489C83.7251 6.39489 83.8541 6.42862 83.9583 6.49609C84.0624 6.56238 84.1412 6.65116 84.1944 6.76243C84.2477 6.87251 84.2743 6.99384 84.2743 7.12642V7.31818C84.2743 7.45076 84.2471 7.57268 84.1926 7.68395C84.1394 7.79403 84.0601 7.88281 83.9547 7.95028C83.8506 8.01657 83.7227 8.04972 83.5712 8.04972C83.4173 8.04972 83.2877 8.01657 83.1824 7.95028C83.077 7.88281 82.9971 7.79403 82.9426 7.68395C82.8882 7.57268 82.861 7.45076 82.861 7.31818ZM83.2232 7.12642V7.31818C83.2232 7.42827 83.2492 7.52711 83.3013 7.6147C83.3534 7.70111 83.4434 7.74432 83.5712 7.74432C83.6955 7.74432 83.7831 7.70111 83.834 7.6147C83.8861 7.52711 83.9121 7.42827 83.9121 7.31818V7.12642C83.9121 7.01634 83.8873 6.91809 83.8375 6.83168C83.7878 6.74408 83.699 6.70028 83.5712 6.70028C83.4469 6.70028 83.3575 6.74408 83.3031 6.83168C83.2498 6.91809 83.2232 7.01634 83.2232 7.12642ZM81.0499 5.23722V5.04545C81.0499 4.91288 81.0771 4.79155 81.1316 4.68146C81.1872 4.57019 81.2677 4.48142 81.373 4.41513C81.4796 4.34766 81.6086 4.31392 81.7601 4.31392C81.914 4.31392 82.043 4.34766 82.1472 4.41513C82.2514 4.48142 82.3301 4.57019 82.3833 4.68146C82.4366 4.79155 82.4632 4.91288 82.4632 5.04545V5.23722C82.4632 5.36979 82.436 5.49171 82.3816 5.60298C82.3283 5.71307 82.249 5.80185 82.1436 5.86932C82.0395 5.93561 81.9116 5.96875 81.7601 5.96875C81.6062 5.96875 81.4766 5.93561 81.3713 5.86932C81.2659 5.80185 81.186 5.71307 81.1316 5.60298C81.0771 5.49171 81.0499 5.36979 81.0499 5.23722ZM81.4121 5.04545V5.23722C81.4121 5.3473 81.4382 5.44614 81.4902 5.53374C81.5423 5.62015 81.6323 5.66335 81.7601 5.66335C81.8844 5.66335 81.972 5.62015 82.0229 5.53374C82.075 5.44614 82.101 5.3473 82.101 5.23722V5.04545C82.101 4.93537 82.0762 4.83712 82.0265 4.75071C81.9767 4.66312 81.888 4.61932 81.7601 4.61932C81.6358 4.61932 81.5465 4.66312 81.492 4.75071C81.4387 4.83712 81.4121 4.93537 81.4121 5.04545ZM81.1848 8L83.6848 4.36364H84.0897L81.5897 8H81.1848ZM75.6295 14H75.1679L76.5031 10.3636H76.9577L78.2929 14H77.8312L76.7446 10.9389H76.7162L75.6295 14ZM75.8 12.5795H77.6608V12.9702H75.8V12.5795ZM80.7343 11.8835L80.3579 11.9901C80.3342 11.9273 80.2993 11.8664 80.2531 11.8072C80.2081 11.7468 80.1466 11.6971 80.0684 11.658C79.9903 11.619 79.8903 11.5994 79.7684 11.5994C79.6015 11.5994 79.4624 11.6379 79.3511 11.7148C79.241 11.7906 79.186 11.8871 79.186 12.0043C79.186 12.1084 79.2239 12.1907 79.2996 12.2511C79.3754 12.3114 79.4938 12.3617 79.6547 12.402L80.0596 12.5014C80.3034 12.5606 80.4851 12.6512 80.6047 12.7731C80.7242 12.8938 80.784 13.0495 80.784 13.2401C80.784 13.3963 80.739 13.536 80.6491 13.6591C80.5603 13.7822 80.436 13.8793 80.2762 13.9503C80.1164 14.0213 79.9305 14.0568 79.7187 14.0568C79.4405 14.0568 79.2103 13.9964 79.028 13.8757C78.8457 13.755 78.7303 13.5786 78.6817 13.3466L79.0795 13.2472C79.1173 13.3939 79.189 13.504 79.2943 13.5774C79.4008 13.6508 79.5399 13.6875 79.7116 13.6875C79.9069 13.6875 80.0619 13.6461 80.1768 13.5632C80.2928 13.4792 80.3508 13.3786 80.3508 13.2614C80.3508 13.1667 80.3176 13.0874 80.2513 13.0234C80.185 12.9583 80.0832 12.9098 79.9459 12.8778L79.4914 12.7713C79.2416 12.7121 79.0581 12.6204 78.941 12.4961C78.825 12.3706 78.767 12.2138 78.767 12.0256C78.767 11.8717 78.8102 11.7356 78.8966 11.6172C78.9842 11.4988 79.1031 11.4059 79.2535 11.3384C79.405 11.271 79.5766 11.2372 79.7684 11.2372C80.0383 11.2372 80.2501 11.2964 80.404 11.4148C80.5591 11.5331 80.6692 11.6894 80.7343 11.8835ZM81.4148 14V11.2727H81.8338V14H81.4148ZM81.6278 10.8182C81.5462 10.8182 81.4757 10.7904 81.4165 10.7347C81.3585 10.6791 81.3295 10.6122 81.3295 10.5341C81.3295 10.456 81.3585 10.3891 81.4165 10.3335C81.4757 10.2778 81.5462 10.25 81.6278 10.25C81.7095 10.25 81.7794 10.2778 81.8374 10.3335C81.8965 10.3891 81.9261 10.456 81.9261 10.5341C81.9261 10.6122 81.8965 10.6791 81.8374 10.7347C81.7794 10.7904 81.7095 10.8182 81.6278 10.8182ZM83.4039 14.0639C83.231 14.0639 83.0742 14.0314 82.9333 13.9663C82.7925 13.9 82.6806 13.8047 82.5977 13.6804C82.5149 13.5549 82.4735 13.4034 82.4735 13.2259C82.4735 13.0696 82.5042 12.9429 82.5658 12.8459C82.6273 12.7476 82.7096 12.6707 82.8126 12.6151C82.9156 12.5594 83.0292 12.518 83.1535 12.4908C83.279 12.4624 83.405 12.4399 83.5317 12.4233C83.6974 12.402 83.8318 12.386 83.9347 12.3754C84.0389 12.3635 84.1147 12.344 84.162 12.3168C84.2106 12.2895 84.2348 12.2422 84.2348 12.1747V12.1605C84.2348 11.9853 84.1869 11.8492 84.091 11.7521C83.9963 11.6551 83.8525 11.6065 83.6595 11.6065C83.4595 11.6065 83.3026 11.6503 83.189 11.7379C83.0754 11.8255 82.9955 11.919 82.9493 12.0185L82.5516 11.8764C82.6226 11.7107 82.7173 11.5817 82.8357 11.4893C82.9552 11.3958 83.0854 11.3307 83.2263 11.294C83.3683 11.2562 83.508 11.2372 83.6453 11.2372C83.7329 11.2372 83.8335 11.2479 83.9472 11.2692C84.062 11.2893 84.1727 11.3313 84.2792 11.3952C84.3869 11.4592 84.4763 11.5556 84.5473 11.6847C84.6183 11.8137 84.6539 11.9865 84.6539 12.2031V14H84.2348V13.6307H84.2135C84.1851 13.6899 84.1378 13.7532 84.0715 13.8207C84.0052 13.8881 83.917 13.9455 83.8069 13.9929C83.6968 14.0402 83.5625 14.0639 83.4039 14.0639ZM83.4678 13.6875C83.6335 13.6875 83.7732 13.6549 83.8868 13.5898C84.0016 13.5247 84.088 13.4407 84.146 13.3377C84.2052 13.2347 84.2348 13.1264 84.2348 13.0128V12.6293C84.2171 12.6506 84.178 12.6701 84.1176 12.6879C84.0584 12.7044 83.9898 12.7192 83.9117 12.7322C83.8347 12.7441 83.7596 12.7547 83.6862 12.7642C83.614 12.7725 83.5554 12.7796 83.5104 12.7855C83.4015 12.7997 83.2997 12.8228 83.205 12.8548C83.1115 12.8855 83.0357 12.9323 82.9777 12.995C82.9209 13.0566 82.8925 13.1406 82.8925 13.2472C82.8925 13.3928 82.9463 13.5028 83.0541 13.5774C83.163 13.6508 83.3009 13.6875 83.4678 13.6875ZM85.8377 12.3594V14H85.4187V11.2727H85.8235V11.6989H85.859C85.9229 11.5604 86.02 11.4491 86.1502 11.3651C86.2804 11.2798 86.4485 11.2372 86.6545 11.2372C86.8391 11.2372 87.0007 11.2751 87.1392 11.3509C87.2777 11.4254 87.3854 11.5391 87.4624 11.6918C87.5393 11.8433 87.5778 12.035 87.5778 12.267V14H87.1587V12.2955C87.1587 12.0812 87.1031 11.9143 86.9918 11.7947C86.8806 11.674 86.7279 11.6136 86.5337 11.6136C86.4 11.6136 86.2804 11.6426 86.1751 11.7006C86.0709 11.7586 85.9886 11.8433 85.9283 11.9545C85.8679 12.0658 85.8377 12.2008 85.8377 12.3594Z" fill="#FFF0D1"/>
<path d="M86.9615 19.3636V23H86.5211V19.8253H86.4998L85.612 20.4148V19.9673L86.5211 19.3636H86.9615ZM89.861 22.3182V22.1264C89.861 21.9938 89.8882 21.8725 89.9426 21.7624C89.9983 21.6512 90.0788 21.5624 90.1841 21.4961C90.2907 21.4286 90.4197 21.3949 90.5712 21.3949C90.7251 21.3949 90.8541 21.4286 90.9583 21.4961C91.0624 21.5624 91.1412 21.6512 91.1944 21.7624C91.2477 21.8725 91.2743 21.9938 91.2743 22.1264V22.3182C91.2743 22.4508 91.2471 22.5727 91.1926 22.6839C91.1394 22.794 91.0601 22.8828 90.9547 22.9503C90.8506 23.0166 90.7227 23.0497 90.5712 23.0497C90.4173 23.0497 90.2877 23.0166 90.1824 22.9503C90.077 22.8828 89.9971 22.794 89.9426 22.6839C89.8882 22.5727 89.861 22.4508 89.861 22.3182ZM90.2232 22.1264V22.3182C90.2232 22.4283 90.2492 22.5271 90.3013 22.6147C90.3534 22.7011 90.4434 22.7443 90.5712 22.7443C90.6955 22.7443 90.7831 22.7011 90.834 22.6147C90.8861 22.5271 90.9121 22.4283 90.9121 22.3182V22.1264C90.9121 22.0163 90.8873 21.9181 90.8375 21.8317C90.7878 21.7441 90.699 21.7003 90.5712 21.7003C90.4469 21.7003 90.3575 21.7441 90.3031 21.8317C90.2498 21.9181 90.2232 22.0163 90.2232 22.1264ZM88.0499 20.2372V20.0455C88.0499 19.9129 88.0771 19.7915 88.1316 19.6815C88.1872 19.5702 88.2677 19.4814 88.373 19.4151C88.4796 19.3477 88.6086 19.3139 88.7601 19.3139C88.914 19.3139 89.043 19.3477 89.1472 19.4151C89.2514 19.4814 89.3301 19.5702 89.3833 19.6815C89.4366 19.7915 89.4632 19.9129 89.4632 20.0455V20.2372C89.4632 20.3698 89.436 20.4917 89.3816 20.603C89.3283 20.7131 89.249 20.8018 89.1436 20.8693C89.0395 20.9356 88.9116 20.9688 88.7601 20.9688C88.6062 20.9688 88.4766 20.9356 88.3713 20.8693C88.2659 20.8018 88.186 20.7131 88.1316 20.603C88.0771 20.4917 88.0499 20.3698 88.0499 20.2372ZM88.4121 20.0455V20.2372C88.4121 20.3473 88.4382 20.4461 88.4902 20.5337C88.5423 20.6201 88.6323 20.6634 88.7601 20.6634C88.8844 20.6634 88.972 20.6201 89.0229 20.5337C89.075 20.4461 89.101 20.3473 89.101 20.2372V20.0455C89.101 19.9354 89.0762 19.8371 89.0265 19.7507C88.9767 19.6631 88.888 19.6193 88.7601 19.6193C88.6358 19.6193 88.5465 19.6631 88.492 19.7507C88.4387 19.8371 88.4121 19.9354 88.4121 20.0455ZM88.1848 23L90.6848 19.3636H91.0897L88.5897 23H88.1848ZM81.665 29V25.3636H82.9363C83.1896 25.3636 83.3985 25.4074 83.563 25.495C83.7276 25.5814 83.8501 25.698 83.9306 25.8448C84.0111 25.9904 84.0513 26.152 84.0513 26.3295C84.0513 26.4858 84.0235 26.6148 83.9679 26.7166C83.9134 26.8184 83.8412 26.8989 83.7512 26.9581C83.6625 27.0173 83.566 27.0611 83.4618 27.0895V27.125C83.5731 27.1321 83.685 27.1712 83.7974 27.2422C83.9099 27.3132 84.004 27.415 84.0797 27.5476C84.1555 27.6802 84.1934 27.8423 84.1934 28.0341C84.1934 28.2164 84.1519 28.3803 84.0691 28.5259C83.9862 28.6715 83.8554 28.7869 83.6767 28.8722C83.4979 28.9574 83.2653 29 82.9789 29H81.665ZM82.1053 28.6094H82.9789C83.2665 28.6094 83.4707 28.5537 83.5914 28.4425C83.7134 28.33 83.7743 28.1939 83.7743 28.0341C83.7743 27.911 83.743 27.7973 83.6802 27.6932C83.6175 27.5878 83.5281 27.5038 83.4121 27.4411C83.2961 27.3771 83.1588 27.3452 83.0002 27.3452H82.1053V28.6094ZM82.1053 26.9616H82.9221C83.0546 26.9616 83.1742 26.9356 83.2807 26.8835C83.3884 26.8314 83.4737 26.758 83.5364 26.6634C83.6003 26.5687 83.6323 26.4574 83.6323 26.3295C83.6323 26.1697 83.5766 26.0342 83.4654 25.9229C83.3541 25.8105 83.1777 25.7543 82.9363 25.7543H82.1053V26.9616ZM85.2791 25.3636V29H84.8601V25.3636H85.2791ZM86.8492 29.0639C86.6763 29.0639 86.5195 29.0314 86.3786 28.9663C86.2378 28.9 86.1259 28.8047 86.0431 28.6804C85.9602 28.5549 85.9188 28.4034 85.9188 28.2259C85.9188 28.0696 85.9495 27.9429 86.0111 27.8459C86.0727 27.7476 86.1549 27.6707 86.2579 27.6151C86.3609 27.5594 86.4745 27.518 86.5988 27.4908C86.7243 27.4624 86.8503 27.4399 86.977 27.4233C87.1427 27.402 87.2771 27.386 87.3801 27.3754C87.4842 27.3635 87.56 27.344 87.6073 27.3168C87.6559 27.2895 87.6801 27.2422 87.6801 27.1747V27.1605C87.6801 26.9853 87.6322 26.8492 87.5363 26.7521C87.4416 26.6551 87.2978 26.6065 87.1048 26.6065C86.9048 26.6065 86.748 26.6503 86.6343 26.7379C86.5207 26.8255 86.4408 26.919 86.3946 27.0185L85.9969 26.8764C86.0679 26.7107 86.1626 26.5817 86.281 26.4893C86.4005 26.3958 86.5307 26.3307 86.6716 26.294C86.8137 26.2562 86.9533 26.2372 87.0906 26.2372C87.1782 26.2372 87.2789 26.2479 87.3925 26.2692C87.5073 26.2893 87.618 26.3313 87.7245 26.3952C87.8322 26.4592 87.9216 26.5556 87.9926 26.6847C88.0637 26.8137 88.0992 26.9865 88.0992 27.2031V29H87.6801V28.6307H87.6588C87.6304 28.6899 87.5831 28.7532 87.5168 28.8207C87.4505 28.8881 87.3623 28.9455 87.2522 28.9929C87.1421 29.0402 87.0078 29.0639 86.8492 29.0639ZM86.9131 28.6875C87.0788 28.6875 87.2185 28.6549 87.3321 28.5898C87.4469 28.5247 87.5334 28.4407 87.5914 28.3377C87.6505 28.2347 87.6801 28.1264 87.6801 28.0128V27.6293C87.6624 27.6506 87.6233 27.6701 87.5629 27.6879C87.5038 27.7044 87.4351 27.7192 87.357 27.7322C87.28 27.7441 87.2049 27.7547 87.1315 27.7642C87.0593 27.7725 87.0007 27.7796 86.9557 27.7855C86.8468 27.7997 86.745 27.8228 86.6503 27.8548C86.5568 27.8855 86.481 27.9323 86.423 27.995C86.3662 28.0566 86.3378 28.1406 86.3378 28.2472C86.3378 28.3928 86.3917 28.5028 86.4994 28.5774C86.6083 28.6508 86.7462 28.6875 86.9131 28.6875ZM89.9719 29.0568C89.7163 29.0568 89.4961 28.9964 89.3114 28.8757C89.1268 28.755 88.9847 28.5887 88.8853 28.3768C88.7859 28.1649 88.7362 27.9228 88.7362 27.6506C88.7362 27.3736 88.7871 27.1291 88.8888 26.9173C88.9918 26.7042 89.1351 26.5379 89.3185 26.4183C89.5032 26.2976 89.7186 26.2372 89.9648 26.2372C90.1566 26.2372 90.3294 26.2727 90.4833 26.3438C90.6372 26.4148 90.7633 26.5142 90.8615 26.642C90.9598 26.7699 91.0207 26.919 91.0444 27.0895H90.6254C90.5934 26.9652 90.5224 26.8551 90.4123 26.7592C90.3034 26.6622 90.1566 26.6136 89.9719 26.6136C89.8086 26.6136 89.6654 26.6562 89.5423 26.7415C89.4203 26.8255 89.325 26.9445 89.2564 27.0984C89.1889 27.2511 89.1552 27.4304 89.1552 27.6364C89.1552 27.8471 89.1883 28.0305 89.2546 28.1868C89.3221 28.343 89.4168 28.4644 89.5387 28.5508C89.6618 28.6372 89.8062 28.6804 89.9719 28.6804C90.0808 28.6804 90.1797 28.6615 90.2685 28.6236C90.3572 28.5857 90.4324 28.5312 90.494 28.4602C90.5555 28.3892 90.5993 28.304 90.6254 28.2045H91.0444C91.0207 28.3655 90.9621 28.5105 90.8686 28.6396C90.7763 28.7674 90.6538 28.8692 90.5011 28.945C90.3496 29.0195 90.1732 29.0568 89.9719 29.0568ZM92.0476 28.0057L92.0405 27.4872H92.1257L93.3189 26.2727H93.8374L92.5661 27.5582H92.5305L92.0476 28.0057ZM91.657 29V25.3636H92.076V29H91.657ZM93.3899 29L92.3246 27.6506L92.6229 27.3594L93.9226 29H93.3899ZM95.6622 25.1932L94.4903 29.5469H94.1068L95.2787 25.1932H95.6622ZM80.7081 35H80.2465L81.5817 31.3636H82.0363L83.3715 35H82.9098L81.8232 31.9389H81.7948L80.7081 35ZM80.8786 33.5795H82.7394V33.9702H80.8786V33.5795ZM85.0956 32.2727V32.6278H83.6254V32.2727H85.0956ZM84.0657 35V31.8963C84.0657 31.7401 84.1024 31.6098 84.1758 31.5057C84.2492 31.4015 84.3445 31.3234 84.4617 31.2713C84.5789 31.2192 84.7026 31.1932 84.8328 31.1932C84.9358 31.1932 85.0198 31.2015 85.0849 31.218C85.15 31.2346 85.1986 31.25 85.2305 31.2642L85.1098 31.6264C85.0885 31.6193 85.0589 31.6104 85.021 31.5998C84.9843 31.5891 84.9358 31.5838 84.8754 31.5838C84.7369 31.5838 84.6369 31.6187 84.5753 31.6886C84.515 31.7584 84.4848 31.8608 84.4848 31.9957V35H84.0657ZM85.6828 35V32.2727H86.0877V32.6847H86.1161C86.1658 32.5497 86.2558 32.4402 86.386 32.3562C86.5162 32.2721 86.663 32.2301 86.8263 32.2301C86.8571 32.2301 86.8956 32.2307 86.9417 32.2319C86.9879 32.2331 87.0228 32.2348 87.0465 32.2372V32.6634C87.0323 32.6598 86.9997 32.6545 86.9488 32.6474C86.8991 32.6391 86.8464 32.6349 86.7908 32.6349C86.6582 32.6349 86.5398 32.6628 86.4357 32.7184C86.3327 32.7728 86.251 32.8486 86.1907 32.9457C86.1315 33.0415 86.1019 33.151 86.1019 33.2741V35H85.6828ZM87.5432 35V32.2727H87.9622V35H87.5432ZM87.7563 31.8182C87.6746 31.8182 87.6042 31.7904 87.545 31.7347C87.487 31.6791 87.458 31.6122 87.458 31.5341C87.458 31.456 87.487 31.3891 87.545 31.3335C87.6042 31.2778 87.6746 31.25 87.7563 31.25C87.8379 31.25 87.9078 31.2778 87.9658 31.3335C88.025 31.3891 88.0546 31.456 88.0546 31.5341C88.0546 31.6122 88.025 31.6791 87.9658 31.7347C87.9078 31.7904 87.8379 31.8182 87.7563 31.8182ZM89.8377 35.0568C89.582 35.0568 89.3618 34.9964 89.1772 34.8757C88.9925 34.755 88.8505 34.5887 88.751 34.3768C88.6516 34.1649 88.6019 33.9228 88.6019 33.6506C88.6019 33.3736 88.6528 33.1291 88.7546 32.9173C88.8576 32.7042 89.0008 32.5379 89.1843 32.4183C89.3689 32.2976 89.5844 32.2372 89.8306 32.2372C90.0223 32.2372 90.1951 32.2727 90.349 32.3438C90.5029 32.4148 90.629 32.5142 90.7272 32.642C90.8255 32.7699 90.8864 32.919 90.9101 33.0895H90.4911C90.4591 32.9652 90.3881 32.8551 90.278 32.7592C90.1691 32.6622 90.0223 32.6136 89.8377 32.6136C89.6743 32.6136 89.5311 32.6562 89.408 32.7415C89.2861 32.8255 89.1908 32.9445 89.1221 33.0984C89.0546 33.2511 89.0209 33.4304 89.0209 33.6364C89.0209 33.8471 89.0541 34.0305 89.1203 34.1868C89.1878 34.343 89.2825 34.4644 89.4044 34.5508C89.5275 34.6372 89.6719 34.6804 89.8377 34.6804C89.9466 34.6804 90.0454 34.6615 90.1342 34.6236C90.223 34.5857 90.2981 34.5312 90.3597 34.4602C90.4212 34.3892 90.465 34.304 90.4911 34.2045H90.9101C90.8864 34.3655 90.8278 34.5105 90.7343 34.6396C90.642 34.7674 90.5195 34.8692 90.3668 34.945C90.2153 35.0195 90.0389 35.0568 89.8377 35.0568ZM92.3252 35.0639C92.1524 35.0639 91.9956 35.0314 91.8547 34.9663C91.7139 34.9 91.602 34.8047 91.5191 34.6804C91.4363 34.5549 91.3948 34.4034 91.3948 34.2259C91.3948 34.0696 91.4256 33.9429 91.4872 33.8459C91.5487 33.7476 91.631 33.6707 91.734 33.6151C91.837 33.5594 91.9506 33.518 92.0749 33.4908C92.2004 33.4624 92.3264 33.4399 92.4531 33.4233C92.6188 33.402 92.7532 33.386 92.8561 33.3754C92.9603 33.3635 93.0361 33.344 93.0834 33.3168C93.1319 33.2895 93.1562 33.2422 93.1562 33.1747V33.1605C93.1562 32.9853 93.1083 32.8492 93.0124 32.7521C92.9177 32.6551 92.7739 32.6065 92.5809 32.6065C92.3809 32.6065 92.224 32.6503 92.1104 32.7379C91.9968 32.8255 91.9169 32.919 91.8707 33.0185L91.473 32.8764C91.544 32.7107 91.6387 32.5817 91.7571 32.4893C91.8766 32.3958 92.0068 32.3307 92.1477 32.294C92.2897 32.2562 92.4294 32.2372 92.5667 32.2372C92.6543 32.2372 92.7549 32.2479 92.8686 32.2692C92.9834 32.2893 93.0941 32.3313 93.2006 32.3952C93.3083 32.4592 93.3977 32.5556 93.4687 32.6847C93.5397 32.8137 93.5752 32.9865 93.5752 33.2031V35H93.1562V34.6307H93.1349C93.1065 34.6899 93.0591 34.7532 92.9929 34.8207C92.9266 34.8881 92.8384 34.9455 92.7283 34.9929C92.6182 35.0402 92.4839 35.0639 92.3252 35.0639ZM92.3892 34.6875C92.5549 34.6875 92.6946 34.6549 92.8082 34.5898C92.923 34.5247 93.0094 34.4407 93.0674 34.3377C93.1266 34.2347 93.1562 34.1264 93.1562 34.0128V33.6293C93.1384 33.6506 93.0994 33.6701 93.039 33.6879C92.9798 33.7044 92.9112 33.7192 92.8331 33.7322C92.7561 33.7441 92.6809 33.7547 92.6076 33.7642C92.5353 33.7725 92.4768 33.7796 92.4318 33.7855C92.3229 33.7997 92.2211 33.8228 92.1264 33.8548C92.0329 33.8855 91.9571 33.9323 91.8991 33.995C91.8423 34.0566 91.8139 34.1406 91.8139 34.2472C91.8139 34.3928 91.8677 34.5028 91.9755 34.5774C92.0844 34.6508 92.2223 34.6875 92.3892 34.6875ZM94.7591 33.3594V35H94.3401V32.2727H94.7449V32.6989H94.7804C94.8443 32.5604 94.9414 32.4491 95.0716 32.3651C95.2018 32.2798 95.3699 32.2372 95.5759 32.2372C95.7605 32.2372 95.9221 32.2751 96.0606 32.3509C96.1991 32.4254 96.3068 32.5391 96.3837 32.6918C96.4607 32.8433 96.4992 33.035 96.4992 33.267V35H96.0801V33.2955C96.0801 33.0812 96.0245 32.9143 95.9132 32.7947C95.802 32.674 95.6493 32.6136 95.4551 32.6136C95.3214 32.6136 95.2018 32.6426 95.0965 32.7006C94.9923 32.7586 94.91 32.8433 94.8497 32.9545C94.7893 33.0658 94.7591 33.2008 94.7591 33.3594ZM77.9811 41H77.5194L78.8547 37.3636H79.3092L80.6444 41H80.1828L79.0961 37.9389H79.0677L77.9811 41ZM78.1515 39.5795H80.0123V39.9702H78.1515V39.5795ZM81.154 41V38.2727H81.5589V38.6989H81.5944C81.6512 38.5533 81.7429 38.4402 81.8696 38.3597C81.9962 38.2781 82.1483 38.2372 82.3259 38.2372C82.5058 38.2372 82.6556 38.2781 82.7751 38.3597C82.8959 38.4402 82.99 38.5533 83.0574 38.6989H83.0858C83.1557 38.558 83.2604 38.4461 83.4001 38.3633C83.5398 38.2792 83.7073 38.2372 83.9026 38.2372C84.1465 38.2372 84.3459 38.3136 84.501 38.4663C84.656 38.6178 84.7336 38.8539 84.7336 39.1747V41H84.3145V39.1747C84.3145 38.9735 84.2595 38.8297 84.1494 38.7433C84.0393 38.6568 83.9097 38.6136 83.7606 38.6136C83.5688 38.6136 83.4202 38.6716 83.3149 38.7876C83.2095 38.9025 83.1569 39.0481 83.1569 39.2244V41H82.7307V39.1321C82.7307 38.977 82.6804 38.8522 82.5798 38.7575C82.4792 38.6616 82.3496 38.6136 82.191 38.6136C82.0821 38.6136 81.9803 38.6426 81.8856 38.7006C81.7921 38.7586 81.7163 38.8391 81.6583 38.9421C81.6015 39.0439 81.5731 39.1617 81.5731 39.2955V41H81.154ZM86.6432 41.0568C86.3804 41.0568 86.1537 40.9988 85.9632 40.8828C85.7738 40.7656 85.6276 40.6023 85.5246 40.3928C85.4228 40.1821 85.3719 39.937 85.3719 39.6577C85.3719 39.3783 85.4228 39.1321 85.5246 38.919C85.6276 38.7048 85.7708 38.5379 85.9543 38.4183C86.1389 38.2976 86.3544 38.2372 86.6006 38.2372C86.7426 38.2372 86.8829 38.2609 87.0214 38.3082C87.1599 38.3556 87.286 38.4325 87.3996 38.5391C87.5132 38.6444 87.6038 38.7841 87.6713 38.9581C87.7387 39.1321 87.7725 39.3464 87.7725 39.6009V39.7784H85.6702V39.4162H87.3463C87.3463 39.2623 87.3155 39.125 87.254 39.0043C87.1936 38.8835 87.1072 38.7882 86.9948 38.7184C86.8835 38.6486 86.7521 38.6136 86.6006 38.6136C86.4337 38.6136 86.2893 38.6551 86.1673 38.7379C86.0466 38.8196 85.9537 38.9261 85.8886 39.0575C85.8235 39.1889 85.7909 39.3298 85.7909 39.4801V39.7216C85.7909 39.9276 85.8264 40.1022 85.8975 40.2454C85.9697 40.3874 86.0697 40.4957 86.1975 40.5703C86.3254 40.6437 86.4739 40.6804 86.6432 40.6804C86.7533 40.6804 86.8527 40.665 86.9415 40.6342C87.0315 40.6023 87.109 40.5549 87.1741 40.4922C87.2392 40.4283 87.2895 40.349 87.325 40.2543L87.7298 40.3679C87.6872 40.5052 87.6156 40.6259 87.515 40.7301C87.4144 40.8331 87.2901 40.9136 87.1421 40.9716C86.9942 41.0284 86.8279 41.0568 86.6432 41.0568ZM88.4099 41V38.2727H88.8147V38.6847H88.8431C88.8928 38.5497 88.9828 38.4402 89.113 38.3562C89.2432 38.2721 89.39 38.2301 89.5534 38.2301C89.5841 38.2301 89.6226 38.2307 89.6688 38.2319C89.7149 38.2331 89.7499 38.2348 89.7735 38.2372V38.6634C89.7593 38.6598 89.7268 38.6545 89.6759 38.6474C89.6262 38.6391 89.5735 38.6349 89.5178 38.6349C89.3853 38.6349 89.2669 38.6628 89.1627 38.7184C89.0597 38.7728 88.9781 38.8486 88.9177 38.9457C88.8585 39.0415 88.8289 39.151 88.8289 39.2741V41H88.4099ZM90.2702 41V38.2727H90.6893V41H90.2702ZM90.4833 37.8182C90.4016 37.8182 90.3312 37.7904 90.272 37.7347C90.214 37.6791 90.185 37.6122 90.185 37.5341C90.185 37.456 90.214 37.3891 90.272 37.3335C90.3312 37.2778 90.4016 37.25 90.4833 37.25C90.565 37.25 90.6348 37.2778 90.6928 37.3335C90.752 37.3891 90.7816 37.456 90.7816 37.5341C90.7816 37.6122 90.752 37.6791 90.6928 37.7347C90.6348 37.7904 90.565 37.8182 90.4833 37.8182ZM92.5647 41.0568C92.309 41.0568 92.0889 40.9964 91.9042 40.8757C91.7195 40.755 91.5775 40.5887 91.4781 40.3768C91.3786 40.1649 91.3289 39.9228 91.3289 39.6506C91.3289 39.3736 91.3798 39.1291 91.4816 38.9173C91.5846 38.7042 91.7278 38.5379 91.9113 38.4183C92.096 38.2976 92.3114 38.2372 92.5576 38.2372C92.7494 38.2372 92.9222 38.2727 93.0761 38.3438C93.23 38.4148 93.356 38.5142 93.4543 38.642C93.5525 38.7699 93.6135 38.919 93.6372 39.0895H93.2181C93.1862 38.9652 93.1151 38.8551 93.0051 38.7592C92.8962 38.6622 92.7494 38.6136 92.5647 38.6136C92.4014 38.6136 92.2581 38.6562 92.135 38.7415C92.0131 38.8255 91.9178 38.9445 91.8492 39.0984C91.7817 39.2511 91.748 39.4304 91.748 39.6364C91.748 39.8471 91.7811 40.0305 91.8474 40.1868C91.9149 40.343 92.0096 40.4644 92.1315 40.5508C92.2546 40.6372 92.399 40.6804 92.5647 40.6804C92.6736 40.6804 92.7725 40.6615 92.8612 40.6236C92.95 40.5857 93.0252 40.5312 93.0867 40.4602C93.1483 40.3892 93.1921 40.304 93.2181 40.2045H93.6372C93.6135 40.3655 93.5549 40.5105 93.4614 40.6396C93.3691 40.7674 93.2465 40.8692 93.0938 40.945C92.9423 41.0195 92.766 41.0568 92.5647 41.0568ZM95.0523 41.0639C94.8795 41.0639 94.7226 41.0314 94.5818 40.9663C94.4409 40.9 94.329 40.8047 94.2462 40.6804C94.1633 40.5549 94.1219 40.4034 94.1219 40.2259C94.1219 40.0696 94.1527 39.9429 94.2142 39.8459C94.2758 39.7476 94.358 39.6707 94.461 39.6151C94.564 39.5594 94.6776 39.518 94.8019 39.4908C94.9274 39.4624 95.0535 39.4399 95.1801 39.4233C95.3459 39.402 95.4802 39.386 95.5832 39.3754C95.6874 39.3635 95.7631 39.344 95.8105 39.3168C95.859 39.2895 95.8833 39.2422 95.8833 39.1747V39.1605C95.8833 38.9853 95.8353 38.8492 95.7394 38.7521C95.6447 38.6551 95.5009 38.6065 95.308 38.6065C95.1079 38.6065 94.9511 38.6503 94.8374 38.7379C94.7238 38.8255 94.6439 38.919 94.5977 39.0185L94.2 38.8764C94.271 38.7107 94.3657 38.5817 94.4841 38.4893C94.6037 38.3958 94.7339 38.3307 94.8747 38.294C95.0168 38.2562 95.1565 38.2372 95.2938 38.2372C95.3814 38.2372 95.482 38.2479 95.5956 38.2692C95.7104 38.2893 95.8211 38.3313 95.9276 38.3952C96.0354 38.4592 96.1247 38.5556 96.1958 38.6847C96.2668 38.8137 96.3023 38.9865 96.3023 39.2031V41H95.8833V40.6307H95.8619C95.8335 40.6899 95.7862 40.7532 95.7199 40.8207C95.6536 40.8881 95.5654 40.9455 95.4553 40.9929C95.3453 41.0402 95.2109 41.0639 95.0523 41.0639ZM95.1162 40.6875C95.2819 40.6875 95.4216 40.6549 95.5352 40.5898C95.6501 40.5247 95.7365 40.4407 95.7945 40.3377C95.8537 40.2347 95.8833 40.1264 95.8833 40.0128V39.6293C95.8655 39.6506 95.8264 39.6701 95.7661 39.6879C95.7069 39.7044 95.6382 39.7192 95.5601 39.7322C95.4832 39.7441 95.408 39.7547 95.3346 39.7642C95.2624 39.7725 95.2038 39.7796 95.1588 39.7855C95.0499 39.7997 94.9481 39.8228 94.8534 39.8548C94.7599 39.8855 94.6842 39.9323 94.6262 39.995C94.5693 40.0566 94.5409 40.1406 94.5409 40.2472C94.5409 40.3928 94.5948 40.5028 94.7025 40.5774C94.8114 40.6508 94.9493 40.6875 95.1162 40.6875ZM97.4862 39.3594V41H97.0671V38.2727H97.4719V38.6989H97.5075C97.5714 38.5604 97.6684 38.4491 97.7987 38.3651C97.9289 38.2798 98.0969 38.2372 98.3029 38.2372C98.4876 38.2372 98.6491 38.2751 98.7876 38.3509C98.9261 38.4254 99.0339 38.5391 99.1108 38.6918C99.1877 38.8433 99.2262 39.035 99.2262 39.267V41H98.8072V39.2955C98.8072 39.0812 98.7515 38.9143 98.6403 38.7947C98.529 38.674 98.3763 38.6136 98.1822 38.6136C98.0484 38.6136 97.9289 38.6426 97.8235 38.7006C97.7193 38.7586 97.6371 38.8433 97.5767 38.9545C97.5163 39.0658 97.4862 39.2008 97.4862 39.3594Z" fill="#511730"/>
</g>
<defs>
<clipPath id="clip0_37_8">
<rect width="180" height="180" fill="white"/>
</clipPath>
</defs>
</svg>
