<svg width="180" height="180" viewBox="0 0 180 180" fill="none" xmlns="http://www.w3.org/2000/svg">
<g clip-path="url(#clip0_37_20)">
<path d="M90.0001 0C110.668 0 130.707 7.11366 146.748 20.1457C162.79 33.1778 173.858 51.3341 178.092 71.5641C182.325 91.794 179.467 112.865 169.998 131.236C160.528 149.607 145.024 164.159 126.09 172.447C107.156 180.735 85.9471 182.254 66.0257 176.748C46.1043 171.242 28.6848 159.048 16.6942 142.213C4.70354 125.379 -1.1276 104.931 0.180525 84.3038C1.48865 63.677 9.85631 44.129 23.8776 28.9442L90.0001 90V0Z" fill="#FFF0D1"/>
<path d="M23.8774 28.9441C27.7553 24.7444 32.0244 20.9238 36.6269 17.5339L90 89.9999L23.8774 28.9441Z" fill="#8F443D"/>
<path d="M36.627 17.5341C41.2295 14.1442 46.1445 11.2005 51.3053 8.74292L90 90L36.627 17.5341Z" fill="#822E15"/>
<path d="M51.3053 8.74283C61.6505 3.81644 72.8413 0.910834 84.2763 0.182129L90 89.9999L51.3053 8.74283Z" fill="#DE6B48"/>
<path d="M84.2764 0.182185C86.1766 0.0610913 88.0802 0.000332329 89.9843 0L90 90L84.2764 0.182185Z" fill="#511730"/>
<path d="M106.255 103.08C105.865 103.08 105.52 103.01 105.221 102.872C104.924 102.732 104.692 102.54 104.525 102.295C104.358 102.049 104.276 101.769 104.278 101.455C104.276 101.208 104.324 100.981 104.423 100.773C104.521 100.562 104.656 100.387 104.826 100.247C104.998 100.105 105.191 100.015 105.403 99.9773V99.9432C105.124 99.8712 104.903 99.715 104.738 99.4744C104.573 99.232 104.492 98.9564 104.494 98.6477C104.492 98.3523 104.567 98.0881 104.718 97.8551C104.87 97.6222 105.078 97.4384 105.343 97.304C105.61 97.1695 105.914 97.1023 106.255 97.1023C106.592 97.1023 106.893 97.1695 107.158 97.304C107.424 97.4384 107.632 97.6222 107.783 97.8551C107.937 98.0881 108.014 98.3523 108.016 98.6477C108.014 98.9564 107.93 99.232 107.763 99.4744C107.599 99.715 107.38 99.8712 107.107 99.9432V99.9773C107.317 100.015 107.507 100.105 107.675 100.247C107.844 100.387 107.978 100.562 108.079 100.773C108.179 100.981 108.23 101.208 108.232 101.455C108.23 101.769 108.145 102.049 107.977 102.295C107.81 102.54 107.578 102.732 107.281 102.872C106.985 103.01 106.643 103.08 106.255 103.08ZM106.255 102.455C106.518 102.455 106.746 102.412 106.937 102.327C107.128 102.241 107.276 102.121 107.38 101.966C107.484 101.811 107.537 101.629 107.539 101.42C107.537 101.201 107.48 101.007 107.369 100.838C107.257 100.67 107.104 100.537 106.911 100.44C106.72 100.344 106.501 100.295 106.255 100.295C106.007 100.295 105.785 100.344 105.59 100.44C105.397 100.537 105.245 100.67 105.133 100.838C105.023 101.007 104.969 101.201 104.971 101.42C104.969 101.629 105.019 101.811 105.121 101.966C105.226 102.121 105.374 102.241 105.567 102.327C105.761 102.412 105.99 102.455 106.255 102.455ZM106.255 99.6932C106.463 99.6932 106.648 99.6515 106.809 99.5682C106.972 99.4848 107.1 99.3684 107.192 99.2188C107.285 99.0691 107.333 98.8939 107.335 98.6932C107.333 98.4962 107.286 98.3248 107.195 98.179C107.104 98.0312 106.978 97.9176 106.817 97.8381C106.656 97.7566 106.469 97.7159 106.255 97.7159C106.037 97.7159 105.847 97.7566 105.684 97.8381C105.521 97.9176 105.395 98.0312 105.306 98.179C105.217 98.3248 105.174 98.4962 105.175 98.6932C105.174 98.8939 105.218 99.0691 105.309 99.2188C105.402 99.3684 105.53 99.4848 105.692 99.5682C105.855 99.6515 106.043 99.6932 106.255 99.6932ZM111.253 103.08C111.014 103.076 110.776 103.03 110.537 102.943C110.298 102.856 110.08 102.709 109.884 102.503C109.687 102.295 109.528 102.013 109.409 101.659C109.29 101.303 109.23 100.856 109.23 100.318C109.23 99.803 109.278 99.3466 109.375 98.9489C109.472 98.5492 109.612 98.2131 109.795 97.9403C109.979 97.6657 110.201 97.4574 110.46 97.3153C110.722 97.1733 111.016 97.1023 111.344 97.1023C111.67 97.1023 111.959 97.1676 112.213 97.2983C112.469 97.4271 112.677 97.607 112.838 97.8381C112.999 98.0691 113.103 98.3352 113.151 98.6364H112.457C112.393 98.375 112.268 98.1581 112.082 97.9858C111.897 97.8134 111.651 97.7273 111.344 97.7273C110.893 97.7273 110.538 97.9233 110.278 98.3153C110.021 98.7074 109.891 99.2576 109.889 99.9659H109.935C110.041 99.8049 110.167 99.6676 110.312 99.554C110.46 99.4384 110.623 99.3494 110.801 99.2869C110.979 99.2244 111.168 99.1932 111.366 99.1932C111.7 99.1932 112.005 99.2765 112.281 99.4432C112.558 99.608 112.779 99.8362 112.946 100.128C113.113 100.418 113.196 100.75 113.196 101.125C113.196 101.485 113.116 101.814 112.955 102.114C112.794 102.411 112.567 102.648 112.276 102.824C111.986 102.998 111.645 103.083 111.253 103.08ZM111.253 102.455C111.491 102.455 111.705 102.395 111.895 102.276C112.086 102.156 112.237 101.996 112.347 101.795C112.458 101.595 112.514 101.371 112.514 101.125C112.514 100.884 112.46 100.666 112.352 100.469C112.246 100.27 112.099 100.112 111.912 99.9943C111.726 99.8769 111.514 99.8182 111.276 99.8182C111.096 99.8182 110.928 99.8542 110.773 99.9261C110.617 99.9962 110.481 100.093 110.364 100.216C110.248 100.339 110.157 100.48 110.091 100.639C110.025 100.796 109.991 100.962 109.991 101.136C109.991 101.367 110.045 101.583 110.153 101.784C110.263 101.985 110.413 102.147 110.602 102.27C110.794 102.393 111.01 102.455 111.253 102.455ZM117.279 101.909V101.602C117.279 101.39 117.323 101.196 117.41 101.02C117.499 100.842 117.628 100.7 117.796 100.594C117.967 100.486 118.173 100.432 118.415 100.432C118.662 100.432 118.868 100.486 119.035 100.594C119.201 100.7 119.327 100.842 119.413 101.02C119.498 101.196 119.54 101.39 119.54 101.602V101.909C119.54 102.121 119.497 102.316 119.41 102.494C119.325 102.67 119.198 102.812 119.029 102.92C118.862 103.027 118.658 103.08 118.415 103.08C118.169 103.08 117.962 103.027 117.793 102.92C117.625 102.812 117.497 102.67 117.41 102.494C117.323 102.316 117.279 102.121 117.279 101.909ZM117.859 101.602V101.909C117.859 102.085 117.9 102.243 117.984 102.384C118.067 102.522 118.211 102.591 118.415 102.591C118.614 102.591 118.754 102.522 118.836 102.384C118.919 102.243 118.961 102.085 118.961 101.909V101.602C118.961 101.426 118.921 101.269 118.842 101.131C118.762 100.991 118.62 100.92 118.415 100.92C118.217 100.92 118.074 100.991 117.987 101.131C117.901 101.269 117.859 101.426 117.859 101.602ZM114.381 98.5795V98.2727C114.381 98.0606 114.425 97.8665 114.512 97.6903C114.601 97.5123 114.73 97.3703 114.898 97.2642C115.069 97.1562 115.275 97.1023 115.518 97.1023C115.764 97.1023 115.97 97.1562 116.137 97.2642C116.304 97.3703 116.43 97.5123 116.515 97.6903C116.6 97.8665 116.643 98.0606 116.643 98.2727V98.5795C116.643 98.7917 116.599 98.9867 116.512 99.1648C116.427 99.3409 116.3 99.483 116.131 99.5909C115.965 99.697 115.76 99.75 115.518 99.75C115.272 99.75 115.064 99.697 114.896 99.5909C114.727 99.483 114.599 99.3409 114.512 99.1648C114.425 98.9867 114.381 98.7917 114.381 98.5795ZM114.961 98.2727V98.5795C114.961 98.7557 115.003 98.9138 115.086 99.054C115.169 99.1922 115.313 99.2614 115.518 99.2614C115.717 99.2614 115.857 99.1922 115.938 99.054C116.022 98.9138 116.063 98.7557 116.063 98.5795V98.2727C116.063 98.0966 116.023 97.9394 115.944 97.8011C115.864 97.661 115.722 97.5909 115.518 97.5909C115.319 97.5909 115.176 97.661 115.089 97.8011C115.004 97.9394 114.961 98.0966 114.961 98.2727ZM114.597 103L118.597 97.1818H119.245L115.245 103H114.597ZM102.894 113L101.303 107.182H102.019L103.235 111.92H103.292L104.531 107.182H105.326L106.565 111.92H106.621L107.837 107.182H108.553L106.962 113H106.235L104.951 108.364H104.906L103.621 113H102.894ZM110.011 110.375V113H109.34V107.182H110.011V109.318H110.067C110.17 109.093 110.323 108.914 110.528 108.781C110.734 108.647 111.009 108.58 111.352 108.58C111.649 108.58 111.909 108.639 112.133 108.759C112.356 108.876 112.53 109.057 112.653 109.301C112.778 109.544 112.84 109.852 112.84 110.227V113H112.17V110.273C112.17 109.926 112.08 109.658 111.9 109.469C111.722 109.277 111.475 109.182 111.158 109.182C110.939 109.182 110.742 109.228 110.567 109.321C110.395 109.414 110.259 109.549 110.158 109.727C110.06 109.905 110.011 110.121 110.011 110.375ZM114.067 113V108.636H114.737V113H114.067ZM114.408 107.909C114.277 107.909 114.164 107.865 114.07 107.776C113.977 107.687 113.93 107.58 113.93 107.455C113.93 107.33 113.977 107.223 114.07 107.134C114.164 107.045 114.277 107 114.408 107C114.538 107 114.65 107.045 114.743 107.134C114.838 107.223 114.885 107.33 114.885 107.455C114.885 107.58 114.838 107.687 114.743 107.776C114.65 107.865 114.538 107.909 114.408 107.909ZM117.863 108.636V109.205H115.602V108.636H117.863ZM116.261 107.591H116.931V111.75C116.931 111.939 116.959 112.081 117.013 112.176C117.07 112.269 117.142 112.331 117.229 112.364C117.318 112.394 117.412 112.409 117.511 112.409C117.585 112.409 117.645 112.405 117.692 112.398C117.74 112.388 117.778 112.381 117.806 112.375L117.942 112.977C117.897 112.994 117.834 113.011 117.752 113.028C117.671 113.047 117.567 113.057 117.442 113.057C117.253 113.057 117.067 113.016 116.886 112.935C116.706 112.853 116.556 112.729 116.437 112.562C116.319 112.396 116.261 112.186 116.261 111.932V107.591ZM120.654 113.091C120.234 113.091 119.871 112.998 119.566 112.812C119.263 112.625 119.029 112.364 118.864 112.028C118.701 111.691 118.62 111.299 118.62 110.852C118.62 110.405 118.701 110.011 118.864 109.67C119.029 109.328 119.258 109.061 119.552 108.869C119.847 108.676 120.192 108.58 120.586 108.58C120.813 108.58 121.038 108.617 121.259 108.693C121.481 108.769 121.683 108.892 121.864 109.062C122.046 109.231 122.191 109.455 122.299 109.733C122.407 110.011 122.461 110.354 122.461 110.761V111.045H119.097V110.466H121.779C121.779 110.22 121.73 110 121.631 109.807C121.535 109.614 121.397 109.461 121.217 109.349C121.039 109.238 120.828 109.182 120.586 109.182C120.319 109.182 120.088 109.248 119.893 109.381C119.7 109.511 119.551 109.682 119.447 109.892C119.343 110.102 119.29 110.328 119.29 110.568V110.955C119.29 111.284 119.347 111.563 119.461 111.793C119.576 112.02 119.737 112.193 119.941 112.312C120.146 112.43 120.383 112.489 120.654 112.489C120.83 112.489 120.989 112.464 121.131 112.415C121.275 112.364 121.399 112.288 121.504 112.188C121.608 112.085 121.688 111.958 121.745 111.807L122.393 111.989C122.325 112.208 122.21 112.402 122.049 112.568C121.888 112.733 121.689 112.862 121.452 112.955C121.216 113.045 120.95 113.091 120.654 113.091Z" fill="#DE6B48"/>
<path d="M38.4821 31.0497C38.2477 31.0497 38.0388 31.0095 37.8553 30.929C37.673 30.8485 37.528 30.7366 37.4203 30.5934C37.3137 30.449 37.2557 30.2815 37.2463 30.0909H37.6937C37.7032 30.2081 37.7434 30.3093 37.8145 30.3945C37.8855 30.4786 37.9784 30.5437 38.0932 30.5898C38.208 30.636 38.3353 30.6591 38.475 30.6591C38.6312 30.6591 38.7697 30.6319 38.8904 30.5774C39.0112 30.523 39.1059 30.4472 39.1745 30.3501C39.2432 30.2531 39.2775 30.1406 39.2775 30.0128C39.2775 29.879 39.2444 29.7612 39.1781 29.6594C39.1118 29.5565 39.0147 29.476 38.8869 29.418C38.7591 29.36 38.6028 29.331 38.4181 29.331H38.127V28.9403H38.4181C38.5626 28.9403 38.6892 28.9143 38.7981 28.8622C38.9082 28.8101 38.994 28.7367 39.0556 28.642C39.1183 28.5473 39.1497 28.4361 39.1497 28.3082C39.1497 28.1851 39.1225 28.078 39.068 27.9869C39.0136 27.8957 38.9366 27.8247 38.8372 27.7738C38.7389 27.7229 38.6229 27.6974 38.4892 27.6974C38.3637 27.6974 38.2453 27.7205 38.1341 27.7667C38.024 27.8117 37.934 27.8774 37.8642 27.9638C37.7943 28.049 37.7565 28.152 37.7505 28.2727H37.3244C37.3315 28.0821 37.3889 27.9152 37.4966 27.772C37.6043 27.6276 37.7452 27.5152 37.9192 27.4347C38.0944 27.3542 38.2868 27.3139 38.4963 27.3139C38.7212 27.3139 38.9141 27.3595 39.0751 27.4506C39.2361 27.5406 39.3598 27.6596 39.4462 27.8075C39.5326 27.9555 39.5758 28.1153 39.5758 28.2869C39.5758 28.4917 39.522 28.6663 39.4142 28.8107C39.3077 28.9551 39.1627 29.0552 38.9792 29.1108V29.1392C39.2089 29.1771 39.3882 29.2747 39.5172 29.4322C39.6462 29.5884 39.7108 29.782 39.7108 30.0128C39.7108 30.2105 39.6569 30.388 39.5492 30.5455C39.4426 30.7017 39.2971 30.8248 39.1124 30.9148C38.9277 31.0047 38.7176 31.0497 38.4821 31.0497ZM42.2907 30.3182V30.1264C42.2907 29.9938 42.3179 29.8725 42.3723 29.7624C42.428 29.6512 42.5085 29.5624 42.6138 29.4961C42.7203 29.4286 42.8494 29.3949 43.0009 29.3949C43.1548 29.3949 43.2838 29.4286 43.388 29.4961C43.4921 29.5624 43.5708 29.6512 43.6241 29.7624C43.6774 29.8725 43.704 29.9938 43.704 30.1264V30.3182C43.704 30.4508 43.6768 30.5727 43.6223 30.6839C43.5691 30.794 43.4898 30.8828 43.3844 30.9503C43.2802 31.0166 43.1524 31.0497 43.0009 31.0497C42.847 31.0497 42.7174 31.0166 42.612 30.9503C42.5067 30.8828 42.4268 30.794 42.3723 30.6839C42.3179 30.5727 42.2907 30.4508 42.2907 30.3182ZM42.6529 30.1264V30.3182C42.6529 30.4283 42.6789 30.5271 42.731 30.6147C42.7831 30.7011 42.873 30.7443 43.0009 30.7443C43.1252 30.7443 43.2128 30.7011 43.2637 30.6147C43.3158 30.5271 43.3418 30.4283 43.3418 30.3182V30.1264C43.3418 30.0163 43.3169 29.9181 43.2672 29.8317C43.2175 29.7441 43.1287 29.7003 43.0009 29.7003C42.8766 29.7003 42.7872 29.7441 42.7328 29.8317C42.6795 29.9181 42.6529 30.0163 42.6529 30.1264ZM40.4796 28.2372V28.0455C40.4796 27.9129 40.5068 27.7915 40.5613 27.6815C40.6169 27.5702 40.6974 27.4814 40.8027 27.4151C40.9093 27.3477 41.0383 27.3139 41.1898 27.3139C41.3437 27.3139 41.4727 27.3477 41.5769 27.4151C41.681 27.4814 41.7598 27.5702 41.813 27.6815C41.8663 27.7915 41.8929 27.9129 41.8929 28.0455V28.2372C41.8929 28.3698 41.8657 28.4917 41.8113 28.603C41.758 28.7131 41.6787 28.8018 41.5733 28.8693C41.4692 28.9356 41.3413 28.9688 41.1898 28.9688C41.0359 28.9688 40.9063 28.9356 40.801 28.8693C40.6956 28.8018 40.6157 28.7131 40.5613 28.603C40.5068 28.4917 40.4796 28.3698 40.4796 28.2372ZM40.8418 28.0455V28.2372C40.8418 28.3473 40.8678 28.4461 40.9199 28.5337C40.972 28.6201 41.062 28.6634 41.1898 28.6634C41.3141 28.6634 41.4017 28.6201 41.4526 28.5337C41.5047 28.4461 41.5307 28.3473 41.5307 28.2372V28.0455C41.5307 27.9354 41.5059 27.8371 41.4561 27.7507C41.4064 27.6631 41.3176 27.6193 41.1898 27.6193C41.0655 27.6193 40.9761 27.6631 40.9217 27.7507C40.8684 27.8371 40.8418 27.9354 40.8418 28.0455ZM40.6145 31L43.1145 27.3636H43.5194L41.0194 31H40.6145ZM33.665 37V33.3636H34.9363C35.1896 33.3636 35.3985 33.4074 35.563 33.495C35.7276 33.5814 35.8501 33.698 35.9306 33.8448C36.0111 33.9904 36.0513 34.152 36.0513 34.3295C36.0513 34.4858 36.0235 34.6148 35.9679 34.7166C35.9134 34.8184 35.8412 34.8989 35.7512 34.9581C35.6625 35.0173 35.566 35.0611 35.4618 35.0895V35.125C35.5731 35.1321 35.685 35.1712 35.7974 35.2422C35.9099 35.3132 36.004 35.415 36.0797 35.5476C36.1555 35.6802 36.1934 35.8423 36.1934 36.0341C36.1934 36.2164 36.1519 36.3803 36.0691 36.5259C35.9862 36.6715 35.8554 36.7869 35.6767 36.8722C35.4979 36.9574 35.2653 37 34.9789 37H33.665ZM34.1053 36.6094H34.9789C35.2665 36.6094 35.4707 36.5537 35.5914 36.4425C35.7134 36.33 35.7743 36.1939 35.7743 36.0341C35.7743 35.911 35.743 35.7973 35.6802 35.6932C35.6175 35.5878 35.5281 35.5038 35.4121 35.4411C35.2961 35.3771 35.1588 35.3452 35.0002 35.3452H34.1053V36.6094ZM34.1053 34.9616H34.9221C35.0546 34.9616 35.1742 34.9356 35.2807 34.8835C35.3884 34.8314 35.4737 34.758 35.5364 34.6634C35.6003 34.5687 35.6323 34.4574 35.6323 34.3295C35.6323 34.1697 35.5766 34.0342 35.4654 33.9229C35.3541 33.8105 35.1777 33.7543 34.9363 33.7543H34.1053V34.9616ZM37.2791 33.3636V37H36.8601V33.3636H37.2791ZM38.8492 37.0639C38.6763 37.0639 38.5195 37.0314 38.3786 36.9663C38.2378 36.9 38.1259 36.8047 38.0431 36.6804C37.9602 36.5549 37.9188 36.4034 37.9188 36.2259C37.9188 36.0696 37.9495 35.9429 38.0111 35.8459C38.0727 35.7476 38.1549 35.6707 38.2579 35.6151C38.3609 35.5594 38.4745 35.518 38.5988 35.4908C38.7243 35.4624 38.8503 35.4399 38.977 35.4233C39.1427 35.402 39.2771 35.386 39.3801 35.3754C39.4842 35.3635 39.56 35.344 39.6073 35.3168C39.6559 35.2895 39.6801 35.2422 39.6801 35.1747V35.1605C39.6801 34.9853 39.6322 34.8492 39.5363 34.7521C39.4416 34.6551 39.2978 34.6065 39.1048 34.6065C38.9048 34.6065 38.748 34.6503 38.6343 34.7379C38.5207 34.8255 38.4408 34.919 38.3946 35.0185L37.9969 34.8764C38.0679 34.7107 38.1626 34.5817 38.281 34.4893C38.4005 34.3958 38.5307 34.3307 38.6716 34.294C38.8137 34.2562 38.9533 34.2372 39.0906 34.2372C39.1782 34.2372 39.2789 34.2479 39.3925 34.2692C39.5073 34.2893 39.618 34.3313 39.7245 34.3952C39.8322 34.4592 39.9216 34.5556 39.9926 34.6847C40.0637 34.8137 40.0992 34.9865 40.0992 35.2031V37H39.6801V36.6307H39.6588C39.6304 36.6899 39.5831 36.7532 39.5168 36.8207C39.4505 36.8881 39.3623 36.9455 39.2522 36.9929C39.1421 37.0402 39.0078 37.0639 38.8492 37.0639ZM38.9131 36.6875C39.0788 36.6875 39.2185 36.6549 39.3321 36.5898C39.4469 36.5247 39.5334 36.4407 39.5914 36.3377C39.6505 36.2347 39.6801 36.1264 39.6801 36.0128V35.6293C39.6624 35.6506 39.6233 35.6701 39.5629 35.6879C39.5038 35.7044 39.4351 35.7192 39.357 35.7322C39.28 35.7441 39.2049 35.7547 39.1315 35.7642C39.0593 35.7725 39.0007 35.7796 38.9557 35.7855C38.8468 35.7997 38.745 35.8228 38.6503 35.8548C38.5568 35.8855 38.481 35.9323 38.423 35.995C38.3662 36.0566 38.3378 36.1406 38.3378 36.2472C38.3378 36.3928 38.3917 36.5028 38.4994 36.5774C38.6083 36.6508 38.7462 36.6875 38.9131 36.6875ZM41.9719 37.0568C41.7163 37.0568 41.4961 36.9964 41.3114 36.8757C41.1268 36.755 40.9847 36.5887 40.8853 36.3768C40.7859 36.1649 40.7362 35.9228 40.7362 35.6506C40.7362 35.3736 40.7871 35.1291 40.8888 34.9173C40.9918 34.7042 41.1351 34.5379 41.3185 34.4183C41.5032 34.2976 41.7186 34.2372 41.9648 34.2372C42.1566 34.2372 42.3294 34.2727 42.4833 34.3438C42.6372 34.4148 42.7633 34.5142 42.8615 34.642C42.9598 34.7699 43.0207 34.919 43.0444 35.0895H42.6254C42.5934 34.9652 42.5224 34.8551 42.4123 34.7592C42.3034 34.6622 42.1566 34.6136 41.9719 34.6136C41.8086 34.6136 41.6654 34.6562 41.5423 34.7415C41.4203 34.8255 41.325 34.9445 41.2564 35.0984C41.1889 35.2511 41.1552 35.4304 41.1552 35.6364C41.1552 35.8471 41.1883 36.0305 41.2546 36.1868C41.3221 36.343 41.4168 36.4644 41.5387 36.5508C41.6618 36.6372 41.8062 36.6804 41.9719 36.6804C42.0808 36.6804 42.1797 36.6615 42.2685 36.6236C42.3572 36.5857 42.4324 36.5312 42.494 36.4602C42.5555 36.3892 42.5993 36.304 42.6254 36.2045H43.0444C43.0207 36.3655 42.9621 36.5105 42.8686 36.6396C42.7763 36.7674 42.6538 36.8692 42.5011 36.945C42.3496 37.0195 42.1732 37.0568 41.9719 37.0568ZM44.0476 36.0057L44.0405 35.4872H44.1257L45.3189 34.2727H45.8374L44.5661 35.5582H44.5305L44.0476 36.0057ZM43.657 37V33.3636H44.076V37H43.657ZM45.3899 37L44.3246 35.6506L44.6229 35.3594L45.9226 37H45.3899ZM47.6622 33.1932L46.4903 37.5469H46.1068L47.2787 33.1932H47.6622ZM32.7081 43H32.2465L33.5817 39.3636H34.0363L35.3715 43H34.9098L33.8232 39.9389H33.7948L32.7081 43ZM32.8786 41.5795H34.7394V41.9702H32.8786V41.5795ZM37.0956 40.2727V40.6278H35.6254V40.2727H37.0956ZM36.0657 43V39.8963C36.0657 39.7401 36.1024 39.6098 36.1758 39.5057C36.2492 39.4015 36.3445 39.3234 36.4617 39.2713C36.5789 39.2192 36.7026 39.1932 36.8328 39.1932C36.9358 39.1932 37.0198 39.2015 37.0849 39.218C37.15 39.2346 37.1986 39.25 37.2305 39.2642L37.1098 39.6264C37.0885 39.6193 37.0589 39.6104 37.021 39.5998C36.9843 39.5891 36.9358 39.5838 36.8754 39.5838C36.7369 39.5838 36.6369 39.6187 36.5753 39.6886C36.515 39.7584 36.4848 39.8608 36.4848 39.9957V43H36.0657ZM37.6828 43V40.2727H38.0877V40.6847H38.1161C38.1658 40.5497 38.2558 40.4402 38.386 40.3562C38.5162 40.2721 38.663 40.2301 38.8263 40.2301C38.8571 40.2301 38.8956 40.2307 38.9417 40.2319C38.9879 40.2331 39.0228 40.2348 39.0465 40.2372V40.6634C39.0323 40.6598 38.9997 40.6545 38.9488 40.6474C38.8991 40.6391 38.8464 40.6349 38.7908 40.6349C38.6582 40.6349 38.5398 40.6628 38.4357 40.7184C38.3327 40.7728 38.251 40.8486 38.1907 40.9457C38.1315 41.0415 38.1019 41.151 38.1019 41.2741V43H37.6828ZM39.5432 43V40.2727H39.9622V43H39.5432ZM39.7563 39.8182C39.6746 39.8182 39.6042 39.7904 39.545 39.7347C39.487 39.6791 39.458 39.6122 39.458 39.5341C39.458 39.456 39.487 39.3891 39.545 39.3335C39.6042 39.2778 39.6746 39.25 39.7563 39.25C39.8379 39.25 39.9078 39.2778 39.9658 39.3335C40.025 39.3891 40.0546 39.456 40.0546 39.5341C40.0546 39.6122 40.025 39.6791 39.9658 39.7347C39.9078 39.7904 39.8379 39.8182 39.7563 39.8182ZM41.8377 43.0568C41.582 43.0568 41.3618 42.9964 41.1772 42.8757C40.9925 42.755 40.8505 42.5887 40.751 42.3768C40.6516 42.1649 40.6019 41.9228 40.6019 41.6506C40.6019 41.3736 40.6528 41.1291 40.7546 40.9173C40.8576 40.7042 41.0008 40.5379 41.1843 40.4183C41.3689 40.2976 41.5844 40.2372 41.8306 40.2372C42.0223 40.2372 42.1951 40.2727 42.349 40.3438C42.5029 40.4148 42.629 40.5142 42.7272 40.642C42.8255 40.7699 42.8864 40.919 42.9101 41.0895H42.4911C42.4591 40.9652 42.3881 40.8551 42.278 40.7592C42.1691 40.6622 42.0223 40.6136 41.8377 40.6136C41.6743 40.6136 41.5311 40.6562 41.408 40.7415C41.2861 40.8255 41.1908 40.9445 41.1221 41.0984C41.0546 41.2511 41.0209 41.4304 41.0209 41.6364C41.0209 41.8471 41.0541 42.0305 41.1203 42.1868C41.1878 42.343 41.2825 42.4644 41.4044 42.5508C41.5275 42.6372 41.6719 42.6804 41.8377 42.6804C41.9466 42.6804 42.0454 42.6615 42.1342 42.6236C42.223 42.5857 42.2981 42.5312 42.3597 42.4602C42.4212 42.3892 42.465 42.304 42.4911 42.2045H42.9101C42.8864 42.3655 42.8278 42.5105 42.7343 42.6396C42.642 42.7674 42.5195 42.8692 42.3668 42.945C42.2153 43.0195 42.0389 43.0568 41.8377 43.0568ZM44.3252 43.0639C44.1524 43.0639 43.9956 43.0314 43.8547 42.9663C43.7139 42.9 43.602 42.8047 43.5191 42.6804C43.4363 42.5549 43.3948 42.4034 43.3948 42.2259C43.3948 42.0696 43.4256 41.9429 43.4872 41.8459C43.5487 41.7476 43.631 41.6707 43.734 41.6151C43.837 41.5594 43.9506 41.518 44.0749 41.4908C44.2004 41.4624 44.3264 41.4399 44.4531 41.4233C44.6188 41.402 44.7532 41.386 44.8561 41.3754C44.9603 41.3635 45.0361 41.344 45.0834 41.3168C45.1319 41.2895 45.1562 41.2422 45.1562 41.1747V41.1605C45.1562 40.9853 45.1083 40.8492 45.0124 40.7521C44.9177 40.6551 44.7739 40.6065 44.5809 40.6065C44.3809 40.6065 44.224 40.6503 44.1104 40.7379C43.9968 40.8255 43.9169 40.919 43.8707 41.0185L43.473 40.8764C43.544 40.7107 43.6387 40.5817 43.7571 40.4893C43.8766 40.3958 44.0068 40.3307 44.1477 40.294C44.2897 40.2562 44.4294 40.2372 44.5667 40.2372C44.6543 40.2372 44.7549 40.2479 44.8686 40.2692C44.9834 40.2893 45.0941 40.3313 45.2006 40.3952C45.3083 40.4592 45.3977 40.5556 45.4687 40.6847C45.5397 40.8137 45.5752 40.9865 45.5752 41.2031V43H45.1562V42.6307H45.1349C45.1065 42.6899 45.0591 42.7532 44.9929 42.8207C44.9266 42.8881 44.8384 42.9455 44.7283 42.9929C44.6182 43.0402 44.4839 43.0639 44.3252 43.0639ZM44.3892 42.6875C44.5549 42.6875 44.6946 42.6549 44.8082 42.5898C44.923 42.5247 45.0094 42.4407 45.0674 42.3377C45.1266 42.2347 45.1562 42.1264 45.1562 42.0128V41.6293C45.1384 41.6506 45.0994 41.6701 45.039 41.6879C44.9798 41.7044 44.9112 41.7192 44.8331 41.7322C44.7561 41.7441 44.6809 41.7547 44.6076 41.7642C44.5353 41.7725 44.4768 41.7796 44.4318 41.7855C44.3229 41.7997 44.2211 41.8228 44.1264 41.8548C44.0329 41.8855 43.9571 41.9323 43.8991 41.995C43.8423 42.0566 43.8139 42.1406 43.8139 42.2472C43.8139 42.3928 43.8677 42.5028 43.9755 42.5774C44.0844 42.6508 44.2223 42.6875 44.3892 42.6875ZM46.7591 41.3594V43H46.3401V40.2727H46.7449V40.6989H46.7804C46.8443 40.5604 46.9414 40.4491 47.0716 40.3651C47.2018 40.2798 47.3699 40.2372 47.5759 40.2372C47.7605 40.2372 47.9221 40.2751 48.0606 40.3509C48.1991 40.4254 48.3068 40.5391 48.3837 40.6918C48.4607 40.8433 48.4992 41.035 48.4992 41.267V43H48.0801V41.2955C48.0801 41.0812 48.0245 40.9143 47.9132 40.7947C47.802 40.674 47.6493 40.6136 47.4551 40.6136C47.3214 40.6136 47.2018 40.6426 47.0965 40.7006C46.9923 40.7586 46.91 40.8433 46.8497 40.9545C46.7893 41.0658 46.7591 41.2008 46.7591 41.3594ZM29.9811 49H29.5194L30.8547 45.3636H31.3092L32.6444 49H32.1828L31.0961 45.9389H31.0677L29.9811 49ZM30.1515 47.5795H32.0123V47.9702H30.1515V47.5795ZM33.154 49V46.2727H33.5589V46.6989H33.5944C33.6512 46.5533 33.7429 46.4402 33.8696 46.3597C33.9962 46.2781 34.1483 46.2372 34.3259 46.2372C34.5058 46.2372 34.6556 46.2781 34.7751 46.3597C34.8959 46.4402 34.99 46.5533 35.0574 46.6989H35.0858C35.1557 46.558 35.2604 46.4461 35.4001 46.3633C35.5398 46.2792 35.7073 46.2372 35.9026 46.2372C36.1465 46.2372 36.3459 46.3136 36.501 46.4663C36.656 46.6178 36.7336 46.8539 36.7336 47.1747V49H36.3145V47.1747C36.3145 46.9735 36.2595 46.8297 36.1494 46.7433C36.0393 46.6568 35.9097 46.6136 35.7606 46.6136C35.5688 46.6136 35.4202 46.6716 35.3149 46.7876C35.2095 46.9025 35.1569 47.0481 35.1569 47.2244V49H34.7307V47.1321C34.7307 46.977 34.6804 46.8522 34.5798 46.7575C34.4792 46.6616 34.3496 46.6136 34.191 46.6136C34.0821 46.6136 33.9803 46.6426 33.8856 46.7006C33.7921 46.7586 33.7163 46.8391 33.6583 46.9421C33.6015 47.0439 33.5731 47.1617 33.5731 47.2955V49H33.154ZM38.6432 49.0568C38.3804 49.0568 38.1537 48.9988 37.9632 48.8828C37.7738 48.7656 37.6276 48.6023 37.5246 48.3928C37.4228 48.1821 37.3719 47.937 37.3719 47.6577C37.3719 47.3783 37.4228 47.1321 37.5246 46.919C37.6276 46.7048 37.7708 46.5379 37.9543 46.4183C38.1389 46.2976 38.3544 46.2372 38.6006 46.2372C38.7426 46.2372 38.8829 46.2609 39.0214 46.3082C39.1599 46.3556 39.286 46.4325 39.3996 46.5391C39.5132 46.6444 39.6038 46.7841 39.6713 46.9581C39.7387 47.1321 39.7725 47.3464 39.7725 47.6009V47.7784H37.6702V47.4162H39.3463C39.3463 47.2623 39.3155 47.125 39.254 47.0043C39.1936 46.8835 39.1072 46.7882 38.9948 46.7184C38.8835 46.6486 38.7521 46.6136 38.6006 46.6136C38.4337 46.6136 38.2893 46.6551 38.1673 46.7379C38.0466 46.8196 37.9537 46.9261 37.8886 47.0575C37.8235 47.1889 37.7909 47.3298 37.7909 47.4801V47.7216C37.7909 47.9276 37.8264 48.1022 37.8975 48.2454C37.9697 48.3874 38.0697 48.4957 38.1975 48.5703C38.3254 48.6437 38.4739 48.6804 38.6432 48.6804C38.7533 48.6804 38.8527 48.665 38.9415 48.6342C39.0315 48.6023 39.109 48.5549 39.1741 48.4922C39.2392 48.4283 39.2895 48.349 39.325 48.2543L39.7298 48.3679C39.6872 48.5052 39.6156 48.6259 39.515 48.7301C39.4144 48.8331 39.2901 48.9136 39.1421 48.9716C38.9942 49.0284 38.8279 49.0568 38.6432 49.0568ZM40.4099 49V46.2727H40.8147V46.6847H40.8431C40.8928 46.5497 40.9828 46.4402 41.113 46.3562C41.2432 46.2721 41.39 46.2301 41.5534 46.2301C41.5841 46.2301 41.6226 46.2307 41.6688 46.2319C41.7149 46.2331 41.7499 46.2348 41.7735 46.2372V46.6634C41.7593 46.6598 41.7268 46.6545 41.6759 46.6474C41.6262 46.6391 41.5735 46.6349 41.5178 46.6349C41.3853 46.6349 41.2669 46.6628 41.1627 46.7184C41.0597 46.7728 40.9781 46.8486 40.9177 46.9457C40.8585 47.0415 40.8289 47.151 40.8289 47.2741V49H40.4099ZM42.2702 49V46.2727H42.6893V49H42.2702ZM42.4833 45.8182C42.4016 45.8182 42.3312 45.7904 42.272 45.7347C42.214 45.6791 42.185 45.6122 42.185 45.5341C42.185 45.456 42.214 45.3891 42.272 45.3335C42.3312 45.2778 42.4016 45.25 42.4833 45.25C42.565 45.25 42.6348 45.2778 42.6928 45.3335C42.752 45.3891 42.7816 45.456 42.7816 45.5341C42.7816 45.6122 42.752 45.6791 42.6928 45.7347C42.6348 45.7904 42.565 45.8182 42.4833 45.8182ZM44.5647 49.0568C44.309 49.0568 44.0889 48.9964 43.9042 48.8757C43.7195 48.755 43.5775 48.5887 43.4781 48.3768C43.3786 48.1649 43.3289 47.9228 43.3289 47.6506C43.3289 47.3736 43.3798 47.1291 43.4816 46.9173C43.5846 46.7042 43.7278 46.5379 43.9113 46.4183C44.096 46.2976 44.3114 46.2372 44.5576 46.2372C44.7494 46.2372 44.9222 46.2727 45.0761 46.3438C45.23 46.4148 45.356 46.5142 45.4543 46.642C45.5525 46.7699 45.6135 46.919 45.6372 47.0895H45.2181C45.1862 46.9652 45.1151 46.8551 45.0051 46.7592C44.8962 46.6622 44.7494 46.6136 44.5647 46.6136C44.4014 46.6136 44.2581 46.6562 44.135 46.7415C44.0131 46.8255 43.9178 46.9445 43.8492 47.0984C43.7817 47.2511 43.748 47.4304 43.748 47.6364C43.748 47.8471 43.7811 48.0305 43.8474 48.1868C43.9149 48.343 44.0096 48.4644 44.1315 48.5508C44.2546 48.6372 44.399 48.6804 44.5647 48.6804C44.6736 48.6804 44.7725 48.6615 44.8612 48.6236C44.95 48.5857 45.0252 48.5312 45.0867 48.4602C45.1483 48.3892 45.1921 48.304 45.2181 48.2045H45.6372C45.6135 48.3655 45.5549 48.5105 45.4614 48.6396C45.3691 48.7674 45.2465 48.8692 45.0938 48.945C44.9423 49.0195 44.766 49.0568 44.5647 49.0568ZM47.0523 49.0639C46.8795 49.0639 46.7226 49.0314 46.5818 48.9663C46.4409 48.9 46.329 48.8047 46.2462 48.6804C46.1633 48.5549 46.1219 48.4034 46.1219 48.2259C46.1219 48.0696 46.1527 47.9429 46.2142 47.8459C46.2758 47.7476 46.358 47.6707 46.461 47.6151C46.564 47.5594 46.6776 47.518 46.8019 47.4908C46.9274 47.4624 47.0535 47.4399 47.1801 47.4233C47.3459 47.402 47.4802 47.386 47.5832 47.3754C47.6874 47.3635 47.7631 47.344 47.8105 47.3168C47.859 47.2895 47.8833 47.2422 47.8833 47.1747V47.1605C47.8833 46.9853 47.8353 46.8492 47.7394 46.7521C47.6447 46.6551 47.5009 46.6065 47.308 46.6065C47.1079 46.6065 46.9511 46.6503 46.8374 46.7379C46.7238 46.8255 46.6439 46.919 46.5977 47.0185L46.2 46.8764C46.271 46.7107 46.3657 46.5817 46.4841 46.4893C46.6037 46.3958 46.7339 46.3307 46.8747 46.294C47.0168 46.2562 47.1565 46.2372 47.2938 46.2372C47.3814 46.2372 47.482 46.2479 47.5956 46.2692C47.7104 46.2893 47.8211 46.3313 47.9276 46.3952C48.0354 46.4592 48.1247 46.5556 48.1958 46.6847C48.2668 46.8137 48.3023 46.9865 48.3023 47.2031V49H47.8833V48.6307H47.8619C47.8335 48.6899 47.7862 48.7532 47.7199 48.8207C47.6536 48.8881 47.5654 48.9455 47.4553 48.9929C47.3453 49.0402 47.2109 49.0639 47.0523 49.0639ZM47.1162 48.6875C47.2819 48.6875 47.4216 48.6549 47.5352 48.5898C47.6501 48.5247 47.7365 48.4407 47.7945 48.3377C47.8537 48.2347 47.8833 48.1264 47.8833 48.0128V47.6293C47.8655 47.6506 47.8264 47.6701 47.7661 47.6879C47.7069 47.7044 47.6382 47.7192 47.5601 47.7322C47.4832 47.7441 47.408 47.7547 47.3346 47.7642C47.2624 47.7725 47.2038 47.7796 47.1588 47.7855C47.0499 47.7997 46.9481 47.8228 46.8534 47.8548C46.7599 47.8855 46.6842 47.9323 46.6262 47.995C46.5693 48.0566 46.5409 48.1406 46.5409 48.2472C46.5409 48.3928 46.5948 48.5028 46.7025 48.5774C46.8114 48.6508 46.9493 48.6875 47.1162 48.6875ZM49.4862 47.3594V49H49.0671V46.2727H49.4719V46.6989H49.5075C49.5714 46.5604 49.6684 46.4491 49.7987 46.3651C49.9289 46.2798 50.0969 46.2372 50.3029 46.2372C50.4876 46.2372 50.6491 46.2751 50.7876 46.3509C50.9261 46.4254 51.0339 46.5391 51.1108 46.6918C51.1877 46.8433 51.2262 47.035 51.2262 47.267V49H50.8072V47.2955C50.8072 47.0812 50.7515 46.9143 50.6403 46.7947C50.529 46.674 50.3763 46.6136 50.1822 46.6136C50.0484 46.6136 49.9289 46.6426 49.8235 46.7006C49.7193 46.7586 49.6371 46.8433 49.5767 46.9545C49.5163 47.0658 49.4862 47.2008 49.4862 47.3594Z" fill="#DE6B48"/>
<path d="M61.9821 41.0497C61.7477 41.0497 61.5388 41.0095 61.3553 40.929C61.173 40.8485 61.028 40.7366 60.9203 40.5934C60.8137 40.449 60.7557 40.2815 60.7463 40.0909H61.1937C61.2032 40.2081 61.2434 40.3093 61.3145 40.3945C61.3855 40.4786 61.4784 40.5437 61.5932 40.5898C61.708 40.636 61.8353 40.6591 61.975 40.6591C62.1312 40.6591 62.2697 40.6319 62.3904 40.5774C62.5112 40.523 62.6059 40.4472 62.6745 40.3501C62.7432 40.2531 62.7775 40.1406 62.7775 40.0128C62.7775 39.879 62.7444 39.7612 62.6781 39.6594C62.6118 39.5565 62.5147 39.476 62.3869 39.418C62.2591 39.36 62.1028 39.331 61.9181 39.331H61.627V38.9403H61.9181C62.0626 38.9403 62.1892 38.9143 62.2981 38.8622C62.4082 38.8101 62.494 38.7367 62.5556 38.642C62.6183 38.5473 62.6497 38.4361 62.6497 38.3082C62.6497 38.1851 62.6225 38.078 62.568 37.9869C62.5136 37.8957 62.4366 37.8247 62.3372 37.7738C62.2389 37.7229 62.1229 37.6974 61.9892 37.6974C61.8637 37.6974 61.7453 37.7205 61.6341 37.7667C61.524 37.8117 61.434 37.8774 61.3642 37.9638C61.2943 38.049 61.2565 38.152 61.2505 38.2727H60.8244C60.8315 38.0821 60.8889 37.9152 60.9966 37.772C61.1043 37.6276 61.2452 37.5152 61.4192 37.4347C61.5944 37.3542 61.7868 37.3139 61.9963 37.3139C62.2212 37.3139 62.4141 37.3595 62.5751 37.4506C62.7361 37.5406 62.8598 37.6596 62.9462 37.8075C63.0326 37.9555 63.0758 38.1153 63.0758 38.2869C63.0758 38.4917 63.022 38.6663 62.9142 38.8107C62.8077 38.9551 62.6627 39.0552 62.4792 39.1108V39.1392C62.7089 39.1771 62.8882 39.2747 63.0172 39.4322C63.1462 39.5884 63.2108 39.782 63.2108 40.0128C63.2108 40.2105 63.1569 40.388 63.0492 40.5455C62.9426 40.7017 62.7971 40.8248 62.6124 40.9148C62.4277 41.0047 62.2176 41.0497 61.9821 41.0497ZM65.7907 40.3182V40.1264C65.7907 39.9938 65.8179 39.8725 65.8723 39.7624C65.928 39.6512 66.0085 39.5624 66.1138 39.4961C66.2203 39.4286 66.3494 39.3949 66.5009 39.3949C66.6548 39.3949 66.7838 39.4286 66.888 39.4961C66.9921 39.5624 67.0708 39.6512 67.1241 39.7624C67.1774 39.8725 67.204 39.9938 67.204 40.1264V40.3182C67.204 40.4508 67.1768 40.5727 67.1223 40.6839C67.0691 40.794 66.9898 40.8828 66.8844 40.9503C66.7802 41.0166 66.6524 41.0497 66.5009 41.0497C66.347 41.0497 66.2174 41.0166 66.112 40.9503C66.0067 40.8828 65.9268 40.794 65.8723 40.6839C65.8179 40.5727 65.7907 40.4508 65.7907 40.3182ZM66.1529 40.1264V40.3182C66.1529 40.4283 66.1789 40.5271 66.231 40.6147C66.2831 40.7011 66.373 40.7443 66.5009 40.7443C66.6252 40.7443 66.7128 40.7011 66.7637 40.6147C66.8158 40.5271 66.8418 40.4283 66.8418 40.3182V40.1264C66.8418 40.0163 66.8169 39.9181 66.7672 39.8317C66.7175 39.7441 66.6287 39.7003 66.5009 39.7003C66.3766 39.7003 66.2872 39.7441 66.2328 39.8317C66.1795 39.9181 66.1529 40.0163 66.1529 40.1264ZM63.9796 38.2372V38.0455C63.9796 37.9129 64.0068 37.7915 64.0613 37.6815C64.1169 37.5702 64.1974 37.4814 64.3027 37.4151C64.4093 37.3477 64.5383 37.3139 64.6898 37.3139C64.8437 37.3139 64.9727 37.3477 65.0769 37.4151C65.181 37.4814 65.2598 37.5702 65.313 37.6815C65.3663 37.7915 65.3929 37.9129 65.3929 38.0455V38.2372C65.3929 38.3698 65.3657 38.4917 65.3113 38.603C65.258 38.7131 65.1787 38.8018 65.0733 38.8693C64.9692 38.9356 64.8413 38.9688 64.6898 38.9688C64.5359 38.9688 64.4063 38.9356 64.301 38.8693C64.1956 38.8018 64.1157 38.7131 64.0613 38.603C64.0068 38.4917 63.9796 38.3698 63.9796 38.2372ZM64.3418 38.0455V38.2372C64.3418 38.3473 64.3678 38.4461 64.4199 38.5337C64.472 38.6201 64.562 38.6634 64.6898 38.6634C64.8141 38.6634 64.9017 38.6201 64.9526 38.5337C65.0047 38.4461 65.0307 38.3473 65.0307 38.2372V38.0455C65.0307 37.9354 65.0059 37.8371 64.9561 37.7507C64.9064 37.6631 64.8176 37.6193 64.6898 37.6193C64.5655 37.6193 64.4761 37.6631 64.4217 37.7507C64.3684 37.8371 64.3418 37.9354 64.3418 38.0455ZM64.1145 41L66.6145 37.3636H67.0194L64.5194 41H64.1145ZM53.415 47V43.3636H53.8553V44.983H55.7942V43.3636H56.2346V47H55.7942V45.3736H53.8553V47H53.415ZM57.0593 47V44.2727H57.4783V47H57.0593ZM57.2724 43.8182C57.1907 43.8182 57.1203 43.7904 57.0611 43.7347C57.0031 43.6791 56.9741 43.6122 56.9741 43.5341C56.9741 43.456 57.0031 43.3891 57.0611 43.3335C57.1203 43.2778 57.1907 43.25 57.2724 43.25C57.354 43.25 57.4239 43.2778 57.4819 43.3335C57.5411 43.3891 57.5707 43.456 57.5707 43.5341C57.5707 43.6122 57.5411 43.6791 57.4819 43.7347C57.4239 43.7904 57.354 43.8182 57.2724 43.8182ZM60.1776 44.8835L59.8012 44.9901C59.7776 44.9273 59.7426 44.8664 59.6965 44.8072C59.6515 44.7468 59.5899 44.6971 59.5118 44.658C59.4337 44.619 59.3337 44.5994 59.2117 44.5994C59.0448 44.5994 58.9057 44.6379 58.7945 44.7148C58.6844 44.7906 58.6294 44.8871 58.6294 45.0043C58.6294 45.1084 58.6672 45.1907 58.743 45.2511C58.8187 45.3114 58.9371 45.3617 59.0981 45.402L59.5029 45.5014C59.7468 45.5606 59.9285 45.6512 60.048 45.7731C60.1676 45.8938 60.2274 46.0495 60.2274 46.2401C60.2274 46.3963 60.1824 46.536 60.0924 46.6591C60.0036 46.7822 59.8794 46.8793 59.7195 46.9503C59.5597 47.0213 59.3739 47.0568 59.162 47.0568C58.8838 47.0568 58.6536 46.9964 58.4713 46.8757C58.289 46.755 58.1736 46.5786 58.1251 46.3466L58.5228 46.2472C58.5607 46.3939 58.6323 46.504 58.7377 46.5774C58.8442 46.6508 58.9833 46.6875 59.1549 46.6875C59.3502 46.6875 59.5053 46.6461 59.6201 46.5632C59.7361 46.4792 59.7941 46.3786 59.7941 46.2614C59.7941 46.1667 59.761 46.0874 59.6947 46.0234C59.6284 45.9583 59.5266 45.9098 59.3893 45.8778L58.9347 45.7713C58.685 45.7121 58.5015 45.6204 58.3843 45.4961C58.2683 45.3706 58.2103 45.2138 58.2103 45.0256C58.2103 44.8717 58.2535 44.7356 58.3399 44.6172C58.4275 44.4988 58.5465 44.4059 58.6968 44.3384C58.8483 44.271 59.02 44.2372 59.2117 44.2372C59.4816 44.2372 59.6935 44.2964 59.8474 44.4148C60.0025 44.5331 60.1125 44.6894 60.1776 44.8835ZM60.8581 48.0227V44.2727H61.263V44.706H61.3127C61.3435 44.6586 61.3861 44.5982 61.4405 44.5249C61.4962 44.4503 61.5755 44.384 61.6784 44.326C61.7826 44.2668 61.9235 44.2372 62.101 44.2372C62.3307 44.2372 62.5331 44.2946 62.7083 44.4094C62.8835 44.5243 63.0202 44.687 63.1184 44.8977C63.2167 45.1084 63.2658 45.357 63.2658 45.6435C63.2658 45.9323 63.2167 46.1826 63.1184 46.3945C63.0202 46.6052 62.8841 46.7686 62.71 46.8846C62.536 46.9994 62.3354 47.0568 62.1081 47.0568C61.9329 47.0568 61.7927 47.0278 61.6873 46.9698C61.582 46.9106 61.5009 46.8437 61.4441 46.7692C61.3873 46.6934 61.3435 46.6307 61.3127 46.581H61.2772V48.0227H60.8581ZM61.2701 45.6364C61.2701 45.8423 61.3002 46.024 61.3606 46.1815C61.421 46.3377 61.5092 46.4602 61.6252 46.549C61.7412 46.6366 61.8832 46.6804 62.0513 46.6804C62.2265 46.6804 62.3727 46.6342 62.4899 46.5419C62.6083 46.4484 62.697 46.3229 62.7562 46.1655C62.8166 46.0069 62.8468 45.8305 62.8468 45.6364C62.8468 45.4446 62.8172 45.2718 62.758 45.1179C62.7 44.9628 62.6118 44.8403 62.4934 44.7504C62.3762 44.6592 62.2289 44.6136 62.0513 44.6136C61.8809 44.6136 61.7376 44.6568 61.6216 44.7433C61.5056 44.8285 61.418 44.948 61.3588 45.1019C61.2997 45.2546 61.2701 45.4328 61.2701 45.6364ZM64.7076 47.0639C64.5347 47.0639 64.3779 47.0314 64.237 46.9663C64.0962 46.9 63.9843 46.8047 63.9015 46.6804C63.8186 46.5549 63.7772 46.4034 63.7772 46.2259C63.7772 46.0696 63.8079 45.9429 63.8695 45.8459C63.931 45.7476 64.0133 45.6707 64.1163 45.6151C64.2193 45.5594 64.3329 45.518 64.4572 45.4908C64.5827 45.4624 64.7087 45.4399 64.8354 45.4233C65.0011 45.402 65.1355 45.386 65.2385 45.3754C65.3426 45.3635 65.4184 45.344 65.4657 45.3168C65.5143 45.2895 65.5385 45.2422 65.5385 45.1747V45.1605C65.5385 44.9853 65.4906 44.8492 65.3947 44.7521C65.3 44.6551 65.1562 44.6065 64.9632 44.6065C64.7632 44.6065 64.6064 44.6503 64.4927 44.7379C64.3791 44.8255 64.2992 44.919 64.253 45.0185L63.8553 44.8764C63.9263 44.7107 64.021 44.5817 64.1394 44.4893C64.2589 44.3958 64.3891 44.3307 64.53 44.294C64.6721 44.2562 64.8117 44.2372 64.949 44.2372C65.0366 44.2372 65.1373 44.2479 65.2509 44.2692C65.3657 44.2893 65.4764 44.3313 65.5829 44.3952C65.6906 44.4592 65.78 44.5556 65.851 44.6847C65.9221 44.8137 65.9576 44.9865 65.9576 45.2031V47H65.5385V46.6307H65.5172C65.4888 46.6899 65.4415 46.7532 65.3752 46.8207C65.3089 46.8881 65.2207 46.9455 65.1106 46.9929C65.0005 47.0402 64.8662 47.0639 64.7076 47.0639ZM64.7715 46.6875C64.9372 46.6875 65.0769 46.6549 65.1905 46.5898C65.3053 46.5247 65.3917 46.4407 65.4498 46.3377C65.5089 46.2347 65.5385 46.1264 65.5385 46.0128V45.6293C65.5208 45.6506 65.4817 45.6701 65.4213 45.6879C65.3622 45.7044 65.2935 45.7192 65.2154 45.7322C65.1384 45.7441 65.0633 45.7547 64.9899 45.7642C64.9177 45.7725 64.8591 45.7796 64.8141 45.7855C64.7052 45.7997 64.6034 45.8228 64.5087 45.8548C64.4152 45.8855 64.3394 45.9323 64.2814 45.995C64.2246 46.0566 64.1962 46.1406 64.1962 46.2472C64.1962 46.3928 64.2501 46.5028 64.3578 46.5774C64.4667 46.6508 64.6046 46.6875 64.7715 46.6875ZM67.1414 45.3594V47H66.7224V44.2727H67.1272V44.6989H67.1627C67.2267 44.5604 67.3237 44.4491 67.4539 44.3651C67.5841 44.2798 67.7522 44.2372 67.9582 44.2372C68.1428 44.2372 68.3044 44.2751 68.4429 44.3509C68.5814 44.4254 68.6891 44.5391 68.7661 44.6918C68.843 44.8433 68.8815 45.035 68.8815 45.267V47H68.4624V45.2955C68.4624 45.0812 68.4068 44.9143 68.2955 44.7947C68.1843 44.674 68.0316 44.6136 67.8374 44.6136C67.7037 44.6136 67.5841 44.6426 67.4788 44.7006C67.3746 44.7586 67.2923 44.8433 67.232 44.9545C67.1716 45.0658 67.1414 45.2008 67.1414 45.3594ZM69.6472 47V44.2727H70.0662V47H69.6472ZM69.8603 43.8182C69.7786 43.8182 69.7082 43.7904 69.649 43.7347C69.591 43.6791 69.562 43.6122 69.562 43.5341C69.562 43.456 69.591 43.3891 69.649 43.3335C69.7082 43.2778 69.7786 43.25 69.8603 43.25C69.9419 43.25 70.0118 43.2778 70.0698 43.3335C70.129 43.3891 70.1586 43.456 70.1586 43.5341C70.1586 43.6122 70.129 43.6791 70.0698 43.7347C70.0118 43.7904 69.9419 43.8182 69.8603 43.8182ZM71.9417 47.0568C71.686 47.0568 71.4658 46.9964 71.2812 46.8757C71.0965 46.755 70.9545 46.5887 70.855 46.3768C70.7556 46.1649 70.7059 45.9228 70.7059 45.6506C70.7059 45.3736 70.7568 45.1291 70.8586 44.9173C70.9616 44.7042 71.1048 44.5379 71.2883 44.4183C71.4729 44.2976 71.6884 44.2372 71.9346 44.2372C72.1263 44.2372 72.2992 44.2727 72.453 44.3438C72.6069 44.4148 72.733 44.5142 72.8312 44.642C72.9295 44.7699 72.9904 44.919 73.0141 45.0895H72.5951C72.5631 44.9652 72.4921 44.8551 72.382 44.7592C72.2731 44.6622 72.1263 44.6136 71.9417 44.6136C71.7783 44.6136 71.6351 44.6562 71.512 44.7415C71.3901 44.8255 71.2948 44.9445 71.2261 45.0984C71.1586 45.2511 71.1249 45.4304 71.1249 45.6364C71.1249 45.8471 71.1581 46.0305 71.2243 46.1868C71.2918 46.343 71.3865 46.4644 71.5084 46.5508C71.6315 46.6372 71.776 46.6804 71.9417 46.6804C72.0506 46.6804 72.1494 46.6615 72.2382 46.6236C72.327 46.5857 72.4021 46.5312 72.4637 46.4602C72.5252 46.3892 72.569 46.304 72.5951 46.2045H73.0141C72.9904 46.3655 72.9318 46.5105 72.8383 46.6396C72.746 46.7674 72.6235 46.8692 72.4708 46.945C72.3193 47.0195 72.1429 47.0568 71.9417 47.0568ZM74.9122 43.1932L73.7403 47.5469H73.3568L74.5287 43.1932H74.9122ZM57.1698 53V49.3636H57.6102V52.6094H59.3005V53H57.1698ZM60.7281 53.0639C60.5552 53.0639 60.3984 53.0314 60.2575 52.9663C60.1167 52.9 60.0048 52.8047 59.922 52.6804C59.8391 52.5549 59.7977 52.4034 59.7977 52.2259C59.7977 52.0696 59.8285 51.9429 59.89 51.8459C59.9516 51.7476 60.0338 51.6707 60.1368 51.6151C60.2398 51.5594 60.3534 51.518 60.4777 51.4908C60.6032 51.4624 60.7293 51.4399 60.8559 51.4233C61.0216 51.402 61.156 51.386 61.259 51.3754C61.3631 51.3635 61.4389 51.344 61.4862 51.3168C61.5348 51.2895 61.559 51.2422 61.559 51.1747V51.1605C61.559 50.9853 61.5111 50.8492 61.4152 50.7521C61.3205 50.6551 61.1767 50.6065 60.9838 50.6065C60.7837 50.6065 60.6269 50.6503 60.5132 50.7379C60.3996 50.8255 60.3197 50.919 60.2735 51.0185L59.8758 50.8764C59.9468 50.7107 60.0415 50.5817 60.1599 50.4893C60.2794 50.3958 60.4097 50.3307 60.5505 50.294C60.6926 50.2562 60.8322 50.2372 60.9695 50.2372C61.0571 50.2372 61.1578 50.2479 61.2714 50.2692C61.3862 50.2893 61.4969 50.3313 61.6034 50.3952C61.7111 50.4592 61.8005 50.5556 61.8715 50.6847C61.9426 50.8137 61.9781 50.9865 61.9781 51.2031V53H61.559V52.6307H61.5377C61.5093 52.6899 61.462 52.7532 61.3957 52.8207C61.3294 52.8881 61.2412 52.9455 61.1311 52.9929C61.021 53.0402 60.8867 53.0639 60.7281 53.0639ZM60.792 52.6875C60.9577 52.6875 61.0974 52.6549 61.211 52.5898C61.3258 52.5247 61.4123 52.4407 61.4703 52.3377C61.5294 52.2347 61.559 52.1264 61.559 52.0128V51.6293C61.5413 51.6506 61.5022 51.6701 61.4419 51.6879C61.3827 51.7044 61.314 51.7192 61.2359 51.7322C61.1589 51.7441 61.0838 51.7547 61.0104 51.7642C60.9382 51.7725 60.8796 51.7796 60.8346 51.7855C60.7257 51.7997 60.6239 51.8228 60.5292 51.8548C60.4357 51.8855 60.3599 51.9323 60.3019 51.995C60.2451 52.0566 60.2167 52.1406 60.2167 52.2472C60.2167 52.3928 60.2706 52.5028 60.3783 52.5774C60.4872 52.6508 60.6251 52.6875 60.792 52.6875ZM63.929 50.2727V50.6278H62.5156V50.2727H63.929ZM62.9276 49.6193H63.3466V52.2188C63.3466 52.3371 63.3638 52.4259 63.3981 52.4851C63.4336 52.5431 63.4786 52.5821 63.533 52.6023C63.5887 52.6212 63.6473 52.6307 63.7088 52.6307C63.755 52.6307 63.7929 52.6283 63.8224 52.6236C63.852 52.6177 63.8757 52.6129 63.8935 52.6094L63.9787 52.9858C63.9503 52.9964 63.9106 53.0071 63.8597 53.0178C63.8088 53.0296 63.7443 53.0355 63.6662 53.0355C63.5478 53.0355 63.4318 53.0101 63.3182 52.9592C63.2057 52.9083 63.1122 52.8307 63.0376 52.7266C62.9643 52.6224 62.9276 52.491 62.9276 52.3324V49.6193ZM64.5593 53V50.2727H64.9783V53H64.5593ZM64.7724 49.8182C64.6907 49.8182 64.6203 49.7904 64.5611 49.7347C64.5031 49.6791 64.4741 49.6122 64.4741 49.5341C64.4741 49.456 64.5031 49.3891 64.5611 49.3335C64.6203 49.2778 64.6907 49.25 64.7724 49.25C64.854 49.25 64.9239 49.2778 64.9819 49.3335C65.0411 49.3891 65.0707 49.456 65.0707 49.5341C65.0707 49.6122 65.0411 49.6791 64.9819 49.7347C64.9239 49.7904 64.854 49.8182 64.7724 49.8182ZM66.1649 51.3594V53H65.7458V50.2727H66.1507V50.6989H66.1862C66.2501 50.5604 66.3472 50.4491 66.4774 50.3651C66.6076 50.2798 66.7757 50.2372 66.9816 50.2372C67.1663 50.2372 67.3279 50.2751 67.4664 50.3509C67.6048 50.4254 67.7126 50.5391 67.7895 50.6918C67.8664 50.8433 67.9049 51.035 67.9049 51.267V53H67.4859V51.2955C67.4859 51.0812 67.4302 50.9143 67.319 50.7947C67.2077 50.674 67.055 50.6136 66.8609 50.6136C66.7271 50.6136 66.6076 50.6426 66.5022 50.7006C66.3981 50.7586 66.3158 50.8433 66.2554 50.9545C66.195 51.0658 66.1649 51.2008 66.1649 51.3594ZM69.7786 53.0568C69.5324 53.0568 69.3163 52.9982 69.1305 52.881C68.9458 52.7638 68.8014 52.5999 68.6973 52.3892C68.5943 52.1785 68.5428 51.9323 68.5428 51.6506C68.5428 51.3665 68.5943 51.1185 68.6973 50.9066C68.8014 50.6947 68.9458 50.5302 69.1305 50.413C69.3163 50.2958 69.5324 50.2372 69.7786 50.2372C70.0248 50.2372 70.2402 50.2958 70.4249 50.413C70.6107 50.5302 70.7551 50.6947 70.8581 50.9066C70.9623 51.1185 71.0144 51.3665 71.0144 51.6506C71.0144 51.9323 70.9623 52.1785 70.8581 52.3892C70.7551 52.5999 70.6107 52.7638 70.4249 52.881C70.2402 52.9982 70.0248 53.0568 69.7786 53.0568ZM69.7786 52.6804C69.9656 52.6804 70.1195 52.6325 70.2402 52.5366C70.361 52.4407 70.4503 52.3146 70.5083 52.1584C70.5663 52.0021 70.5953 51.8329 70.5953 51.6506C70.5953 51.4683 70.5663 51.2984 70.5083 51.141C70.4503 50.9835 70.361 50.8563 70.2402 50.7592C70.1195 50.6622 69.9656 50.6136 69.7786 50.6136C69.5916 50.6136 69.4377 50.6622 69.3169 50.7592C69.1962 50.8563 69.1068 50.9835 69.0488 51.141C68.9908 51.2984 68.9618 51.4683 68.9618 51.6506C68.9618 51.8329 68.9908 52.0021 69.0488 52.1584C69.1068 52.3146 69.1962 52.4407 69.3169 52.5366C69.4377 52.6325 69.5916 52.6804 69.7786 52.6804Z" fill="#FFF0D1"/>
<path d="M69.4925 17.0497C69.3434 17.0473 69.1942 17.0189 69.0451 16.9645C68.8959 16.91 68.7598 16.8183 68.6367 16.6893C68.5136 16.5591 68.4147 16.3833 68.3402 16.1619C68.2656 15.9394 68.2283 15.66 68.2283 15.3239C68.2283 15.0019 68.2585 14.7166 68.3188 14.468C68.3792 14.2183 68.4668 14.0082 68.5816 13.8377C68.6965 13.6661 68.8349 13.5359 68.9971 13.4471C69.1605 13.3583 69.3445 13.3139 69.5493 13.3139C69.7529 13.3139 69.934 13.3548 70.0926 13.4364C70.2524 13.5169 70.3826 13.6294 70.4833 13.7738C70.5839 13.9182 70.649 14.0845 70.6786 14.2727H70.2453C70.2051 14.1094 70.127 13.9738 70.011 13.8661C69.895 13.7584 69.7411 13.7045 69.5493 13.7045C69.2676 13.7045 69.0456 13.8271 68.8835 14.0721C68.7225 14.3171 68.6414 14.661 68.6402 15.1037H68.6686C68.7349 15.0031 68.8136 14.9173 68.9048 14.8462C68.9971 14.774 69.0989 14.7184 69.2102 14.6793C69.3215 14.6403 69.4392 14.6207 69.5635 14.6207C69.7719 14.6207 69.9624 14.6728 70.1353 14.777C70.3081 14.88 70.4466 15.0226 70.5507 15.2049C70.6549 15.386 70.707 15.5938 70.707 15.8281C70.707 16.053 70.6567 16.259 70.5561 16.446C70.4554 16.6319 70.314 16.7798 70.1317 16.8899C69.9506 16.9988 69.7375 17.0521 69.4925 17.0497ZM69.4925 16.6591C69.6416 16.6591 69.7754 16.6218 69.8938 16.5472C70.0133 16.4727 70.1074 16.3726 70.1761 16.2472C70.2459 16.1217 70.2809 15.982 70.2809 15.8281C70.2809 15.6778 70.2471 15.5411 70.1796 15.418C70.1134 15.2937 70.0216 15.1948 69.9044 15.1214C69.7884 15.0481 69.6559 15.0114 69.5067 15.0114C69.3943 15.0114 69.2895 15.0339 69.1924 15.0788C69.0954 15.1226 69.0101 15.183 68.9367 15.2599C68.8645 15.3369 68.8077 15.4251 68.7663 15.5245C68.7249 15.6228 68.7041 15.7263 68.7041 15.8352C68.7041 15.9796 68.7379 16.1146 68.8054 16.2401C68.874 16.3655 68.9675 16.4667 69.0859 16.5437C69.2054 16.6206 69.341 16.6591 69.4925 16.6591ZM73.2589 16.3182V16.1264C73.2589 15.9938 73.2861 15.8725 73.3406 15.7624C73.3962 15.6512 73.4767 15.5624 73.5821 15.4961C73.6886 15.4286 73.8176 15.3949 73.9691 15.3949C74.123 15.3949 74.2521 15.4286 74.3562 15.4961C74.4604 15.5624 74.5391 15.6512 74.5924 15.7624C74.6456 15.8725 74.6723 15.9938 74.6723 16.1264V16.3182C74.6723 16.4508 74.645 16.5727 74.5906 16.6839C74.5373 16.794 74.458 16.8828 74.3527 16.9503C74.2485 17.0166 74.1207 17.0497 73.9691 17.0497C73.8153 17.0497 73.6857 17.0166 73.5803 16.9503C73.4749 16.8828 73.395 16.794 73.3406 16.6839C73.2861 16.5727 73.2589 16.4508 73.2589 16.3182ZM73.6211 16.1264V16.3182C73.6211 16.4283 73.6472 16.5271 73.6993 16.6147C73.7513 16.7011 73.8413 16.7443 73.9691 16.7443C74.0934 16.7443 74.181 16.7011 74.2319 16.6147C74.284 16.5271 74.3101 16.4283 74.3101 16.3182V16.1264C74.3101 16.0163 74.2852 15.9181 74.2355 15.8317C74.1858 15.7441 74.097 15.7003 73.9691 15.7003C73.8449 15.7003 73.7555 15.7441 73.701 15.8317C73.6478 15.9181 73.6211 16.0163 73.6211 16.1264ZM71.4478 14.2372V14.0455C71.4478 13.9129 71.4751 13.7915 71.5295 13.6815C71.5852 13.5702 71.6656 13.4814 71.771 13.4151C71.8775 13.3477 72.0066 13.3139 72.1581 13.3139C72.312 13.3139 72.441 13.3477 72.5451 13.4151C72.6493 13.4814 72.728 13.5702 72.7813 13.6815C72.8346 13.7915 72.8612 13.9129 72.8612 14.0455V14.2372C72.8612 14.3698 72.834 14.4917 72.7795 14.603C72.7263 14.7131 72.6469 14.8018 72.5416 14.8693C72.4374 14.9356 72.3096 14.9688 72.1581 14.9688C72.0042 14.9688 71.8746 14.9356 71.7692 14.8693C71.6639 14.8018 71.584 14.7131 71.5295 14.603C71.4751 14.4917 71.4478 14.3698 71.4478 14.2372ZM71.8101 14.0455V14.2372C71.8101 14.3473 71.8361 14.4461 71.8882 14.5337C71.9403 14.6201 72.0302 14.6634 72.1581 14.6634C72.2824 14.6634 72.37 14.6201 72.4209 14.5337C72.4729 14.4461 72.499 14.3473 72.499 14.2372V14.0455C72.499 13.9354 72.4741 13.8371 72.4244 13.7507C72.3747 13.6631 72.2859 13.6193 72.1581 13.6193C72.0338 13.6193 71.9444 13.6631 71.89 13.7507C71.8367 13.8371 71.8101 13.9354 71.8101 14.0455ZM71.5828 17L74.0828 13.3636H74.4876L71.9876 17H71.5828ZM65.6295 23H65.1679L66.5031 19.3636H66.9577L68.2929 23H67.8312L66.7446 19.9389H66.7162L65.6295 23ZM65.8 21.5795H67.6608V21.9702H65.8V21.5795ZM70.7343 20.8835L70.3579 20.9901C70.3342 20.9273 70.2993 20.8664 70.2531 20.8072C70.2081 20.7468 70.1466 20.6971 70.0684 20.658C69.9903 20.619 69.8903 20.5994 69.7684 20.5994C69.6015 20.5994 69.4624 20.6379 69.3511 20.7148C69.241 20.7906 69.186 20.8871 69.186 21.0043C69.186 21.1084 69.2239 21.1907 69.2996 21.2511C69.3754 21.3114 69.4938 21.3617 69.6547 21.402L70.0596 21.5014C70.3034 21.5606 70.4851 21.6512 70.6047 21.7731C70.7242 21.8938 70.784 22.0495 70.784 22.2401C70.784 22.3963 70.739 22.536 70.6491 22.6591C70.5603 22.7822 70.436 22.8793 70.2762 22.9503C70.1164 23.0213 69.9305 23.0568 69.7187 23.0568C69.4405 23.0568 69.2103 22.9964 69.028 22.8757C68.8457 22.755 68.7303 22.5786 68.6817 22.3466L69.0795 22.2472C69.1173 22.3939 69.189 22.504 69.2943 22.5774C69.4008 22.6508 69.5399 22.6875 69.7116 22.6875C69.9069 22.6875 70.0619 22.6461 70.1768 22.5632C70.2928 22.4792 70.3508 22.3786 70.3508 22.2614C70.3508 22.1667 70.3176 22.0874 70.2513 22.0234C70.185 21.9583 70.0832 21.9098 69.9459 21.8778L69.4914 21.7713C69.2416 21.7121 69.0581 21.6204 68.941 21.4961C68.825 21.3706 68.767 21.2138 68.767 21.0256C68.767 20.8717 68.8102 20.7356 68.8966 20.6172C68.9842 20.4988 69.1031 20.4059 69.2535 20.3384C69.405 20.271 69.5766 20.2372 69.7684 20.2372C70.0383 20.2372 70.2501 20.2964 70.404 20.4148C70.5591 20.5331 70.6692 20.6894 70.7343 20.8835ZM71.4148 23V20.2727H71.8338V23H71.4148ZM71.6278 19.8182C71.5462 19.8182 71.4757 19.7904 71.4165 19.7347C71.3585 19.6791 71.3295 19.6122 71.3295 19.5341C71.3295 19.456 71.3585 19.3891 71.4165 19.3335C71.4757 19.2778 71.5462 19.25 71.6278 19.25C71.7095 19.25 71.7794 19.2778 71.8374 19.3335C71.8965 19.3891 71.9261 19.456 71.9261 19.5341C71.9261 19.6122 71.8965 19.6791 71.8374 19.7347C71.7794 19.7904 71.7095 19.8182 71.6278 19.8182ZM73.4039 23.0639C73.231 23.0639 73.0742 23.0314 72.9333 22.9663C72.7925 22.9 72.6806 22.8047 72.5977 22.6804C72.5149 22.5549 72.4735 22.4034 72.4735 22.2259C72.4735 22.0696 72.5042 21.9429 72.5658 21.8459C72.6273 21.7476 72.7096 21.6707 72.8126 21.6151C72.9156 21.5594 73.0292 21.518 73.1535 21.4908C73.279 21.4624 73.405 21.4399 73.5317 21.4233C73.6974 21.402 73.8318 21.386 73.9347 21.3754C74.0389 21.3635 74.1147 21.344 74.162 21.3168C74.2106 21.2895 74.2348 21.2422 74.2348 21.1747V21.1605C74.2348 20.9853 74.1869 20.8492 74.091 20.7521C73.9963 20.6551 73.8525 20.6065 73.6595 20.6065C73.4595 20.6065 73.3026 20.6503 73.189 20.7379C73.0754 20.8255 72.9955 20.919 72.9493 21.0185L72.5516 20.8764C72.6226 20.7107 72.7173 20.5817 72.8357 20.4893C72.9552 20.3958 73.0854 20.3307 73.2263 20.294C73.3683 20.2562 73.508 20.2372 73.6453 20.2372C73.7329 20.2372 73.8335 20.2479 73.9472 20.2692C74.062 20.2893 74.1727 20.3313 74.2792 20.3952C74.3869 20.4592 74.4763 20.5556 74.5473 20.6847C74.6183 20.8137 74.6539 20.9865 74.6539 21.2031V23H74.2348V22.6307H74.2135C74.1851 22.6899 74.1378 22.7532 74.0715 22.8207C74.0052 22.8881 73.917 22.9455 73.8069 22.9929C73.6968 23.0402 73.5625 23.0639 73.4039 23.0639ZM73.4678 22.6875C73.6335 22.6875 73.7732 22.6549 73.8868 22.5898C74.0016 22.5247 74.088 22.4407 74.146 22.3377C74.2052 22.2347 74.2348 22.1264 74.2348 22.0128V21.6293C74.2171 21.6506 74.178 21.6701 74.1176 21.6879C74.0584 21.7044 73.9898 21.7192 73.9117 21.7322C73.8347 21.7441 73.7596 21.7547 73.6862 21.7642C73.614 21.7725 73.5554 21.7796 73.5104 21.7855C73.4015 21.7997 73.2997 21.8228 73.205 21.8548C73.1115 21.8855 73.0357 21.9323 72.9777 21.995C72.9209 22.0566 72.8925 22.1406 72.8925 22.2472C72.8925 22.3928 72.9463 22.5028 73.0541 22.5774C73.163 22.6508 73.3009 22.6875 73.4678 22.6875ZM75.8377 21.3594V23H75.4187V20.2727H75.8235V20.6989H75.859C75.9229 20.5604 76.02 20.4491 76.1502 20.3651C76.2804 20.2798 76.4485 20.2372 76.6545 20.2372C76.8391 20.2372 77.0007 20.2751 77.1392 20.3509C77.2777 20.4254 77.3854 20.5391 77.4624 20.6918C77.5393 20.8433 77.5778 21.035 77.5778 21.267V23H77.1587V21.2955C77.1587 21.0812 77.1031 20.9143 76.9918 20.7947C76.8806 20.674 76.7279 20.6136 76.5337 20.6136C76.4 20.6136 76.2804 20.6426 76.1751 20.7006C76.0709 20.7586 75.9886 20.8433 75.9283 20.9545C75.8679 21.0658 75.8377 21.2008 75.8377 21.3594Z" fill="#FFF0D1"/>
<path d="M88.4615 23.3636V27H88.0211V23.8253H87.9998L87.112 24.4148V23.9673L88.0211 23.3636H88.4615ZM91.361 26.3182V26.1264C91.361 25.9938 91.3882 25.8725 91.4426 25.7624C91.4983 25.6512 91.5788 25.5624 91.6841 25.4961C91.7907 25.4286 91.9197 25.3949 92.0712 25.3949C92.2251 25.3949 92.3541 25.4286 92.4583 25.4961C92.5624 25.5624 92.6412 25.6512 92.6944 25.7624C92.7477 25.8725 92.7743 25.9938 92.7743 26.1264V26.3182C92.7743 26.4508 92.7471 26.5727 92.6926 26.6839C92.6394 26.794 92.5601 26.8828 92.4547 26.9503C92.3506 27.0166 92.2227 27.0497 92.0712 27.0497C91.9173 27.0497 91.7877 27.0166 91.6824 26.9503C91.577 26.8828 91.4971 26.794 91.4426 26.6839C91.3882 26.5727 91.361 26.4508 91.361 26.3182ZM91.7232 26.1264V26.3182C91.7232 26.4283 91.7492 26.5271 91.8013 26.6147C91.8534 26.7011 91.9434 26.7443 92.0712 26.7443C92.1955 26.7443 92.2831 26.7011 92.334 26.6147C92.3861 26.5271 92.4121 26.4283 92.4121 26.3182V26.1264C92.4121 26.0163 92.3873 25.9181 92.3375 25.8317C92.2878 25.7441 92.199 25.7003 92.0712 25.7003C91.9469 25.7003 91.8575 25.7441 91.8031 25.8317C91.7498 25.9181 91.7232 26.0163 91.7232 26.1264ZM89.5499 24.2372V24.0455C89.5499 23.9129 89.5771 23.7915 89.6316 23.6815C89.6872 23.5702 89.7677 23.4814 89.873 23.4151C89.9796 23.3477 90.1086 23.3139 90.2601 23.3139C90.414 23.3139 90.543 23.3477 90.6472 23.4151C90.7514 23.4814 90.8301 23.5702 90.8833 23.6815C90.9366 23.7915 90.9632 23.9129 90.9632 24.0455V24.2372C90.9632 24.3698 90.936 24.4917 90.8816 24.603C90.8283 24.7131 90.749 24.8018 90.6436 24.8693C90.5395 24.9356 90.4116 24.9688 90.2601 24.9688C90.1062 24.9688 89.9766 24.9356 89.8713 24.8693C89.7659 24.8018 89.686 24.7131 89.6316 24.603C89.5771 24.4917 89.5499 24.3698 89.5499 24.2372ZM89.9121 24.0455V24.2372C89.9121 24.3473 89.9382 24.4461 89.9902 24.5337C90.0423 24.6201 90.1323 24.6634 90.2601 24.6634C90.3844 24.6634 90.472 24.6201 90.5229 24.5337C90.575 24.4461 90.601 24.3473 90.601 24.2372V24.0455C90.601 23.9354 90.5762 23.8371 90.5265 23.7507C90.4767 23.6631 90.388 23.6193 90.2601 23.6193C90.1358 23.6193 90.0465 23.6631 89.992 23.7507C89.9387 23.8371 89.9121 23.9354 89.9121 24.0455ZM89.6848 27L92.1848 23.3636H92.5897L90.0897 27H89.6848ZM82.1922 29.7543V29.3636H84.9194V29.7543H83.776V33H83.3356V29.7543H82.1922ZM85.8476 33L85.0166 30.2727H85.457L86.0465 32.3608H86.0749L86.6573 30.2727H87.1047L87.68 32.3537H87.7084L88.2979 30.2727H88.7382L87.9073 33H87.4953L86.8987 30.9048H86.8561L86.2595 33H85.8476ZM90.3074 33.0568C90.0612 33.0568 89.8452 32.9982 89.6593 32.881C89.4747 32.7638 89.3302 32.5999 89.2261 32.3892C89.1231 32.1785 89.0716 31.9323 89.0716 31.6506C89.0716 31.3665 89.1231 31.1185 89.2261 30.9066C89.3302 30.6947 89.4747 30.5302 89.6593 30.413C89.8452 30.2958 90.0612 30.2372 90.3074 30.2372C90.5536 30.2372 90.769 30.2958 90.9537 30.413C91.1395 30.5302 91.284 30.6947 91.3869 30.9066C91.4911 31.1185 91.5432 31.3665 91.5432 31.6506C91.5432 31.9323 91.4911 32.1785 91.3869 32.3892C91.284 32.5999 91.1395 32.7638 90.9537 32.881C90.769 32.9982 90.5536 33.0568 90.3074 33.0568ZM90.3074 32.6804C90.4944 32.6804 90.6483 32.6325 90.769 32.5366C90.8898 32.4407 90.9792 32.3146 91.0372 32.1584C91.0952 32.0021 91.1242 31.8329 91.1242 31.6506C91.1242 31.4683 91.0952 31.2984 91.0372 31.141C90.9792 30.9835 90.8898 30.8563 90.769 30.7592C90.6483 30.6622 90.4944 30.6136 90.3074 30.6136C90.1204 30.6136 89.9665 30.6622 89.8457 30.7592C89.725 30.8563 89.6356 30.9835 89.5776 31.141C89.5196 31.2984 89.4906 31.4683 89.4906 31.6506C89.4906 31.8329 89.5196 32.0021 89.5776 32.1584C89.6356 32.3146 89.725 32.4407 89.8457 32.5366C89.9665 32.6325 90.1204 32.6804 90.3074 32.6804ZM94.697 33.0568C94.4508 33.0568 94.2348 32.9982 94.049 32.881C93.8643 32.7638 93.7199 32.5999 93.6157 32.3892C93.5127 32.1785 93.4612 31.9323 93.4612 31.6506C93.4612 31.3665 93.5127 31.1185 93.6157 30.9066C93.7199 30.6947 93.8643 30.5302 94.049 30.413C94.2348 30.2958 94.4508 30.2372 94.697 30.2372C94.9433 30.2372 95.1587 30.2958 95.3434 30.413C95.5292 30.5302 95.6736 30.6947 95.7766 30.9066C95.8808 31.1185 95.9328 31.3665 95.9328 31.6506C95.9328 31.9323 95.8808 32.1785 95.7766 32.3892C95.6736 32.5999 95.5292 32.7638 95.3434 32.881C95.1587 32.9982 94.9433 33.0568 94.697 33.0568ZM94.697 32.6804C94.8841 32.6804 95.038 32.6325 95.1587 32.5366C95.2794 32.4407 95.3688 32.3146 95.4268 32.1584C95.4848 32.0021 95.5138 31.8329 95.5138 31.6506C95.5138 31.4683 95.4848 31.2984 95.4268 31.141C95.3688 30.9835 95.2794 30.8563 95.1587 30.7592C95.038 30.6622 94.8841 30.6136 94.697 30.6136C94.51 30.6136 94.3561 30.6622 94.2354 30.7592C94.1147 30.8563 94.0253 30.9835 93.9673 31.141C93.9093 31.2984 93.8803 31.4683 93.8803 31.6506C93.8803 31.8329 93.9093 32.0021 93.9673 32.1584C94.0253 32.3146 94.1147 32.4407 94.2354 32.5366C94.3561 32.6325 94.51 32.6804 94.697 32.6804ZM96.5725 33V30.2727H96.9773V30.6847H97.0057C97.0554 30.5497 97.1454 30.4402 97.2756 30.3562C97.4058 30.2721 97.5526 30.2301 97.716 30.2301C97.7467 30.2301 97.7852 30.2307 97.8314 30.2319C97.8775 30.2331 97.9124 30.2348 97.9361 30.2372V30.6634C97.9219 30.6598 97.8894 30.6545 97.8385 30.6474C97.7888 30.6391 97.7361 30.6349 97.6804 30.6349C97.5479 30.6349 97.4295 30.6628 97.3253 30.7184C97.2223 30.7728 97.1407 30.8486 97.0803 30.9457C97.0211 31.0415 96.9915 31.151 96.9915 31.2741V33H96.5725ZM84.3752 39V36.2727H84.7801V36.6989H84.8156C84.8724 36.5533 84.9641 36.4402 85.0908 36.3597C85.2174 36.2781 85.3695 36.2372 85.5471 36.2372C85.727 36.2372 85.8768 36.2781 85.9963 36.3597C86.1171 36.4402 86.2112 36.5533 86.2786 36.6989H86.307C86.3769 36.558 86.4816 36.4461 86.6213 36.3633C86.761 36.2792 86.9285 36.2372 87.1238 36.2372C87.3676 36.2372 87.5671 36.3136 87.7222 36.4663C87.8772 36.6178 87.9548 36.8539 87.9548 37.1747V39H87.5357V37.1747C87.5357 36.9735 87.4807 36.8297 87.3706 36.7433C87.2605 36.6568 87.1309 36.6136 86.9818 36.6136C86.79 36.6136 86.6414 36.6716 86.5361 36.7876C86.4307 36.9025 86.3781 37.0481 86.3781 37.2244V39H85.9519V37.1321C85.9519 36.977 85.9016 36.8522 85.801 36.7575C85.7004 36.6616 85.5708 36.6136 85.4122 36.6136C85.3033 36.6136 85.2015 36.6426 85.1068 36.7006C85.0132 36.7586 84.9375 36.8391 84.8795 36.9421C84.8227 37.0439 84.7943 37.1617 84.7943 37.2955V39H84.3752ZM89.8289 39.0568C89.5827 39.0568 89.3666 38.9982 89.1808 38.881C88.9961 38.7638 88.8517 38.5999 88.7476 38.3892C88.6446 38.1785 88.5931 37.9323 88.5931 37.6506C88.5931 37.3665 88.6446 37.1185 88.7476 36.9066C88.8517 36.6947 88.9961 36.5302 89.1808 36.413C89.3666 36.2958 89.5827 36.2372 89.8289 36.2372C90.0751 36.2372 90.2905 36.2958 90.4752 36.413C90.661 36.5302 90.8054 36.6947 90.9084 36.9066C91.0126 37.1185 91.0647 37.3665 91.0647 37.6506C91.0647 37.9323 91.0126 38.1785 90.9084 38.3892C90.8054 38.5999 90.661 38.7638 90.4752 38.881C90.2905 38.9982 90.0751 39.0568 89.8289 39.0568ZM89.8289 38.6804C90.0159 38.6804 90.1698 38.6325 90.2905 38.5366C90.4113 38.4407 90.5006 38.3146 90.5586 38.1584C90.6166 38.0021 90.6456 37.8329 90.6456 37.6506C90.6456 37.4683 90.6166 37.2984 90.5586 37.141C90.5006 36.9835 90.4113 36.8563 90.2905 36.7592C90.1698 36.6622 90.0159 36.6136 89.8289 36.6136C89.6419 36.6136 89.488 36.6622 89.3672 36.7592C89.2465 36.8563 89.1571 36.9835 89.0991 37.141C89.0411 37.2984 89.0121 37.4683 89.0121 37.6506C89.0121 37.8329 89.0411 38.0021 89.0991 38.1584C89.1571 38.3146 89.2465 38.4407 89.3672 38.5366C89.488 38.6325 89.6419 38.6804 89.8289 38.6804ZM91.7043 39V36.2727H92.1092V36.6847H92.1376C92.1873 36.5497 92.2772 36.4402 92.4074 36.3562C92.5377 36.2721 92.6844 36.2301 92.8478 36.2301C92.8786 36.2301 92.917 36.2307 92.9632 36.2319C93.0094 36.2331 93.0443 36.2348 93.068 36.2372V36.6634C93.0538 36.6598 93.0212 36.6545 92.9703 36.6474C92.9206 36.6391 92.8679 36.6349 92.8123 36.6349C92.6797 36.6349 92.5613 36.6628 92.4572 36.7184C92.3542 36.7728 92.2725 36.8486 92.2121 36.9457C92.153 37.0415 92.1234 37.151 92.1234 37.2741V39H91.7043ZM94.6251 39.0568C94.3623 39.0568 94.1357 38.9988 93.9451 38.8828C93.7557 38.7656 93.6095 38.6023 93.5065 38.3928C93.4047 38.1821 93.3538 37.937 93.3538 37.6577C93.3538 37.3783 93.4047 37.1321 93.5065 36.919C93.6095 36.7048 93.7527 36.5379 93.9362 36.4183C94.1209 36.2976 94.3363 36.2372 94.5825 36.2372C94.7246 36.2372 94.8648 36.2609 95.0033 36.3082C95.1418 36.3556 95.2679 36.4325 95.3815 36.5391C95.4952 36.6444 95.5857 36.7841 95.6532 36.9581C95.7207 37.1321 95.7544 37.3464 95.7544 37.6009V37.7784H93.6521V37.4162H95.3283C95.3283 37.2623 95.2975 37.125 95.2359 37.0043C95.1756 36.8835 95.0891 36.7882 94.9767 36.7184C94.8654 36.6486 94.734 36.6136 94.5825 36.6136C94.4156 36.6136 94.2712 36.6551 94.1493 36.7379C94.0285 36.8196 93.9356 36.9261 93.8705 37.0575C93.8054 37.1889 93.7729 37.3298 93.7729 37.4801V37.7216C93.7729 37.9276 93.8084 38.1022 93.8794 38.2454C93.9516 38.3874 94.0516 38.4957 94.1795 38.5703C94.3073 38.6437 94.4559 38.6804 94.6251 38.6804C94.7352 38.6804 94.8347 38.665 94.9234 38.6342C95.0134 38.6023 95.0909 38.5549 95.156 38.4922C95.2211 38.4283 95.2714 38.349 95.307 38.2543L95.7118 38.3679C95.6692 38.5052 95.5976 38.6259 95.4969 38.7301C95.3963 38.8331 95.272 38.9136 95.1241 38.9716C94.9761 39.0284 94.8098 39.0568 94.6251 39.0568ZM83.8869 45V42.2727H84.2918V42.6847H84.3202C84.3699 42.5497 84.4599 42.4402 84.5901 42.3562C84.7203 42.2721 84.8671 42.2301 85.0304 42.2301C85.0612 42.2301 85.0997 42.2307 85.1458 42.2319C85.192 42.2331 85.2269 42.2348 85.2506 42.2372V42.6634C85.2364 42.6598 85.2038 42.6545 85.1529 42.6474C85.1032 42.6391 85.0505 42.6349 84.9949 42.6349C84.8623 42.6349 84.7439 42.6628 84.6398 42.7184C84.5368 42.7728 84.4551 42.8486 84.3948 42.9457C84.3356 43.0415 84.306 43.151 84.306 43.2741V45H83.8869ZM86.5498 45.0639C86.377 45.0639 86.2202 45.0314 86.0793 44.9663C85.9385 44.9 85.8266 44.8047 85.7437 44.6804C85.6609 44.5549 85.6195 44.4034 85.6195 44.2259C85.6195 44.0696 85.6502 43.9429 85.7118 43.8459C85.7733 43.7476 85.8556 43.6707 85.9586 43.6151C86.0616 43.5594 86.1752 43.518 86.2995 43.4908C86.425 43.4624 86.551 43.4399 86.6777 43.4233C86.8434 43.402 86.9778 43.386 87.0807 43.3754C87.1849 43.3635 87.2607 43.344 87.308 43.3168C87.3565 43.2895 87.3808 43.2422 87.3808 43.1747V43.1605C87.3808 42.9853 87.3329 42.8492 87.237 42.7521C87.1423 42.6551 86.9985 42.6065 86.8055 42.6065C86.6055 42.6065 86.4486 42.6503 86.335 42.7379C86.2214 42.8255 86.1415 42.919 86.0953 43.0185L85.6976 42.8764C85.7686 42.7107 85.8633 42.5817 85.9817 42.4893C86.1012 42.3958 86.2314 42.3307 86.3723 42.294C86.5143 42.2562 86.654 42.2372 86.7913 42.2372C86.8789 42.2372 86.9795 42.2479 87.0932 42.2692C87.208 42.2893 87.3187 42.3313 87.4252 42.3952C87.5329 42.4592 87.6223 42.5556 87.6933 42.6847C87.7643 42.8137 87.7998 42.9865 87.7998 43.2031V45H87.3808V44.6307H87.3595C87.3311 44.6899 87.2838 44.7532 87.2175 44.8207C87.1512 44.8881 87.063 44.9455 86.9529 44.9929C86.8428 45.0402 86.7085 45.0639 86.5498 45.0639ZM86.6138 44.6875C86.7795 44.6875 86.9192 44.6549 87.0328 44.5898C87.1476 44.5247 87.234 44.4407 87.292 44.3377C87.3512 44.2347 87.3808 44.1264 87.3808 44.0128V43.6293C87.3631 43.6506 87.324 43.6701 87.2636 43.6879C87.2044 43.7044 87.1358 43.7192 87.0577 43.7322C86.9807 43.7441 86.9056 43.7547 86.8322 43.7642C86.76 43.7725 86.7014 43.7796 86.6564 43.7855C86.5475 43.7997 86.4457 43.8228 86.351 43.8548C86.2575 43.8855 86.1817 43.9323 86.1237 43.995C86.0669 44.0566 86.0385 44.1406 86.0385 44.2472C86.0385 44.3928 86.0923 44.5028 86.2001 44.5774C86.309 44.6508 86.4469 44.6875 86.6138 44.6875ZM89.6726 45.0568C89.4169 45.0568 89.1968 44.9964 89.0121 44.8757C88.8275 44.755 88.6854 44.5887 88.586 44.3768C88.4866 44.1649 88.4368 43.9228 88.4368 43.6506C88.4368 43.3736 88.4877 43.1291 88.5895 42.9173C88.6925 42.7042 88.8357 42.5379 89.0192 42.4183C89.2039 42.2976 89.4193 42.2372 89.6655 42.2372C89.8573 42.2372 90.0301 42.2727 90.184 42.3438C90.3379 42.4148 90.4639 42.5142 90.5622 42.642C90.6604 42.7699 90.7214 42.919 90.7451 43.0895H90.326C90.2941 42.9652 90.2231 42.8551 90.113 42.7592C90.0041 42.6622 89.8573 42.6136 89.6726 42.6136C89.5093 42.6136 89.366 42.6562 89.2429 42.7415C89.121 42.8255 89.0257 42.9445 88.9571 43.0984C88.8896 43.2511 88.8559 43.4304 88.8559 43.6364C88.8559 43.8471 88.889 44.0305 88.9553 44.1868C89.0228 44.343 89.1175 44.4644 89.2394 44.5508C89.3625 44.6372 89.5069 44.6804 89.6726 44.6804C89.7815 44.6804 89.8804 44.6615 89.9691 44.6236C90.0579 44.5857 90.1331 44.5312 90.1946 44.4602C90.2562 44.3892 90.3 44.304 90.326 44.2045H90.7451C90.7214 44.3655 90.6628 44.5105 90.5693 44.6396C90.477 44.7674 90.3544 44.8692 90.2017 44.945C90.0502 45.0195 89.8739 45.0568 89.6726 45.0568ZM92.5011 45.0568C92.2383 45.0568 92.0116 44.9988 91.8211 44.8828C91.6317 44.7656 91.4855 44.6023 91.3825 44.3928C91.2807 44.1821 91.2298 43.937 91.2298 43.6577C91.2298 43.3783 91.2807 43.1321 91.3825 42.919C91.4855 42.7048 91.6287 42.5379 91.8122 42.4183C91.9968 42.2976 92.2123 42.2372 92.4585 42.2372C92.6005 42.2372 92.7408 42.2609 92.8793 42.3082C93.0178 42.3556 93.1439 42.4325 93.2575 42.5391C93.3711 42.6444 93.4617 42.7841 93.5292 42.9581C93.5966 43.1321 93.6304 43.3464 93.6304 43.6009V43.7784H91.5281V43.4162H93.2042C93.2042 43.2623 93.1735 43.125 93.1119 43.0043C93.0515 42.8835 92.9651 42.7882 92.8527 42.7184C92.7414 42.6486 92.61 42.6136 92.4585 42.6136C92.2916 42.6136 92.1472 42.6551 92.0253 42.7379C91.9045 42.8196 91.8116 42.9261 91.7465 43.0575C91.6814 43.1889 91.6488 43.3298 91.6488 43.4801V43.7216C91.6488 43.9276 91.6843 44.1022 91.7554 44.2454C91.8276 44.3874 91.9276 44.4957 92.0554 44.5703C92.1833 44.6437 92.3318 44.6804 92.5011 44.6804C92.6112 44.6804 92.7106 44.665 92.7994 44.6342C92.8894 44.6023 92.9669 44.5549 93.032 44.4922C93.0971 44.4283 93.1474 44.349 93.1829 44.2543L93.5878 44.3679C93.5451 44.5052 93.4735 44.6259 93.3729 44.7301C93.2723 44.8331 93.148 44.9136 93 44.9716C92.8521 45.0284 92.6858 45.0568 92.5011 45.0568ZM96.1996 42.8835L95.8232 42.9901C95.7995 42.9273 95.7646 42.8664 95.7184 42.8072C95.6735 42.7468 95.6119 42.6971 95.5338 42.658C95.4557 42.619 95.3556 42.5994 95.2337 42.5994C95.0668 42.5994 94.9277 42.6379 94.8165 42.7148C94.7064 42.7906 94.6513 42.8871 94.6513 43.0043C94.6513 43.1084 94.6892 43.1907 94.765 43.2511C94.8407 43.3114 94.9591 43.3617 95.1201 43.402L95.5249 43.5014C95.7687 43.5606 95.9504 43.6512 96.07 43.7731C96.1896 43.8938 96.2493 44.0495 96.2493 44.2401C96.2493 44.3963 96.2044 44.536 96.1144 44.6591C96.0256 44.7822 95.9013 44.8793 95.7415 44.9503C95.5817 45.0213 95.3959 45.0568 95.184 45.0568C94.9058 45.0568 94.6756 44.9964 94.4933 44.8757C94.311 44.755 94.1956 44.5786 94.1471 44.3466L94.5448 44.2472C94.5827 44.3939 94.6543 44.504 94.7596 44.5774C94.8662 44.6508 95.0053 44.6875 95.1769 44.6875C95.3722 44.6875 95.5273 44.6461 95.6421 44.5632C95.7581 44.4792 95.8161 44.3786 95.8161 44.2614C95.8161 44.1667 95.783 44.0874 95.7167 44.0234C95.6504 43.9583 95.5486 43.9098 95.4113 43.8778L94.9567 43.7713C94.707 43.7121 94.5235 43.6204 94.4063 43.4961C94.2903 43.3706 94.2323 43.2138 94.2323 43.0256C94.2323 42.8717 94.2755 42.7356 94.3619 42.6172C94.4495 42.4988 94.5685 42.4059 94.7188 42.3384C94.8703 42.271 95.0419 42.2372 95.2337 42.2372C95.5036 42.2372 95.7155 42.2964 95.8694 42.4148C96.0244 42.5331 96.1345 42.6894 96.1996 42.8835Z" fill="#D6907B"/>
</g>
<defs>
<clipPath id="clip0_37_20">
<rect width="180" height="180" fill="white"/>
</clipPath>
</defs>
</svg>
