<svg width="180" height="180" viewBox="0 0 180 180" fill="none" xmlns="http://www.w3.org/2000/svg">
<g clip-path="url(#clip0_34_2)">
<path d="M90 0C113.626 0 136.305 9.29048 153.141 25.8661C169.978 42.4417 179.621 64.9729 179.989 88.5965C180.358 112.22 171.422 135.041 155.111 152.134C138.8 169.226 116.422 179.219 92.8068 179.956L90 90V0Z" fill="#FFF0D1"/>
<path d="M92.8067 179.956C74.956 180.513 57.3431 175.747 42.2096 166.263C27.0761 156.78 15.1062 143.008 7.82324 126.701L90 90L92.8067 179.956Z" fill="#DE6B48"/>
<path d="M7.82328 126.701C2.47487 114.726 -0.191546 101.726 0.0107025 88.6121L90 89.9999L7.82328 126.701Z" fill="#511730"/>
<path d="M0.0107422 88.6121C0.286143 70.7548 5.86817 53.3832 16.0465 38.708C26.2247 24.0328 40.539 12.7176 57.1676 6.20239L90 90L0.0107422 88.6121Z" fill="#8F443D"/>
<path d="M57.1677 6.20241C65.8734 2.79147 75.0575 0.757951 84.3893 0.175049L90.0001 90L57.1677 6.20241Z" fill="#822E15"/>
<path d="M84.3892 0.175063C86.2519 0.0587084 88.1178 0.000325747 89.9842 0L89.9999 90L84.3892 0.175063Z" fill="#C1A468"/>
<path d="M124.237 83.0795C123.904 83.0795 123.603 83.0133 123.336 82.8807C123.069 82.7481 122.855 82.5663 122.694 82.3352C122.533 82.1042 122.445 81.8409 122.43 81.5455H123.112C123.138 81.8087 123.258 82.0265 123.47 82.1989C123.684 82.3693 123.94 82.4545 124.237 82.4545C124.475 82.4545 124.688 82.3987 124.873 82.2869C125.061 82.1752 125.208 82.0218 125.314 81.8267C125.422 81.6297 125.475 81.4072 125.475 81.1591C125.475 80.9053 125.42 80.679 125.308 80.4801C125.198 80.2794 125.047 80.1212 124.853 80.0057C124.66 79.8902 124.44 79.8314 124.191 79.8295C124.013 79.8277 123.831 79.8551 123.643 79.9119C123.456 79.9669 123.301 80.0379 123.18 80.125L122.521 80.0455L122.873 77.1818H125.896V77.8068H123.464L123.26 79.5227H123.294C123.413 79.428 123.563 79.3494 123.743 79.2869C123.922 79.2244 124.11 79.1932 124.305 79.1932C124.661 79.1932 124.978 79.2784 125.257 79.4489C125.537 79.6174 125.757 79.8485 125.916 80.142C126.077 80.4356 126.157 80.7708 126.157 81.1477C126.157 81.5189 126.074 81.8504 125.907 82.142C125.743 82.4318 125.515 82.661 125.225 82.8295C124.936 82.9962 124.606 83.0795 124.237 83.0795ZM129.184 83.0795C128.756 83.0795 128.391 82.9631 128.09 82.7301C127.789 82.4953 127.559 82.1553 127.4 81.7102C127.24 81.2633 127.161 80.7235 127.161 80.0909C127.161 79.4621 127.24 78.9252 127.4 78.4801C127.56 78.0331 127.792 77.6922 128.093 77.4574C128.396 77.2206 128.759 77.1023 129.184 77.1023C129.608 77.1023 129.971 77.2206 130.272 77.4574C130.575 77.6922 130.806 78.0331 130.965 78.4801C131.126 78.9252 131.206 79.4621 131.206 80.0909C131.206 80.7235 131.127 81.2633 130.968 81.7102C130.809 82.1553 130.578 82.4953 130.277 82.7301C129.976 82.9631 129.612 83.0795 129.184 83.0795ZM129.184 82.4545C129.608 82.4545 129.937 82.25 130.172 81.8409C130.407 81.4318 130.525 80.8485 130.525 80.0909C130.525 79.5871 130.471 79.1581 130.363 78.804C130.257 78.4498 130.103 78.1799 129.902 77.9943C129.703 77.8087 129.464 77.7159 129.184 77.7159C128.763 77.7159 128.435 77.9233 128.198 78.3381C127.961 78.7509 127.843 79.3352 127.843 80.0909C127.843 80.5947 127.896 81.0227 128.002 81.375C128.108 81.7273 128.26 81.9953 128.459 82.179C128.66 82.3627 128.901 82.4545 129.184 82.4545ZM135.252 81.9091V81.6023C135.252 81.3902 135.295 81.196 135.382 81.0199C135.471 80.8419 135.6 80.6998 135.769 80.5938C135.939 80.4858 136.146 80.4318 136.388 80.4318C136.634 80.4318 136.841 80.4858 137.007 80.5938C137.174 80.6998 137.3 80.8419 137.385 81.0199C137.471 81.196 137.513 81.3902 137.513 81.6023V81.9091C137.513 82.1212 137.47 82.3163 137.382 82.4943C137.297 82.6705 137.17 82.8125 137.002 82.9205C136.835 83.0265 136.631 83.0795 136.388 83.0795C136.142 83.0795 135.935 83.0265 135.766 82.9205C135.597 82.8125 135.47 82.6705 135.382 82.4943C135.295 82.3163 135.252 82.1212 135.252 81.9091ZM135.831 81.6023V81.9091C135.831 82.0852 135.873 82.2434 135.956 82.3835C136.04 82.5218 136.184 82.5909 136.388 82.5909C136.587 82.5909 136.727 82.5218 136.809 82.3835C136.892 82.2434 136.934 82.0852 136.934 81.9091V81.6023C136.934 81.4261 136.894 81.2689 136.814 81.1307C136.735 80.9905 136.593 80.9205 136.388 80.9205C136.189 80.9205 136.046 80.9905 135.959 81.1307C135.874 81.2689 135.831 81.4261 135.831 81.6023ZM132.354 78.5795V78.2727C132.354 78.0606 132.398 77.8665 132.485 77.6903C132.574 77.5123 132.703 77.3703 132.871 77.2642C133.042 77.1562 133.248 77.1023 133.49 77.1023C133.737 77.1023 133.943 77.1562 134.11 77.2642C134.276 77.3703 134.402 77.5123 134.488 77.6903C134.573 77.8665 134.615 78.0606 134.615 78.2727V78.5795C134.615 78.7917 134.572 78.9867 134.485 79.1648C134.4 79.3409 134.273 79.483 134.104 79.5909C133.937 79.697 133.733 79.75 133.49 79.75C133.244 79.75 133.037 79.697 132.868 79.5909C132.7 79.483 132.572 79.3409 132.485 79.1648C132.398 78.9867 132.354 78.7917 132.354 78.5795ZM132.934 78.2727V78.5795C132.934 78.7557 132.975 78.9138 133.059 79.054C133.142 79.1922 133.286 79.2614 133.49 79.2614C133.689 79.2614 133.829 79.1922 133.911 79.054C133.994 78.9138 134.036 78.7557 134.036 78.5795V78.2727C134.036 78.0966 133.996 77.9394 133.917 77.8011C133.837 77.661 133.695 77.5909 133.49 77.5909C133.292 77.5909 133.149 77.661 133.061 77.8011C132.976 77.9394 132.934 78.0966 132.934 78.2727ZM132.57 83L136.57 77.1818H137.218L133.218 83H132.57ZM120.894 93L119.303 87.1818H120.019L121.235 91.9205H121.292L122.531 87.1818H123.326L124.565 91.9205H124.621L125.837 87.1818H126.553L124.962 93H124.235L122.951 88.3636H122.906L121.621 93H120.894ZM128.011 90.375V93H127.34V87.1818H128.011V89.3182H128.067C128.17 89.0928 128.323 88.9138 128.528 88.7812C128.734 88.6468 129.009 88.5795 129.352 88.5795C129.649 88.5795 129.909 88.6392 130.133 88.7585C130.356 88.8759 130.53 89.0568 130.653 89.3011C130.778 89.5436 130.84 89.8523 130.84 90.2273V93H130.17V90.2727C130.17 89.9261 130.08 89.6581 129.9 89.4688C129.722 89.2775 129.475 89.1818 129.158 89.1818C128.939 89.1818 128.742 89.2282 128.567 89.321C128.395 89.4138 128.259 89.5492 128.158 89.7273C128.06 89.9053 128.011 90.1212 128.011 90.375ZM132.067 93V88.6364H132.737V93H132.067ZM132.408 87.9091C132.277 87.9091 132.164 87.8646 132.07 87.7756C131.977 87.6866 131.93 87.5795 131.93 87.4545C131.93 87.3295 131.977 87.2225 132.07 87.1335C132.164 87.0445 132.277 87 132.408 87C132.538 87 132.65 87.0445 132.743 87.1335C132.838 87.2225 132.885 87.3295 132.885 87.4545C132.885 87.5795 132.838 87.6866 132.743 87.7756C132.65 87.8646 132.538 87.9091 132.408 87.9091ZM135.863 88.6364V89.2045H133.602V88.6364H135.863ZM134.261 87.5909H134.931V91.75C134.931 91.9394 134.959 92.0814 135.013 92.1761C135.07 92.2689 135.142 92.3314 135.229 92.3636C135.318 92.3939 135.412 92.4091 135.511 92.4091C135.585 92.4091 135.645 92.4053 135.692 92.3977C135.74 92.3883 135.778 92.3807 135.806 92.375L135.942 92.9773C135.897 92.9943 135.834 93.0114 135.752 93.0284C135.671 93.0473 135.567 93.0568 135.442 93.0568C135.253 93.0568 135.067 93.0161 134.886 92.9347C134.706 92.8532 134.556 92.7292 134.437 92.5625C134.319 92.3958 134.261 92.1856 134.261 91.9318V87.5909ZM138.654 93.0909C138.234 93.0909 137.871 92.9981 137.566 92.8125C137.263 92.625 137.029 92.3636 136.864 92.0284C136.701 91.6913 136.62 91.2992 136.62 90.8523C136.62 90.4053 136.701 90.0114 136.864 89.6705C137.029 89.3277 137.258 89.0606 137.552 88.8693C137.847 88.6761 138.192 88.5795 138.586 88.5795C138.813 88.5795 139.038 88.6174 139.259 88.6932C139.481 88.7689 139.683 88.892 139.864 89.0625C140.046 89.2311 140.191 89.4545 140.299 89.733C140.407 90.0114 140.461 90.3542 140.461 90.7614V91.0455H137.097V90.4659H139.779C139.779 90.2197 139.73 90 139.631 89.8068C139.535 89.6136 139.397 89.4612 139.217 89.3494C139.039 89.2377 138.828 89.1818 138.586 89.1818C138.319 89.1818 138.088 89.2481 137.893 89.3807C137.7 89.5114 137.551 89.6818 137.447 89.892C137.343 90.1023 137.29 90.3277 137.29 90.5682V90.9545C137.29 91.2841 137.347 91.5634 137.461 91.7926C137.576 92.0199 137.737 92.1932 137.941 92.3125C138.146 92.4299 138.383 92.4886 138.654 92.4886C138.83 92.4886 138.989 92.464 139.131 92.4148C139.275 92.3636 139.399 92.2879 139.504 92.1875C139.608 92.0852 139.688 91.9583 139.745 91.8068L140.393 91.9886C140.325 92.2083 140.21 92.4015 140.049 92.5682C139.888 92.733 139.689 92.8617 139.452 92.9545C139.216 93.0455 138.95 93.0909 138.654 93.0909Z" fill="#DE6B48"/>
<path d="M40.5423 47.1818V53H39.8377V47.9205H39.8036L38.3832 48.8636V48.1477L39.8377 47.1818H40.5423ZM44.0678 47.1023C44.3065 47.1042 44.5451 47.1496 44.7837 47.2386C45.0224 47.3277 45.2402 47.4754 45.4371 47.6818C45.6341 47.8864 45.7923 48.1657 45.9116 48.5199C46.0309 48.8741 46.0906 49.3182 46.0906 49.8523C46.0906 50.3693 46.0413 50.8286 45.9428 51.2301C45.8462 51.6297 45.7061 51.9669 45.5224 52.2415C45.3406 52.5161 45.119 52.7244 44.8576 52.8665C44.5981 53.0085 44.3046 53.0795 43.9769 53.0795C43.6512 53.0795 43.3604 53.0152 43.1048 52.8864C42.851 52.7557 42.6426 52.5748 42.4798 52.3438C42.3188 52.1108 42.2156 51.8409 42.1701 51.5341H42.8633C42.9258 51.8011 43.0498 52.0218 43.2354 52.196C43.4229 52.3684 43.6701 52.4545 43.9769 52.4545C44.4258 52.4545 44.7799 52.2585 45.0394 51.8665C45.3008 51.4744 45.4315 50.9205 45.4315 50.2045H45.386C45.2799 50.3636 45.154 50.5009 45.0082 50.6165C44.8623 50.732 44.7004 50.821 44.5224 50.8835C44.3443 50.946 44.1549 50.9773 43.9542 50.9773C43.6209 50.9773 43.315 50.8949 43.0366 50.7301C42.7601 50.5634 42.5385 50.3352 42.3718 50.0455C42.207 49.7538 42.1246 49.4205 42.1246 49.0455C42.1246 48.6894 42.2042 48.3636 42.3633 48.0682C42.5243 47.7708 42.7496 47.5341 43.0394 47.358C43.3311 47.1818 43.6739 47.0966 44.0678 47.1023ZM44.0678 47.7273C43.8292 47.7273 43.6142 47.7869 43.4229 47.9062C43.2335 48.0237 43.083 48.1828 42.9712 48.3835C42.8614 48.5824 42.8065 48.803 42.8065 49.0455C42.8065 49.2879 42.8595 49.5085 42.9656 49.7074C43.0735 49.9044 43.2203 50.0616 43.4059 50.179C43.5934 50.2945 43.8065 50.3523 44.0451 50.3523C44.225 50.3523 44.3926 50.3172 44.5479 50.2472C44.7032 50.1752 44.8387 50.0777 44.9542 49.9545C45.0716 49.8295 45.1635 49.6884 45.2298 49.5312C45.296 49.3722 45.3292 49.2064 45.3292 49.0341C45.3292 48.8068 45.2743 48.5937 45.1644 48.3949C45.0565 48.196 44.9068 48.035 44.7156 47.9119C44.5262 47.7888 44.3103 47.7273 44.0678 47.7273ZM50.1737 51.9091V51.6023C50.1737 51.3902 50.2172 51.196 50.3043 51.0199C50.3933 50.8419 50.5221 50.6998 50.6907 50.5938C50.8612 50.4858 51.0676 50.4318 51.31 50.4318C51.5562 50.4318 51.7627 50.4858 51.9293 50.5938C52.096 50.6998 52.2219 50.8419 52.3072 51.0199C52.3924 51.196 52.435 51.3902 52.435 51.6023V51.9091C52.435 52.1212 52.3915 52.3163 52.3043 52.4943C52.2191 52.6705 52.0922 52.8125 51.9237 52.9205C51.757 53.0265 51.5524 53.0795 51.31 53.0795C51.0638 53.0795 50.8564 53.0265 50.6879 52.9205C50.5193 52.8125 50.3915 52.6705 50.3043 52.4943C50.2172 52.3163 50.1737 52.1212 50.1737 51.9091ZM50.7532 51.6023V51.9091C50.7532 52.0852 50.7949 52.2434 50.8782 52.3835C50.9615 52.5218 51.1055 52.5909 51.31 52.5909C51.5089 52.5909 51.649 52.5218 51.7305 52.3835C51.8138 52.2434 51.8555 52.0852 51.8555 51.9091V51.6023C51.8555 51.4261 51.8157 51.2689 51.7362 51.1307C51.6566 50.9905 51.5146 50.9205 51.31 50.9205C51.1112 50.9205 50.9682 50.9905 50.881 51.1307C50.7958 51.2689 50.7532 51.4261 50.7532 51.6023ZM47.2759 48.5795V48.2727C47.2759 48.0606 47.3195 47.8665 47.4066 47.6903C47.4956 47.5123 47.6244 47.3703 47.793 47.2642C47.9634 47.1562 48.1699 47.1023 48.4123 47.1023C48.6585 47.1023 48.8649 47.1562 49.0316 47.2642C49.1983 47.3703 49.3242 47.5123 49.4094 47.6903C49.4947 47.8665 49.5373 48.0606 49.5373 48.2727V48.5795C49.5373 48.7917 49.4937 48.9867 49.4066 49.1648C49.3214 49.3409 49.1945 49.483 49.0259 49.5909C48.8593 49.697 48.6547 49.75 48.4123 49.75C48.1661 49.75 47.9587 49.697 47.7901 49.5909C47.6216 49.483 47.4937 49.3409 47.4066 49.1648C47.3195 48.9867 47.2759 48.7917 47.2759 48.5795ZM47.8555 48.2727V48.5795C47.8555 48.7557 47.8971 48.9138 47.9805 49.054C48.0638 49.1922 48.2077 49.2614 48.4123 49.2614C48.6112 49.2614 48.7513 49.1922 48.8327 49.054C48.9161 48.9138 48.9577 48.7557 48.9577 48.5795V48.2727C48.9577 48.0966 48.918 47.9394 48.8384 47.8011C48.7589 47.661 48.6168 47.5909 48.4123 47.5909C48.2134 47.5909 48.0704 47.661 47.9833 47.8011C47.8981 47.9394 47.8555 48.0966 47.8555 48.2727ZM47.4918 53L51.4918 47.1818H52.1396L48.1396 53H47.4918ZM36.1072 63H35.3686L37.505 57.1818H38.2322L40.3686 63H39.63L37.8913 58.1023H37.8459L36.1072 63ZM36.38 60.7273H39.3572V61.3523H36.38V60.7273ZM44.2749 59.6136L43.6726 59.7841C43.6347 59.6837 43.5788 59.5862 43.505 59.4915C43.433 59.3949 43.3345 59.3153 43.2095 59.2528C43.0845 59.1903 42.9245 59.1591 42.7294 59.1591C42.4624 59.1591 42.2398 59.2206 42.0618 59.3438C41.8857 59.465 41.7976 59.6193 41.7976 59.8068C41.7976 59.9735 41.8582 60.1051 41.9794 60.2017C42.1006 60.2983 42.29 60.3788 42.5476 60.4432L43.1953 60.6023C43.5855 60.697 43.8762 60.8419 44.0675 61.0369C44.2588 61.2301 44.3544 61.4792 44.3544 61.7841C44.3544 62.0341 44.2824 62.2576 44.1385 62.4545C43.9964 62.6515 43.7976 62.8068 43.5419 62.9205C43.2862 63.0341 42.9889 63.0909 42.6499 63.0909C42.2048 63.0909 41.8364 62.9943 41.5447 62.8011C41.2531 62.608 41.0684 62.3258 40.9908 61.9545L41.6271 61.7955C41.6877 62.0303 41.8023 62.2064 41.9709 62.3239C42.1413 62.4413 42.3639 62.5 42.6385 62.5C42.951 62.5 43.1991 62.4337 43.3828 62.3011C43.5684 62.1667 43.6612 62.0057 43.6612 61.8182C43.6612 61.6667 43.6082 61.5398 43.5021 61.4375C43.3961 61.3333 43.2332 61.2557 43.0135 61.2045L42.2862 61.0341C41.8866 60.9394 41.593 60.7926 41.4055 60.5938C41.2199 60.393 41.1271 60.142 41.1271 59.8409C41.1271 59.5947 41.1963 59.3769 41.3345 59.1875C41.4747 58.9981 41.665 58.8494 41.9055 58.7415C42.148 58.6335 42.4226 58.5795 42.7294 58.5795C43.1612 58.5795 43.5002 58.6742 43.7464 58.8636C43.9946 59.053 44.1707 59.303 44.2749 59.6136ZM45.3636 63V58.6364H46.0341V63H45.3636ZM45.7045 57.9091C45.5739 57.9091 45.4612 57.8646 45.3665 57.7756C45.2737 57.6866 45.2273 57.5795 45.2273 57.4545C45.2273 57.3295 45.2737 57.2225 45.3665 57.1335C45.4612 57.0445 45.5739 57 45.7045 57C45.8352 57 45.947 57.0445 46.0398 57.1335C46.1345 57.2225 46.1818 57.3295 46.1818 57.4545C46.1818 57.5795 46.1345 57.6866 46.0398 57.7756C45.947 57.8646 45.8352 57.9091 45.7045 57.9091ZM48.5462 63.1023C48.2696 63.1023 48.0187 63.0502 47.7933 62.946C47.5679 62.84 47.389 62.6875 47.2564 62.4886C47.1238 62.2879 47.0575 62.0455 47.0575 61.7614C47.0575 61.5114 47.1068 61.3087 47.2053 61.1534C47.3037 60.9962 47.4354 60.8731 47.6001 60.7841C47.7649 60.6951 47.9467 60.6288 48.1456 60.5852C48.3464 60.5398 48.5481 60.5038 48.7507 60.4773C49.0159 60.4432 49.2308 60.4176 49.3956 60.4006C49.5623 60.3816 49.6835 60.3504 49.7592 60.3068C49.8369 60.2633 49.8757 60.1875 49.8757 60.0795V60.0568C49.8757 59.7765 49.799 59.5587 49.6456 59.4034C49.4941 59.2481 49.264 59.1705 48.9553 59.1705C48.6352 59.1705 48.3842 59.2405 48.2024 59.3807C48.0206 59.5208 47.8928 59.6705 47.8189 59.8295L47.1825 59.6023C47.2962 59.3371 47.4477 59.1307 47.6371 58.983C47.8284 58.8333 48.0367 58.7292 48.2621 58.6705C48.4893 58.6098 48.7128 58.5795 48.9325 58.5795C49.0727 58.5795 49.2337 58.5966 49.4155 58.6307C49.5992 58.6629 49.7763 58.7301 49.9467 58.8324C50.1191 58.9347 50.2621 59.089 50.3757 59.2955C50.4893 59.5019 50.5462 59.7784 50.5462 60.125V63H49.8757V62.4091H49.8416C49.7962 62.5038 49.7204 62.6051 49.6143 62.7131C49.5083 62.821 49.3672 62.9129 49.1911 62.9886C49.0149 63.0644 48.8 63.1023 48.5462 63.1023ZM48.6484 62.5C48.9136 62.5 49.1371 62.4479 49.3189 62.3438C49.5026 62.2396 49.6409 62.1051 49.7337 61.9403C49.8284 61.7756 49.8757 61.6023 49.8757 61.4205V60.8068C49.8473 60.8409 49.7848 60.8722 49.6882 60.9006C49.5935 60.9271 49.4837 60.9508 49.3587 60.9716C49.2356 60.9905 49.1153 61.0076 48.9979 61.0227C48.8823 61.036 48.7886 61.0473 48.7166 61.0568C48.5424 61.0795 48.3795 61.1165 48.228 61.1676C48.0784 61.2169 47.9571 61.2917 47.8643 61.392C47.7734 61.4905 47.728 61.625 47.728 61.7955C47.728 62.0284 47.8142 62.2045 47.9865 62.3239C48.1607 62.4413 48.3814 62.5 48.6484 62.5ZM52.4403 60.375V63H51.7699V58.6364H52.4176V59.3182H52.4744C52.5767 59.0966 52.732 58.9186 52.9403 58.7841C53.1487 58.6477 53.4176 58.5795 53.7472 58.5795C54.0426 58.5795 54.3011 58.6402 54.5227 58.7614C54.7443 58.8807 54.9167 59.0625 55.0398 59.3068C55.1629 59.5492 55.2244 59.8561 55.2244 60.2273V63H54.554V60.2727C54.554 59.9299 54.465 59.6629 54.2869 59.4716C54.1089 59.2784 53.8646 59.1818 53.554 59.1818C53.34 59.1818 53.1487 59.2282 52.9801 59.321C52.8134 59.4138 52.6818 59.5492 52.5852 59.7273C52.4886 59.9053 52.4403 60.1212 52.4403 60.375Z" fill="#DE6B48"/>
<path d="M71.0526 12.0597C70.8026 12.0597 70.5775 12.0099 70.3772 11.9105C70.1769 11.8111 70.0164 11.6747 69.8957 11.5014C69.7749 11.3281 69.7089 11.1307 69.6975 10.9091H70.2089C70.2288 11.1065 70.3183 11.2699 70.4774 11.3991C70.6379 11.527 70.8296 11.5909 71.0526 11.5909C71.2316 11.5909 71.3907 11.549 71.5299 11.4652C71.6705 11.3814 71.7806 11.2663 71.8602 11.12C71.9411 10.9723 71.9816 10.8054 71.9816 10.6193C71.9816 10.429 71.9397 10.2592 71.8559 10.1101C71.7735 9.95952 71.6599 9.84091 71.515 9.75426C71.3701 9.66761 71.2046 9.62358 71.0186 9.62216C70.885 9.62074 70.748 9.64134 70.6073 9.68395C70.4667 9.72514 70.3509 9.77841 70.26 9.84375L69.7657 9.78409L70.0299 7.63636H72.297V8.10511H70.4731L70.3197 9.39205H70.3453C70.4347 9.32102 70.547 9.26207 70.6819 9.2152C70.8169 9.16832 70.9575 9.14489 71.1038 9.14489C71.3708 9.14489 71.6088 9.20881 71.8176 9.33665C72.0278 9.46307 72.1926 9.63636 72.3119 9.85653C72.4326 10.0767 72.493 10.3281 72.493 10.6108C72.493 10.8892 72.4305 11.1378 72.3055 11.3565C72.1819 11.5739 72.0115 11.7457 71.7941 11.8722C71.5768 11.9972 71.3296 12.0597 71.0526 12.0597ZM75.5638 11.1818V10.9517C75.5638 10.7926 75.5965 10.647 75.6618 10.5149C75.7286 10.3814 75.8252 10.2749 75.9516 10.1953C76.0795 10.1143 76.2343 10.0739 76.4161 10.0739C76.6008 10.0739 76.7556 10.1143 76.8806 10.1953C77.0056 10.2749 77.1001 10.3814 77.164 10.5149C77.2279 10.647 77.2599 10.7926 77.2599 10.9517V11.1818C77.2599 11.3409 77.2272 11.4872 77.1618 11.6207C77.0979 11.7528 77.0028 11.8594 76.8763 11.9403C76.7513 12.0199 76.5979 12.0597 76.4161 12.0597C76.2314 12.0597 76.0759 12.0199 75.9495 11.9403C75.8231 11.8594 75.7272 11.7528 75.6618 11.6207C75.5965 11.4872 75.5638 11.3409 75.5638 11.1818ZM75.9985 10.9517V11.1818C75.9985 11.3139 76.0297 11.4325 76.0922 11.5376C76.1547 11.6413 76.2627 11.6932 76.4161 11.6932C76.5653 11.6932 76.6704 11.6413 76.7314 11.5376C76.7939 11.4325 76.8252 11.3139 76.8252 11.1818V10.9517C76.8252 10.8196 76.7954 10.7017 76.7357 10.598C76.676 10.4929 76.5695 10.4403 76.4161 10.4403C76.267 10.4403 76.1597 10.4929 76.0944 10.598C76.0305 10.7017 75.9985 10.8196 75.9985 10.9517ZM73.3905 8.68466V8.45455C73.3905 8.29545 73.4232 8.14986 73.4885 8.01776C73.5553 7.88423 73.6519 7.7777 73.7783 7.69815C73.9062 7.61719 74.061 7.5767 74.2428 7.5767C74.4275 7.5767 74.5823 7.61719 74.7073 7.69815C74.8323 7.7777 74.9268 7.88423 74.9907 8.01776C75.0546 8.14986 75.0866 8.29545 75.0866 8.45455V8.68466C75.0866 8.84375 75.0539 8.99006 74.9885 9.12358C74.9246 9.25568 74.8295 9.36222 74.703 9.44318C74.578 9.52273 74.4246 9.5625 74.2428 9.5625C74.0581 9.5625 73.9026 9.52273 73.7762 9.44318C73.6498 9.36222 73.5539 9.25568 73.4885 9.12358C73.4232 8.99006 73.3905 8.84375 73.3905 8.68466ZM73.8252 8.45455V8.68466C73.8252 8.81676 73.8564 8.93537 73.9189 9.04048C73.9814 9.14418 74.0894 9.19602 74.2428 9.19602C74.392 9.19602 74.4971 9.14418 74.5581 9.04048C74.6206 8.93537 74.6519 8.81676 74.6519 8.68466V8.45455C74.6519 8.32244 74.6221 8.20455 74.5624 8.10085C74.5028 7.99574 74.3962 7.94318 74.2428 7.94318C74.0937 7.94318 73.9864 7.99574 73.9211 8.10085C73.8572 8.20455 73.8252 8.32244 73.8252 8.45455ZM73.5525 12L76.5525 7.63636H77.0383L74.0383 12H73.5525ZM64.1306 15.1051V14.6364H67.4033V15.1051H66.0312V19H65.5028V15.1051H64.1306ZM68.5171 19L67.52 15.7273H68.0484L68.7558 18.233H68.7899L69.4887 15.7273H70.0257L70.716 18.2244H70.7501L71.4575 15.7273H71.9859L70.9887 19H70.4944L69.7785 16.4858H69.7274L69.0115 19H68.5171ZM73.8689 19.0682C73.5734 19.0682 73.3142 18.9979 73.0912 18.8572C72.8696 18.7166 72.6963 18.5199 72.5713 18.267C72.4477 18.0142 72.3859 17.7187 72.3859 17.3807C72.3859 17.0398 72.4477 16.7422 72.5713 16.4879C72.6963 16.2337 72.8696 16.0362 73.0912 15.8956C73.3142 15.755 73.5734 15.6847 73.8689 15.6847C74.1643 15.6847 74.4229 15.755 74.6444 15.8956C74.8675 16.0362 75.0407 16.2337 75.1643 16.4879C75.2893 16.7422 75.3518 17.0398 75.3518 17.3807C75.3518 17.7187 75.2893 18.0142 75.1643 18.267C75.0407 18.5199 74.8675 18.7166 74.6444 18.8572C74.4229 18.9979 74.1643 19.0682 73.8689 19.0682ZM73.8689 18.6165C74.0933 18.6165 74.278 18.5589 74.4229 18.4439C74.5677 18.3288 74.675 18.1776 74.7446 17.9901C74.8142 17.8026 74.849 17.5994 74.849 17.3807C74.849 17.1619 74.8142 16.9581 74.7446 16.7692C74.675 16.5803 74.5677 16.4276 74.4229 16.3111C74.278 16.1946 74.0933 16.1364 73.8689 16.1364C73.6444 16.1364 73.4598 16.1946 73.3149 16.3111C73.17 16.4276 73.0628 16.5803 72.9932 16.7692C72.9236 16.9581 72.8888 17.1619 72.8888 17.3807C72.8888 17.5994 72.9236 17.8026 72.9932 17.9901C73.0628 18.1776 73.17 18.3288 73.3149 18.4439C73.4598 18.5589 73.6444 18.6165 73.8689 18.6165ZM79.1365 19.0682C78.841 19.0682 78.5818 18.9979 78.3588 18.8572C78.1372 18.7166 77.9639 18.5199 77.8389 18.267C77.7153 18.0142 77.6535 17.7187 77.6535 17.3807C77.6535 17.0398 77.7153 16.7422 77.8389 16.4879C77.9639 16.2337 78.1372 16.0362 78.3588 15.8956C78.5818 15.755 78.841 15.6847 79.1365 15.6847C79.4319 15.6847 79.6904 15.755 79.912 15.8956C80.135 16.0362 80.3083 16.2337 80.4319 16.4879C80.5569 16.7422 80.6194 17.0398 80.6194 17.3807C80.6194 17.7187 80.5569 18.0142 80.4319 18.267C80.3083 18.5199 80.135 18.7166 79.912 18.8572C79.6904 18.9979 79.4319 19.0682 79.1365 19.0682ZM79.1365 18.6165C79.3609 18.6165 79.5455 18.5589 79.6904 18.4439C79.8353 18.3288 79.9426 18.1776 80.0122 17.9901C80.0818 17.8026 80.1166 17.5994 80.1166 17.3807C80.1166 17.1619 80.0818 16.9581 80.0122 16.7692C79.9426 16.5803 79.8353 16.4276 79.6904 16.3111C79.5455 16.1946 79.3609 16.1364 79.1365 16.1364C78.912 16.1364 78.7274 16.1946 78.5825 16.3111C78.4376 16.4276 78.3303 16.5803 78.2607 16.7692C78.1911 16.9581 78.1563 17.1619 78.1563 17.3807C78.1563 17.5994 78.1911 17.8026 78.2607 17.9901C78.3303 18.1776 78.4376 18.3288 78.5825 18.4439C78.7274 18.5589 78.912 18.6165 79.1365 18.6165ZM81.387 19V15.7273H81.8728V16.2216H81.9069C81.9665 16.0597 82.0745 15.9283 82.2307 15.8274C82.387 15.7266 82.5631 15.6761 82.7591 15.6761C82.7961 15.6761 82.8422 15.6768 82.8976 15.6783C82.953 15.6797 82.9949 15.6818 83.0233 15.6847V16.196C83.0063 16.1918 82.9672 16.1854 82.9062 16.1768C82.8465 16.1669 82.7833 16.1619 82.7165 16.1619C82.5574 16.1619 82.4154 16.1953 82.2904 16.2621C82.1668 16.3274 82.0688 16.4183 81.9964 16.5348C81.9253 16.6499 81.8898 16.7812 81.8898 16.929V19H81.387ZM66.7503 26V22.7273H67.2361V23.2386H67.2787C67.3469 23.0639 67.4569 22.9283 67.6089 22.8317C67.7609 22.7337 67.9434 22.6847 68.1565 22.6847C68.3724 22.6847 68.5521 22.7337 68.6956 22.8317C68.8405 22.9283 68.9534 23.0639 69.0344 23.2386H69.0684C69.1523 23.0696 69.278 22.9354 69.4456 22.8359C69.6132 22.7351 69.8142 22.6847 70.0486 22.6847C70.3412 22.6847 70.5805 22.7763 70.7666 22.9595C70.9527 23.1413 71.0457 23.4247 71.0457 23.8097V26H70.5429V23.8097C70.5429 23.5682 70.4768 23.3956 70.3447 23.2919C70.2126 23.1882 70.0571 23.1364 69.8781 23.1364C69.648 23.1364 69.4697 23.206 69.3433 23.3452C69.2169 23.483 69.1537 23.6577 69.1537 23.8693V26H68.6423V23.7585C68.6423 23.5724 68.5819 23.4226 68.4612 23.3089C68.3405 23.1939 68.1849 23.1364 67.9946 23.1364C67.8639 23.1364 67.7417 23.1712 67.6281 23.2408C67.5159 23.3104 67.425 23.407 67.3554 23.5305C67.2872 23.6527 67.2531 23.794 67.2531 23.9545V26H66.7503ZM73.2947 26.0682C72.9992 26.0682 72.74 25.9979 72.517 25.8572C72.2954 25.7166 72.1221 25.5199 71.9971 25.267C71.8735 25.0142 71.8117 24.7187 71.8117 24.3807C71.8117 24.0398 71.8735 23.7422 71.9971 23.4879C72.1221 23.2337 72.2954 23.0362 72.517 22.8956C72.74 22.755 72.9992 22.6847 73.2947 22.6847C73.5901 22.6847 73.8486 22.755 74.0702 22.8956C74.2932 23.0362 74.4665 23.2337 74.5901 23.4879C74.7151 23.7422 74.7776 24.0398 74.7776 24.3807C74.7776 24.7187 74.7151 25.0142 74.5901 25.267C74.4665 25.5199 74.2932 25.7166 74.0702 25.8572C73.8486 25.9979 73.5901 26.0682 73.2947 26.0682ZM73.2947 25.6165C73.5191 25.6165 73.7037 25.5589 73.8486 25.4439C73.9935 25.3288 74.1008 25.1776 74.1704 24.9901C74.24 24.8026 74.2748 24.5994 74.2748 24.3807C74.2748 24.1619 74.24 23.9581 74.1704 23.7692C74.1008 23.5803 73.9935 23.4276 73.8486 23.3111C73.7037 23.1946 73.5191 23.1364 73.2947 23.1364C73.0702 23.1364 72.8856 23.1946 72.7407 23.3111C72.5958 23.4276 72.4885 23.5803 72.4189 23.7692C72.3493 23.9581 72.3145 24.1619 72.3145 24.3807C72.3145 24.5994 72.3493 24.8026 72.4189 24.9901C72.4885 25.1776 72.5958 25.3288 72.7407 25.4439C72.8856 25.5589 73.0702 25.6165 73.2947 25.6165ZM75.5452 26V22.7273H76.031V23.2216H76.0651C76.1247 23.0597 76.2327 22.9283 76.3889 22.8274C76.5452 22.7266 76.7213 22.6761 76.9173 22.6761C76.9543 22.6761 77.0004 22.6768 77.0558 22.6783C77.1112 22.6797 77.1531 22.6818 77.1816 22.6847V23.196C77.1645 23.1918 77.1254 23.1854 77.0644 23.1768C77.0047 23.1669 76.9415 23.1619 76.8747 23.1619C76.7156 23.1619 76.5736 23.1953 76.4486 23.2621C76.325 23.3274 76.227 23.4183 76.1546 23.5348C76.0835 23.6499 76.048 23.7812 76.048 23.929V26H75.5452ZM79.0502 26.0682C78.7348 26.0682 78.4628 25.9986 78.2341 25.8594C78.0068 25.7188 77.8314 25.5227 77.7078 25.2713C77.5857 25.0185 77.5246 24.7244 77.5246 24.3892C77.5246 24.054 77.5857 23.7585 77.7078 23.5028C77.8314 23.2457 78.0033 23.0455 78.2235 22.902C78.445 22.7571 78.7036 22.6847 78.999 22.6847C79.1695 22.6847 79.3378 22.7131 79.504 22.7699C79.6702 22.8267 79.8215 22.919 79.9578 23.0469C80.0942 23.1733 80.2029 23.3409 80.2838 23.5497C80.3648 23.7585 80.4053 24.0156 80.4053 24.321V24.5341H77.8825V24.0994H79.8939C79.8939 23.9148 79.857 23.75 79.7831 23.6051C79.7107 23.4602 79.607 23.3459 79.472 23.2621C79.3385 23.1783 79.1808 23.1364 78.999 23.1364C78.7987 23.1364 78.6254 23.1861 78.4791 23.2855C78.3343 23.3835 78.2227 23.5114 78.1446 23.669C78.0665 23.8267 78.0274 23.9957 78.0274 24.1761V24.4659C78.0274 24.7131 78.07 24.9226 78.1553 25.0945C78.2419 25.2649 78.3619 25.3949 78.5154 25.4844C78.6688 25.5724 78.847 25.6165 79.0502 25.6165C79.1823 25.6165 79.3016 25.598 79.4081 25.5611C79.5161 25.5227 79.6091 25.4659 79.6872 25.3906C79.7654 25.3139 79.8257 25.2187 79.8683 25.1051L80.3541 25.2415C80.303 25.4062 80.2171 25.5511 80.0963 25.6761C79.9756 25.7997 79.8264 25.8963 79.6489 25.9659C79.4713 26.0341 79.2718 26.0682 79.0502 26.0682ZM66.1643 33V29.7273H66.6501V30.2216H66.6842C66.7439 30.0597 66.8518 29.9283 67.0081 29.8274C67.1643 29.7266 67.3405 29.6761 67.5365 29.6761C67.5734 29.6761 67.6196 29.6768 67.675 29.6783C67.7304 29.6797 67.7723 29.6818 67.8007 29.6847V30.196C67.7836 30.1918 67.7446 30.1854 67.6835 30.1768C67.6238 30.1669 67.5606 30.1619 67.4939 30.1619C67.3348 30.1619 67.1927 30.1953 67.0677 30.2621C66.9442 30.3274 66.8461 30.4183 66.7737 30.5348C66.7027 30.6499 66.6672 30.7812 66.6672 30.929V33H66.1643ZM69.3598 33.0767C69.1524 33.0767 68.9642 33.0376 68.7952 32.9595C68.6262 32.88 68.4919 32.7656 68.3925 32.6165C68.2931 32.4659 68.2433 32.2841 68.2433 32.071C68.2433 31.8835 68.2803 31.7315 68.3541 31.6151C68.428 31.4972 68.5267 31.4048 68.6503 31.3381C68.7739 31.2713 68.9102 31.2216 69.0594 31.1889C69.21 31.1548 69.3612 31.1278 69.5132 31.108C69.7121 31.0824 69.8733 31.0632 69.9969 31.0504C70.1219 31.0362 70.2128 31.0128 70.2696 30.9801C70.3279 30.9474 70.357 30.8906 70.357 30.8097V30.7926C70.357 30.5824 70.2994 30.419 70.1844 30.3026C70.0708 30.1861 69.8982 30.1278 69.6666 30.1278C69.4266 30.1278 69.2384 30.1804 69.102 30.2855C68.9656 30.3906 68.8698 30.5028 68.8144 30.6222L68.3371 30.4517C68.4223 30.2528 68.536 30.098 68.678 29.9872C68.8215 29.875 68.9777 29.7969 69.1468 29.7528C69.3172 29.7074 69.4848 29.6847 69.6496 29.6847C69.7547 29.6847 69.8754 29.6974 70.0118 29.723C70.1496 29.7472 70.2824 29.7976 70.4102 29.8743C70.5395 29.951 70.6468 30.0668 70.732 30.2216C70.8172 30.3764 70.8598 30.5838 70.8598 30.8438V33H70.357V32.5568H70.3314C70.2973 32.6278 70.2405 32.7038 70.161 32.7848C70.0814 32.8658 69.9756 32.9347 69.8435 32.9915C69.7114 33.0483 69.5502 33.0767 69.3598 33.0767ZM69.4365 32.625C69.6354 32.625 69.803 32.5859 69.9394 32.5078C70.0771 32.4297 70.1808 32.3288 70.2504 32.2053C70.3215 32.0817 70.357 31.9517 70.357 31.8153V31.3551C70.3357 31.3807 70.2888 31.4041 70.2164 31.4254C70.1453 31.4453 70.0629 31.4631 69.9692 31.4787C69.8769 31.4929 69.7867 31.5057 69.6986 31.517C69.6119 31.527 69.5416 31.5355 69.4877 31.5426C69.357 31.5597 69.2348 31.5874 69.1212 31.6257C69.009 31.6626 68.9181 31.7187 68.8485 31.794C68.7803 31.8679 68.7462 31.9687 68.7462 32.0966C68.7462 32.2713 68.8108 32.4034 68.9401 32.4929C69.0708 32.581 69.2362 32.625 69.4365 32.625ZM73.1072 33.0682C72.8003 33.0682 72.5361 32.9957 72.3145 32.8509C72.093 32.706 71.9225 32.5064 71.8032 32.2521C71.6839 31.9979 71.6242 31.7074 71.6242 31.3807C71.6242 31.0483 71.6853 30.755 71.8074 30.5007C71.931 30.245 72.1029 30.0455 72.3231 29.902C72.5447 29.7571 72.8032 29.6847 73.0986 29.6847C73.3287 29.6847 73.5361 29.7273 73.7208 29.8125C73.9055 29.8977 74.0567 30.017 74.1746 30.1705C74.2925 30.3239 74.3657 30.5028 74.3941 30.7074H73.8912C73.8529 30.5582 73.7677 30.4261 73.6356 30.3111C73.5049 30.1946 73.3287 30.1364 73.1072 30.1364C72.9111 30.1364 72.7393 30.1875 72.5915 30.2898C72.4452 30.3906 72.3309 30.5334 72.2485 30.718C72.1675 30.9013 72.127 31.1165 72.127 31.3636C72.127 31.6165 72.1668 31.8366 72.2464 32.0241C72.3273 32.2116 72.441 32.3572 72.5873 32.4609C72.735 32.5646 72.9083 32.6165 73.1072 32.6165C73.2378 32.6165 73.3564 32.5938 73.463 32.5483C73.5695 32.5028 73.6597 32.4375 73.7336 32.3523C73.8074 32.267 73.86 32.1648 73.8912 32.0455H74.3941C74.3657 32.2386 74.2954 32.4126 74.1831 32.5675C74.0724 32.7209 73.9253 32.843 73.7421 32.9339C73.5603 33.0234 73.3486 33.0682 73.1072 33.0682ZM76.5013 33.0682C76.186 33.0682 75.914 32.9986 75.6853 32.8594C75.458 32.7188 75.2826 32.5227 75.159 32.2713C75.0368 32.0185 74.9758 31.7244 74.9758 31.3892C74.9758 31.054 75.0368 30.7585 75.159 30.5028C75.2826 30.2457 75.4545 30.0455 75.6746 29.902C75.8962 29.7571 76.1547 29.6847 76.4502 29.6847C76.6206 29.6847 76.789 29.7131 76.9552 29.7699C77.1214 29.8267 77.2726 29.919 77.409 30.0469C77.5454 30.1733 77.654 30.3409 77.735 30.5497C77.816 30.7585 77.8564 31.0156 77.8564 31.321V31.5341H75.3337V31.0994H77.3451C77.3451 30.9148 77.3081 30.75 77.2343 30.6051C77.1618 30.4602 77.0581 30.3459 76.9232 30.2621C76.7897 30.1783 76.632 30.1364 76.4502 30.1364C76.2499 30.1364 76.0766 30.1861 75.9303 30.2855C75.7854 30.3835 75.6739 30.5114 75.5958 30.669C75.5177 30.8267 75.4786 30.9957 75.4786 31.1761V31.4659C75.4786 31.7131 75.5212 31.9226 75.6064 32.0945C75.6931 32.2649 75.8131 32.3949 75.9665 32.4844C76.1199 32.5724 76.2982 32.6165 76.5013 32.6165C76.6334 32.6165 76.7528 32.598 76.8593 32.5611C76.9672 32.5227 77.0603 32.4659 77.1384 32.3906C77.2165 32.3139 77.2769 32.2187 77.3195 32.1051L77.8053 32.2415C77.7542 32.4062 77.6682 32.5511 77.5475 32.6761C77.4268 32.7997 77.2776 32.8963 77.1001 32.9659C76.9225 33.0341 76.7229 33.0682 76.5013 33.0682ZM80.9395 30.4602L80.4878 30.5881C80.4594 30.5128 80.4175 30.4396 80.3621 30.3686C80.3081 30.2962 80.2343 30.2365 80.1405 30.1896C80.0468 30.1428 79.9268 30.1193 79.7805 30.1193C79.5802 30.1193 79.4133 30.1655 79.2797 30.2578C79.1476 30.3487 79.0816 30.4645 79.0816 30.6051C79.0816 30.7301 79.127 30.8288 79.218 30.9013C79.3089 30.9737 79.4509 31.0341 79.6441 31.0824L80.1299 31.2017C80.4225 31.2727 80.6405 31.3814 80.784 31.5277C80.9275 31.6726 80.9992 31.8594 80.9992 32.0881C80.9992 32.2756 80.9452 32.4432 80.8373 32.5909C80.7307 32.7386 80.5816 32.8551 80.3898 32.9403C80.1981 33.0256 79.9751 33.0682 79.7208 33.0682C79.387 33.0682 79.1107 32.9957 78.892 32.8509C78.6732 32.706 78.5347 32.4943 78.4765 32.2159L78.9537 32.0966C78.9992 32.2727 79.0851 32.4048 79.2116 32.4929C79.3394 32.581 79.5063 32.625 79.7123 32.625C79.9466 32.625 80.1327 32.5753 80.2705 32.4759C80.4097 32.375 80.4793 32.2543 80.4793 32.1136C80.4793 32 80.4395 31.9048 80.36 31.8281C80.2805 31.75 80.1583 31.6918 79.9935 31.6534L79.4481 31.5256C79.1483 31.4545 78.9282 31.3445 78.7876 31.1953C78.6483 31.0447 78.5787 30.8565 78.5787 30.6307C78.5787 30.446 78.6306 30.2827 78.7343 30.1406C78.8394 29.9986 78.9822 29.8871 79.1626 29.8061C79.3444 29.7251 79.5503 29.6847 79.7805 29.6847C80.1043 29.6847 80.3586 29.7557 80.5432 29.8977C80.7293 30.0398 80.8614 30.2273 80.9395 30.4602Z" fill="#DE6B48"/>
<path d="M87.6538 4.63636V9H87.1254V5.19034H87.0998L86.0344 5.89773V5.3608L87.1254 4.63636H87.6538ZM91.1332 8.18182V7.9517C91.1332 7.79261 91.1658 7.64702 91.2312 7.51491C91.2979 7.38139 91.3945 7.27486 91.521 7.19531C91.6488 7.11435 91.8036 7.07386 91.9854 7.07386C92.1701 7.07386 92.3249 7.11435 92.4499 7.19531C92.5749 7.27486 92.6694 7.38139 92.7333 7.51491C92.7972 7.64702 92.8292 7.79261 92.8292 7.9517V8.18182C92.8292 8.34091 92.7965 8.48722 92.7312 8.62074C92.6673 8.75284 92.5721 8.85937 92.4457 8.94034C92.3207 9.01989 92.1673 9.05966 91.9854 9.05966C91.8008 9.05966 91.6452 9.01989 91.5188 8.94034C91.3924 8.85937 91.2965 8.75284 91.2312 8.62074C91.1658 8.48722 91.1332 8.34091 91.1332 8.18182ZM91.5678 7.9517V8.18182C91.5678 8.31392 91.5991 8.43253 91.6616 8.53764C91.7241 8.64134 91.832 8.69318 91.9854 8.69318C92.1346 8.69318 92.2397 8.64134 92.3008 8.53764C92.3633 8.43253 92.3945 8.31392 92.3945 8.18182V7.9517C92.3945 7.8196 92.3647 7.7017 92.305 7.59801C92.2454 7.4929 92.1388 7.44034 91.9854 7.44034C91.8363 7.44034 91.729 7.4929 91.6637 7.59801C91.5998 7.7017 91.5678 7.8196 91.5678 7.9517ZM88.9599 5.68466V5.45455C88.9599 5.29545 88.9925 5.14986 89.0579 5.01776C89.1246 4.88423 89.2212 4.7777 89.3477 4.69815C89.4755 4.61719 89.6303 4.5767 89.8121 4.5767C89.9968 4.5767 90.1516 4.61719 90.2766 4.69815C90.4016 4.7777 90.4961 4.88423 90.56 5.01776C90.6239 5.14986 90.6559 5.29545 90.6559 5.45455V5.68466C90.6559 5.84375 90.6232 5.99006 90.5579 6.12358C90.494 6.25568 90.3988 6.36222 90.2724 6.44318C90.1474 6.52273 89.994 6.5625 89.8121 6.5625C89.6275 6.5625 89.4719 6.52273 89.3455 6.44318C89.2191 6.36222 89.1232 6.25568 89.0579 6.12358C88.9925 5.99006 88.9599 5.84375 88.9599 5.68466ZM89.3945 5.45455V5.68466C89.3945 5.81676 89.4258 5.93537 89.4883 6.04048C89.5508 6.14418 89.6587 6.19602 89.8121 6.19602C89.9613 6.19602 90.0664 6.14418 90.1275 6.04048C90.19 5.93537 90.2212 5.81676 90.2212 5.68466V5.45455C90.2212 5.32244 90.1914 5.20455 90.1317 5.10085C90.0721 4.99574 89.9656 4.94318 89.8121 4.94318C89.663 4.94318 89.5558 4.99574 89.4904 5.10085C89.4265 5.20455 89.3945 5.32244 89.3945 5.45455ZM89.1218 9L92.1218 4.63636H92.6076L89.6076 9H89.1218ZM87.9241 13.8182C87.9241 14.2784 87.841 14.6761 87.6748 15.0114C87.5086 15.3466 87.2806 15.6051 86.9909 15.7869C86.7011 15.9688 86.3701 16.0597 85.998 16.0597C85.6258 16.0597 85.2948 15.9688 85.0051 15.7869C84.7153 15.6051 84.4873 15.3466 84.3211 15.0114C84.1549 14.6761 84.0718 14.2784 84.0718 13.8182C84.0718 13.358 84.1549 12.9602 84.3211 12.625C84.4873 12.2898 84.7153 12.0312 85.0051 11.8494C85.2948 11.6676 85.6258 11.5767 85.998 11.5767C86.3701 11.5767 86.7011 11.6676 86.9909 11.8494C87.2806 12.0312 87.5086 12.2898 87.6748 12.625C87.841 12.9602 87.9241 13.358 87.9241 13.8182ZM87.4127 13.8182C87.4127 13.4403 87.3495 13.1214 87.2231 12.8615C87.0981 12.6016 86.9284 12.4048 86.7139 12.2713C86.5008 12.1378 86.2622 12.071 85.998 12.071C85.7338 12.071 85.4944 12.1378 85.2799 12.2713C85.0669 12.4048 84.8971 12.6016 84.7707 12.8615C84.6457 13.1214 84.5832 13.4403 84.5832 13.8182C84.5832 14.196 84.6457 14.5149 84.7707 14.7749C84.8971 15.0348 85.0669 15.2315 85.2799 15.3651C85.4944 15.4986 85.7338 15.5653 85.998 15.5653C86.2622 15.5653 86.5008 15.4986 86.7139 15.3651C86.9284 15.2315 87.0981 15.0348 87.2231 14.7749C87.3495 14.5149 87.4127 14.196 87.4127 13.8182ZM89.2472 14.0312V16H88.7444V12.7273H89.2302V13.2386H89.2728C89.3495 13.0724 89.466 12.9389 89.6222 12.8381C89.7785 12.7358 89.9802 12.6847 90.2274 12.6847C90.449 12.6847 90.6428 12.7301 90.809 12.821C90.9752 12.9105 91.1045 13.0469 91.1968 13.2301C91.2892 13.4119 91.3353 13.642 91.3353 13.9205V16H90.8325V13.9545C90.8325 13.6974 90.7657 13.4972 90.6322 13.3537C90.4987 13.2088 90.3154 13.1364 90.0825 13.1364C89.922 13.1364 89.7785 13.1712 89.6521 13.2408C89.5271 13.3104 89.4284 13.4119 89.3559 13.5455C89.2835 13.679 89.2472 13.8409 89.2472 14.0312ZM93.6263 16.0682C93.311 16.0682 93.039 15.9986 92.8103 15.8594C92.583 15.7188 92.4076 15.5227 92.284 15.2713C92.1618 15.0185 92.1008 14.7244 92.1008 14.3892C92.1008 14.054 92.1618 13.7585 92.284 13.5028C92.4076 13.2457 92.5795 13.0455 92.7996 12.902C93.0212 12.7571 93.2797 12.6847 93.5752 12.6847C93.7456 12.6847 93.914 12.7131 94.0802 12.7699C94.2464 12.8267 94.3976 12.919 94.534 13.0469C94.6704 13.1733 94.779 13.3409 94.86 13.5497C94.941 13.7585 94.9814 14.0156 94.9814 14.321V14.5341H92.4587V14.0994H94.4701C94.4701 13.9148 94.4331 13.75 94.3593 13.6051C94.2868 13.4602 94.1831 13.3459 94.0482 13.2621C93.9147 13.1783 93.757 13.1364 93.5752 13.1364C93.3749 13.1364 93.2016 13.1861 93.0553 13.2855C92.9104 13.3835 92.7989 13.5114 92.7208 13.669C92.6427 13.8267 92.6036 13.9957 92.6036 14.1761V14.4659C92.6036 14.7131 92.6462 14.9226 92.7314 15.0945C92.8181 15.2649 92.9381 15.3949 93.0915 15.4844C93.2449 15.5724 93.4232 15.6165 93.6263 15.6165C93.7584 15.6165 93.8778 15.598 93.9843 15.5611C94.0922 15.5227 94.1853 15.4659 94.2634 15.3906C94.3415 15.3139 94.4019 15.2187 94.4445 15.1051L94.9303 15.2415C94.8792 15.4062 94.7932 15.5511 94.6725 15.6761C94.5518 15.7997 94.4026 15.8963 94.2251 15.9659C94.0475 16.0341 93.8479 16.0682 93.6263 16.0682ZM83.74 23.0682C83.4445 23.0682 83.1853 22.9979 82.9623 22.8572C82.7407 22.7166 82.5674 22.5199 82.4424 22.267C82.3188 22.0142 82.257 21.7187 82.257 21.3807C82.257 21.0398 82.3188 20.7422 82.4424 20.4879C82.5674 20.2337 82.7407 20.0362 82.9623 19.8956C83.1853 19.755 83.4445 19.6847 83.74 19.6847C84.0354 19.6847 84.2939 19.755 84.5155 19.8956C84.7385 20.0362 84.9118 20.2337 85.0354 20.4879C85.1604 20.7422 85.2229 21.0398 85.2229 21.3807C85.2229 21.7187 85.1604 22.0142 85.0354 22.267C84.9118 22.5199 84.7385 22.7166 84.5155 22.8572C84.2939 22.9979 84.0354 23.0682 83.74 23.0682ZM83.74 22.6165C83.9644 22.6165 84.1491 22.5589 84.2939 22.4439C84.4388 22.3288 84.5461 22.1776 84.6157 21.9901C84.6853 21.8026 84.7201 21.5994 84.7201 21.3807C84.7201 21.1619 84.6853 20.9581 84.6157 20.7692C84.5461 20.5803 84.4388 20.4276 84.2939 20.3111C84.1491 20.1946 83.9644 20.1364 83.74 20.1364C83.5155 20.1364 83.3309 20.1946 83.186 20.3111C83.0411 20.4276 82.9339 20.5803 82.8643 20.7692C82.7947 20.9581 82.7599 21.1619 82.7599 21.3807C82.7599 21.5994 82.7947 21.8026 82.8643 21.9901C82.9339 22.1776 83.0411 22.3288 83.186 22.4439C83.3309 22.5589 83.5155 22.6165 83.74 22.6165ZM87.4138 19.7273V20.1534H85.7178V19.7273H87.4138ZM86.2121 18.9432H86.7149V22.0625C86.7149 22.2045 86.7355 22.3111 86.7767 22.3821C86.8193 22.4517 86.8733 22.4986 86.9387 22.5227C87.0054 22.5455 87.0757 22.5568 87.1496 22.5568C87.205 22.5568 87.2504 22.554 87.286 22.5483C87.3215 22.5412 87.3499 22.5355 87.3712 22.5312L87.4735 22.983C87.4394 22.9957 87.3918 23.0085 87.3307 23.0213C87.2696 23.0355 87.1922 23.0426 87.0985 23.0426C86.9564 23.0426 86.8172 23.0121 86.6808 22.951C86.5459 22.8899 86.4337 22.7969 86.3442 22.6719C86.2561 22.5469 86.2121 22.3892 86.2121 22.1989V18.9432ZM88.7433 21.0312V23H88.2405V18.6364H88.7433V20.2386H88.786C88.8627 20.0696 88.9777 19.9354 89.1311 19.8359C89.286 19.7351 89.4919 19.6847 89.749 19.6847C89.972 19.6847 90.1673 19.7294 90.335 19.8189C90.5026 19.907 90.6325 20.0426 90.7249 20.2259C90.8186 20.4077 90.8655 20.6392 90.8655 20.9205V23H90.3627V20.9545C90.3627 20.6946 90.2952 20.4936 90.1602 20.3516C90.0267 20.2081 89.8414 20.1364 89.6041 20.1364C89.4394 20.1364 89.2916 20.1712 89.161 20.2408C89.0317 20.3104 88.9294 20.4119 88.8541 20.5455C88.7803 20.679 88.7433 20.8409 88.7433 21.0312ZM93.1576 23.0682C92.8422 23.0682 92.5702 22.9986 92.3415 22.8594C92.1143 22.7188 91.9388 22.5227 91.8153 22.2713C91.6931 22.0185 91.632 21.7244 91.632 21.3892C91.632 21.054 91.6931 20.7585 91.8153 20.5028C91.9388 20.2457 92.1107 20.0455 92.3309 19.902C92.5525 19.7571 92.811 19.6847 93.1064 19.6847C93.2769 19.6847 93.4452 19.7131 93.6114 19.7699C93.7776 19.8267 93.9289 19.919 94.0653 20.0469C94.2016 20.1733 94.3103 20.3409 94.3912 20.5497C94.4722 20.7585 94.5127 21.0156 94.5127 21.321V21.5341H91.99V21.0994H94.0013C94.0013 20.9148 93.9644 20.75 93.8905 20.6051C93.8181 20.4602 93.7144 20.3459 93.5795 20.2621C93.4459 20.1783 93.2883 20.1364 93.1064 20.1364C92.9062 20.1364 92.7329 20.1861 92.5866 20.2855C92.4417 20.3835 92.3302 20.5114 92.252 20.669C92.1739 20.8267 92.1349 20.9957 92.1349 21.1761V21.4659C92.1349 21.7131 92.1775 21.9226 92.2627 22.0945C92.3493 22.2649 92.4694 22.3949 92.6228 22.4844C92.7762 22.5724 92.9545 22.6165 93.1576 22.6165C93.2897 22.6165 93.409 22.598 93.5155 22.5611C93.6235 22.5227 93.7165 22.4659 93.7947 22.3906C93.8728 22.3139 93.9331 22.2187 93.9758 22.1051L94.4616 22.2415C94.4104 22.4062 94.3245 22.5511 94.2037 22.6761C94.083 22.7997 93.9339 22.8963 93.7563 22.9659C93.5787 23.0341 93.3792 23.0682 93.1576 23.0682ZM95.2776 23V19.7273H95.7634V20.2216H95.7975C95.8572 20.0597 95.9651 19.9283 96.1214 19.8274C96.2776 19.7266 96.4537 19.6761 96.6498 19.6761C96.6867 19.6761 96.7329 19.6768 96.7883 19.6783C96.8437 19.6797 96.8856 19.6818 96.914 19.6847V20.196C96.8969 20.1918 96.8579 20.1854 96.7968 20.1768C96.7371 20.1669 96.6739 20.1619 96.6072 20.1619C96.4481 20.1619 96.306 20.1953 96.181 20.2621C96.0574 20.3274 95.9594 20.4183 95.887 20.5348C95.816 20.6499 95.7805 20.7812 95.7805 20.929V23H95.2776ZM83.7317 30V26.7273H84.2175V27.2216H84.2516C84.3113 27.0597 84.4192 26.9283 84.5755 26.8274C84.7317 26.7266 84.9078 26.6761 85.1039 26.6761C85.1408 26.6761 85.187 26.6768 85.2424 26.6783C85.2978 26.6797 85.3397 26.6818 85.3681 26.6847V27.196C85.351 27.1918 85.312 27.1854 85.2509 27.1768C85.1912 27.1669 85.128 27.1619 85.0613 27.1619C84.9022 27.1619 84.7601 27.1953 84.6351 27.2621C84.5115 27.3274 84.4135 27.4183 84.3411 27.5348C84.2701 27.6499 84.2346 27.7812 84.2346 27.929V30H83.7317ZM86.9272 30.0767C86.7198 30.0767 86.5316 30.0376 86.3626 29.9595C86.1935 29.88 86.0593 29.7656 85.9599 29.6165C85.8604 29.4659 85.8107 29.2841 85.8107 29.071C85.8107 28.8835 85.8477 28.7315 85.9215 28.6151C85.9954 28.4972 86.0941 28.4048 86.2177 28.3381C86.3413 28.2713 86.4776 28.2216 86.6268 28.1889C86.7773 28.1548 86.9286 28.1278 87.0806 28.108C87.2795 28.0824 87.4407 28.0632 87.5643 28.0504C87.6893 28.0362 87.7802 28.0128 87.837 27.9801C87.8952 27.9474 87.9244 27.8906 87.9244 27.8097V27.7926C87.9244 27.5824 87.8668 27.419 87.7518 27.3026C87.6381 27.1861 87.4656 27.1278 87.234 27.1278C86.994 27.1278 86.8058 27.1804 86.6694 27.2855C86.533 27.3906 86.4371 27.5028 86.3817 27.6222L85.9045 27.4517C85.9897 27.2528 86.1033 27.098 86.2454 26.9872C86.3888 26.875 86.5451 26.7969 86.7141 26.7528C86.8846 26.7074 87.0522 26.6847 87.217 26.6847C87.3221 26.6847 87.4428 26.6974 87.5792 26.723C87.717 26.7472 87.8498 26.7976 87.9776 26.8743C88.1069 26.951 88.2141 27.0668 88.2994 27.2216C88.3846 27.3764 88.4272 27.5838 88.4272 27.8438V30H87.9244V29.5568H87.8988C87.8647 29.6278 87.8079 29.7038 87.7283 29.7848C87.6488 29.8658 87.543 29.9347 87.4109 29.9915C87.2788 30.0483 87.1175 30.0767 86.9272 30.0767ZM87.0039 29.625C87.2028 29.625 87.3704 29.5859 87.5067 29.5078C87.6445 29.4297 87.7482 29.3288 87.8178 29.2053C87.8888 29.0817 87.9244 28.9517 87.9244 28.8153V28.3551C87.9031 28.3807 87.8562 28.4041 87.7837 28.4254C87.7127 28.4453 87.6303 28.4631 87.5366 28.4787C87.4442 28.4929 87.354 28.5057 87.266 28.517C87.1793 28.527 87.109 28.5355 87.055 28.5426C86.9244 28.5597 86.8022 28.5874 86.6886 28.6257C86.5763 28.6626 86.4854 28.7187 86.4158 28.794C86.3477 28.8679 86.3136 28.9687 86.3136 29.0966C86.3136 29.2713 86.3782 29.4034 86.5075 29.4929C86.6381 29.581 86.8036 29.625 87.0039 29.625ZM90.6745 30.0682C90.3677 30.0682 90.1035 29.9957 89.8819 29.8509C89.6603 29.706 89.4899 29.5064 89.3706 29.2521C89.2512 28.9979 89.1916 28.7074 89.1916 28.3807C89.1916 28.0483 89.2527 27.755 89.3748 27.5007C89.4984 27.245 89.6703 27.0455 89.8904 26.902C90.112 26.7571 90.3706 26.6847 90.666 26.6847C90.8961 26.6847 91.1035 26.7273 91.2882 26.8125C91.4728 26.8977 91.6241 27.017 91.742 27.1705C91.8599 27.3239 91.9331 27.5028 91.9615 27.7074H91.4586C91.4203 27.5582 91.335 27.4261 91.2029 27.3111C91.0723 27.1946 90.8961 27.1364 90.6745 27.1364C90.4785 27.1364 90.3066 27.1875 90.1589 27.2898C90.0126 27.3906 89.8983 27.5334 89.8159 27.718C89.7349 27.9013 89.6944 28.1165 89.6944 28.3636C89.6944 28.6165 89.7342 28.8366 89.8137 29.0241C89.8947 29.2116 90.0083 29.3572 90.1547 29.4609C90.3024 29.5646 90.4757 29.6165 90.6745 29.6165C90.8052 29.6165 90.9238 29.5938 91.0304 29.5483C91.1369 29.5028 91.2271 29.4375 91.301 29.3523C91.3748 29.267 91.4274 29.1648 91.4586 29.0455H91.9615C91.9331 29.2386 91.8627 29.4126 91.7505 29.5675C91.6397 29.7209 91.4927 29.843 91.3095 29.9339C91.1277 30.0234 90.916 30.0682 90.6745 30.0682ZM94.0687 30.0682C93.7534 30.0682 93.4814 29.9986 93.2527 29.8594C93.0254 29.7188 92.85 29.5227 92.7264 29.2713C92.6042 29.0185 92.5431 28.7244 92.5431 28.3892C92.5431 28.054 92.6042 27.7585 92.7264 27.5028C92.85 27.2457 93.0218 27.0455 93.242 26.902C93.4636 26.7571 93.7221 26.6847 94.0176 26.6847C94.188 26.6847 94.3564 26.7131 94.5225 26.7699C94.6887 26.8267 94.84 26.919 94.9764 27.0469C95.1127 27.1733 95.2214 27.3409 95.3024 27.5497C95.3833 27.7585 95.4238 28.0156 95.4238 28.321V28.5341H92.9011V28.0994H94.9125C94.9125 27.9148 94.8755 27.75 94.8017 27.6051C94.7292 27.4602 94.6255 27.3459 94.4906 27.2621C94.3571 27.1783 94.1994 27.1364 94.0176 27.1364C93.8173 27.1364 93.644 27.1861 93.4977 27.2855C93.3528 27.3835 93.2413 27.5114 93.1632 27.669C93.085 27.8267 93.046 27.9957 93.046 28.1761V28.4659C93.046 28.7131 93.0886 28.9226 93.1738 29.0945C93.2605 29.2649 93.3805 29.3949 93.5339 29.4844C93.6873 29.5724 93.8656 29.6165 94.0687 29.6165C94.2008 29.6165 94.3201 29.598 94.4267 29.5611C94.5346 29.5227 94.6277 29.4659 94.7058 29.3906C94.7839 29.3139 94.8443 29.2187 94.8869 29.1051L95.3727 29.2415C95.3216 29.4062 95.2356 29.5511 95.1149 29.6761C94.9941 29.7997 94.845 29.8963 94.6674 29.9659C94.4899 30.0341 94.2903 30.0682 94.0687 30.0682Z" fill="#511730"/>
<path d="M53.5423 115.182V121H52.8377V115.92H52.8036L51.3832 116.864V116.148L52.8377 115.182H53.5423ZM57.0678 115.102C57.3065 115.104 57.5451 115.15 57.7837 115.239C58.0224 115.328 58.2402 115.475 58.4371 115.682C58.6341 115.886 58.7923 116.166 58.9116 116.52C59.0309 116.874 59.0906 117.318 59.0906 117.852C59.0906 118.369 59.0413 118.829 58.9428 119.23C58.8462 119.63 58.7061 119.967 58.5224 120.241C58.3406 120.516 58.119 120.724 57.8576 120.866C57.5981 121.009 57.3046 121.08 56.9769 121.08C56.6512 121.08 56.3604 121.015 56.1048 120.886C55.851 120.756 55.6426 120.575 55.4798 120.344C55.3188 120.111 55.2156 119.841 55.1701 119.534H55.8633C55.9258 119.801 56.0498 120.022 56.2354 120.196C56.4229 120.368 56.6701 120.455 56.9769 120.455C57.4258 120.455 57.7799 120.259 58.0394 119.866C58.3008 119.474 58.4315 118.92 58.4315 118.205H58.386C58.2799 118.364 58.154 118.501 58.0082 118.616C57.8623 118.732 57.7004 118.821 57.5224 118.884C57.3443 118.946 57.1549 118.977 56.9542 118.977C56.6209 118.977 56.315 118.895 56.0366 118.73C55.7601 118.563 55.5385 118.335 55.3718 118.045C55.207 117.754 55.1246 117.42 55.1246 117.045C55.1246 116.689 55.2042 116.364 55.3633 116.068C55.5243 115.771 55.7496 115.534 56.0394 115.358C56.3311 115.182 56.6739 115.097 57.0678 115.102ZM57.0678 115.727C56.8292 115.727 56.6142 115.787 56.4229 115.906C56.2335 116.024 56.083 116.183 55.9712 116.384C55.8614 116.582 55.8065 116.803 55.8065 117.045C55.8065 117.288 55.8595 117.509 55.9656 117.707C56.0735 117.904 56.2203 118.062 56.4059 118.179C56.5934 118.295 56.8065 118.352 57.0451 118.352C57.225 118.352 57.3926 118.317 57.5479 118.247C57.7032 118.175 57.8387 118.078 57.9542 117.955C58.0716 117.83 58.1635 117.688 58.2298 117.531C58.296 117.372 58.3292 117.206 58.3292 117.034C58.3292 116.807 58.2743 116.594 58.1644 116.395C58.0565 116.196 57.9068 116.035 57.7156 115.912C57.5262 115.789 57.3103 115.727 57.0678 115.727ZM63.1737 119.909V119.602C63.1737 119.39 63.2172 119.196 63.3043 119.02C63.3933 118.842 63.5221 118.7 63.6907 118.594C63.8612 118.486 64.0676 118.432 64.31 118.432C64.5562 118.432 64.7627 118.486 64.9293 118.594C65.096 118.7 65.2219 118.842 65.3072 119.02C65.3924 119.196 65.435 119.39 65.435 119.602V119.909C65.435 120.121 65.3915 120.316 65.3043 120.494C65.2191 120.67 65.0922 120.812 64.9237 120.92C64.757 121.027 64.5524 121.08 64.31 121.08C64.0638 121.08 63.8564 121.027 63.6879 120.92C63.5193 120.812 63.3915 120.67 63.3043 120.494C63.2172 120.316 63.1737 120.121 63.1737 119.909ZM63.7532 119.602V119.909C63.7532 120.085 63.7949 120.243 63.8782 120.384C63.9615 120.522 64.1055 120.591 64.31 120.591C64.5089 120.591 64.649 120.522 64.7305 120.384C64.8138 120.243 64.8555 120.085 64.8555 119.909V119.602C64.8555 119.426 64.8157 119.269 64.7362 119.131C64.6566 118.991 64.5146 118.92 64.31 118.92C64.1112 118.92 63.9682 118.991 63.881 119.131C63.7958 119.269 63.7532 119.426 63.7532 119.602ZM60.2759 116.58V116.273C60.2759 116.061 60.3195 115.866 60.4066 115.69C60.4956 115.512 60.6244 115.37 60.793 115.264C60.9634 115.156 61.1699 115.102 61.4123 115.102C61.6585 115.102 61.8649 115.156 62.0316 115.264C62.1983 115.37 62.3242 115.512 62.4094 115.69C62.4947 115.866 62.5373 116.061 62.5373 116.273V116.58C62.5373 116.792 62.4937 116.987 62.4066 117.165C62.3214 117.341 62.1945 117.483 62.0259 117.591C61.8593 117.697 61.6547 117.75 61.4123 117.75C61.1661 117.75 60.9587 117.697 60.7901 117.591C60.6216 117.483 60.4937 117.341 60.4066 117.165C60.3195 116.987 60.2759 116.792 60.2759 116.58ZM60.8555 116.273V116.58C60.8555 116.756 60.8971 116.914 60.9805 117.054C61.0638 117.192 61.2077 117.261 61.4123 117.261C61.6112 117.261 61.7513 117.192 61.8327 117.054C61.9161 116.914 61.9577 116.756 61.9577 116.58V116.273C61.9577 116.097 61.918 115.939 61.8384 115.801C61.7589 115.661 61.6168 115.591 61.4123 115.591C61.2134 115.591 61.0704 115.661 60.9833 115.801C60.8981 115.939 60.8555 116.097 60.8555 116.273ZM60.4918 121L64.4918 115.182H65.1396L61.1396 121H60.4918ZM34.1538 131V125.182H36.1879C36.5932 125.182 36.9274 125.252 37.1907 125.392C37.454 125.53 37.65 125.717 37.7788 125.952C37.9076 126.185 37.9719 126.443 37.9719 126.727C37.9719 126.977 37.9274 127.184 37.8384 127.347C37.7513 127.509 37.6358 127.638 37.4918 127.733C37.3498 127.828 37.1954 127.898 37.0288 127.943V128C37.2068 128.011 37.3858 128.074 37.5657 128.188C37.7456 128.301 37.8962 128.464 38.0174 128.676C38.1386 128.888 38.1992 129.148 38.1992 129.455C38.1992 129.746 38.1329 130.009 38.0004 130.241C37.8678 130.474 37.6585 130.659 37.3725 130.795C37.0865 130.932 36.7144 131 36.256 131H34.1538ZM34.8583 130.375H36.256C36.7163 130.375 37.043 130.286 37.2362 130.108C37.4312 129.928 37.5288 129.71 37.5288 129.455C37.5288 129.258 37.4786 129.076 37.3782 128.909C37.2778 128.741 37.1348 128.606 36.9492 128.506C36.7636 128.403 36.5439 128.352 36.2901 128.352H34.8583V130.375ZM34.8583 127.739H36.1651C36.3772 127.739 36.5685 127.697 36.739 127.614C36.9113 127.53 37.0477 127.413 37.1481 127.261C37.2504 127.11 37.3015 126.932 37.3015 126.727C37.3015 126.472 37.2125 126.255 37.0344 126.077C36.8564 125.897 36.5742 125.807 36.1879 125.807H34.8583V127.739ZM39.9364 125.182V131H39.266V125.182H39.9364ZM42.4485 131.102C42.172 131.102 41.921 131.05 41.6957 130.946C41.4703 130.84 41.2913 130.688 41.1587 130.489C41.0262 130.288 40.9599 130.045 40.9599 129.761C40.9599 129.511 41.0091 129.309 41.1076 129.153C41.2061 128.996 41.3377 128.873 41.5025 128.784C41.6673 128.695 41.8491 128.629 42.0479 128.585C42.2487 128.54 42.4504 128.504 42.6531 128.477C42.9182 128.443 43.1332 128.418 43.2979 128.401C43.4646 128.382 43.5858 128.35 43.6616 128.307C43.7392 128.263 43.7781 128.187 43.7781 128.08V128.057C43.7781 127.777 43.7013 127.559 43.5479 127.403C43.3964 127.248 43.1663 127.17 42.8576 127.17C42.5375 127.17 42.2866 127.241 42.1048 127.381C41.9229 127.521 41.7951 127.67 41.7212 127.83L41.0849 127.602C41.1985 127.337 41.35 127.131 41.5394 126.983C41.7307 126.833 41.939 126.729 42.1644 126.67C42.3917 126.61 42.6152 126.58 42.8349 126.58C42.975 126.58 43.136 126.597 43.3178 126.631C43.5015 126.663 43.6786 126.73 43.8491 126.832C44.0214 126.935 44.1644 127.089 44.2781 127.295C44.3917 127.502 44.4485 127.778 44.4485 128.125V131H43.7781V130.409H43.744C43.6985 130.504 43.6228 130.605 43.5167 130.713C43.4106 130.821 43.2695 130.913 43.0934 130.989C42.9173 131.064 42.7023 131.102 42.4485 131.102ZM42.5508 130.5C42.8159 130.5 43.0394 130.448 43.2212 130.344C43.4049 130.24 43.5432 130.105 43.636 129.94C43.7307 129.776 43.7781 129.602 43.7781 129.42V128.807C43.7496 128.841 43.6871 128.872 43.5906 128.901C43.4959 128.927 43.386 128.951 43.261 128.972C43.1379 128.991 43.0176 129.008 42.9002 129.023C42.7847 129.036 42.6909 129.047 42.619 129.057C42.4447 129.08 42.2818 129.116 42.1303 129.168C41.9807 129.217 41.8595 129.292 41.7667 129.392C41.6758 129.491 41.6303 129.625 41.6303 129.795C41.6303 130.028 41.7165 130.205 41.8888 130.324C42.0631 130.441 42.2837 130.5 42.5508 130.5ZM47.445 131.091C47.0359 131.091 46.6836 130.994 46.3881 130.801C46.0927 130.608 45.8654 130.342 45.7063 130.003C45.5472 129.664 45.4677 129.277 45.4677 128.841C45.4677 128.398 45.5491 128.007 45.712 127.668C45.8768 127.327 46.1059 127.061 46.3995 126.869C46.695 126.676 47.0397 126.58 47.4336 126.58C47.7404 126.58 48.0169 126.636 48.2631 126.75C48.5094 126.864 48.7111 127.023 48.8683 127.227C49.0254 127.432 49.123 127.67 49.1609 127.943H48.4904C48.4393 127.744 48.3256 127.568 48.1495 127.415C47.9753 127.259 47.7404 127.182 47.445 127.182C47.1836 127.182 46.9544 127.25 46.7575 127.386C46.5624 127.521 46.4099 127.711 46.3001 127.957C46.1921 128.202 46.1381 128.489 46.1381 128.818C46.1381 129.155 46.1912 129.449 46.2972 129.699C46.4052 129.949 46.5567 130.143 46.7518 130.281C46.9487 130.42 47.1798 130.489 47.445 130.489C47.6192 130.489 47.7773 130.458 47.9194 130.398C48.0614 130.337 48.1817 130.25 48.2802 130.136C48.3787 130.023 48.4487 129.886 48.4904 129.727H49.1609C49.123 129.985 49.0292 130.217 48.8796 130.423C48.7319 130.628 48.5359 130.791 48.2915 130.912C48.0491 131.031 47.7669 131.091 47.445 131.091ZM50.766 129.409L50.7546 128.58H50.891L52.8001 126.636H53.6296L51.5955 128.693H51.5387L50.766 129.409ZM50.141 131V125.182H50.8114V131H50.141ZM52.9137 131L51.2092 128.841L51.6864 128.375L53.766 131H52.9137ZM56.5494 124.909L54.6744 131.875H54.0607L55.9357 124.909H56.5494ZM57.6737 131H56.935L59.0714 125.182H59.7987L61.935 131H61.1964L59.4577 126.102H59.4123L57.6737 131ZM57.9464 128.727H60.9237V129.352H57.9464V128.727ZM64.6935 126.636V127.205H62.3413V126.636H64.6935ZM63.0458 131V126.034C63.0458 125.784 63.1045 125.576 63.2219 125.409C63.3394 125.242 63.4918 125.117 63.6793 125.034C63.8668 124.951 64.0647 124.909 64.2731 124.909C64.4379 124.909 64.5723 124.922 64.6765 124.949C64.7807 124.975 64.8583 125 64.9094 125.023L64.7163 125.602C64.6822 125.591 64.6348 125.577 64.5742 125.56C64.5155 125.543 64.4379 125.534 64.3413 125.534C64.1197 125.534 63.9596 125.59 63.8612 125.702C63.7646 125.813 63.7163 125.977 63.7163 126.193V131H63.0458ZM65.6332 131V126.636H66.2809V127.295H66.3263C66.4059 127.08 66.5498 126.904 66.7582 126.77C66.9665 126.635 67.2013 126.568 67.4627 126.568C67.512 126.568 67.5735 126.569 67.6474 126.571C67.7212 126.573 67.7771 126.576 67.815 126.58V127.261C67.7923 127.256 67.7402 127.247 67.6587 127.236C67.5792 127.223 67.4949 127.216 67.4059 127.216C67.1938 127.216 67.0044 127.26 66.8377 127.349C66.6729 127.437 66.5423 127.558 66.4457 127.713C66.351 127.866 66.3036 128.042 66.3036 128.239V131H65.6332ZM68.6097 131V126.636H69.2802V131H68.6097ZM68.9506 125.909C68.82 125.909 68.7073 125.865 68.6126 125.776C68.5198 125.687 68.4734 125.58 68.4734 125.455C68.4734 125.33 68.5198 125.223 68.6126 125.134C68.7073 125.045 68.82 125 68.9506 125C69.0813 125 69.1931 125.045 69.2859 125.134C69.3806 125.223 69.4279 125.33 69.4279 125.455C69.4279 125.58 69.3806 125.687 69.2859 125.776C69.1931 125.865 69.0813 125.909 68.9506 125.909ZM72.2809 131.091C71.8718 131.091 71.5195 130.994 71.2241 130.801C70.9286 130.608 70.7013 130.342 70.5423 130.003C70.3832 129.664 70.3036 129.277 70.3036 128.841C70.3036 128.398 70.3851 128.007 70.5479 127.668C70.7127 127.327 70.9419 127.061 71.2354 126.869C71.5309 126.676 71.8756 126.58 72.2695 126.58C72.5763 126.58 72.8529 126.636 73.0991 126.75C73.3453 126.864 73.547 127.023 73.7042 127.227C73.8614 127.432 73.9589 127.67 73.9968 127.943H73.3263C73.2752 127.744 73.1616 127.568 72.9854 127.415C72.8112 127.259 72.5763 127.182 72.2809 127.182C72.0195 127.182 71.7904 127.25 71.5934 127.386C71.3983 127.521 71.2459 127.711 71.136 127.957C71.0281 128.202 70.9741 128.489 70.9741 128.818C70.9741 129.155 71.0271 129.449 71.1332 129.699C71.2411 129.949 71.3926 130.143 71.5877 130.281C71.7847 130.42 72.0157 130.489 72.2809 130.489C72.4551 130.489 72.6133 130.458 72.7553 130.398C72.8974 130.337 73.0176 130.25 73.1161 130.136C73.2146 130.023 73.2847 129.886 73.3263 129.727H73.9968C73.9589 129.985 73.8652 130.217 73.7156 130.423C73.5678 130.628 73.3718 130.791 73.1275 130.912C72.8851 131.031 72.6029 131.091 72.2809 131.091ZM76.261 131.102C75.9845 131.102 75.7335 131.05 75.5082 130.946C75.2828 130.84 75.1038 130.688 74.9712 130.489C74.8387 130.288 74.7724 130.045 74.7724 129.761C74.7724 129.511 74.8216 129.309 74.9201 129.153C75.0186 128.996 75.1502 128.873 75.315 128.784C75.4798 128.695 75.6616 128.629 75.8604 128.585C76.0612 128.54 76.2629 128.504 76.4656 128.477C76.7307 128.443 76.9457 128.418 77.1104 128.401C77.2771 128.382 77.3983 128.35 77.4741 128.307C77.5517 128.263 77.5906 128.187 77.5906 128.08V128.057C77.5906 127.777 77.5138 127.559 77.3604 127.403C77.2089 127.248 76.9788 127.17 76.6701 127.17C76.35 127.17 76.0991 127.241 75.9173 127.381C75.7354 127.521 75.6076 127.67 75.5337 127.83L74.8974 127.602C75.011 127.337 75.1625 127.131 75.3519 126.983C75.5432 126.833 75.7515 126.729 75.9769 126.67C76.2042 126.61 76.4277 126.58 76.6474 126.58C76.7875 126.58 76.9485 126.597 77.1303 126.631C77.314 126.663 77.4911 126.73 77.6616 126.832C77.8339 126.935 77.9769 127.089 78.0906 127.295C78.2042 127.502 78.261 127.778 78.261 128.125V131H77.5906V130.409H77.5565C77.511 130.504 77.4353 130.605 77.3292 130.713C77.2231 130.821 77.082 130.913 76.9059 130.989C76.7298 131.064 76.5148 131.102 76.261 131.102ZM76.3633 130.5C76.6284 130.5 76.8519 130.448 77.0337 130.344C77.2174 130.24 77.3557 130.105 77.4485 129.94C77.5432 129.776 77.5906 129.602 77.5906 129.42V128.807C77.5621 128.841 77.4996 128.872 77.4031 128.901C77.3084 128.927 77.1985 128.951 77.0735 128.972C76.9504 128.991 76.8301 129.008 76.7127 129.023C76.5972 129.036 76.5034 129.047 76.4315 129.057C76.2572 129.08 76.0943 129.116 75.9428 129.168C75.7932 129.217 75.672 129.292 75.5792 129.392C75.4883 129.491 75.4428 129.625 75.4428 129.795C75.4428 130.028 75.529 130.205 75.7013 130.324C75.8756 130.441 76.0962 130.5 76.3633 130.5ZM80.1552 128.375V131H79.4847V126.636H80.1325V127.318H80.1893C80.2915 127.097 80.4469 126.919 80.6552 126.784C80.8635 126.648 81.1325 126.58 81.462 126.58C81.7575 126.58 82.016 126.64 82.2376 126.761C82.4592 126.881 82.6315 127.062 82.7546 127.307C82.8777 127.549 82.9393 127.856 82.9393 128.227V131H82.2688V128.273C82.2688 127.93 82.1798 127.663 82.0018 127.472C81.8237 127.278 81.5794 127.182 81.2688 127.182C81.0548 127.182 80.8635 127.228 80.695 127.321C80.5283 127.414 80.3967 127.549 80.3001 127.727C80.2035 127.905 80.1552 128.121 80.1552 128.375ZM41.6697 141H40.9311L43.0675 135.182H43.7947L45.9311 141H45.1925L43.4538 136.102H43.4084L41.6697 141ZM41.9425 138.727H44.9197V139.352H41.9425V138.727ZM46.7464 141V136.636H47.3942V137.318H47.451C47.5419 137.085 47.6887 136.904 47.8913 136.776C48.094 136.645 48.3374 136.58 48.6214 136.58C48.9093 136.58 49.1489 136.645 49.3402 136.776C49.5334 136.904 49.6839 137.085 49.7919 137.318H49.8374C49.9491 137.093 50.1167 136.914 50.3402 136.781C50.5637 136.647 50.8317 136.58 51.1442 136.58C51.5343 136.58 51.8535 136.702 52.1016 136.946C52.3497 137.188 52.4737 137.566 52.4737 138.08V141H51.8033V138.08C51.8033 137.758 51.7152 137.527 51.5391 137.389C51.3629 137.251 51.1555 137.182 50.9169 137.182C50.6101 137.182 50.3724 137.275 50.2038 137.46C50.0353 137.644 49.951 137.877 49.951 138.159V141H49.2692V138.011C49.2692 137.763 49.1887 137.563 49.0277 137.412C48.8667 137.259 48.6593 137.182 48.4055 137.182C48.2313 137.182 48.0684 137.228 47.9169 137.321C47.7673 137.414 47.6461 137.543 47.5533 137.707C47.4624 137.87 47.4169 138.059 47.4169 138.273V141H46.7464ZM55.5291 141.091C55.1087 141.091 54.746 140.998 54.4411 140.812C54.138 140.625 53.9041 140.364 53.7393 140.028C53.5765 139.691 53.495 139.299 53.495 138.852C53.495 138.405 53.5765 138.011 53.7393 137.67C53.9041 137.328 54.1333 137.061 54.4268 136.869C54.7223 136.676 55.067 136.58 55.4609 136.58C55.6882 136.58 55.9126 136.617 56.1342 136.693C56.3558 136.769 56.5575 136.892 56.7393 137.062C56.9212 137.231 57.0661 137.455 57.174 137.733C57.282 138.011 57.3359 138.354 57.3359 138.761V139.045H53.9723V138.466H56.6541C56.6541 138.22 56.6049 138 56.5064 137.807C56.4098 137.614 56.2715 137.461 56.0916 137.349C55.9136 137.238 55.7034 137.182 55.4609 137.182C55.1939 137.182 54.9628 137.248 54.7678 137.381C54.5746 137.511 54.4259 137.682 54.3217 137.892C54.2176 138.102 54.1655 138.328 54.1655 138.568V138.955C54.1655 139.284 54.2223 139.563 54.3359 139.793C54.4515 140.02 54.6115 140.193 54.8161 140.312C55.0206 140.43 55.2583 140.489 55.5291 140.489C55.7053 140.489 55.8643 140.464 56.0064 140.415C56.1503 140.364 56.2744 140.288 56.3786 140.188C56.4827 140.085 56.5632 139.958 56.62 139.807L57.2678 139.989C57.1996 140.208 57.085 140.402 56.924 140.568C56.763 140.733 56.5642 140.862 56.3274 140.955C56.0907 141.045 55.8246 141.091 55.5291 141.091ZM58.3558 141V136.636H59.0036V137.295H59.049C59.1286 137.08 59.2725 136.904 59.4808 136.77C59.6892 136.635 59.924 136.568 60.1854 136.568C60.2346 136.568 60.2962 136.569 60.37 136.571C60.4439 136.573 60.4998 136.576 60.5376 136.58V137.261C60.5149 137.256 60.4628 137.247 60.3814 137.236C60.3018 137.223 60.2176 137.216 60.1286 137.216C59.9164 137.216 59.727 137.26 59.5604 137.349C59.3956 137.437 59.2649 137.558 59.1683 137.713C59.0736 137.866 59.0263 138.042 59.0263 138.239V141H58.3558ZM61.3324 141V136.636H62.0028V141H61.3324ZM61.6733 135.909C61.5426 135.909 61.4299 135.865 61.3352 135.776C61.2424 135.687 61.196 135.58 61.196 135.455C61.196 135.33 61.2424 135.223 61.3352 135.134C61.4299 135.045 61.5426 135 61.6733 135C61.804 135 61.9157 135.045 62.0085 135.134C62.1032 135.223 62.1506 135.33 62.1506 135.455C62.1506 135.58 62.1032 135.687 62.0085 135.776C61.9157 135.865 61.804 135.909 61.6733 135.909ZM65.0036 141.091C64.5945 141.091 64.2422 140.994 63.9467 140.801C63.6513 140.608 63.424 140.342 63.2649 140.003C63.1058 139.664 63.0263 139.277 63.0263 138.841C63.0263 138.398 63.1077 138.007 63.2706 137.668C63.4354 137.327 63.6645 137.061 63.9581 136.869C64.2536 136.676 64.5982 136.58 64.9922 136.58C65.299 136.58 65.5755 136.636 65.8217 136.75C66.0679 136.864 66.2696 137.023 66.4268 137.227C66.584 137.432 66.6816 137.67 66.7195 137.943H66.049C65.9979 137.744 65.8842 137.568 65.7081 137.415C65.5339 137.259 65.299 137.182 65.0036 137.182C64.7422 137.182 64.513 137.25 64.3161 137.386C64.121 137.521 63.9685 137.711 63.8587 137.957C63.7507 138.202 63.6967 138.489 63.6967 138.818C63.6967 139.155 63.7498 139.449 63.8558 139.699C63.9638 139.949 64.1153 140.143 64.3104 140.281C64.5073 140.42 64.7384 140.489 65.0036 140.489C65.1778 140.489 65.3359 140.458 65.478 140.398C65.62 140.337 65.7403 140.25 65.8388 140.136C65.9373 140.023 66.0073 139.886 66.049 139.727H66.7195C66.6816 139.985 66.5878 140.217 66.4382 140.423C66.2905 140.628 66.0945 140.791 65.8501 140.912C65.6077 141.031 65.3255 141.091 65.0036 141.091ZM68.9837 141.102C68.7071 141.102 68.4562 141.05 68.2308 140.946C68.0054 140.84 67.8265 140.688 67.6939 140.489C67.5613 140.288 67.495 140.045 67.495 139.761C67.495 139.511 67.5443 139.309 67.6428 139.153C67.7412 138.996 67.8729 138.873 68.0376 138.784C68.2024 138.695 68.3842 138.629 68.5831 138.585C68.7839 138.54 68.9856 138.504 69.1882 138.477C69.4534 138.443 69.6683 138.418 69.8331 138.401C69.9998 138.382 70.121 138.35 70.1967 138.307C70.2744 138.263 70.3132 138.187 70.3132 138.08V138.057C70.3132 137.777 70.2365 137.559 70.0831 137.403C69.9316 137.248 69.7015 137.17 69.3928 137.17C69.0727 137.17 68.8217 137.241 68.6399 137.381C68.4581 137.521 68.3303 137.67 68.2564 137.83L67.62 137.602C67.7337 137.337 67.8852 137.131 68.0746 136.983C68.2659 136.833 68.4742 136.729 68.6996 136.67C68.9268 136.61 69.1503 136.58 69.37 136.58C69.5102 136.58 69.6712 136.597 69.853 136.631C70.0367 136.663 70.2138 136.73 70.3842 136.832C70.5566 136.935 70.6996 137.089 70.8132 137.295C70.9268 137.502 70.9837 137.778 70.9837 138.125V141H70.3132V140.409H70.2791C70.2337 140.504 70.1579 140.605 70.0518 140.713C69.9458 140.821 69.8047 140.913 69.6286 140.989C69.4524 141.064 69.2375 141.102 68.9837 141.102ZM69.0859 140.5C69.3511 140.5 69.5746 140.448 69.7564 140.344C69.9401 140.24 70.0784 140.105 70.1712 139.94C70.2659 139.776 70.3132 139.602 70.3132 139.42V138.807C70.2848 138.841 70.2223 138.872 70.1257 138.901C70.031 138.927 69.9212 138.951 69.7962 138.972C69.6731 138.991 69.5528 139.008 69.4354 139.023C69.3198 139.036 69.2261 139.047 69.1541 139.057C68.9799 139.08 68.817 139.116 68.6655 139.168C68.5159 139.217 68.3946 139.292 68.3018 139.392C68.2109 139.491 68.1655 139.625 68.1655 139.795C68.1655 140.028 68.2517 140.205 68.424 140.324C68.5982 140.441 68.8189 140.5 69.0859 140.5ZM72.8778 138.375V141H72.2074V136.636H72.8551V137.318H72.9119C73.0142 137.097 73.1695 136.919 73.3778 136.784C73.5862 136.648 73.8551 136.58 74.1847 136.58C74.4801 136.58 74.7386 136.64 74.9602 136.761C75.1818 136.881 75.3542 137.062 75.4773 137.307C75.6004 137.549 75.6619 137.856 75.6619 138.227V141H74.9915V138.273C74.9915 137.93 74.9025 137.663 74.7244 137.472C74.5464 137.278 74.3021 137.182 73.9915 137.182C73.7775 137.182 73.5862 137.228 73.4176 137.321C73.2509 137.414 73.1193 137.549 73.0227 137.727C72.9261 137.905 72.8778 138.121 72.8778 138.375Z" fill="#FFF0D1"/>
<path d="M23.3428 99L25.6198 94.4957V94.456H22.9948V93.9091H26.2562V94.4858L23.9891 99H23.3428ZM29.7779 98.0455V97.777C29.7779 97.5914 29.816 97.4215 29.8923 97.2674C29.9702 97.1116 30.0828 96.9873 30.2303 96.8945C30.3795 96.8001 30.5601 96.7528 30.7722 96.7528C30.9877 96.7528 31.1683 96.8001 31.3141 96.8945C31.46 96.9873 31.5702 97.1116 31.6448 97.2674C31.7193 97.4215 31.7566 97.5914 31.7566 97.777V98.0455C31.7566 98.2311 31.7185 98.4018 31.6423 98.5575C31.5677 98.7116 31.4567 98.8359 31.3092 98.9304C31.1633 99.0232 30.9844 99.0696 30.7722 99.0696C30.5568 99.0696 30.3753 99.0232 30.2278 98.9304C30.0804 98.8359 29.9685 98.7116 29.8923 98.5575C29.816 98.4018 29.7779 98.2311 29.7779 98.0455ZM30.285 97.777V98.0455C30.285 98.1996 30.3215 98.3379 30.3944 98.4606C30.4673 98.5816 30.5933 98.642 30.7722 98.642C30.9462 98.642 31.0689 98.5816 31.1401 98.4606C31.2131 98.3379 31.2495 98.1996 31.2495 98.0455V97.777C31.2495 97.6229 31.2147 97.4853 31.1451 97.3643C31.0755 97.2417 30.9512 97.1804 30.7722 97.1804C30.5982 97.1804 30.4731 97.2417 30.3969 97.3643C30.3223 97.4853 30.285 97.6229 30.285 97.777ZM27.2424 95.1321V94.8636C27.2424 94.678 27.2805 94.5082 27.3568 94.354C27.4346 94.1983 27.5473 94.074 27.6948 93.9812C27.844 93.8867 28.0246 93.8395 28.2367 93.8395C28.4522 93.8395 28.6328 93.8867 28.7786 93.9812C28.9245 94.074 29.0347 94.1983 29.1092 94.354C29.1838 94.5082 29.2211 94.678 29.2211 94.8636V95.1321C29.2211 95.3177 29.183 95.4884 29.1068 95.6442C29.0322 95.7983 28.9211 95.9226 28.7737 96.017C28.6278 96.1098 28.4488 96.1562 28.2367 96.1562C28.0213 96.1562 27.8398 96.1098 27.6923 96.017C27.5448 95.9226 27.433 95.7983 27.3568 95.6442C27.2805 95.4884 27.2424 95.3177 27.2424 95.1321ZM27.7495 94.8636V95.1321C27.7495 95.2862 27.786 95.4246 27.8589 95.5472C27.9318 95.6682 28.0578 95.7287 28.2367 95.7287C28.4107 95.7287 28.5334 95.6682 28.6046 95.5472C28.6775 95.4246 28.714 95.2862 28.714 95.1321V94.8636C28.714 94.7095 28.6792 94.572 28.6096 94.451C28.54 94.3284 28.4157 94.267 28.2367 94.267C28.0627 94.267 27.9376 94.3284 27.8614 94.451C27.7868 94.572 27.7495 94.7095 27.7495 94.8636ZM27.4313 99L30.9313 93.9091H31.4981L27.9981 99H27.4313ZM2.50222 107V101.909H3.1187V104.176H5.83319V101.909H6.44966V107H5.83319V104.723H3.1187V107H2.50222ZM7.60431 107V103.182H8.19096V107H7.60431ZM7.90261 102.545C7.78826 102.545 7.68966 102.507 7.6068 102.429C7.5256 102.351 7.485 102.257 7.485 102.148C7.485 102.038 7.5256 101.945 7.6068 101.867C7.68966 101.789 7.78826 101.75 7.90261 101.75C8.01696 101.75 8.11473 101.789 8.19593 101.867C8.27879 101.945 8.32022 102.038 8.32022 102.148C8.32022 102.257 8.27879 102.351 8.19593 102.429C8.11473 102.507 8.01696 102.545 7.90261 102.545ZM11.97 104.037L11.443 104.186C11.4099 104.098 11.361 104.013 11.2963 103.93C11.2334 103.846 11.1472 103.776 11.0378 103.721C10.9284 103.667 10.7884 103.639 10.6177 103.639C10.3841 103.639 10.1893 103.693 10.0336 103.801C9.87944 103.907 9.80238 104.042 9.80238 104.206C9.80238 104.352 9.85541 104.467 9.96147 104.551C10.0675 104.636 10.2333 104.706 10.4586 104.763L11.0254 104.902C11.3668 104.985 11.6212 105.112 11.7885 105.282C11.9559 105.451 12.0396 105.669 12.0396 105.936C12.0396 106.155 11.9766 106.35 11.8507 106.523C11.7264 106.695 11.5524 106.831 11.3287 106.93C11.1049 107.03 10.8448 107.08 10.5481 107.08C10.1587 107.08 9.83635 106.995 9.58114 106.826C9.32594 106.657 9.16436 106.41 9.09641 106.085L9.65323 105.946C9.70626 106.152 9.80652 106.306 9.95401 106.408C10.1032 106.511 10.2979 106.562 10.5382 106.562C10.8116 106.562 11.0287 106.504 11.1895 106.388C11.3519 106.271 11.4331 106.13 11.4331 105.966C11.4331 105.833 11.3867 105.722 11.2939 105.633C11.2011 105.542 11.0585 105.474 10.8663 105.429L10.2299 105.28C9.88027 105.197 9.6234 105.069 9.45934 104.895C9.29693 104.719 9.21573 104.499 9.21573 104.236C9.21573 104.02 9.27622 103.83 9.39719 103.664C9.51983 103.498 9.68638 103.368 9.89684 103.274C10.109 103.179 10.3493 103.132 10.6177 103.132C10.9956 103.132 11.2922 103.215 11.5076 103.381C11.7247 103.546 11.8788 103.765 11.97 104.037ZM12.9227 108.432V103.182H13.4894V103.788H13.559C13.6021 103.722 13.6618 103.638 13.738 103.535C13.8159 103.43 13.9269 103.338 14.0711 103.256C14.2169 103.174 14.4142 103.132 14.6627 103.132C14.9842 103.132 15.2676 103.212 15.5129 103.373C15.7581 103.534 15.9495 103.762 16.0871 104.057C16.2246 104.352 16.2934 104.7 16.2934 105.101C16.2934 105.505 16.2246 105.856 16.0871 106.152C15.9495 106.447 15.759 106.676 15.5154 106.838C15.2718 106.999 14.9909 107.08 14.6727 107.08C14.4274 107.08 14.231 107.039 14.0835 106.958C13.936 106.875 13.8225 106.781 13.743 106.677C13.6634 106.571 13.6021 106.483 13.559 106.413H13.5093V108.432H12.9227ZM13.4994 105.091C13.4994 105.379 13.5416 105.634 13.6262 105.854C13.7107 106.073 13.8341 106.244 13.9965 106.369C14.1589 106.491 14.3578 106.553 14.5931 106.553C14.8384 106.553 15.0431 106.488 15.2071 106.359C15.3728 106.228 15.4971 106.052 15.58 105.832C15.6645 105.61 15.7068 105.363 15.7068 105.091C15.7068 104.822 15.6653 104.58 15.5825 104.365C15.5013 104.148 15.3778 103.976 15.2121 103.85C15.048 103.723 14.8417 103.659 14.5931 103.659C14.3545 103.659 14.154 103.72 13.9916 103.841C13.8292 103.96 13.7065 104.127 13.6237 104.343C13.5408 104.556 13.4994 104.806 13.4994 105.091ZM18.3119 107.089C18.0699 107.089 17.8503 107.044 17.6531 106.953C17.4559 106.86 17.2993 106.727 17.1833 106.553C17.0673 106.377 17.0093 106.165 17.0093 105.916C17.0093 105.697 17.0524 105.52 17.1386 105.384C17.2248 105.247 17.3399 105.139 17.4841 105.061C17.6283 104.983 17.7874 104.925 17.9614 104.887C18.137 104.847 18.3135 104.816 18.4909 104.793C18.7229 104.763 18.911 104.74 19.0551 104.725C19.201 104.709 19.307 104.682 19.3733 104.643C19.4413 104.605 19.4752 104.539 19.4752 104.445V104.425C19.4752 104.179 19.4081 103.989 19.2739 103.853C19.1413 103.717 18.94 103.649 18.6698 103.649C18.3898 103.649 18.1702 103.71 18.0111 103.833C17.852 103.956 17.7401 104.087 17.6755 104.226L17.1187 104.027C17.2181 103.795 17.3507 103.614 17.5164 103.485C17.6838 103.354 17.8661 103.263 18.0633 103.212C18.2622 103.159 18.4577 103.132 18.6499 103.132C18.7726 103.132 18.9134 103.147 19.0725 103.177C19.2333 103.205 19.3882 103.264 19.5374 103.353C19.6882 103.443 19.8133 103.578 19.9127 103.759C20.0122 103.939 20.0619 104.181 20.0619 104.484V107H19.4752V106.483H19.4454C19.4056 106.566 19.3393 106.654 19.2465 106.749C19.1537 106.843 19.0303 106.924 18.8762 106.99C18.722 107.056 18.5339 107.089 18.3119 107.089ZM18.4014 106.562C18.6334 106.562 18.8289 106.517 18.988 106.426C19.1488 106.335 19.2697 106.217 19.3509 106.073C19.4338 105.929 19.4752 105.777 19.4752 105.618V105.081C19.4504 105.111 19.3957 105.138 19.3112 105.163C19.2283 105.186 19.1322 105.207 19.0228 105.225C18.9151 105.242 18.8099 105.257 18.7071 105.27C18.606 105.281 18.524 105.291 18.461 105.3C18.3086 105.32 18.166 105.352 18.0335 105.397C17.9026 105.44 17.7965 105.505 17.7153 105.593C17.6357 105.679 17.596 105.797 17.596 105.946C17.596 106.15 17.6714 106.304 17.8222 106.408C17.9746 106.511 18.1677 106.562 18.4014 106.562ZM21.7193 104.703V107H21.1326V103.182H21.6994V103.778H21.7491C21.8386 103.585 21.9745 103.429 22.1568 103.311C22.3391 103.192 22.5744 103.132 22.8627 103.132C23.1213 103.132 23.3475 103.185 23.5414 103.291C23.7353 103.396 23.8861 103.555 23.9938 103.768C24.1015 103.981 24.1554 104.249 24.1554 104.574V107H23.5687V104.614C23.5687 104.314 23.4908 104.08 23.335 103.913C23.1793 103.744 22.9655 103.659 22.6937 103.659C22.5065 103.659 22.3391 103.7 22.1916 103.781C22.0458 103.862 21.9306 103.981 21.8461 104.136C21.7615 104.292 21.7193 104.481 21.7193 104.703ZM25.2274 107V103.182H25.814V107H25.2274ZM25.5257 102.545C25.4113 102.545 25.3127 102.507 25.2298 102.429C25.1486 102.351 25.108 102.257 25.108 102.148C25.108 102.038 25.1486 101.945 25.2298 101.867C25.3127 101.789 25.4113 101.75 25.5257 101.75C25.64 101.75 25.7378 101.789 25.819 101.867C25.9018 101.945 25.9433 102.038 25.9433 102.148C25.9433 102.257 25.9018 102.351 25.819 102.429C25.7378 102.507 25.64 102.545 25.5257 102.545ZM28.4396 107.08C28.0817 107.08 27.7734 106.995 27.5149 106.826C27.2564 106.657 27.0575 106.424 26.9183 106.127C26.7791 105.831 26.7095 105.492 26.7095 105.111C26.7095 104.723 26.7808 104.381 26.9233 104.084C27.0675 103.786 27.268 103.553 27.5249 103.386C27.7834 103.217 28.085 103.132 28.4297 103.132C28.6982 103.132 28.9401 103.182 29.1555 103.281C29.371 103.381 29.5475 103.52 29.685 103.699C29.8226 103.878 29.9079 104.087 29.9411 104.325H29.3544C29.3097 104.151 29.2102 103.997 29.0561 103.863C28.9036 103.727 28.6982 103.659 28.4396 103.659C28.2109 103.659 28.0104 103.719 27.8381 103.838C27.6674 103.956 27.534 104.122 27.4379 104.338C27.3434 104.551 27.2962 104.803 27.2962 105.091C27.2962 105.386 27.3426 105.643 27.4354 105.862C27.5298 106.08 27.6624 106.25 27.8331 106.371C28.0054 106.492 28.2076 106.553 28.4396 106.553C28.5921 106.553 28.7305 106.526 28.8548 106.473C28.979 106.42 29.0843 106.344 29.1705 106.244C29.2566 106.145 29.3179 106.026 29.3544 105.886H29.9411C29.9079 106.112 29.8259 106.315 29.695 106.495C29.5657 106.674 29.3942 106.817 29.1804 106.923C28.9683 107.027 28.7214 107.08 28.4396 107.08ZM32.5984 101.67L30.9577 107.766H30.4208L32.0614 101.67H32.5984ZM33.3733 107V101.909H33.9898V106.453H36.3563V107H33.3733ZM38.3548 107.089C38.1129 107.089 37.8933 107.044 37.6961 106.953C37.4989 106.86 37.3423 106.727 37.2263 106.553C37.1103 106.377 37.0523 106.165 37.0523 105.916C37.0523 105.697 37.0954 105.52 37.1816 105.384C37.2677 105.247 37.3829 105.139 37.5271 105.061C37.6713 104.983 37.8303 104.925 38.0044 104.887C38.18 104.847 38.3565 104.816 38.5338 104.793C38.7658 104.763 38.9539 104.74 39.0981 104.725C39.2439 104.709 39.35 104.682 39.4163 104.643C39.4842 104.605 39.5182 104.539 39.5182 104.445V104.425C39.5182 104.179 39.4511 103.989 39.3169 103.853C39.1843 103.717 38.9829 103.649 38.7128 103.649C38.4327 103.649 38.2132 103.71 38.0541 103.833C37.895 103.956 37.7831 104.087 37.7185 104.226L37.1617 104.027C37.2611 103.795 37.3937 103.614 37.5594 103.485C37.7268 103.354 37.9091 103.263 38.1063 103.212C38.3051 103.159 38.5007 103.132 38.6929 103.132C38.8155 103.132 38.9564 103.147 39.1155 103.177C39.2762 103.205 39.4312 103.264 39.5803 103.353C39.7311 103.443 39.8563 103.578 39.9557 103.759C40.0551 103.939 40.1048 104.181 40.1048 104.484V107H39.5182V106.483H39.4884C39.4486 106.566 39.3823 106.654 39.2895 106.749C39.1967 106.843 39.0732 106.924 38.9191 106.99C38.765 107.056 38.5769 107.089 38.3548 107.089ZM38.4443 106.562C38.6763 106.562 38.8719 106.517 39.031 106.426C39.1917 106.335 39.3127 106.217 39.3939 106.073C39.4768 105.929 39.5182 105.777 39.5182 105.618V105.081C39.4933 105.111 39.4387 105.138 39.3541 105.163C39.2713 105.186 39.1752 105.207 39.0658 105.225C38.9581 105.242 38.8528 105.257 38.7501 105.27C38.649 105.281 38.567 105.291 38.504 105.3C38.3515 105.32 38.209 105.352 38.0764 105.397C37.9455 105.44 37.8395 105.505 37.7583 105.593C37.6787 105.679 37.6389 105.797 37.6389 105.946C37.6389 106.15 37.7143 106.304 37.8651 106.408C38.0176 106.511 38.2107 106.562 38.4443 106.562ZM42.8361 103.182V103.679H40.8574V103.182H42.8361ZM41.4341 102.267H42.0208V105.906C42.0208 106.072 42.0448 106.196 42.0929 106.279C42.1426 106.36 42.2056 106.415 42.2818 106.443C42.3597 106.47 42.4417 106.483 42.5279 106.483C42.5925 106.483 42.6455 106.48 42.687 106.473C42.7284 106.465 42.7615 106.458 42.7864 106.453L42.9057 106.98C42.8659 106.995 42.8104 107.01 42.7392 107.025C42.6679 107.041 42.5776 107.05 42.4682 107.05C42.3025 107.05 42.1401 107.014 41.981 106.943C41.8236 106.872 41.6926 106.763 41.5882 106.617C41.4855 106.471 41.4341 106.287 41.4341 106.065V102.267ZM43.7186 107V103.182H44.3052V107H43.7186ZM44.0169 102.545C43.9025 102.545 43.8039 102.507 43.7211 102.429C43.6399 102.351 43.5993 102.257 43.5993 102.148C43.5993 102.038 43.6399 101.945 43.7211 101.867C43.8039 101.789 43.9025 101.75 44.0169 101.75C44.1312 101.75 44.229 101.789 44.3102 101.867C44.3931 101.945 44.4345 102.038 44.4345 102.148C44.4345 102.257 44.3931 102.351 44.3102 102.429C44.229 102.507 44.1312 102.545 44.0169 102.545ZM45.9664 104.703V107H45.3797V103.182H45.9465V103.778H45.9962C46.0857 103.585 46.2216 103.429 46.4039 103.311C46.5861 103.192 46.8215 103.132 47.1098 103.132C47.3683 103.132 47.5945 103.185 47.7884 103.291C47.9823 103.396 48.1331 103.555 48.2409 103.768C48.3486 103.981 48.4024 104.249 48.4024 104.574V107H47.8158V104.614C47.8158 104.314 47.7379 104.08 47.5821 103.913C47.4263 103.744 47.2126 103.659 46.9408 103.659C46.7535 103.659 46.5861 103.7 46.4387 103.781C46.2928 103.862 46.1776 103.981 46.0931 104.136C46.0086 104.292 45.9664 104.481 45.9664 104.703ZM51.0256 107.08C50.6809 107.08 50.3784 106.998 50.1183 106.833C49.8597 106.669 49.6576 106.44 49.5117 106.145C49.3675 105.85 49.2955 105.505 49.2955 105.111C49.2955 104.713 49.3675 104.366 49.5117 104.069C49.6576 103.773 49.8597 103.542 50.1183 103.378C50.3784 103.214 50.6809 103.132 51.0256 103.132C51.3703 103.132 51.6719 103.214 51.9304 103.378C52.1906 103.542 52.3928 103.773 52.5369 104.069C52.6828 104.366 52.7557 104.713 52.7557 105.111C52.7557 105.505 52.6828 105.85 52.5369 106.145C52.3928 106.44 52.1906 106.669 51.9304 106.833C51.6719 106.998 51.3703 107.08 51.0256 107.08ZM51.0256 106.553C51.2874 106.553 51.5028 106.485 51.6719 106.351C51.8409 106.217 51.966 106.04 52.0472 105.822C52.1284 105.603 52.169 105.366 52.169 105.111C52.169 104.856 52.1284 104.618 52.0472 104.397C51.966 104.177 51.8409 103.999 51.6719 103.863C51.5028 103.727 51.2874 103.659 51.0256 103.659C50.7637 103.659 50.5483 103.727 50.3793 103.863C50.2102 103.999 50.0851 104.177 50.0039 104.397C49.9227 104.618 49.8821 104.856 49.8821 105.111C49.8821 105.366 49.9227 105.603 50.0039 105.822C50.0851 106.04 50.2102 106.217 50.3793 106.351C50.5483 106.485 50.7637 106.553 51.0256 106.553Z" fill="#FFF0D1"/>
</g>
<defs>
<clipPath id="clip0_34_2">
<rect width="180" height="180" fill="white"/>
</clipPath>
</defs>
</svg>
