<svg width="180" height="180" viewBox="0 0 180 180" fill="none" xmlns="http://www.w3.org/2000/svg">
<g clip-path="url(#clip0_35_17)">
<path d="M90 0C107.23 0 124.098 4.9458 138.6 14.2499C153.101 23.5539 164.628 36.8252 171.809 52.487C178.991 68.1489 181.526 85.5431 179.113 102.603C176.7 119.663 169.441 135.672 158.198 148.728C146.955 161.784 132.2 171.339 115.687 176.256C99.1738 181.174 81.5961 181.248 65.0419 176.47C48.4878 171.692 33.6531 162.263 22.3001 149.302C10.9471 136.341 3.55307 120.394 0.996338 103.355L90 90V0Z" fill="#FFF0D1"/>
<path d="M0.99643 103.355C-1.52275 86.566 0.757993 69.4069 7.5753 53.859C14.3926 38.3111 25.4684 25.0085 39.5239 15.4871L90 89.9999L0.99643 103.355Z" fill="#DE6B48"/>
<path d="M39.5239 15.4872C49.4125 8.78851 60.5355 4.12512 72.2446 1.7688L90.0001 90L39.5239 15.4872Z" fill="#8F443D"/>
<path d="M72.2445 1.76875C74.1898 1.37728 76.1475 1.05026 78.1144 0.788208L90 89.9999L72.2445 1.76875Z" fill="#822E15"/>
<path d="M78.1145 0.788262C82.0494 0.264022 86.0147 0.000692837 89.9843 0L90 90L78.1145 0.788262Z" fill="#511730"/>
<path d="M118.292 103.08C118.053 103.076 117.815 103.03 117.576 102.943C117.337 102.856 117.12 102.709 116.923 102.503C116.726 102.295 116.567 102.013 116.448 101.659C116.329 101.303 116.269 100.856 116.269 100.318C116.269 99.803 116.317 99.3466 116.414 98.9489C116.511 98.5492 116.651 98.2131 116.835 97.9403C117.018 97.6657 117.24 97.4574 117.499 97.3153C117.761 97.1733 118.055 97.1023 118.383 97.1023C118.709 97.1023 118.998 97.1676 119.252 97.2983C119.508 97.4271 119.716 97.607 119.877 97.8381C120.038 98.0691 120.142 98.3352 120.19 98.6364H119.496C119.432 98.375 119.307 98.1581 119.121 97.9858C118.936 97.8134 118.69 97.7273 118.383 97.7273C117.932 97.7273 117.577 97.9233 117.317 98.3153C117.06 98.7074 116.93 99.2576 116.928 99.9659H116.974C117.08 99.8049 117.206 99.6676 117.352 99.554C117.499 99.4384 117.662 99.3494 117.84 99.2869C118.018 99.2244 118.207 99.1932 118.406 99.1932C118.739 99.1932 119.044 99.2765 119.32 99.4432C119.597 99.608 119.818 99.8362 119.985 100.128C120.152 100.418 120.235 100.75 120.235 101.125C120.235 101.485 120.155 101.814 119.994 102.114C119.833 102.411 119.606 102.648 119.315 102.824C119.025 102.998 118.684 103.083 118.292 103.08ZM118.292 102.455C118.531 102.455 118.745 102.395 118.934 102.276C119.125 102.156 119.276 101.996 119.386 101.795C119.497 101.595 119.553 101.371 119.553 101.125C119.553 100.884 119.499 100.666 119.391 100.469C119.285 100.27 119.138 100.112 118.951 99.9943C118.765 99.8769 118.553 99.8182 118.315 99.8182C118.135 99.8182 117.967 99.8542 117.812 99.9261C117.656 99.9962 117.52 100.093 117.403 100.216C117.287 100.339 117.196 100.48 117.13 100.639C117.064 100.796 117.031 100.962 117.031 101.136C117.031 101.367 117.085 101.583 117.192 101.784C117.302 101.985 117.452 102.147 117.641 102.27C117.833 102.393 118.049 102.455 118.292 102.455ZM123.205 97.1023C123.443 97.1042 123.682 97.1496 123.92 97.2386C124.159 97.3277 124.377 97.4754 124.574 97.6818C124.771 97.8864 124.929 98.1657 125.048 98.5199C125.168 98.8741 125.227 99.3182 125.227 99.8523C125.227 100.369 125.178 100.829 125.08 101.23C124.983 101.63 124.843 101.967 124.659 102.241C124.477 102.516 124.256 102.724 123.994 102.866C123.735 103.009 123.441 103.08 123.114 103.08C122.788 103.08 122.497 103.015 122.241 102.886C121.988 102.756 121.779 102.575 121.616 102.344C121.455 102.111 121.352 101.841 121.307 101.534H122C122.062 101.801 122.187 102.022 122.372 102.196C122.56 102.368 122.807 102.455 123.114 102.455C123.563 102.455 123.917 102.259 124.176 101.866C124.438 101.474 124.568 100.92 124.568 100.205H124.523C124.417 100.364 124.291 100.501 124.145 100.616C123.999 100.732 123.837 100.821 123.659 100.884C123.481 100.946 123.292 100.977 123.091 100.977C122.758 100.977 122.452 100.895 122.173 100.73C121.897 100.563 121.675 100.335 121.509 100.045C121.344 99.7538 121.261 99.4205 121.261 99.0455C121.261 98.6894 121.341 98.3636 121.5 98.0682C121.661 97.7708 121.886 97.5341 122.176 97.358C122.468 97.1818 122.811 97.0966 123.205 97.1023ZM123.205 97.7273C122.966 97.7273 122.751 97.7869 122.56 97.9062C122.37 98.0237 122.22 98.1828 122.108 98.3835C121.998 98.5824 121.943 98.803 121.943 99.0455C121.943 99.2879 121.996 99.5085 122.102 99.7074C122.21 99.9044 122.357 100.062 122.543 100.179C122.73 100.295 122.943 100.352 123.182 100.352C123.362 100.352 123.529 100.317 123.685 100.247C123.84 100.175 123.975 100.078 124.091 99.9545C124.208 99.8295 124.3 99.6884 124.366 99.5312C124.433 99.3722 124.466 99.2064 124.466 99.0341C124.466 98.8068 124.411 98.5937 124.301 98.3949C124.193 98.196 124.044 98.035 123.852 97.9119C123.663 97.7888 123.447 97.7273 123.205 97.7273ZM129.31 101.909V101.602C129.31 101.39 129.354 101.196 129.441 101.02C129.53 100.842 129.659 100.7 129.827 100.594C129.998 100.486 130.204 100.432 130.447 100.432C130.693 100.432 130.899 100.486 131.066 100.594C131.233 100.7 131.359 100.842 131.444 101.02C131.529 101.196 131.572 101.39 131.572 101.602V101.909C131.572 102.121 131.528 102.316 131.441 102.494C131.356 102.67 131.229 102.812 131.06 102.92C130.894 103.027 130.689 103.08 130.447 103.08C130.201 103.08 129.993 103.027 129.825 102.92C129.656 102.812 129.528 102.67 129.441 102.494C129.354 102.316 129.31 102.121 129.31 101.909ZM129.89 101.602V101.909C129.89 102.085 129.932 102.243 130.015 102.384C130.098 102.522 130.242 102.591 130.447 102.591C130.646 102.591 130.786 102.522 130.867 102.384C130.951 102.243 130.992 102.085 130.992 101.909V101.602C130.992 101.426 130.952 101.269 130.873 101.131C130.793 100.991 130.651 100.92 130.447 100.92C130.248 100.92 130.105 100.991 130.018 101.131C129.933 101.269 129.89 101.426 129.89 101.602ZM126.413 98.5795V98.2727C126.413 98.0606 126.456 97.8665 126.543 97.6903C126.632 97.5123 126.761 97.3703 126.93 97.2642C127.1 97.1562 127.307 97.1023 127.549 97.1023C127.795 97.1023 128.002 97.1562 128.168 97.2642C128.335 97.3703 128.461 97.5123 128.546 97.6903C128.631 97.8665 128.674 98.0606 128.674 98.2727V98.5795C128.674 98.7917 128.63 98.9867 128.543 99.1648C128.458 99.3409 128.331 99.483 128.163 99.5909C127.996 99.697 127.791 99.75 127.549 99.75C127.303 99.75 127.095 99.697 126.927 99.5909C126.758 99.483 126.63 99.3409 126.543 99.1648C126.456 98.9867 126.413 98.7917 126.413 98.5795ZM126.992 98.2727V98.5795C126.992 98.7557 127.034 98.9138 127.117 99.054C127.201 99.1922 127.344 99.2614 127.549 99.2614C127.748 99.2614 127.888 99.1922 127.969 99.054C128.053 98.9138 128.094 98.7557 128.094 98.5795V98.2727C128.094 98.0966 128.055 97.9394 127.975 97.8011C127.896 97.661 127.754 97.5909 127.549 97.5909C127.35 97.5909 127.207 97.661 127.12 97.8011C127.035 97.9394 126.992 98.0966 126.992 98.2727ZM126.629 103L130.629 97.1818H131.276L127.276 103H126.629ZM114.894 113L113.303 107.182H114.019L115.235 111.92H115.292L116.531 107.182H117.326L118.565 111.92H118.621L119.837 107.182H120.553L118.962 113H118.235L116.951 108.364H116.906L115.621 113H114.894ZM122.011 110.375V113H121.34V107.182H122.011V109.318H122.067C122.17 109.093 122.323 108.914 122.528 108.781C122.734 108.647 123.009 108.58 123.352 108.58C123.649 108.58 123.909 108.639 124.133 108.759C124.356 108.876 124.53 109.057 124.653 109.301C124.778 109.544 124.84 109.852 124.84 110.227V113H124.17V110.273C124.17 109.926 124.08 109.658 123.9 109.469C123.722 109.277 123.475 109.182 123.158 109.182C122.939 109.182 122.742 109.228 122.567 109.321C122.395 109.414 122.259 109.549 122.158 109.727C122.06 109.905 122.011 110.121 122.011 110.375ZM126.067 113V108.636H126.737V113H126.067ZM126.408 107.909C126.277 107.909 126.164 107.865 126.07 107.776C125.977 107.687 125.93 107.58 125.93 107.455C125.93 107.33 125.977 107.223 126.07 107.134C126.164 107.045 126.277 107 126.408 107C126.538 107 126.65 107.045 126.743 107.134C126.838 107.223 126.885 107.33 126.885 107.455C126.885 107.58 126.838 107.687 126.743 107.776C126.65 107.865 126.538 107.909 126.408 107.909ZM129.863 108.636V109.205H127.602V108.636H129.863ZM128.261 107.591H128.931V111.75C128.931 111.939 128.959 112.081 129.013 112.176C129.07 112.269 129.142 112.331 129.229 112.364C129.318 112.394 129.412 112.409 129.511 112.409C129.585 112.409 129.645 112.405 129.692 112.398C129.74 112.388 129.778 112.381 129.806 112.375L129.942 112.977C129.897 112.994 129.834 113.011 129.752 113.028C129.671 113.047 129.567 113.057 129.442 113.057C129.253 113.057 129.067 113.016 128.886 112.935C128.706 112.853 128.556 112.729 128.437 112.562C128.319 112.396 128.261 112.186 128.261 111.932V107.591ZM132.654 113.091C132.234 113.091 131.871 112.998 131.566 112.812C131.263 112.625 131.029 112.364 130.864 112.028C130.701 111.691 130.62 111.299 130.62 110.852C130.62 110.405 130.701 110.011 130.864 109.67C131.029 109.328 131.258 109.061 131.552 108.869C131.847 108.676 132.192 108.58 132.586 108.58C132.813 108.58 133.038 108.617 133.259 108.693C133.481 108.769 133.683 108.892 133.864 109.062C134.046 109.231 134.191 109.455 134.299 109.733C134.407 110.011 134.461 110.354 134.461 110.761V111.045H131.097V110.466H133.779C133.779 110.22 133.73 110 133.631 109.807C133.535 109.614 133.397 109.461 133.217 109.349C133.039 109.238 132.828 109.182 132.586 109.182C132.319 109.182 132.088 109.248 131.893 109.381C131.7 109.511 131.551 109.682 131.447 109.892C131.343 110.102 131.29 110.328 131.29 110.568V110.955C131.29 111.284 131.347 111.563 131.461 111.793C131.576 112.02 131.737 112.193 131.941 112.312C132.146 112.43 132.383 112.489 132.654 112.489C132.83 112.489 132.989 112.464 133.131 112.415C133.275 112.364 133.399 112.288 133.504 112.188C133.608 112.085 133.688 111.958 133.745 111.807L134.393 111.989C134.325 112.208 134.21 112.402 134.049 112.568C133.888 112.733 133.689 112.862 133.452 112.955C133.216 113.045 132.95 113.091 132.654 113.091Z" fill="#DE6B48"/>
<path d="M35.3465 60.9091V66H34.7301V61.5554H34.7002L33.4573 62.3807V61.7543L34.7301 60.9091H35.3465ZM36.9698 66L39.2468 61.4957V61.456H36.6218V60.9091H39.8831V61.4858L37.6161 66H36.9698ZM43.4049 65.0455V64.777C43.4049 64.5914 43.443 64.4215 43.5192 64.2674C43.5971 64.1116 43.7098 63.9873 43.8573 63.8945C44.0064 63.8001 44.1871 63.7528 44.3992 63.7528C44.6146 63.7528 44.7953 63.8001 44.9411 63.8945C45.0869 63.9873 45.1971 64.1116 45.2717 64.2674C45.3463 64.4215 45.3836 64.5914 45.3836 64.777V65.0455C45.3836 65.2311 45.3455 65.4018 45.2692 65.5575C45.1946 65.7116 45.0836 65.8359 44.9361 65.9304C44.7903 66.0232 44.6113 66.0696 44.3992 66.0696C44.1838 66.0696 44.0023 66.0232 43.8548 65.9304C43.7073 65.8359 43.5955 65.7116 43.5192 65.5575C43.443 65.4018 43.4049 65.2311 43.4049 65.0455ZM43.912 64.777V65.0455C43.912 65.1996 43.9484 65.3379 44.0214 65.4606C44.0943 65.5816 44.2202 65.642 44.3992 65.642C44.5732 65.642 44.6958 65.5816 44.7671 65.4606C44.84 65.3379 44.8765 65.1996 44.8765 65.0455V64.777C44.8765 64.6229 44.8417 64.4853 44.7721 64.3643C44.7025 64.2417 44.5782 64.1804 44.3992 64.1804C44.2252 64.1804 44.1001 64.2417 44.0238 64.3643C43.9493 64.4853 43.912 64.6229 43.912 64.777ZM40.8694 62.1321V61.8636C40.8694 61.678 40.9075 61.5082 40.9837 61.354C41.0616 61.1983 41.1743 61.074 41.3218 60.9812C41.4709 60.8867 41.6516 60.8395 41.8637 60.8395C42.0791 60.8395 42.2598 60.8867 42.4056 60.9812C42.5514 61.074 42.6616 61.1983 42.7362 61.354C42.8108 61.5082 42.8481 61.678 42.8481 61.8636V62.1321C42.8481 62.3177 42.8099 62.4884 42.7337 62.6442C42.6591 62.7983 42.5481 62.9226 42.4006 63.017C42.2548 63.1098 42.0758 63.1562 41.8637 63.1562C41.6482 63.1562 41.4668 63.1098 41.3193 63.017C41.1718 62.9226 41.0599 62.7983 40.9837 62.6442C40.9075 62.4884 40.8694 62.3177 40.8694 62.1321ZM41.3765 61.8636V62.1321C41.3765 62.2862 41.4129 62.4246 41.4858 62.5472C41.5588 62.6682 41.6847 62.7287 41.8637 62.7287C42.0377 62.7287 42.1603 62.6682 42.2316 62.5472C42.3045 62.4246 42.341 62.2862 42.341 62.1321V61.8636C42.341 61.7095 42.3062 61.572 42.2366 61.451C42.1669 61.3284 42.0427 61.267 41.8637 61.267C41.6897 61.267 41.5646 61.3284 41.4883 61.451C41.4138 61.572 41.3765 61.7095 41.3765 61.8636ZM41.0583 66L44.5583 60.9091H45.125L41.625 66H41.0583ZM14.5022 74V68.9091H15.1187V71.1761H17.8332V68.9091H18.4497V74H17.8332V71.723H15.1187V74H14.5022ZM19.6043 74V70.1818H20.191V74H19.6043ZM19.9026 69.5455C19.7883 69.5455 19.6897 69.5065 19.6068 69.4286C19.5256 69.3507 19.485 69.2571 19.485 69.1477C19.485 69.0384 19.5256 68.9447 19.6068 68.8668C19.6897 68.7889 19.7883 68.75 19.9026 68.75C20.017 68.75 20.1147 68.7889 20.1959 68.8668C20.2788 68.9447 20.3202 69.0384 20.3202 69.1477C20.3202 69.2571 20.2788 69.3507 20.1959 69.4286C20.1147 69.5065 20.017 69.5455 19.9026 69.5455ZM23.97 71.0369L23.443 71.1861C23.4099 71.0982 23.361 71.0129 23.2963 70.93C23.2334 70.8455 23.1472 70.7759 23.0378 70.7212C22.9284 70.6665 22.7884 70.6392 22.6177 70.6392C22.3841 70.6392 22.1893 70.6931 22.0336 70.8008C21.8794 70.9068 21.8024 71.0419 21.8024 71.206C21.8024 71.3518 21.8554 71.467 21.9615 71.5515C22.0675 71.636 22.2333 71.7064 22.4586 71.7628L23.0254 71.902C23.3668 71.9848 23.6212 72.1116 23.7885 72.2823C23.9559 72.4513 24.0396 72.6693 24.0396 72.9361C24.0396 73.1548 23.9766 73.3504 23.8507 73.5227C23.7264 73.6951 23.5524 73.831 23.3287 73.9304C23.1049 74.0298 22.8448 74.0795 22.5481 74.0795C22.1587 74.0795 21.8364 73.995 21.5811 73.826C21.3259 73.657 21.1644 73.41 21.0964 73.0852L21.6532 72.946C21.7063 73.1515 21.8065 73.3056 21.954 73.4084C22.1032 73.5111 22.2979 73.5625 22.5382 73.5625C22.8116 73.5625 23.0287 73.5045 23.1895 73.3885C23.3519 73.2708 23.4331 73.13 23.4331 72.9659C23.4331 72.8333 23.3867 72.7223 23.2939 72.6328C23.2011 72.5417 23.0585 72.4737 22.8663 72.429L22.2299 72.2798C21.8803 72.197 21.6234 72.0685 21.4593 71.8945C21.2969 71.7189 21.2157 71.4993 21.2157 71.2358C21.2157 71.0204 21.2762 70.8298 21.3972 70.6641C21.5198 70.4983 21.6864 70.3683 21.8968 70.2738C22.109 70.1793 22.3493 70.1321 22.6177 70.1321C22.9956 70.1321 23.2922 70.215 23.5076 70.3807C23.7247 70.5464 23.8788 70.7652 23.97 71.0369ZM24.9227 75.4318V70.1818H25.4894V70.7884H25.559C25.6021 70.7221 25.6618 70.6375 25.738 70.5348C25.8159 70.4304 25.9269 70.3376 26.0711 70.2564C26.2169 70.1735 26.4142 70.1321 26.6627 70.1321C26.9842 70.1321 27.2676 70.2125 27.5129 70.3732C27.7581 70.534 27.9495 70.7618 28.0871 71.0568C28.2246 71.3518 28.2934 71.6998 28.2934 72.1009C28.2934 72.5052 28.2246 72.8557 28.0871 73.1523C27.9495 73.4473 27.759 73.676 27.5154 73.8384C27.2718 73.9992 26.9909 74.0795 26.6727 74.0795C26.4274 74.0795 26.231 74.0389 26.0835 73.9577C25.936 73.8749 25.8225 73.7812 25.743 73.6768C25.6634 73.5708 25.6021 73.483 25.559 73.4134H25.5093V75.4318H24.9227ZM25.4994 72.0909C25.4994 72.3793 25.5416 72.6336 25.6262 72.854C25.7107 73.0728 25.8341 73.2443 25.9965 73.3686C26.1589 73.4912 26.3578 73.5526 26.5931 73.5526C26.8384 73.5526 27.0431 73.4879 27.2071 73.3587C27.3728 73.2277 27.4971 73.0521 27.58 72.8317C27.6645 72.6096 27.7068 72.3627 27.7068 72.0909C27.7068 71.8224 27.6653 71.5805 27.5825 71.3651C27.5013 71.148 27.3778 70.9764 27.2121 70.8505C27.048 70.7229 26.8417 70.6591 26.5931 70.6591C26.3545 70.6591 26.154 70.7196 25.9916 70.8406C25.8292 70.9599 25.7065 71.1272 25.6237 71.3427C25.5408 71.5565 25.4994 71.8059 25.4994 72.0909ZM30.3119 74.0895C30.0699 74.0895 29.8503 74.0439 29.6531 73.9528C29.4559 73.86 29.2993 73.7266 29.1833 73.5526C29.0673 73.3769 29.0093 73.1648 29.0093 72.9162C29.0093 72.6974 29.0524 72.5201 29.1386 72.3842C29.2248 72.2467 29.3399 72.139 29.4841 72.0611C29.6283 71.9832 29.7874 71.9252 29.9614 71.8871C30.137 71.8473 30.3135 71.8158 30.4909 71.7926C30.7229 71.7628 30.911 71.7404 31.0551 71.7255C31.201 71.7089 31.307 71.6816 31.3733 71.6435C31.4413 71.6054 31.4752 71.5391 31.4752 71.4446V71.4247C31.4752 71.1795 31.4081 70.9889 31.2739 70.853C31.1413 70.7171 30.94 70.6491 30.6698 70.6491C30.3898 70.6491 30.1702 70.7105 30.0111 70.8331C29.852 70.9557 29.7401 71.0866 29.6755 71.2259L29.1187 71.027C29.2181 70.795 29.3507 70.6143 29.5164 70.4851C29.6838 70.3542 29.8661 70.263 30.0633 70.2116C30.2622 70.1586 30.4577 70.1321 30.6499 70.1321C30.7726 70.1321 30.9134 70.147 31.0725 70.1768C31.2333 70.205 31.3882 70.2638 31.5374 70.3533C31.6882 70.4428 31.8133 70.5779 31.9127 70.7585C32.0122 70.9392 32.0619 71.1811 32.0619 71.4844V74H31.4752V73.483H31.4454C31.4056 73.5658 31.3393 73.6545 31.2465 73.7489C31.1537 73.8434 31.0303 73.9238 30.8762 73.9901C30.722 74.0563 30.5339 74.0895 30.3119 74.0895ZM30.4014 73.5625C30.6334 73.5625 30.8289 73.5169 30.988 73.4258C31.1488 73.3346 31.2697 73.217 31.3509 73.0728C31.4338 72.9286 31.4752 72.777 31.4752 72.6179V72.081C31.4504 72.1108 31.3957 72.1381 31.3112 72.163C31.2283 72.1862 31.1322 72.2069 31.0228 72.2251C30.9151 72.2417 30.8099 72.2566 30.7071 72.2699C30.606 72.2815 30.524 72.2914 30.461 72.2997C30.3086 72.3196 30.166 72.3519 30.0335 72.3967C29.9026 72.4397 29.7965 72.5052 29.7153 72.593C29.6357 72.6792 29.596 72.7969 29.596 72.946C29.596 73.1499 29.6714 73.304 29.8222 73.4084C29.9746 73.5111 30.1677 73.5625 30.4014 73.5625ZM33.7193 71.7031V74H33.1326V70.1818H33.6994V70.7784H33.7491C33.8386 70.5845 33.9745 70.4287 34.1568 70.3111C34.3391 70.1918 34.5744 70.1321 34.8627 70.1321C35.1213 70.1321 35.3475 70.1851 35.5414 70.2912C35.7353 70.3956 35.8861 70.5547 35.9938 70.7685C36.1015 70.9806 36.1554 71.2491 36.1554 71.5739V74H35.5687V71.6136C35.5687 71.3137 35.4908 71.08 35.335 70.9126C35.1793 70.7436 34.9655 70.6591 34.6937 70.6591C34.5065 70.6591 34.3391 70.6997 34.1916 70.7809C34.0458 70.8621 33.9306 70.9806 33.8461 71.1364C33.7615 71.2921 33.7193 71.4811 33.7193 71.7031ZM37.2274 74V70.1818H37.814V74H37.2274ZM37.5257 69.5455C37.4113 69.5455 37.3127 69.5065 37.2298 69.4286C37.1486 69.3507 37.108 69.2571 37.108 69.1477C37.108 69.0384 37.1486 68.9447 37.2298 68.8668C37.3127 68.7889 37.4113 68.75 37.5257 68.75C37.64 68.75 37.7378 68.7889 37.819 68.8668C37.9018 68.9447 37.9433 69.0384 37.9433 69.1477C37.9433 69.2571 37.9018 69.3507 37.819 69.4286C37.7378 69.5065 37.64 69.5455 37.5257 69.5455ZM40.4396 74.0795C40.0817 74.0795 39.7734 73.995 39.5149 73.826C39.2564 73.657 39.0575 73.4241 38.9183 73.1275C38.7791 72.8308 38.7095 72.492 38.7095 72.1108C38.7095 71.723 38.7808 71.3808 38.9233 71.0842C39.0675 70.7859 39.268 70.553 39.5249 70.3857C39.7834 70.2166 40.085 70.1321 40.4297 70.1321C40.6982 70.1321 40.9401 70.1818 41.1555 70.2812C41.371 70.3807 41.5475 70.5199 41.685 70.6989C41.8226 70.8778 41.9079 71.0866 41.9411 71.3253H41.3544C41.3097 71.1513 41.2102 70.9972 41.0561 70.8629C40.9036 70.727 40.6982 70.6591 40.4396 70.6591C40.2109 70.6591 40.0104 70.7187 39.8381 70.8381C39.6674 70.9557 39.534 71.1223 39.4379 71.3377C39.3434 71.5515 39.2962 71.8026 39.2962 72.0909C39.2962 72.3859 39.3426 72.6428 39.4354 72.8615C39.5298 73.0803 39.6624 73.2501 39.8331 73.3711C40.0054 73.4921 40.2076 73.5526 40.4396 73.5526C40.5921 73.5526 40.7305 73.526 40.8548 73.473C40.979 73.42 41.0843 73.3438 41.1705 73.2443C41.2566 73.1449 41.3179 73.0256 41.3544 72.8864H41.9411C41.9079 73.1117 41.8259 73.3147 41.695 73.4954C41.5657 73.6744 41.3942 73.8169 41.1804 73.9229C40.9683 74.0273 40.7214 74.0795 40.4396 74.0795ZM44.5984 68.6705L42.9577 74.7656H42.4208L44.0614 68.6705H44.5984ZM45.3733 74V68.9091H45.9898V73.4531H48.3563V74H45.3733ZM50.3548 74.0895C50.1129 74.0895 49.8933 74.0439 49.6961 73.9528C49.4989 73.86 49.3423 73.7266 49.2263 73.5526C49.1103 73.3769 49.0523 73.1648 49.0523 72.9162C49.0523 72.6974 49.0954 72.5201 49.1816 72.3842C49.2677 72.2467 49.3829 72.139 49.5271 72.0611C49.6713 71.9832 49.8303 71.9252 50.0044 71.8871C50.18 71.8473 50.3565 71.8158 50.5338 71.7926C50.7658 71.7628 50.9539 71.7404 51.0981 71.7255C51.2439 71.7089 51.35 71.6816 51.4163 71.6435C51.4842 71.6054 51.5182 71.5391 51.5182 71.4446V71.4247C51.5182 71.1795 51.4511 70.9889 51.3169 70.853C51.1843 70.7171 50.9829 70.6491 50.7128 70.6491C50.4327 70.6491 50.2132 70.7105 50.0541 70.8331C49.895 70.9557 49.7831 71.0866 49.7185 71.2259L49.1617 71.027C49.2611 70.795 49.3937 70.6143 49.5594 70.4851C49.7268 70.3542 49.9091 70.263 50.1063 70.2116C50.3051 70.1586 50.5007 70.1321 50.6929 70.1321C50.8155 70.1321 50.9564 70.147 51.1155 70.1768C51.2762 70.205 51.4312 70.2638 51.5803 70.3533C51.7311 70.4428 51.8563 70.5779 51.9557 70.7585C52.0551 70.9392 52.1048 71.1811 52.1048 71.4844V74H51.5182V73.483H51.4884C51.4486 73.5658 51.3823 73.6545 51.2895 73.7489C51.1967 73.8434 51.0732 73.9238 50.9191 73.9901C50.765 74.0563 50.5769 74.0895 50.3548 74.0895ZM50.4443 73.5625C50.6763 73.5625 50.8719 73.5169 51.031 73.4258C51.1917 73.3346 51.3127 73.217 51.3939 73.0728C51.4768 72.9286 51.5182 72.777 51.5182 72.6179V72.081C51.4933 72.1108 51.4387 72.1381 51.3541 72.163C51.2713 72.1862 51.1752 72.2069 51.0658 72.2251C50.9581 72.2417 50.8528 72.2566 50.7501 72.2699C50.649 72.2815 50.567 72.2914 50.504 72.2997C50.3515 72.3196 50.209 72.3519 50.0764 72.3967C49.9455 72.4397 49.8395 72.5052 49.7583 72.593C49.6787 72.6792 49.6389 72.7969 49.6389 72.946C49.6389 73.1499 49.7143 73.304 49.8651 73.4084C50.0176 73.5111 50.2107 73.5625 50.4443 73.5625ZM54.8361 70.1818V70.679H52.8574V70.1818H54.8361ZM53.4341 69.267H54.0208V72.9062C54.0208 73.072 54.0448 73.1963 54.0929 73.2791C54.1426 73.3603 54.2056 73.415 54.2818 73.4432C54.3597 73.4697 54.4417 73.483 54.5279 73.483C54.5925 73.483 54.6455 73.4796 54.687 73.473C54.7284 73.4647 54.7615 73.4581 54.7864 73.4531L54.9057 73.9801C54.8659 73.995 54.8104 74.0099 54.7392 74.0249C54.6679 74.0414 54.5776 74.0497 54.4682 74.0497C54.3025 74.0497 54.1401 74.0141 53.981 73.9428C53.8236 73.8716 53.6926 73.763 53.5882 73.6172C53.4855 73.4714 53.4341 73.2874 53.4341 73.0653V69.267ZM55.7186 74V70.1818H56.3052V74H55.7186ZM56.0169 69.5455C55.9025 69.5455 55.8039 69.5065 55.7211 69.4286C55.6399 69.3507 55.5993 69.2571 55.5993 69.1477C55.5993 69.0384 55.6399 68.9447 55.7211 68.8668C55.8039 68.7889 55.9025 68.75 56.0169 68.75C56.1312 68.75 56.229 68.7889 56.3102 68.8668C56.3931 68.9447 56.4345 69.0384 56.4345 69.1477C56.4345 69.2571 56.3931 69.3507 56.3102 69.4286C56.229 69.5065 56.1312 69.5455 56.0169 69.5455ZM57.9664 71.7031V74H57.3797V70.1818H57.9465V70.7784H57.9962C58.0857 70.5845 58.2216 70.4287 58.4039 70.3111C58.5861 70.1918 58.8215 70.1321 59.1098 70.1321C59.3683 70.1321 59.5945 70.1851 59.7884 70.2912C59.9823 70.3956 60.1331 70.5547 60.2409 70.7685C60.3486 70.9806 60.4024 71.2491 60.4024 71.5739V74H59.8158V71.6136C59.8158 71.3137 59.7379 71.08 59.5821 70.9126C59.4263 70.7436 59.2126 70.6591 58.9408 70.6591C58.7535 70.6591 58.5861 70.6997 58.4387 70.7809C58.2928 70.8621 58.1776 70.9806 58.0931 71.1364C58.0086 71.2921 57.9664 71.4811 57.9664 71.7031ZM63.0256 74.0795C62.6809 74.0795 62.3784 73.9975 62.1183 73.8335C61.8597 73.6694 61.6576 73.4399 61.5117 73.1449C61.3675 72.8499 61.2955 72.5052 61.2955 72.1108C61.2955 71.7131 61.3675 71.3659 61.5117 71.0692C61.6576 70.7726 61.8597 70.5423 62.1183 70.3782C62.3784 70.2141 62.6809 70.1321 63.0256 70.1321C63.3703 70.1321 63.6719 70.2141 63.9304 70.3782C64.1906 70.5423 64.3928 70.7726 64.5369 71.0692C64.6828 71.3659 64.7557 71.7131 64.7557 72.1108C64.7557 72.5052 64.6828 72.8499 64.5369 73.1449C64.3928 73.4399 64.1906 73.6694 63.9304 73.8335C63.6719 73.9975 63.3703 74.0795 63.0256 74.0795ZM63.0256 73.5526C63.2874 73.5526 63.5028 73.4854 63.6719 73.3512C63.8409 73.217 63.966 73.0405 64.0472 72.8217C64.1284 72.603 64.169 72.366 64.169 72.1108C64.169 71.8556 64.1284 71.6178 64.0472 71.3974C63.966 71.177 63.8409 70.9988 63.6719 70.8629C63.5028 70.727 63.2874 70.6591 63.0256 70.6591C62.7637 70.6591 62.5483 70.727 62.3793 70.8629C62.2102 70.9988 62.0851 71.177 62.0039 71.3974C61.9227 71.6178 61.8821 71.8556 61.8821 72.1108C61.8821 72.366 61.9227 72.603 62.0039 72.8217C62.0851 73.0405 62.2102 73.217 62.3793 73.3512C62.5483 73.4854 62.7637 73.5526 63.0256 73.5526Z" fill="#FFF0D1"/>
<path d="M69.4605 31.0497C69.2522 31.0497 69.0646 31.0083 68.8977 30.9254C68.7308 30.8426 68.597 30.7289 68.4964 30.5845C68.3958 30.4401 68.3407 30.2756 68.3313 30.0909H68.7574C68.774 30.2554 68.8486 30.3916 68.9811 30.4993C69.1149 30.6058 69.2747 30.6591 69.4605 30.6591C69.6097 30.6591 69.7423 30.6242 69.8583 30.5543C69.9755 30.4845 70.0672 30.3886 70.1335 30.2667C70.2009 30.1436 70.2347 30.0045 70.2347 29.8494C70.2347 29.6908 70.1998 29.5494 70.1299 29.4251C70.0613 29.2996 69.9666 29.2008 69.8458 29.1286C69.7251 29.0563 69.5872 29.0196 69.4321 29.0185C69.3209 29.0173 69.2066 29.0344 69.0894 29.07C68.9723 29.1043 68.8758 29.1487 68.8 29.2031L68.3881 29.1534L68.6083 27.3636H70.4975V27.7543H68.9776L68.8497 28.8267H68.871C68.9456 28.7675 69.0391 28.7184 69.1516 28.6793C69.264 28.6403 69.3812 28.6207 69.5032 28.6207C69.7257 28.6207 69.924 28.674 70.098 28.7805C70.2732 28.8859 70.4105 29.0303 70.5099 29.2138C70.6105 29.3973 70.6608 29.6068 70.6608 29.8423C70.6608 30.0743 70.6087 30.2815 70.5046 30.4638C70.4016 30.6449 70.2595 30.7881 70.0784 30.8935C69.8973 30.9976 69.6914 31.0497 69.4605 31.0497ZM73.2199 30.3182V30.1264C73.2199 29.9938 73.2471 29.8725 73.3015 29.7624C73.3572 29.6512 73.4377 29.5624 73.543 29.4961C73.6495 29.4286 73.7786 29.3949 73.9301 29.3949C74.084 29.3949 74.213 29.4286 74.3172 29.4961C74.4213 29.5624 74.5 29.6512 74.5533 29.7624C74.6066 29.8725 74.6332 29.9938 74.6332 30.1264V30.3182C74.6332 30.4508 74.606 30.5727 74.5515 30.6839C74.4983 30.794 74.419 30.8828 74.3136 30.9503C74.2094 31.0166 74.0816 31.0497 73.9301 31.0497C73.7762 31.0497 73.6466 31.0166 73.5412 30.9503C73.4359 30.8828 73.356 30.794 73.3015 30.6839C73.2471 30.5727 73.2199 30.4508 73.2199 30.3182ZM73.5821 30.1264V30.3182C73.5821 30.4283 73.6081 30.5271 73.6602 30.6147C73.7123 30.7011 73.8022 30.7443 73.9301 30.7443C74.0544 30.7443 74.142 30.7011 74.1929 30.6147C74.245 30.5271 74.271 30.4283 74.271 30.3182V30.1264C74.271 30.0163 74.2461 29.9181 74.1964 29.8317C74.1467 29.7441 74.0579 29.7003 73.9301 29.7003C73.8058 29.7003 73.7164 29.7441 73.662 29.8317C73.6087 29.9181 73.5821 30.0163 73.5821 30.1264ZM71.4088 28.2372V28.0455C71.4088 27.9129 71.436 27.7915 71.4905 27.6815C71.5461 27.5702 71.6266 27.4814 71.7319 27.4151C71.8385 27.3477 71.9675 27.3139 72.119 27.3139C72.2729 27.3139 72.4019 27.3477 72.5061 27.4151C72.6102 27.4814 72.689 27.5702 72.7422 27.6815C72.7955 27.7915 72.8221 27.9129 72.8221 28.0455V28.2372C72.8221 28.3698 72.7949 28.4917 72.7405 28.603C72.6872 28.7131 72.6079 28.8018 72.5025 28.8693C72.3984 28.9356 72.2705 28.9688 72.119 28.9688C71.9651 28.9688 71.8355 28.9356 71.7302 28.8693C71.6248 28.8018 71.5449 28.7131 71.4905 28.603C71.436 28.4917 71.4088 28.3698 71.4088 28.2372ZM71.771 28.0455V28.2372C71.771 28.3473 71.797 28.4461 71.8491 28.5337C71.9012 28.6201 71.9912 28.6634 72.119 28.6634C72.2433 28.6634 72.3309 28.6201 72.3818 28.5337C72.4339 28.4461 72.4599 28.3473 72.4599 28.2372V28.0455C72.4599 27.9354 72.4351 27.8371 72.3853 27.7507C72.3356 27.6631 72.2468 27.6193 72.119 27.6193C71.9947 27.6193 71.9053 27.6631 71.8509 27.7507C71.7976 27.8371 71.771 27.9354 71.771 28.0455ZM71.5437 31L74.0437 27.3636H74.4486L71.9486 31H71.5437ZM64.665 37V33.3636H65.9363C66.1896 33.3636 66.3985 33.4074 66.563 33.495C66.7276 33.5814 66.8501 33.698 66.9306 33.8448C67.0111 33.9904 67.0513 34.152 67.0513 34.3295C67.0513 34.4858 67.0235 34.6148 66.9679 34.7166C66.9134 34.8184 66.8412 34.8989 66.7512 34.9581C66.6625 35.0173 66.566 35.0611 66.4618 35.0895V35.125C66.5731 35.1321 66.685 35.1712 66.7974 35.2422C66.9099 35.3132 67.004 35.415 67.0797 35.5476C67.1555 35.6802 67.1934 35.8423 67.1934 36.0341C67.1934 36.2164 67.1519 36.3803 67.0691 36.5259C66.9862 36.6715 66.8554 36.7869 66.6767 36.8722C66.4979 36.9574 66.2653 37 65.9789 37H64.665ZM65.1053 36.6094H65.9789C66.2665 36.6094 66.4707 36.5537 66.5914 36.4425C66.7134 36.33 66.7743 36.1939 66.7743 36.0341C66.7743 35.911 66.743 35.7973 66.6802 35.6932C66.6175 35.5878 66.5281 35.5038 66.4121 35.4411C66.2961 35.3771 66.1588 35.3452 66.0002 35.3452H65.1053V36.6094ZM65.1053 34.9616H65.9221C66.0546 34.9616 66.1742 34.9356 66.2807 34.8835C66.3884 34.8314 66.4737 34.758 66.5364 34.6634C66.6003 34.5687 66.6323 34.4574 66.6323 34.3295C66.6323 34.1697 66.5766 34.0342 66.4654 33.9229C66.3541 33.8105 66.1777 33.7543 65.9363 33.7543H65.1053V34.9616ZM68.2791 33.3636V37H67.8601V33.3636H68.2791ZM69.8492 37.0639C69.6763 37.0639 69.5195 37.0314 69.3786 36.9663C69.2378 36.9 69.1259 36.8047 69.0431 36.6804C68.9602 36.5549 68.9188 36.4034 68.9188 36.2259C68.9188 36.0696 68.9495 35.9429 69.0111 35.8459C69.0727 35.7476 69.1549 35.6707 69.2579 35.6151C69.3609 35.5594 69.4745 35.518 69.5988 35.4908C69.7243 35.4624 69.8503 35.4399 69.977 35.4233C70.1427 35.402 70.2771 35.386 70.3801 35.3754C70.4842 35.3635 70.56 35.344 70.6073 35.3168C70.6559 35.2895 70.6801 35.2422 70.6801 35.1747V35.1605C70.6801 34.9853 70.6322 34.8492 70.5363 34.7521C70.4416 34.6551 70.2978 34.6065 70.1048 34.6065C69.9048 34.6065 69.748 34.6503 69.6343 34.7379C69.5207 34.8255 69.4408 34.919 69.3946 35.0185L68.9969 34.8764C69.0679 34.7107 69.1626 34.5817 69.281 34.4893C69.4005 34.3958 69.5307 34.3307 69.6716 34.294C69.8137 34.2562 69.9533 34.2372 70.0906 34.2372C70.1782 34.2372 70.2789 34.2479 70.3925 34.2692C70.5073 34.2893 70.618 34.3313 70.7245 34.3952C70.8322 34.4592 70.9216 34.5556 70.9926 34.6847C71.0637 34.8137 71.0992 34.9865 71.0992 35.2031V37H70.6801V36.6307H70.6588C70.6304 36.6899 70.5831 36.7532 70.5168 36.8207C70.4505 36.8881 70.3623 36.9455 70.2522 36.9929C70.1421 37.0402 70.0078 37.0639 69.8492 37.0639ZM69.9131 36.6875C70.0788 36.6875 70.2185 36.6549 70.3321 36.5898C70.4469 36.5247 70.5334 36.4407 70.5914 36.3377C70.6505 36.2347 70.6801 36.1264 70.6801 36.0128V35.6293C70.6624 35.6506 70.6233 35.6701 70.5629 35.6879C70.5038 35.7044 70.4351 35.7192 70.357 35.7322C70.28 35.7441 70.2049 35.7547 70.1315 35.7642C70.0593 35.7725 70.0007 35.7796 69.9557 35.7855C69.8468 35.7997 69.745 35.8228 69.6503 35.8548C69.5568 35.8855 69.481 35.9323 69.423 35.995C69.3662 36.0566 69.3378 36.1406 69.3378 36.2472C69.3378 36.3928 69.3917 36.5028 69.4994 36.5774C69.6083 36.6508 69.7462 36.6875 69.9131 36.6875ZM72.9719 37.0568C72.7163 37.0568 72.4961 36.9964 72.3114 36.8757C72.1268 36.755 71.9847 36.5887 71.8853 36.3768C71.7859 36.1649 71.7362 35.9228 71.7362 35.6506C71.7362 35.3736 71.7871 35.1291 71.8888 34.9173C71.9918 34.7042 72.1351 34.5379 72.3185 34.4183C72.5032 34.2976 72.7186 34.2372 72.9648 34.2372C73.1566 34.2372 73.3294 34.2727 73.4833 34.3438C73.6372 34.4148 73.7633 34.5142 73.8615 34.642C73.9598 34.7699 74.0207 34.919 74.0444 35.0895H73.6254C73.5934 34.9652 73.5224 34.8551 73.4123 34.7592C73.3034 34.6622 73.1566 34.6136 72.9719 34.6136C72.8086 34.6136 72.6654 34.6562 72.5423 34.7415C72.4203 34.8255 72.325 34.9445 72.2564 35.0984C72.1889 35.2511 72.1552 35.4304 72.1552 35.6364C72.1552 35.8471 72.1883 36.0305 72.2546 36.1868C72.3221 36.343 72.4168 36.4644 72.5387 36.5508C72.6618 36.6372 72.8062 36.6804 72.9719 36.6804C73.0808 36.6804 73.1797 36.6615 73.2685 36.6236C73.3572 36.5857 73.4324 36.5312 73.494 36.4602C73.5555 36.3892 73.5993 36.304 73.6254 36.2045H74.0444C74.0207 36.3655 73.9621 36.5105 73.8686 36.6396C73.7763 36.7674 73.6538 36.8692 73.5011 36.945C73.3496 37.0195 73.1732 37.0568 72.9719 37.0568ZM75.0476 36.0057L75.0405 35.4872H75.1257L76.3189 34.2727H76.8374L75.5661 35.5582H75.5305L75.0476 36.0057ZM74.657 37V33.3636H75.076V37H74.657ZM76.3899 37L75.3246 35.6506L75.6229 35.3594L76.9226 37H76.3899ZM78.6622 33.1932L77.4903 37.5469H77.1068L78.2787 33.1932H78.6622ZM63.7081 43H63.2465L64.5817 39.3636H65.0363L66.3715 43H65.9098L64.8232 39.9389H64.7948L63.7081 43ZM63.8786 41.5795H65.7394V41.9702H63.8786V41.5795ZM68.0956 40.2727V40.6278H66.6254V40.2727H68.0956ZM67.0657 43V39.8963C67.0657 39.7401 67.1024 39.6098 67.1758 39.5057C67.2492 39.4015 67.3445 39.3234 67.4617 39.2713C67.5789 39.2192 67.7026 39.1932 67.8328 39.1932C67.9358 39.1932 68.0198 39.2015 68.0849 39.218C68.15 39.2346 68.1986 39.25 68.2305 39.2642L68.1098 39.6264C68.0885 39.6193 68.0589 39.6104 68.021 39.5998C67.9843 39.5891 67.9358 39.5838 67.8754 39.5838C67.7369 39.5838 67.6369 39.6187 67.5753 39.6886C67.515 39.7584 67.4848 39.8608 67.4848 39.9957V43H67.0657ZM68.6828 43V40.2727H69.0877V40.6847H69.1161C69.1658 40.5497 69.2558 40.4402 69.386 40.3562C69.5162 40.2721 69.663 40.2301 69.8263 40.2301C69.8571 40.2301 69.8956 40.2307 69.9417 40.2319C69.9879 40.2331 70.0228 40.2348 70.0465 40.2372V40.6634C70.0323 40.6598 69.9997 40.6545 69.9488 40.6474C69.8991 40.6391 69.8464 40.6349 69.7908 40.6349C69.6582 40.6349 69.5398 40.6628 69.4357 40.7184C69.3327 40.7728 69.251 40.8486 69.1907 40.9457C69.1315 41.0415 69.1019 41.151 69.1019 41.2741V43H68.6828ZM70.5432 43V40.2727H70.9622V43H70.5432ZM70.7563 39.8182C70.6746 39.8182 70.6042 39.7904 70.545 39.7347C70.487 39.6791 70.458 39.6122 70.458 39.5341C70.458 39.456 70.487 39.3891 70.545 39.3335C70.6042 39.2778 70.6746 39.25 70.7563 39.25C70.8379 39.25 70.9078 39.2778 70.9658 39.3335C71.025 39.3891 71.0546 39.456 71.0546 39.5341C71.0546 39.6122 71.025 39.6791 70.9658 39.7347C70.9078 39.7904 70.8379 39.8182 70.7563 39.8182ZM72.8377 43.0568C72.582 43.0568 72.3618 42.9964 72.1772 42.8757C71.9925 42.755 71.8505 42.5887 71.751 42.3768C71.6516 42.1649 71.6019 41.9228 71.6019 41.6506C71.6019 41.3736 71.6528 41.1291 71.7546 40.9173C71.8576 40.7042 72.0008 40.5379 72.1843 40.4183C72.3689 40.2976 72.5844 40.2372 72.8306 40.2372C73.0223 40.2372 73.1951 40.2727 73.349 40.3438C73.5029 40.4148 73.629 40.5142 73.7272 40.642C73.8255 40.7699 73.8864 40.919 73.9101 41.0895H73.4911C73.4591 40.9652 73.3881 40.8551 73.278 40.7592C73.1691 40.6622 73.0223 40.6136 72.8377 40.6136C72.6743 40.6136 72.5311 40.6562 72.408 40.7415C72.2861 40.8255 72.1908 40.9445 72.1221 41.0984C72.0546 41.2511 72.0209 41.4304 72.0209 41.6364C72.0209 41.8471 72.0541 42.0305 72.1203 42.1868C72.1878 42.343 72.2825 42.4644 72.4044 42.5508C72.5275 42.6372 72.6719 42.6804 72.8377 42.6804C72.9466 42.6804 73.0454 42.6615 73.1342 42.6236C73.223 42.5857 73.2981 42.5312 73.3597 42.4602C73.4212 42.3892 73.465 42.304 73.4911 42.2045H73.9101C73.8864 42.3655 73.8278 42.5105 73.7343 42.6396C73.642 42.7674 73.5195 42.8692 73.3668 42.945C73.2153 43.0195 73.0389 43.0568 72.8377 43.0568ZM75.3252 43.0639C75.1524 43.0639 74.9956 43.0314 74.8547 42.9663C74.7139 42.9 74.602 42.8047 74.5191 42.6804C74.4363 42.5549 74.3948 42.4034 74.3948 42.2259C74.3948 42.0696 74.4256 41.9429 74.4872 41.8459C74.5487 41.7476 74.631 41.6707 74.734 41.6151C74.837 41.5594 74.9506 41.518 75.0749 41.4908C75.2004 41.4624 75.3264 41.4399 75.4531 41.4233C75.6188 41.402 75.7532 41.386 75.8561 41.3754C75.9603 41.3635 76.0361 41.344 76.0834 41.3168C76.1319 41.2895 76.1562 41.2422 76.1562 41.1747V41.1605C76.1562 40.9853 76.1083 40.8492 76.0124 40.7521C75.9177 40.6551 75.7739 40.6065 75.5809 40.6065C75.3809 40.6065 75.224 40.6503 75.1104 40.7379C74.9968 40.8255 74.9169 40.919 74.8707 41.0185L74.473 40.8764C74.544 40.7107 74.6387 40.5817 74.7571 40.4893C74.8766 40.3958 75.0068 40.3307 75.1477 40.294C75.2897 40.2562 75.4294 40.2372 75.5667 40.2372C75.6543 40.2372 75.7549 40.2479 75.8686 40.2692C75.9834 40.2893 76.0941 40.3313 76.2006 40.3952C76.3083 40.4592 76.3977 40.5556 76.4687 40.6847C76.5397 40.8137 76.5752 40.9865 76.5752 41.2031V43H76.1562V42.6307H76.1349C76.1065 42.6899 76.0591 42.7532 75.9929 42.8207C75.9266 42.8881 75.8384 42.9455 75.7283 42.9929C75.6182 43.0402 75.4839 43.0639 75.3252 43.0639ZM75.3892 42.6875C75.5549 42.6875 75.6946 42.6549 75.8082 42.5898C75.923 42.5247 76.0094 42.4407 76.0674 42.3377C76.1266 42.2347 76.1562 42.1264 76.1562 42.0128V41.6293C76.1384 41.6506 76.0994 41.6701 76.039 41.6879C75.9798 41.7044 75.9112 41.7192 75.8331 41.7322C75.7561 41.7441 75.6809 41.7547 75.6076 41.7642C75.5353 41.7725 75.4768 41.7796 75.4318 41.7855C75.3229 41.7997 75.2211 41.8228 75.1264 41.8548C75.0329 41.8855 74.9571 41.9323 74.8991 41.995C74.8423 42.0566 74.8139 42.1406 74.8139 42.2472C74.8139 42.3928 74.8677 42.5028 74.9755 42.5774C75.0844 42.6508 75.2223 42.6875 75.3892 42.6875ZM77.7591 41.3594V43H77.3401V40.2727H77.7449V40.6989H77.7804C77.8443 40.5604 77.9414 40.4491 78.0716 40.3651C78.2018 40.2798 78.3699 40.2372 78.5759 40.2372C78.7605 40.2372 78.9221 40.2751 79.0606 40.3509C79.1991 40.4254 79.3068 40.5391 79.3837 40.6918C79.4607 40.8433 79.4992 41.035 79.4992 41.267V43H79.0801V41.2955C79.0801 41.0812 79.0245 40.9143 78.9132 40.7947C78.802 40.674 78.6493 40.6136 78.4551 40.6136C78.3214 40.6136 78.2018 40.6426 78.0965 40.7006C77.9923 40.7586 77.91 40.8433 77.8497 40.9545C77.7893 41.0658 77.7591 41.2008 77.7591 41.3594ZM60.9811 49H60.5194L61.8547 45.3636H62.3092L63.6444 49H63.1828L62.0961 45.9389H62.0677L60.9811 49ZM61.1515 47.5795H63.0123V47.9702H61.1515V47.5795ZM64.154 49V46.2727H64.5589V46.6989H64.5944C64.6512 46.5533 64.7429 46.4402 64.8696 46.3597C64.9962 46.2781 65.1483 46.2372 65.3259 46.2372C65.5058 46.2372 65.6556 46.2781 65.7751 46.3597C65.8959 46.4402 65.99 46.5533 66.0574 46.6989H66.0858C66.1557 46.558 66.2604 46.4461 66.4001 46.3633C66.5398 46.2792 66.7073 46.2372 66.9026 46.2372C67.1465 46.2372 67.3459 46.3136 67.501 46.4663C67.656 46.6178 67.7336 46.8539 67.7336 47.1747V49H67.3145V47.1747C67.3145 46.9735 67.2595 46.8297 67.1494 46.7433C67.0393 46.6568 66.9097 46.6136 66.7606 46.6136C66.5688 46.6136 66.4202 46.6716 66.3149 46.7876C66.2095 46.9025 66.1569 47.0481 66.1569 47.2244V49H65.7307V47.1321C65.7307 46.977 65.6804 46.8522 65.5798 46.7575C65.4792 46.6616 65.3496 46.6136 65.191 46.6136C65.0821 46.6136 64.9803 46.6426 64.8856 46.7006C64.7921 46.7586 64.7163 46.8391 64.6583 46.9421C64.6015 47.0439 64.5731 47.1617 64.5731 47.2955V49H64.154ZM69.6432 49.0568C69.3804 49.0568 69.1537 48.9988 68.9632 48.8828C68.7738 48.7656 68.6276 48.6023 68.5246 48.3928C68.4228 48.1821 68.3719 47.937 68.3719 47.6577C68.3719 47.3783 68.4228 47.1321 68.5246 46.919C68.6276 46.7048 68.7708 46.5379 68.9543 46.4183C69.1389 46.2976 69.3544 46.2372 69.6006 46.2372C69.7426 46.2372 69.8829 46.2609 70.0214 46.3082C70.1599 46.3556 70.286 46.4325 70.3996 46.5391C70.5132 46.6444 70.6038 46.7841 70.6713 46.9581C70.7387 47.1321 70.7725 47.3464 70.7725 47.6009V47.7784H68.6702V47.4162H70.3463C70.3463 47.2623 70.3155 47.125 70.254 47.0043C70.1936 46.8835 70.1072 46.7882 69.9948 46.7184C69.8835 46.6486 69.7521 46.6136 69.6006 46.6136C69.4337 46.6136 69.2893 46.6551 69.1673 46.7379C69.0466 46.8196 68.9537 46.9261 68.8886 47.0575C68.8235 47.1889 68.7909 47.3298 68.7909 47.4801V47.7216C68.7909 47.9276 68.8264 48.1022 68.8975 48.2454C68.9697 48.3874 69.0697 48.4957 69.1975 48.5703C69.3254 48.6437 69.4739 48.6804 69.6432 48.6804C69.7533 48.6804 69.8527 48.665 69.9415 48.6342C70.0315 48.6023 70.109 48.5549 70.1741 48.4922C70.2392 48.4283 70.2895 48.349 70.325 48.2543L70.7298 48.3679C70.6872 48.5052 70.6156 48.6259 70.515 48.7301C70.4144 48.8331 70.2901 48.9136 70.1421 48.9716C69.9942 49.0284 69.8279 49.0568 69.6432 49.0568ZM71.4099 49V46.2727H71.8147V46.6847H71.8431C71.8928 46.5497 71.9828 46.4402 72.113 46.3562C72.2432 46.2721 72.39 46.2301 72.5534 46.2301C72.5841 46.2301 72.6226 46.2307 72.6688 46.2319C72.7149 46.2331 72.7499 46.2348 72.7735 46.2372V46.6634C72.7593 46.6598 72.7268 46.6545 72.6759 46.6474C72.6262 46.6391 72.5735 46.6349 72.5178 46.6349C72.3853 46.6349 72.2669 46.6628 72.1627 46.7184C72.0597 46.7728 71.9781 46.8486 71.9177 46.9457C71.8585 47.0415 71.8289 47.151 71.8289 47.2741V49H71.4099ZM73.2702 49V46.2727H73.6893V49H73.2702ZM73.4833 45.8182C73.4016 45.8182 73.3312 45.7904 73.272 45.7347C73.214 45.6791 73.185 45.6122 73.185 45.5341C73.185 45.456 73.214 45.3891 73.272 45.3335C73.3312 45.2778 73.4016 45.25 73.4833 45.25C73.565 45.25 73.6348 45.2778 73.6928 45.3335C73.752 45.3891 73.7816 45.456 73.7816 45.5341C73.7816 45.6122 73.752 45.6791 73.6928 45.7347C73.6348 45.7904 73.565 45.8182 73.4833 45.8182ZM75.5647 49.0568C75.309 49.0568 75.0889 48.9964 74.9042 48.8757C74.7195 48.755 74.5775 48.5887 74.4781 48.3768C74.3786 48.1649 74.3289 47.9228 74.3289 47.6506C74.3289 47.3736 74.3798 47.1291 74.4816 46.9173C74.5846 46.7042 74.7278 46.5379 74.9113 46.4183C75.096 46.2976 75.3114 46.2372 75.5576 46.2372C75.7494 46.2372 75.9222 46.2727 76.0761 46.3438C76.23 46.4148 76.356 46.5142 76.4543 46.642C76.5525 46.7699 76.6135 46.919 76.6372 47.0895H76.2181C76.1862 46.9652 76.1151 46.8551 76.0051 46.7592C75.8962 46.6622 75.7494 46.6136 75.5647 46.6136C75.4014 46.6136 75.2581 46.6562 75.135 46.7415C75.0131 46.8255 74.9178 46.9445 74.8492 47.0984C74.7817 47.2511 74.748 47.4304 74.748 47.6364C74.748 47.8471 74.7811 48.0305 74.8474 48.1868C74.9149 48.343 75.0096 48.4644 75.1315 48.5508C75.2546 48.6372 75.399 48.6804 75.5647 48.6804C75.6736 48.6804 75.7725 48.6615 75.8612 48.6236C75.95 48.5857 76.0252 48.5312 76.0867 48.4602C76.1483 48.3892 76.1921 48.304 76.2181 48.2045H76.6372C76.6135 48.3655 76.5549 48.5105 76.4614 48.6396C76.3691 48.7674 76.2465 48.8692 76.0938 48.945C75.9423 49.0195 75.766 49.0568 75.5647 49.0568ZM78.0523 49.0639C77.8795 49.0639 77.7226 49.0314 77.5818 48.9663C77.4409 48.9 77.329 48.8047 77.2462 48.6804C77.1633 48.5549 77.1219 48.4034 77.1219 48.2259C77.1219 48.0696 77.1527 47.9429 77.2142 47.8459C77.2758 47.7476 77.358 47.6707 77.461 47.6151C77.564 47.5594 77.6776 47.518 77.8019 47.4908C77.9274 47.4624 78.0535 47.4399 78.1801 47.4233C78.3459 47.402 78.4802 47.386 78.5832 47.3754C78.6874 47.3635 78.7631 47.344 78.8105 47.3168C78.859 47.2895 78.8833 47.2422 78.8833 47.1747V47.1605C78.8833 46.9853 78.8353 46.8492 78.7394 46.7521C78.6447 46.6551 78.5009 46.6065 78.308 46.6065C78.1079 46.6065 77.9511 46.6503 77.8374 46.7379C77.7238 46.8255 77.6439 46.919 77.5977 47.0185L77.2 46.8764C77.271 46.7107 77.3657 46.5817 77.4841 46.4893C77.6037 46.3958 77.7339 46.3307 77.8747 46.294C78.0168 46.2562 78.1565 46.2372 78.2938 46.2372C78.3814 46.2372 78.482 46.2479 78.5956 46.2692C78.7104 46.2893 78.8211 46.3313 78.9276 46.3952C79.0354 46.4592 79.1247 46.5556 79.1958 46.6847C79.2668 46.8137 79.3023 46.9865 79.3023 47.2031V49H78.8833V48.6307H78.8619C78.8335 48.6899 78.7862 48.7532 78.7199 48.8207C78.6536 48.8881 78.5654 48.9455 78.4553 48.9929C78.3453 49.0402 78.2109 49.0639 78.0523 49.0639ZM78.1162 48.6875C78.2819 48.6875 78.4216 48.6549 78.5352 48.5898C78.6501 48.5247 78.7365 48.4407 78.7945 48.3377C78.8537 48.2347 78.8833 48.1264 78.8833 48.0128V47.6293C78.8655 47.6506 78.8264 47.6701 78.7661 47.6879C78.7069 47.7044 78.6382 47.7192 78.5601 47.7322C78.4832 47.7441 78.408 47.7547 78.3346 47.7642C78.2624 47.7725 78.2038 47.7796 78.1588 47.7855C78.0499 47.7997 77.9481 47.8228 77.8534 47.8548C77.7599 47.8855 77.6842 47.9323 77.6262 47.995C77.5693 48.0566 77.5409 48.1406 77.5409 48.2472C77.5409 48.3928 77.5948 48.5028 77.7025 48.5774C77.8114 48.6508 77.9493 48.6875 78.1162 48.6875ZM80.4862 47.3594V49H80.0671V46.2727H80.4719V46.6989H80.5075C80.5714 46.5604 80.6684 46.4491 80.7987 46.3651C80.9289 46.2798 81.0969 46.2372 81.3029 46.2372C81.4876 46.2372 81.6491 46.2751 81.7876 46.3509C81.9261 46.4254 82.0339 46.5391 82.1108 46.6918C82.1877 46.8433 82.2262 47.035 82.2262 47.267V49H81.8072V47.2955C81.8072 47.0812 81.7515 46.9143 81.6403 46.7947C81.529 46.674 81.3763 46.6136 81.1822 46.6136C81.0484 46.6136 80.9289 46.6426 80.8235 46.7006C80.7193 46.7586 80.6371 46.8433 80.5767 46.9545C80.5163 47.0658 80.4862 47.2008 80.4862 47.3594Z" fill="#FFF0D1"/>
<path d="M74.9615 5.36364V9H74.5211V5.82528H74.4998L73.612 6.41477V5.96733L74.5211 5.36364H74.9615ZM77.861 8.31818V8.12642C77.861 7.99384 77.8882 7.87251 77.9426 7.76243C77.9983 7.65116 78.0788 7.56238 78.1841 7.49609C78.2907 7.42862 78.4197 7.39489 78.5712 7.39489C78.7251 7.39489 78.8541 7.42862 78.9583 7.49609C79.0624 7.56238 79.1412 7.65116 79.1944 7.76243C79.2477 7.87251 79.2743 7.99384 79.2743 8.12642V8.31818C79.2743 8.45076 79.2471 8.57268 79.1926 8.68395C79.1394 8.79403 79.0601 8.88281 78.9547 8.95028C78.8506 9.01657 78.7227 9.04972 78.5712 9.04972C78.4173 9.04972 78.2877 9.01657 78.1824 8.95028C78.077 8.88281 77.9971 8.79403 77.9426 8.68395C77.8882 8.57268 77.861 8.45076 77.861 8.31818ZM78.2232 8.12642V8.31818C78.2232 8.42827 78.2492 8.52711 78.3013 8.6147C78.3534 8.70111 78.4434 8.74432 78.5712 8.74432C78.6955 8.74432 78.7831 8.70111 78.834 8.6147C78.8861 8.52711 78.9121 8.42827 78.9121 8.31818V8.12642C78.9121 8.01634 78.8873 7.91809 78.8375 7.83168C78.7878 7.74408 78.699 7.70028 78.5712 7.70028C78.4469 7.70028 78.3575 7.74408 78.3031 7.83168C78.2498 7.91809 78.2232 8.01634 78.2232 8.12642ZM76.0499 6.23722V6.04545C76.0499 5.91288 76.0771 5.79155 76.1316 5.68146C76.1872 5.57019 76.2677 5.48142 76.373 5.41513C76.4796 5.34766 76.6086 5.31392 76.7601 5.31392C76.914 5.31392 77.043 5.34766 77.1472 5.41513C77.2514 5.48142 77.3301 5.57019 77.3833 5.68146C77.4366 5.79155 77.4632 5.91288 77.4632 6.04545V6.23722C77.4632 6.36979 77.436 6.49171 77.3816 6.60298C77.3283 6.71307 77.249 6.80185 77.1436 6.86932C77.0395 6.93561 76.9116 6.96875 76.7601 6.96875C76.6062 6.96875 76.4766 6.93561 76.3713 6.86932C76.2659 6.80185 76.186 6.71307 76.1316 6.60298C76.0771 6.49171 76.0499 6.36979 76.0499 6.23722ZM76.4121 6.04545V6.23722C76.4121 6.3473 76.4382 6.44614 76.4902 6.53374C76.5423 6.62015 76.6323 6.66335 76.7601 6.66335C76.8844 6.66335 76.972 6.62015 77.0229 6.53374C77.075 6.44614 77.101 6.3473 77.101 6.23722V6.04545C77.101 5.93537 77.0762 5.83712 77.0265 5.75071C76.9767 5.66312 76.888 5.61932 76.7601 5.61932C76.6358 5.61932 76.5465 5.66312 76.492 5.75071C76.4387 5.83712 76.4121 5.93537 76.4121 6.04545ZM76.1848 9L78.6848 5.36364H79.0897L76.5897 9H76.1848ZM68.1921 13.1818C68.1921 13.5653 68.1229 13.8968 67.9844 14.1761C67.8459 14.4555 67.6559 14.6709 67.4144 14.8224C67.1729 14.974 66.8971 15.0497 66.587 15.0497C66.2769 15.0497 66.0011 14.974 65.7596 14.8224C65.5181 14.6709 65.3281 14.4555 65.1896 14.1761C65.0511 13.8968 64.9819 13.5653 64.9819 13.1818C64.9819 12.7983 65.0511 12.4669 65.1896 12.1875C65.3281 11.9081 65.5181 11.6927 65.7596 11.5412C66.0011 11.3897 66.2769 11.3139 66.587 11.3139C66.8971 11.3139 67.1729 11.3897 67.4144 11.5412C67.6559 11.6927 67.8459 11.9081 67.9844 12.1875C68.1229 12.4669 68.1921 12.7983 68.1921 13.1818ZM67.766 13.1818C67.766 12.867 67.7133 12.6012 67.608 12.3846C67.5038 12.168 67.3623 12.004 67.1836 11.8928C67.006 11.7815 66.8072 11.7259 66.587 11.7259C66.3668 11.7259 66.1674 11.7815 65.9886 11.8928C65.8111 12.004 65.6696 12.168 65.5643 12.3846C65.4601 12.6012 65.408 12.867 65.408 13.1818C65.408 13.4967 65.4601 13.7624 65.5643 13.979C65.6696 14.1957 65.8111 14.3596 65.9886 14.4709C66.1674 14.5821 66.3668 14.6378 66.587 14.6378C66.8072 14.6378 67.006 14.5821 67.1836 14.4709C67.3623 14.3596 67.5038 14.1957 67.608 13.979C67.7133 13.7624 67.766 13.4967 67.766 13.1818ZM69.2947 13.3594V15H68.8757V12.2727H69.2805V12.6989H69.3161C69.38 12.5604 69.477 12.4491 69.6072 12.3651C69.7375 12.2798 69.9055 12.2372 70.1115 12.2372C70.2962 12.2372 70.4577 12.2751 70.5962 12.3509C70.7347 12.4254 70.8424 12.5391 70.9194 12.6918C70.9963 12.8433 71.0348 13.035 71.0348 13.267V15H70.6158V13.2955C70.6158 13.0812 70.5601 12.9143 70.4489 12.7947C70.3376 12.674 70.1849 12.6136 69.9908 12.6136C69.857 12.6136 69.7375 12.6426 69.6321 12.7006C69.5279 12.7586 69.4457 12.8433 69.3853 12.9545C69.3249 13.0658 69.2947 13.2008 69.2947 13.3594ZM72.944 15.0568C72.6812 15.0568 72.4545 14.9988 72.2639 14.8828C72.0745 14.7656 71.9284 14.6023 71.8254 14.3928C71.7236 14.1821 71.6727 13.937 71.6727 13.6577C71.6727 13.3783 71.7236 13.1321 71.8254 12.919C71.9284 12.7048 72.0716 12.5379 72.2551 12.4183C72.4397 12.2976 72.6552 12.2372 72.9014 12.2372C73.0434 12.2372 73.1837 12.2609 73.3222 12.3082C73.4607 12.3556 73.5867 12.4325 73.7004 12.5391C73.814 12.6444 73.9046 12.7841 73.972 12.9581C74.0395 13.1321 74.0732 13.3464 74.0732 13.6009V13.7784H71.971V13.4162H73.6471C73.6471 13.2623 73.6163 13.125 73.5548 13.0043C73.4944 12.8835 73.408 12.7882 73.2955 12.7184C73.1843 12.6486 73.0529 12.6136 72.9014 12.6136C72.7345 12.6136 72.5901 12.6551 72.4681 12.7379C72.3474 12.8196 72.2545 12.9261 72.1894 13.0575C72.1243 13.1889 72.0917 13.3298 72.0917 13.4801V13.7216C72.0917 13.9276 72.1272 14.1022 72.1982 14.2454C72.2704 14.3874 72.3705 14.4957 72.4983 14.5703C72.6262 14.6437 72.7747 14.6804 72.944 14.6804C73.0541 14.6804 73.1535 14.665 73.2423 14.6342C73.3322 14.6023 73.4098 14.5549 73.4749 14.4922C73.54 14.4283 73.5903 14.349 73.6258 14.2543L74.0306 14.3679C73.988 14.5052 73.9164 14.6259 73.8158 14.7301C73.7152 14.8331 73.5909 14.9136 73.4429 14.9716C73.295 15.0284 73.1286 15.0568 72.944 15.0568ZM77.2249 15.0568C76.9787 15.0568 76.7626 14.9982 76.5768 14.881C76.3921 14.7638 76.2477 14.5999 76.1436 14.3892C76.0406 14.1785 75.9891 13.9323 75.9891 13.6506C75.9891 13.3665 76.0406 13.1185 76.1436 12.9066C76.2477 12.6947 76.3921 12.5302 76.5768 12.413C76.7626 12.2958 76.9787 12.2372 77.2249 12.2372C77.4711 12.2372 77.6865 12.2958 77.8712 12.413C78.057 12.5302 78.2014 12.6947 78.3044 12.9066C78.4086 13.1185 78.4607 13.3665 78.4607 13.6506C78.4607 13.9323 78.4086 14.1785 78.3044 14.3892C78.2014 14.5999 78.057 14.7638 77.8712 14.881C77.6865 14.9982 77.4711 15.0568 77.2249 15.0568ZM77.2249 14.6804C77.4119 14.6804 77.5658 14.6325 77.6865 14.5366C77.8073 14.4407 77.8966 14.3146 77.9546 14.1584C78.0126 14.0021 78.0416 13.8329 78.0416 13.6506C78.0416 13.4683 78.0126 13.2984 77.9546 13.141C77.8966 12.9835 77.8073 12.8563 77.6865 12.7592C77.5658 12.6622 77.4119 12.6136 77.2249 12.6136C77.0378 12.6136 76.884 12.6622 76.7632 12.7592C76.6425 12.8563 76.5531 12.9835 76.4951 13.141C76.4371 13.2984 76.4081 13.4683 76.4081 13.6506C76.4081 13.8329 76.4371 14.0021 76.4951 14.1584C76.5531 14.3146 76.6425 14.4407 76.7632 14.5366C76.884 14.6325 77.0378 14.6804 77.2249 14.6804ZM80.2864 12.2727V12.6278H78.873V12.2727H80.2864ZM79.285 11.6193H79.704V14.2188C79.704 14.3371 79.7212 14.4259 79.7555 14.4851C79.791 14.5431 79.836 14.5821 79.8904 14.6023C79.9461 14.6212 80.0047 14.6307 80.0662 14.6307C80.1124 14.6307 80.1503 14.6283 80.1799 14.6236C80.2095 14.6177 80.2331 14.6129 80.2509 14.6094L80.3361 14.9858C80.3077 14.9964 80.2681 15.0071 80.2172 15.0178C80.1663 15.0296 80.1017 15.0355 80.0236 15.0355C79.9052 15.0355 79.7892 15.0101 79.6756 14.9592C79.5632 14.9083 79.4696 14.8307 79.3951 14.7266C79.3217 14.6224 79.285 14.491 79.285 14.3324V11.6193ZM81.3944 13.3594V15H80.9753V11.3636H81.3944V12.6989H81.4299C81.4938 12.558 81.5897 12.4461 81.7175 12.3633C81.8465 12.2792 82.0182 12.2372 82.2324 12.2372C82.4183 12.2372 82.581 12.2745 82.7207 12.3491C82.8604 12.4225 82.9687 12.5355 83.0456 12.6882C83.1238 12.8397 83.1628 13.0327 83.1628 13.267V15H82.7438V13.2955C82.7438 13.0788 82.6876 12.9113 82.5751 12.793C82.4638 12.6734 82.3094 12.6136 82.1117 12.6136C81.9744 12.6136 81.8513 12.6426 81.7424 12.7006C81.6346 12.7586 81.5494 12.8433 81.4867 12.9545C81.4251 13.0658 81.3944 13.2008 81.3944 13.3594ZM85.0729 15.0568C84.8101 15.0568 84.5834 14.9988 84.3928 14.8828C84.2035 14.7656 84.0573 14.6023 83.9543 14.3928C83.8525 14.1821 83.8016 13.937 83.8016 13.6577C83.8016 13.3783 83.8525 13.1321 83.9543 12.919C84.0573 12.7048 84.2005 12.5379 84.384 12.4183C84.5686 12.2976 84.7841 12.2372 85.0303 12.2372C85.1723 12.2372 85.3126 12.2609 85.4511 12.3082C85.5896 12.3556 85.7156 12.4325 85.8293 12.5391C85.9429 12.6444 86.0335 12.7841 86.1009 12.9581C86.1684 13.1321 86.2021 13.3464 86.2021 13.6009V13.7784H84.0999V13.4162H85.776C85.776 13.2623 85.7452 13.125 85.6837 13.0043C85.6233 12.8835 85.5369 12.7882 85.4244 12.7184C85.3132 12.6486 85.1818 12.6136 85.0303 12.6136C84.8634 12.6136 84.719 12.6551 84.597 12.7379C84.4763 12.8196 84.3834 12.9261 84.3183 13.0575C84.2532 13.1889 84.2206 13.3298 84.2206 13.4801V13.7216C84.2206 13.9276 84.2561 14.1022 84.3271 14.2454C84.3994 14.3874 84.4994 14.4957 84.6272 14.5703C84.7551 14.6437 84.9036 14.6804 85.0729 14.6804C85.183 14.6804 85.2824 14.665 85.3712 14.6342C85.4611 14.6023 85.5387 14.5549 85.6038 14.4922C85.6689 14.4283 85.7192 14.349 85.7547 14.2543L86.1595 14.3679C86.1169 14.5052 86.0453 14.6259 85.9447 14.7301C85.8441 14.8331 85.7198 14.9136 85.5718 14.9716C85.4239 15.0284 85.2575 15.0568 85.0729 15.0568ZM86.8396 15V12.2727H87.2444V12.6847H87.2728C87.3225 12.5497 87.4125 12.4402 87.5427 12.3562C87.6729 12.2721 87.8197 12.2301 87.983 12.2301C88.0138 12.2301 88.0523 12.2307 88.0985 12.2319C88.1446 12.2331 88.1795 12.2348 88.2032 12.2372V12.6634C88.189 12.6598 88.1565 12.6545 88.1056 12.6474C88.0558 12.6391 88.0032 12.6349 87.9475 12.6349C87.815 12.6349 87.6966 12.6628 87.5924 12.7184C87.4894 12.7728 87.4078 12.8486 87.3474 12.9457C87.2882 13.0415 87.2586 13.151 87.2586 13.2741V15H86.8396ZM71.6931 21V18.2727H72.0979V18.6847H72.1263C72.176 18.5497 72.266 18.4402 72.3962 18.3562C72.5264 18.2721 72.6732 18.2301 72.8366 18.2301C72.8673 18.2301 72.9058 18.2307 72.952 18.2319C72.9981 18.2331 73.0331 18.2348 73.0567 18.2372V18.6634C73.0425 18.6598 73.01 18.6545 72.9591 18.6474C72.9094 18.6391 72.8567 18.6349 72.801 18.6349C72.6685 18.6349 72.5501 18.6628 72.4459 18.7184C72.343 18.7728 72.2613 18.8486 72.2009 18.9457C72.1417 19.0415 72.1121 19.151 72.1121 19.2741V21H71.6931ZM74.356 21.0639C74.1832 21.0639 74.0263 21.0314 73.8855 20.9663C73.7446 20.9 73.6328 20.8047 73.5499 20.6804C73.467 20.5549 73.4256 20.4034 73.4256 20.2259C73.4256 20.0696 73.4564 19.9429 73.5179 19.8459C73.5795 19.7476 73.6618 19.6707 73.7647 19.6151C73.8677 19.5594 73.9814 19.518 74.1056 19.4908C74.2311 19.4624 74.3572 19.4399 74.4838 19.4233C74.6496 19.402 74.7839 19.386 74.8869 19.3754C74.9911 19.3635 75.0668 19.344 75.1142 19.3168C75.1627 19.2895 75.187 19.2422 75.187 19.1747V19.1605C75.187 18.9853 75.139 18.8492 75.0431 18.7521C74.9484 18.6551 74.8046 18.6065 74.6117 18.6065C74.4116 18.6065 74.2548 18.6503 74.1412 18.7379C74.0275 18.8255 73.9476 18.919 73.9015 19.0185L73.5037 18.8764C73.5748 18.7107 73.6694 18.5817 73.7878 18.4893C73.9074 18.3958 74.0376 18.3307 74.1784 18.294C74.3205 18.2562 74.4602 18.2372 74.5975 18.2372C74.6851 18.2372 74.7857 18.2479 74.8993 18.2692C75.0141 18.2893 75.1248 18.3313 75.2314 18.3952C75.3391 18.4592 75.4284 18.5556 75.4995 18.6847C75.5705 18.8137 75.606 18.9865 75.606 19.2031V21H75.187V20.6307H75.1657C75.1373 20.6899 75.0899 20.7532 75.0236 20.8207C74.9573 20.8881 74.8691 20.9455 74.7591 20.9929C74.649 21.0402 74.5146 21.0639 74.356 21.0639ZM74.4199 20.6875C74.5856 20.6875 74.7253 20.6549 74.839 20.5898C74.9538 20.5247 75.0402 20.4407 75.0982 20.3377C75.1574 20.2347 75.187 20.1264 75.187 20.0128V19.6293C75.1692 19.6506 75.1301 19.6701 75.0698 19.6879C75.0106 19.7044 74.9419 19.7192 74.8638 19.7322C74.7869 19.7441 74.7117 19.7547 74.6383 19.7642C74.5661 19.7725 74.5075 19.7796 74.4625 19.7855C74.3536 19.7997 74.2518 19.8228 74.1571 19.8548C74.0636 19.8855 73.9879 19.9323 73.9299 19.995C73.873 20.0566 73.8446 20.1406 73.8446 20.2472C73.8446 20.3928 73.8985 20.5028 74.0062 20.5774C74.1151 20.6508 74.253 20.6875 74.4199 20.6875ZM77.4788 21.0568C77.2231 21.0568 77.0029 20.9964 76.8183 20.8757C76.6336 20.755 76.4916 20.5887 76.3921 20.3768C76.2927 20.1649 76.243 19.9228 76.243 19.6506C76.243 19.3736 76.2939 19.1291 76.3957 18.9173C76.4987 18.7042 76.6419 18.5379 76.8254 18.4183C77.01 18.2976 77.2255 18.2372 77.4717 18.2372C77.6634 18.2372 77.8363 18.2727 77.9901 18.3438C78.144 18.4148 78.2701 18.5142 78.3683 18.642C78.4666 18.7699 78.5276 18.919 78.5512 19.0895H78.1322C78.1002 18.9652 78.0292 18.8551 77.9191 18.7592C77.8102 18.6622 77.6634 18.6136 77.4788 18.6136C77.3154 18.6136 77.1722 18.6562 77.0491 18.7415C76.9272 18.8255 76.8319 18.9445 76.7632 19.0984C76.6958 19.2511 76.662 19.4304 76.662 19.6364C76.662 19.8471 76.6952 20.0305 76.7615 20.1868C76.8289 20.343 76.9236 20.4644 77.0455 20.5508C77.1686 20.6372 77.3131 20.6804 77.4788 20.6804C77.5877 20.6804 77.6865 20.6615 77.7753 20.6236C77.8641 20.5857 77.9392 20.5312 78.0008 20.4602C78.0624 20.3892 78.1061 20.304 78.1322 20.2045H78.5512C78.5276 20.3655 78.469 20.5105 78.3754 20.6396C78.2831 20.7674 78.1606 20.8692 78.0079 20.945C77.8564 21.0195 77.68 21.0568 77.4788 21.0568ZM80.3073 21.0568C80.0445 21.0568 79.8178 20.9988 79.6272 20.8828C79.4378 20.7656 79.2916 20.6023 79.1887 20.3928C79.0869 20.1821 79.036 19.937 79.036 19.6577C79.036 19.3783 79.0869 19.1321 79.1887 18.919C79.2916 18.7048 79.4349 18.5379 79.6183 18.4183C79.803 18.2976 80.0184 18.2372 80.2646 18.2372C80.4067 18.2372 80.547 18.2609 80.6855 18.3082C80.824 18.3556 80.95 18.4325 81.0637 18.5391C81.1773 18.6444 81.2678 18.7841 81.3353 18.9581C81.4028 19.1321 81.4365 19.3464 81.4365 19.6009V19.7784H79.3343V19.4162H81.0104C81.0104 19.2623 80.9796 19.125 80.9181 19.0043C80.8577 18.8835 80.7713 18.7882 80.6588 18.7184C80.5476 18.6486 80.4162 18.6136 80.2646 18.6136C80.0977 18.6136 79.9533 18.6551 79.8314 18.7379C79.7107 18.8196 79.6177 18.9261 79.5526 19.0575C79.4875 19.1889 79.455 19.3298 79.455 19.4801V19.7216C79.455 19.9276 79.4905 20.1022 79.5615 20.2454C79.6337 20.3874 79.7338 20.4957 79.8616 20.5703C79.9894 20.6437 80.138 20.6804 80.3073 20.6804C80.4173 20.6804 80.5168 20.665 80.6056 20.6342C80.6955 20.6023 80.7731 20.5549 80.8382 20.4922C80.9033 20.4283 80.9536 20.349 80.9891 20.2543L81.3939 20.3679C81.3513 20.5052 81.2797 20.6259 81.1791 20.7301C81.0785 20.8331 80.9542 20.9136 80.8062 20.9716C80.6582 21.0284 80.4919 21.0568 80.3073 21.0568Z" fill="#FFF0D1"/>
<path d="M84.8315 25V24.6804L86.0318 23.3665C86.1726 23.2126 86.2886 23.0788 86.3798 22.9652C86.4709 22.8504 86.5384 22.7427 86.5822 22.642C86.6272 22.5402 86.6497 22.4337 86.6497 22.3224C86.6497 22.1946 86.6189 22.0839 86.5574 21.9904C86.497 21.8969 86.4141 21.8247 86.3088 21.7738C86.2034 21.7229 86.085 21.6974 85.9537 21.6974C85.814 21.6974 85.6921 21.7264 85.5879 21.7844C85.4849 21.8413 85.405 21.9212 85.3482 22.0241C85.2926 22.1271 85.2647 22.2479 85.2647 22.3864H84.8457C84.8457 22.1733 84.8948 21.9863 84.9931 21.8253C85.0913 21.6643 85.2251 21.5388 85.3944 21.4489C85.5648 21.3589 85.756 21.3139 85.9679 21.3139C86.1809 21.3139 86.3697 21.3589 86.5343 21.4489C86.6988 21.5388 86.8278 21.6602 86.9213 21.8129C87.0149 21.9656 87.0616 22.1354 87.0616 22.3224C87.0616 22.4562 87.0373 22.587 86.9888 22.7148C86.9415 22.8415 86.8586 22.983 86.7402 23.1392C86.623 23.2943 86.4603 23.4837 86.252 23.7074L85.4352 24.581V24.6094H87.1255V25H84.8315ZM89.7125 24.3182V24.1264C89.7125 23.9938 89.7398 23.8725 89.7942 23.7624C89.8498 23.6512 89.9303 23.5624 90.0357 23.4961C90.1422 23.4286 90.2712 23.3949 90.4228 23.3949C90.5766 23.3949 90.7057 23.4286 90.8098 23.4961C90.914 23.5624 90.9927 23.6512 91.046 23.7624C91.0993 23.8725 91.1259 23.9938 91.1259 24.1264V24.3182C91.1259 24.4508 91.0987 24.5727 91.0442 24.6839C90.9909 24.794 90.9116 24.8828 90.8063 24.9503C90.7021 25.0166 90.5743 25.0497 90.4228 25.0497C90.2689 25.0497 90.1393 25.0166 90.0339 24.9503C89.9286 24.8828 89.8487 24.794 89.7942 24.6839C89.7398 24.5727 89.7125 24.4508 89.7125 24.3182ZM90.0748 24.1264V24.3182C90.0748 24.4283 90.1008 24.5271 90.1529 24.6147C90.205 24.7011 90.2949 24.7443 90.4228 24.7443C90.5471 24.7443 90.6346 24.7011 90.6855 24.6147C90.7376 24.5271 90.7637 24.4283 90.7637 24.3182V24.1264C90.7637 24.0163 90.7388 23.9181 90.6891 23.8317C90.6394 23.7441 90.5506 23.7003 90.4228 23.7003C90.2985 23.7003 90.2091 23.7441 90.1547 23.8317C90.1014 23.9181 90.0748 24.0163 90.0748 24.1264ZM87.9015 22.2372V22.0455C87.9015 21.9129 87.9287 21.7915 87.9831 21.6815C88.0388 21.5702 88.1193 21.4814 88.2246 21.4151C88.3311 21.3477 88.4602 21.3139 88.6117 21.3139C88.7656 21.3139 88.8946 21.3477 88.9988 21.4151C89.1029 21.4814 89.1816 21.5702 89.2349 21.6815C89.2882 21.7915 89.3148 21.9129 89.3148 22.0455V22.2372C89.3148 22.3698 89.2876 22.4917 89.2331 22.603C89.1799 22.7131 89.1006 22.8018 88.9952 22.8693C88.891 22.9356 88.7632 22.9688 88.6117 22.9688C88.4578 22.9688 88.3282 22.9356 88.2228 22.8693C88.1175 22.8018 88.0376 22.7131 87.9831 22.603C87.9287 22.4917 87.9015 22.3698 87.9015 22.2372ZM88.2637 22.0455V22.2372C88.2637 22.3473 88.2897 22.4461 88.3418 22.5337C88.3939 22.6201 88.4838 22.6634 88.6117 22.6634C88.736 22.6634 88.8236 22.6201 88.8745 22.5337C88.9266 22.4461 88.9526 22.3473 88.9526 22.2372V22.0455C88.9526 21.9354 88.9277 21.8371 88.878 21.7507C88.8283 21.6631 88.7395 21.6193 88.6117 21.6193C88.4874 21.6193 88.398 21.6631 88.3436 21.7507C88.2903 21.8371 88.2637 21.9354 88.2637 22.0455ZM88.0364 25L90.5364 21.3636H90.9412L88.4412 25H88.0364ZM80.1922 27.7543V27.3636H82.9194V27.7543H81.776V31H81.3356V27.7543H80.1922ZM83.8476 31L83.0166 28.2727H83.457L84.0465 30.3608H84.0749L84.6573 28.2727H85.1047L85.68 30.3537H85.7084L86.2979 28.2727H86.7382L85.9073 31H85.4953L84.8987 28.9048H84.8561L84.2595 31H83.8476ZM88.3074 31.0568C88.0612 31.0568 87.8452 30.9982 87.6593 30.881C87.4747 30.7638 87.3302 30.5999 87.2261 30.3892C87.1231 30.1785 87.0716 29.9323 87.0716 29.6506C87.0716 29.3665 87.1231 29.1185 87.2261 28.9066C87.3302 28.6947 87.4747 28.5302 87.6593 28.413C87.8452 28.2958 88.0612 28.2372 88.3074 28.2372C88.5536 28.2372 88.769 28.2958 88.9537 28.413C89.1395 28.5302 89.284 28.6947 89.3869 28.9066C89.4911 29.1185 89.5432 29.3665 89.5432 29.6506C89.5432 29.9323 89.4911 30.1785 89.3869 30.3892C89.284 30.5999 89.1395 30.7638 88.9537 30.881C88.769 30.9982 88.5536 31.0568 88.3074 31.0568ZM88.3074 30.6804C88.4944 30.6804 88.6483 30.6325 88.769 30.5366C88.8898 30.4407 88.9792 30.3146 89.0372 30.1584C89.0952 30.0021 89.1242 29.8329 89.1242 29.6506C89.1242 29.4683 89.0952 29.2984 89.0372 29.141C88.9792 28.9835 88.8898 28.8563 88.769 28.7592C88.6483 28.6622 88.4944 28.6136 88.3074 28.6136C88.1204 28.6136 87.9665 28.6622 87.8457 28.7592C87.725 28.8563 87.6356 28.9835 87.5776 29.141C87.5196 29.2984 87.4906 29.4683 87.4906 29.6506C87.4906 29.8329 87.5196 30.0021 87.5776 30.1584C87.6356 30.3146 87.725 30.4407 87.8457 30.5366C87.9665 30.6325 88.1204 30.6804 88.3074 30.6804ZM92.697 31.0568C92.4508 31.0568 92.2348 30.9982 92.049 30.881C91.8643 30.7638 91.7199 30.5999 91.6157 30.3892C91.5127 30.1785 91.4612 29.9323 91.4612 29.6506C91.4612 29.3665 91.5127 29.1185 91.6157 28.9066C91.7199 28.6947 91.8643 28.5302 92.049 28.413C92.2348 28.2958 92.4508 28.2372 92.697 28.2372C92.9433 28.2372 93.1587 28.2958 93.3434 28.413C93.5292 28.5302 93.6736 28.6947 93.7766 28.9066C93.8808 29.1185 93.9328 29.3665 93.9328 29.6506C93.9328 29.9323 93.8808 30.1785 93.7766 30.3892C93.6736 30.5999 93.5292 30.7638 93.3434 30.881C93.1587 30.9982 92.9433 31.0568 92.697 31.0568ZM92.697 30.6804C92.8841 30.6804 93.038 30.6325 93.1587 30.5366C93.2794 30.4407 93.3688 30.3146 93.4268 30.1584C93.4848 30.0021 93.5138 29.8329 93.5138 29.6506C93.5138 29.4683 93.4848 29.2984 93.4268 29.141C93.3688 28.9835 93.2794 28.8563 93.1587 28.7592C93.038 28.6622 92.8841 28.6136 92.697 28.6136C92.51 28.6136 92.3561 28.6622 92.2354 28.7592C92.1147 28.8563 92.0253 28.9835 91.9673 29.141C91.9093 29.2984 91.8803 29.4683 91.8803 29.6506C91.8803 29.8329 91.9093 30.0021 91.9673 30.1584C92.0253 30.3146 92.1147 30.4407 92.2354 30.5366C92.3561 30.6325 92.51 30.6804 92.697 30.6804ZM94.5725 31V28.2727H94.9773V28.6847H95.0057C95.0554 28.5497 95.1454 28.4402 95.2756 28.3562C95.4058 28.2721 95.5526 28.2301 95.716 28.2301C95.7467 28.2301 95.7852 28.2307 95.8314 28.2319C95.8775 28.2331 95.9124 28.2348 95.9361 28.2372V28.6634C95.9219 28.6598 95.8894 28.6545 95.8385 28.6474C95.7888 28.6391 95.7361 28.6349 95.6804 28.6349C95.5479 28.6349 95.4295 28.6628 95.3253 28.7184C95.2223 28.7728 95.1407 28.8486 95.0803 28.9457C95.0211 29.0415 94.9915 29.151 94.9915 29.2741V31H94.5725ZM82.3752 37V34.2727H82.7801V34.6989H82.8156C82.8724 34.5533 82.9641 34.4402 83.0908 34.3597C83.2174 34.2781 83.3695 34.2372 83.5471 34.2372C83.727 34.2372 83.8768 34.2781 83.9963 34.3597C84.1171 34.4402 84.2112 34.5533 84.2786 34.6989H84.307C84.3769 34.558 84.4816 34.4461 84.6213 34.3633C84.761 34.2792 84.9285 34.2372 85.1238 34.2372C85.3676 34.2372 85.5671 34.3136 85.7222 34.4663C85.8772 34.6178 85.9548 34.8539 85.9548 35.1747V37H85.5357V35.1747C85.5357 34.9735 85.4807 34.8297 85.3706 34.7433C85.2605 34.6568 85.1309 34.6136 84.9818 34.6136C84.79 34.6136 84.6414 34.6716 84.5361 34.7876C84.4307 34.9025 84.3781 35.0481 84.3781 35.2244V37H83.9519V35.1321C83.9519 34.977 83.9016 34.8522 83.801 34.7575C83.7004 34.6616 83.5708 34.6136 83.4122 34.6136C83.3033 34.6136 83.2015 34.6426 83.1068 34.7006C83.0132 34.7586 82.9375 34.8391 82.8795 34.9421C82.8227 35.0439 82.7943 35.1617 82.7943 35.2955V37H82.3752ZM87.8289 37.0568C87.5827 37.0568 87.3666 36.9982 87.1808 36.881C86.9961 36.7638 86.8517 36.5999 86.7476 36.3892C86.6446 36.1785 86.5931 35.9323 86.5931 35.6506C86.5931 35.3665 86.6446 35.1185 86.7476 34.9066C86.8517 34.6947 86.9961 34.5302 87.1808 34.413C87.3666 34.2958 87.5827 34.2372 87.8289 34.2372C88.0751 34.2372 88.2905 34.2958 88.4752 34.413C88.661 34.5302 88.8054 34.6947 88.9084 34.9066C89.0126 35.1185 89.0647 35.3665 89.0647 35.6506C89.0647 35.9323 89.0126 36.1785 88.9084 36.3892C88.8054 36.5999 88.661 36.7638 88.4752 36.881C88.2905 36.9982 88.0751 37.0568 87.8289 37.0568ZM87.8289 36.6804C88.0159 36.6804 88.1698 36.6325 88.2905 36.5366C88.4113 36.4407 88.5006 36.3146 88.5586 36.1584C88.6166 36.0021 88.6456 35.8329 88.6456 35.6506C88.6456 35.4683 88.6166 35.2984 88.5586 35.141C88.5006 34.9835 88.4113 34.8563 88.2905 34.7592C88.1698 34.6622 88.0159 34.6136 87.8289 34.6136C87.6419 34.6136 87.488 34.6622 87.3672 34.7592C87.2465 34.8563 87.1571 34.9835 87.0991 35.141C87.0411 35.2984 87.0121 35.4683 87.0121 35.6506C87.0121 35.8329 87.0411 36.0021 87.0991 36.1584C87.1571 36.3146 87.2465 36.4407 87.3672 36.5366C87.488 36.6325 87.6419 36.6804 87.8289 36.6804ZM89.7043 37V34.2727H90.1092V34.6847H90.1376C90.1873 34.5497 90.2772 34.4402 90.4074 34.3562C90.5377 34.2721 90.6844 34.2301 90.8478 34.2301C90.8786 34.2301 90.917 34.2307 90.9632 34.2319C91.0094 34.2331 91.0443 34.2348 91.068 34.2372V34.6634C91.0538 34.6598 91.0212 34.6545 90.9703 34.6474C90.9206 34.6391 90.8679 34.6349 90.8123 34.6349C90.6797 34.6349 90.5613 34.6628 90.4572 34.7184C90.3542 34.7728 90.2725 34.8486 90.2121 34.9457C90.153 35.0415 90.1234 35.151 90.1234 35.2741V37H89.7043ZM92.6251 37.0568C92.3623 37.0568 92.1357 36.9988 91.9451 36.8828C91.7557 36.7656 91.6095 36.6023 91.5065 36.3928C91.4047 36.1821 91.3538 35.937 91.3538 35.6577C91.3538 35.3783 91.4047 35.1321 91.5065 34.919C91.6095 34.7048 91.7527 34.5379 91.9362 34.4183C92.1209 34.2976 92.3363 34.2372 92.5825 34.2372C92.7246 34.2372 92.8648 34.2609 93.0033 34.3082C93.1418 34.3556 93.2679 34.4325 93.3815 34.5391C93.4952 34.6444 93.5857 34.7841 93.6532 34.9581C93.7207 35.1321 93.7544 35.3464 93.7544 35.6009V35.7784H91.6521V35.4162H93.3283C93.3283 35.2623 93.2975 35.125 93.2359 35.0043C93.1756 34.8835 93.0891 34.7882 92.9767 34.7184C92.8654 34.6486 92.734 34.6136 92.5825 34.6136C92.4156 34.6136 92.2712 34.6551 92.1493 34.7379C92.0285 34.8196 91.9356 34.9261 91.8705 35.0575C91.8054 35.1889 91.7729 35.3298 91.7729 35.4801V35.7216C91.7729 35.9276 91.8084 36.1022 91.8794 36.2454C91.9516 36.3874 92.0516 36.4957 92.1795 36.5703C92.3073 36.6437 92.4559 36.6804 92.6251 36.6804C92.7352 36.6804 92.8347 36.665 92.9234 36.6342C93.0134 36.6023 93.0909 36.5549 93.156 36.4922C93.2211 36.4283 93.2714 36.349 93.307 36.2543L93.7118 36.3679C93.6692 36.5052 93.5976 36.6259 93.4969 36.7301C93.3963 36.8331 93.272 36.9136 93.1241 36.9716C92.9761 37.0284 92.8098 37.0568 92.6251 37.0568ZM81.8869 43V40.2727H82.2918V40.6847H82.3202C82.3699 40.5497 82.4599 40.4402 82.5901 40.3562C82.7203 40.2721 82.8671 40.2301 83.0304 40.2301C83.0612 40.2301 83.0997 40.2307 83.1458 40.2319C83.192 40.2331 83.2269 40.2348 83.2506 40.2372V40.6634C83.2364 40.6598 83.2038 40.6545 83.1529 40.6474C83.1032 40.6391 83.0505 40.6349 82.9949 40.6349C82.8623 40.6349 82.7439 40.6628 82.6398 40.7184C82.5368 40.7728 82.4551 40.8486 82.3948 40.9457C82.3356 41.0415 82.306 41.151 82.306 41.2741V43H81.8869ZM84.5498 43.0639C84.377 43.0639 84.2202 43.0314 84.0793 42.9663C83.9385 42.9 83.8266 42.8047 83.7437 42.6804C83.6609 42.5549 83.6195 42.4034 83.6195 42.2259C83.6195 42.0696 83.6502 41.9429 83.7118 41.8459C83.7733 41.7476 83.8556 41.6707 83.9586 41.6151C84.0616 41.5594 84.1752 41.518 84.2995 41.4908C84.425 41.4624 84.551 41.4399 84.6777 41.4233C84.8434 41.402 84.9778 41.386 85.0807 41.3754C85.1849 41.3635 85.2607 41.344 85.308 41.3168C85.3565 41.2895 85.3808 41.2422 85.3808 41.1747V41.1605C85.3808 40.9853 85.3329 40.8492 85.237 40.7521C85.1423 40.6551 84.9985 40.6065 84.8055 40.6065C84.6055 40.6065 84.4486 40.6503 84.335 40.7379C84.2214 40.8255 84.1415 40.919 84.0953 41.0185L83.6976 40.8764C83.7686 40.7107 83.8633 40.5817 83.9817 40.4893C84.1012 40.3958 84.2314 40.3307 84.3723 40.294C84.5143 40.2562 84.654 40.2372 84.7913 40.2372C84.8789 40.2372 84.9795 40.2479 85.0932 40.2692C85.208 40.2893 85.3187 40.3313 85.4252 40.3952C85.5329 40.4592 85.6223 40.5556 85.6933 40.6847C85.7643 40.8137 85.7998 40.9865 85.7998 41.2031V43H85.3808V42.6307H85.3595C85.3311 42.6899 85.2838 42.7532 85.2175 42.8207C85.1512 42.8881 85.063 42.9455 84.9529 42.9929C84.8428 43.0402 84.7085 43.0639 84.5498 43.0639ZM84.6138 42.6875C84.7795 42.6875 84.9192 42.6549 85.0328 42.5898C85.1476 42.5247 85.234 42.4407 85.292 42.3377C85.3512 42.2347 85.3808 42.1264 85.3808 42.0128V41.6293C85.3631 41.6506 85.324 41.6701 85.2636 41.6879C85.2044 41.7044 85.1358 41.7192 85.0577 41.7322C84.9807 41.7441 84.9056 41.7547 84.8322 41.7642C84.76 41.7725 84.7014 41.7796 84.6564 41.7855C84.5475 41.7997 84.4457 41.8228 84.351 41.8548C84.2575 41.8855 84.1817 41.9323 84.1237 41.995C84.0669 42.0566 84.0385 42.1406 84.0385 42.2472C84.0385 42.3928 84.0923 42.5028 84.2001 42.5774C84.309 42.6508 84.4469 42.6875 84.6138 42.6875ZM87.6726 43.0568C87.4169 43.0568 87.1968 42.9964 87.0121 42.8757C86.8275 42.755 86.6854 42.5887 86.586 42.3768C86.4866 42.1649 86.4368 41.9228 86.4368 41.6506C86.4368 41.3736 86.4877 41.1291 86.5895 40.9173C86.6925 40.7042 86.8357 40.5379 87.0192 40.4183C87.2039 40.2976 87.4193 40.2372 87.6655 40.2372C87.8573 40.2372 88.0301 40.2727 88.184 40.3438C88.3379 40.4148 88.4639 40.5142 88.5622 40.642C88.6604 40.7699 88.7214 40.919 88.7451 41.0895H88.326C88.2941 40.9652 88.2231 40.8551 88.113 40.7592C88.0041 40.6622 87.8573 40.6136 87.6726 40.6136C87.5093 40.6136 87.366 40.6562 87.2429 40.7415C87.121 40.8255 87.0257 40.9445 86.9571 41.0984C86.8896 41.2511 86.8559 41.4304 86.8559 41.6364C86.8559 41.8471 86.889 42.0305 86.9553 42.1868C87.0228 42.343 87.1175 42.4644 87.2394 42.5508C87.3625 42.6372 87.5069 42.6804 87.6726 42.6804C87.7815 42.6804 87.8804 42.6615 87.9691 42.6236C88.0579 42.5857 88.1331 42.5312 88.1946 42.4602C88.2562 42.3892 88.3 42.304 88.326 42.2045H88.7451C88.7214 42.3655 88.6628 42.5105 88.5693 42.6396C88.477 42.7674 88.3544 42.8692 88.2017 42.945C88.0502 43.0195 87.8739 43.0568 87.6726 43.0568ZM90.5011 43.0568C90.2383 43.0568 90.0116 42.9988 89.8211 42.8828C89.6317 42.7656 89.4855 42.6023 89.3825 42.3928C89.2807 42.1821 89.2298 41.937 89.2298 41.6577C89.2298 41.3783 89.2807 41.1321 89.3825 40.919C89.4855 40.7048 89.6287 40.5379 89.8122 40.4183C89.9968 40.2976 90.2123 40.2372 90.4585 40.2372C90.6005 40.2372 90.7408 40.2609 90.8793 40.3082C91.0178 40.3556 91.1439 40.4325 91.2575 40.5391C91.3711 40.6444 91.4617 40.7841 91.5292 40.9581C91.5966 41.1321 91.6304 41.3464 91.6304 41.6009V41.7784H89.5281V41.4162H91.2042C91.2042 41.2623 91.1735 41.125 91.1119 41.0043C91.0515 40.8835 90.9651 40.7882 90.8527 40.7184C90.7414 40.6486 90.61 40.6136 90.4585 40.6136C90.2916 40.6136 90.1472 40.6551 90.0253 40.7379C89.9045 40.8196 89.8116 40.9261 89.7465 41.0575C89.6814 41.1889 89.6488 41.3298 89.6488 41.4801V41.7216C89.6488 41.9276 89.6843 42.1022 89.7554 42.2454C89.8276 42.3874 89.9276 42.4957 90.0554 42.5703C90.1833 42.6437 90.3318 42.6804 90.5011 42.6804C90.6112 42.6804 90.7106 42.665 90.7994 42.6342C90.8894 42.6023 90.9669 42.5549 91.032 42.4922C91.0971 42.4283 91.1474 42.349 91.1829 42.2543L91.5878 42.3679C91.5451 42.5052 91.4735 42.6259 91.3729 42.7301C91.2723 42.8331 91.148 42.9136 91 42.9716C90.8521 43.0284 90.6858 43.0568 90.5011 43.0568ZM94.1996 40.8835L93.8232 40.9901C93.7995 40.9273 93.7646 40.8664 93.7184 40.8072C93.6735 40.7468 93.6119 40.6971 93.5338 40.658C93.4557 40.619 93.3556 40.5994 93.2337 40.5994C93.0668 40.5994 92.9277 40.6379 92.8165 40.7148C92.7064 40.7906 92.6513 40.8871 92.6513 41.0043C92.6513 41.1084 92.6892 41.1907 92.765 41.2511C92.8407 41.3114 92.9591 41.3617 93.1201 41.402L93.5249 41.5014C93.7687 41.5606 93.9504 41.6512 94.07 41.7731C94.1896 41.8938 94.2493 42.0495 94.2493 42.2401C94.2493 42.3963 94.2044 42.536 94.1144 42.6591C94.0256 42.7822 93.9013 42.8793 93.7415 42.9503C93.5817 43.0213 93.3959 43.0568 93.184 43.0568C92.9058 43.0568 92.6756 42.9964 92.4933 42.8757C92.311 42.755 92.1956 42.5786 92.1471 42.3466L92.5448 42.2472C92.5827 42.3939 92.6543 42.504 92.7596 42.5774C92.8662 42.6508 93.0053 42.6875 93.1769 42.6875C93.3722 42.6875 93.5273 42.6461 93.6421 42.5632C93.7581 42.4792 93.8161 42.3786 93.8161 42.2614C93.8161 42.1667 93.783 42.0874 93.7167 42.0234C93.6504 41.9583 93.5486 41.9098 93.4113 41.8778L92.9567 41.7713C92.707 41.7121 92.5235 41.6204 92.4063 41.4961C92.2903 41.3706 92.2323 41.2138 92.2323 41.0256C92.2323 40.8717 92.2755 40.7356 92.3619 40.6172C92.4495 40.4988 92.5685 40.4059 92.7188 40.3384C92.8703 40.271 93.0419 40.2372 93.2337 40.2372C93.5036 40.2372 93.7155 40.2964 93.8694 40.4148C94.0244 40.5331 94.1345 40.6894 94.1996 40.8835Z" fill="#DE6B48"/>
</g>
<defs>
<clipPath id="clip0_35_17">
<rect width="180" height="180" fill="white"/>
</clipPath>
</defs>
</svg>
