<svg width="180" height="180" viewBox="0 0 180 180" fill="none" xmlns="http://www.w3.org/2000/svg">
<g clip-path="url(#clip0_38_44)">
<path d="M90 0C113.621 0 136.296 9.28664 153.131 25.8562C169.967 42.4257 179.613 64.9497 179.989 88.5682C180.364 112.187 171.44 135.006 155.14 152.103C138.841 169.2 116.473 179.203 92.8633 179.954L90 90V0Z" fill="#FFF0D1"/>
<path d="M92.8632 179.954C73.6722 180.565 54.7887 175.023 38.9723 164.136L90 90L92.8632 179.954Z" fill="#511730"/>
<path d="M38.9723 164.136C26.3578 155.454 16.1673 143.696 9.3653 129.976C2.5633 116.255 -0.625253 101.026 0.101388 85.7295L90 90L38.9723 164.136Z" fill="#DE6B48"/>
<path d="M0.101318 85.7295C1.01239 66.5504 8.03337 48.1652 20.1383 33.2608C32.2432 18.3563 48.7974 7.71379 67.382 2.88843L89.9999 90L0.101318 85.7295Z" fill="#822E15"/>
<path d="M67.3821 2.8884C74.7633 0.971908 82.3583 0.00133099 89.9843 0L90 90L67.3821 2.8884Z" fill="#8F443D"/>
<path d="M119.153 86.8068V86.2273L121.71 82.1818H122.131V83.0795H121.847L119.915 86.1364V86.1818H123.358V86.8068H119.153ZM121.892 88V86.6307V86.3608V82.1818H122.562V88H121.892ZM126.275 82.1023C126.513 82.1042 126.752 82.1496 126.991 82.2386C127.229 82.3277 127.447 82.4754 127.644 82.6818C127.841 82.8864 127.999 83.1657 128.119 83.5199C128.238 83.8741 128.298 84.3182 128.298 84.8523C128.298 85.3693 128.248 85.8286 128.15 86.2301C128.053 86.6297 127.913 86.9669 127.729 87.2415C127.548 87.5161 127.326 87.7244 127.065 87.8665C126.805 88.0085 126.512 88.0795 126.184 88.0795C125.858 88.0795 125.567 88.0152 125.312 87.8864C125.058 87.7557 124.85 87.5748 124.687 87.3438C124.526 87.1108 124.423 86.8409 124.377 86.5341H125.07C125.133 86.8011 125.257 87.0218 125.442 87.196C125.63 87.3684 125.877 87.4545 126.184 87.4545C126.633 87.4545 126.987 87.2585 127.246 86.8665C127.508 86.4744 127.638 85.9205 127.638 85.2045H127.593C127.487 85.3636 127.361 85.5009 127.215 85.6165C127.069 85.732 126.907 85.821 126.729 85.8835C126.551 85.946 126.362 85.9773 126.161 85.9773C125.828 85.9773 125.522 85.8949 125.244 85.7301C124.967 85.5634 124.746 85.3352 124.579 85.0455C124.414 84.7538 124.332 84.4205 124.332 84.0455C124.332 83.6894 124.411 83.3636 124.57 83.0682C124.731 82.7708 124.957 82.5341 125.246 82.358C125.538 82.1818 125.881 82.0966 126.275 82.1023ZM126.275 82.7273C126.036 82.7273 125.821 82.7869 125.63 82.9062C125.441 83.0237 125.29 83.1828 125.178 83.3835C125.068 83.5824 125.013 83.803 125.013 84.0455C125.013 84.2879 125.067 84.5085 125.173 84.7074C125.281 84.9044 125.427 85.0616 125.613 85.179C125.8 85.2945 126.013 85.3523 126.252 85.3523C126.432 85.3523 126.6 85.3172 126.755 85.2472C126.91 85.1752 127.046 85.0777 127.161 84.9545C127.279 84.8295 127.371 84.6884 127.437 84.5312C127.503 84.3722 127.536 84.2064 127.536 84.0341C127.536 83.8068 127.481 83.5937 127.371 83.3949C127.263 83.196 127.114 83.035 126.923 82.9119C126.733 82.7888 126.517 82.7273 126.275 82.7273ZM132.381 86.9091V86.6023C132.381 86.3902 132.424 86.196 132.511 86.0199C132.6 85.8419 132.729 85.6998 132.898 85.5938C133.068 85.4858 133.275 85.4318 133.517 85.4318C133.763 85.4318 133.97 85.4858 134.136 85.5938C134.303 85.6998 134.429 85.8419 134.514 86.0199C134.599 86.196 134.642 86.3902 134.642 86.6023V86.9091C134.642 87.1212 134.598 87.3163 134.511 87.4943C134.426 87.6705 134.299 87.8125 134.131 87.9205C133.964 88.0265 133.759 88.0795 133.517 88.0795C133.271 88.0795 133.063 88.0265 132.895 87.9205C132.726 87.8125 132.598 87.6705 132.511 87.4943C132.424 87.3163 132.381 87.1212 132.381 86.9091ZM132.96 86.6023V86.9091C132.96 87.0852 133.002 87.2434 133.085 87.3835C133.169 87.5218 133.313 87.5909 133.517 87.5909C133.716 87.5909 133.856 87.5218 133.938 87.3835C134.021 87.2434 134.062 87.0852 134.062 86.9091V86.6023C134.062 86.4261 134.023 86.2689 133.943 86.1307C133.864 85.9905 133.722 85.9205 133.517 85.9205C133.318 85.9205 133.175 85.9905 133.088 86.1307C133.003 86.2689 132.96 86.4261 132.96 86.6023ZM129.483 83.5795V83.2727C129.483 83.0606 129.527 82.8665 129.614 82.6903C129.703 82.5123 129.831 82.3703 130 82.2642C130.17 82.1562 130.377 82.1023 130.619 82.1023C130.866 82.1023 131.072 82.1562 131.239 82.2642C131.405 82.3703 131.531 82.5123 131.616 82.6903C131.702 82.8665 131.744 83.0606 131.744 83.2727V83.5795C131.744 83.7917 131.701 83.9867 131.614 84.1648C131.528 84.3409 131.402 84.483 131.233 84.5909C131.066 84.697 130.862 84.75 130.619 84.75C130.373 84.75 130.166 84.697 129.997 84.5909C129.829 84.483 129.701 84.3409 129.614 84.1648C129.527 83.9867 129.483 83.7917 129.483 83.5795ZM130.062 83.2727V83.5795C130.062 83.7557 130.104 83.9138 130.188 84.054C130.271 84.1922 130.415 84.2614 130.619 84.2614C130.818 84.2614 130.958 84.1922 131.04 84.054C131.123 83.9138 131.165 83.7557 131.165 83.5795V83.2727C131.165 83.0966 131.125 82.9394 131.045 82.8011C130.966 82.661 130.824 82.5909 130.619 82.5909C130.42 82.5909 130.277 82.661 130.19 82.8011C130.105 82.9394 130.062 83.0966 130.062 83.2727ZM129.699 88L133.699 82.1818H134.347L130.347 88H129.699ZM117.894 98L116.303 92.1818H117.019L118.235 96.9205H118.292L119.531 92.1818H120.326L121.565 96.9205H121.621L122.837 92.1818H123.553L121.962 98H121.235L119.951 93.3636H119.906L118.621 98H117.894ZM125.011 95.375V98H124.34V92.1818H125.011V94.3182H125.067C125.17 94.0928 125.323 93.9138 125.528 93.7812C125.734 93.6468 126.009 93.5795 126.352 93.5795C126.649 93.5795 126.909 93.6392 127.133 93.7585C127.356 93.8759 127.53 94.0568 127.653 94.3011C127.778 94.5436 127.84 94.8523 127.84 95.2273V98H127.17V95.2727C127.17 94.9261 127.08 94.6581 126.9 94.4688C126.722 94.2775 126.475 94.1818 126.158 94.1818C125.939 94.1818 125.742 94.2282 125.567 94.321C125.395 94.4138 125.259 94.5492 125.158 94.7273C125.06 94.9053 125.011 95.1212 125.011 95.375ZM129.067 98V93.6364H129.737V98H129.067ZM129.408 92.9091C129.277 92.9091 129.164 92.8646 129.07 92.7756C128.977 92.6866 128.93 92.5795 128.93 92.4545C128.93 92.3295 128.977 92.2225 129.07 92.1335C129.164 92.0445 129.277 92 129.408 92C129.538 92 129.65 92.0445 129.743 92.1335C129.838 92.2225 129.885 92.3295 129.885 92.4545C129.885 92.5795 129.838 92.6866 129.743 92.7756C129.65 92.8646 129.538 92.9091 129.408 92.9091ZM132.863 93.6364V94.2045H130.602V93.6364H132.863ZM131.261 92.5909H131.931V96.75C131.931 96.9394 131.959 97.0814 132.013 97.1761C132.07 97.2689 132.142 97.3314 132.229 97.3636C132.318 97.3939 132.412 97.4091 132.511 97.4091C132.585 97.4091 132.645 97.4053 132.692 97.3977C132.74 97.3883 132.778 97.3807 132.806 97.375L132.942 97.9773C132.897 97.9943 132.834 98.0114 132.752 98.0284C132.671 98.0473 132.567 98.0568 132.442 98.0568C132.253 98.0568 132.067 98.0161 131.886 97.9347C131.706 97.8532 131.556 97.7292 131.437 97.5625C131.319 97.3958 131.261 97.1856 131.261 96.9318V92.5909ZM135.654 98.0909C135.234 98.0909 134.871 97.9981 134.566 97.8125C134.263 97.625 134.029 97.3636 133.864 97.0284C133.701 96.6913 133.62 96.2992 133.62 95.8523C133.62 95.4053 133.701 95.0114 133.864 94.6705C134.029 94.3277 134.258 94.0606 134.552 93.8693C134.847 93.6761 135.192 93.5795 135.586 93.5795C135.813 93.5795 136.038 93.6174 136.259 93.6932C136.481 93.7689 136.683 93.892 136.864 94.0625C137.046 94.2311 137.191 94.4545 137.299 94.733C137.407 95.0114 137.461 95.3542 137.461 95.7614V96.0455H134.097V95.4659H136.779C136.779 95.2197 136.73 95 136.631 94.8068C136.535 94.6136 136.397 94.4612 136.217 94.3494C136.039 94.2377 135.828 94.1818 135.586 94.1818C135.319 94.1818 135.088 94.2481 134.893 94.3807C134.7 94.5114 134.551 94.6818 134.447 94.892C134.343 95.1023 134.29 95.3277 134.29 95.5682V95.9545C134.29 96.2841 134.347 96.5634 134.461 96.7926C134.576 97.0199 134.737 97.1932 134.941 97.3125C135.146 97.4299 135.383 97.4886 135.654 97.4886C135.83 97.4886 135.989 97.464 136.131 97.4148C136.275 97.3636 136.399 97.2879 136.504 97.1875C136.608 97.0852 136.688 96.9583 136.745 96.8068L137.393 96.9886C137.325 97.2083 137.21 97.4015 137.049 97.5682C136.888 97.733 136.689 97.8617 136.452 97.9545C136.216 98.0455 135.95 98.0909 135.654 98.0909Z" fill="#DE6B48"/>
<path d="M70.899 136.364V140H70.4586V136.825H70.4373L69.5495 137.415V136.967L70.4586 136.364H70.899ZM73.1309 140.05C72.8633 140.05 72.6355 139.977 72.4473 139.831C72.2591 139.685 72.1152 139.472 72.0158 139.194C71.9164 138.915 71.8667 138.577 71.8667 138.182C71.8667 137.789 71.9164 137.453 72.0158 137.175C72.1164 136.896 72.2608 136.683 72.449 136.536C72.6384 136.388 72.8657 136.314 73.1309 136.314C73.396 136.314 73.6227 136.388 73.8109 136.536C74.0003 136.683 74.1447 136.896 74.2441 137.175C74.3448 137.453 74.3951 137.789 74.3951 138.182C74.3951 138.577 74.3453 138.915 74.2459 139.194C74.1465 139.472 74.0027 139.685 73.8145 139.831C73.6262 139.977 73.3984 140.05 73.1309 140.05ZM73.1309 139.659C73.396 139.659 73.602 139.531 73.7488 139.276C73.8955 139.02 73.9689 138.655 73.9689 138.182C73.9689 137.867 73.9352 137.599 73.8677 137.377C73.8014 137.156 73.7056 136.987 73.5801 136.871C73.4558 136.755 73.306 136.697 73.1309 136.697C72.8681 136.697 72.6627 136.827 72.5147 137.086C72.3668 137.344 72.2928 137.71 72.2928 138.182C72.2928 138.497 72.3259 138.764 72.3922 138.984C72.4585 139.205 72.5538 139.372 72.6781 139.487C72.8036 139.602 72.9545 139.659 73.1309 139.659ZM76.9235 139.318V139.126C76.9235 138.994 76.9507 138.873 77.0051 138.762C77.0608 138.651 77.1413 138.562 77.2466 138.496C77.3532 138.429 77.4822 138.395 77.6337 138.395C77.7876 138.395 77.9166 138.429 78.0208 138.496C78.1249 138.562 78.2037 138.651 78.2569 138.762C78.3102 138.873 78.3368 138.994 78.3368 139.126V139.318C78.3368 139.451 78.3096 139.573 78.2551 139.684C78.2019 139.794 78.1226 139.883 78.0172 139.95C77.9131 140.017 77.7852 140.05 77.6337 140.05C77.4798 140.05 77.3502 140.017 77.2449 139.95C77.1395 139.883 77.0596 139.794 77.0051 139.684C76.9507 139.573 76.9235 139.451 76.9235 139.318ZM77.2857 139.126V139.318C77.2857 139.428 77.3117 139.527 77.3638 139.615C77.4159 139.701 77.5059 139.744 77.6337 139.744C77.758 139.744 77.8456 139.701 77.8965 139.615C77.9486 139.527 77.9746 139.428 77.9746 139.318V139.126C77.9746 139.016 77.9498 138.918 77.9 138.832C77.8503 138.744 77.7615 138.7 77.6337 138.7C77.5094 138.7 77.42 138.744 77.3656 138.832C77.3123 138.918 77.2857 139.016 77.2857 139.126ZM75.1124 137.237V137.045C75.1124 136.913 75.1396 136.792 75.1941 136.681C75.2497 136.57 75.3302 136.481 75.4355 136.415C75.5421 136.348 75.6711 136.314 75.8226 136.314C75.9765 136.314 76.1055 136.348 76.2097 136.415C76.3139 136.481 76.3926 136.57 76.4458 136.681C76.4991 136.792 76.5257 136.913 76.5257 137.045V137.237C76.5257 137.37 76.4985 137.492 76.4441 137.603C76.3908 137.713 76.3115 137.802 76.2061 137.869C76.102 137.936 75.9741 137.969 75.8226 137.969C75.6687 137.969 75.5391 137.936 75.4338 137.869C75.3284 137.802 75.2485 137.713 75.1941 137.603C75.1396 137.492 75.1124 137.37 75.1124 137.237ZM75.4746 137.045V137.237C75.4746 137.347 75.5007 137.446 75.5527 137.534C75.6048 137.62 75.6948 137.663 75.8226 137.663C75.9469 137.663 76.0345 137.62 76.0854 137.534C76.1375 137.446 76.1635 137.347 76.1635 137.237V137.045C76.1635 136.935 76.1387 136.837 76.089 136.751C76.0392 136.663 75.9505 136.619 75.8226 136.619C75.6983 136.619 75.609 136.663 75.5545 136.751C75.5012 136.837 75.4746 136.935 75.4746 137.045ZM75.2473 140L77.7473 136.364H78.1522L75.6522 140H75.2473ZM67.165 146V142.364H68.4363C68.6896 142.364 68.8985 142.407 69.063 142.495C69.2276 142.581 69.3501 142.698 69.4306 142.845C69.5111 142.99 69.5513 143.152 69.5513 143.33C69.5513 143.486 69.5235 143.615 69.4679 143.717C69.4134 143.818 69.3412 143.899 69.2512 143.958C69.1625 144.017 69.066 144.061 68.9618 144.089V144.125C69.0731 144.132 69.185 144.171 69.2974 144.242C69.4099 144.313 69.504 144.415 69.5797 144.548C69.6555 144.68 69.6934 144.842 69.6934 145.034C69.6934 145.216 69.6519 145.38 69.5691 145.526C69.4862 145.672 69.3554 145.787 69.1767 145.872C68.9979 145.957 68.7653 146 68.4789 146H67.165ZM67.6053 145.609H68.4789C68.7665 145.609 68.9707 145.554 69.0914 145.442C69.2134 145.33 69.2743 145.194 69.2743 145.034C69.2743 144.911 69.243 144.797 69.1802 144.693C69.1175 144.588 69.0281 144.504 68.9121 144.441C68.7961 144.377 68.6588 144.345 68.5002 144.345H67.6053V145.609ZM67.6053 143.962H68.4221C68.5546 143.962 68.6742 143.936 68.7807 143.884C68.8884 143.831 68.9737 143.758 69.0364 143.663C69.1003 143.569 69.1323 143.457 69.1323 143.33C69.1323 143.17 69.0766 143.034 68.9654 142.923C68.8541 142.81 68.6777 142.754 68.4363 142.754H67.6053V143.962ZM70.7791 142.364V146H70.3601V142.364H70.7791ZM72.3492 146.064C72.1763 146.064 72.0195 146.031 71.8786 145.966C71.7378 145.9 71.6259 145.805 71.5431 145.68C71.4602 145.555 71.4188 145.403 71.4188 145.226C71.4188 145.07 71.4495 144.943 71.5111 144.846C71.5727 144.748 71.6549 144.671 71.7579 144.615C71.8609 144.559 71.9745 144.518 72.0988 144.491C72.2243 144.462 72.3503 144.44 72.477 144.423C72.6427 144.402 72.7771 144.386 72.8801 144.375C72.9842 144.364 73.06 144.344 73.1073 144.317C73.1559 144.29 73.1801 144.242 73.1801 144.175V144.161C73.1801 143.985 73.1322 143.849 73.0363 143.752C72.9416 143.655 72.7978 143.607 72.6048 143.607C72.4048 143.607 72.248 143.65 72.1343 143.738C72.0207 143.826 71.9408 143.919 71.8946 144.018L71.4969 143.876C71.5679 143.711 71.6626 143.582 71.781 143.489C71.9005 143.396 72.0307 143.331 72.1716 143.294C72.3137 143.256 72.4533 143.237 72.5906 143.237C72.6782 143.237 72.7789 143.248 72.8925 143.269C73.0073 143.289 73.118 143.331 73.2245 143.395C73.3322 143.459 73.4216 143.556 73.4926 143.685C73.5637 143.814 73.5992 143.987 73.5992 144.203V146H73.1801V145.631H73.1588C73.1304 145.69 73.0831 145.753 73.0168 145.821C72.9505 145.888 72.8623 145.946 72.7522 145.993C72.6421 146.04 72.5078 146.064 72.3492 146.064ZM72.4131 145.688C72.5788 145.688 72.7185 145.655 72.8321 145.59C72.9469 145.525 73.0334 145.441 73.0914 145.338C73.1505 145.235 73.1801 145.126 73.1801 145.013V144.629C73.1624 144.651 73.1233 144.67 73.0629 144.688C73.0038 144.704 72.9351 144.719 72.857 144.732C72.78 144.744 72.7049 144.755 72.6315 144.764C72.5593 144.772 72.5007 144.78 72.4557 144.786C72.3468 144.8 72.245 144.823 72.1503 144.855C72.0568 144.886 71.981 144.932 71.923 144.995C71.8662 145.057 71.8378 145.141 71.8378 145.247C71.8378 145.393 71.8917 145.503 71.9994 145.577C72.1083 145.651 72.2462 145.688 72.4131 145.688ZM75.4719 146.057C75.2163 146.057 74.9961 145.996 74.8114 145.876C74.6268 145.755 74.4847 145.589 74.3853 145.377C74.2859 145.165 74.2362 144.923 74.2362 144.651C74.2362 144.374 74.2871 144.129 74.3888 143.917C74.4918 143.704 74.6351 143.538 74.8185 143.418C75.0032 143.298 75.2186 143.237 75.4648 143.237C75.6566 143.237 75.8294 143.273 75.9833 143.344C76.1372 143.415 76.2633 143.514 76.3615 143.642C76.4598 143.77 76.5207 143.919 76.5444 144.089H76.1254C76.0934 143.965 76.0224 143.855 75.9123 143.759C75.8034 143.662 75.6566 143.614 75.4719 143.614C75.3086 143.614 75.1654 143.656 75.0423 143.741C74.9203 143.826 74.825 143.944 74.7564 144.098C74.6889 144.251 74.6552 144.43 74.6552 144.636C74.6552 144.847 74.6883 145.031 74.7546 145.187C74.8221 145.343 74.9168 145.464 75.0387 145.551C75.1618 145.637 75.3062 145.68 75.4719 145.68C75.5808 145.68 75.6797 145.661 75.7685 145.624C75.8572 145.586 75.9324 145.531 75.994 145.46C76.0555 145.389 76.0993 145.304 76.1254 145.205H76.5444C76.5207 145.366 76.4621 145.511 76.3686 145.64C76.2763 145.767 76.1538 145.869 76.0011 145.945C75.8496 146.02 75.6732 146.057 75.4719 146.057ZM77.5476 145.006L77.5405 144.487H77.6257L78.8189 143.273H79.3374L78.0661 144.558H78.0305L77.5476 145.006ZM77.157 146V142.364H77.576V146H77.157ZM78.8899 146L77.8246 144.651L78.1229 144.359L79.4226 146H78.8899ZM81.1622 142.193L79.9903 146.547H79.6068L80.7787 142.193H81.1622ZM66.2081 152H65.7465L67.0817 148.364H67.5363L68.8715 152H68.4098L67.3232 148.939H67.2948L66.2081 152ZM66.3786 150.58H68.2394V150.97H66.3786V150.58ZM70.5956 149.273V149.628H69.1254V149.273H70.5956ZM69.5657 152V148.896C69.5657 148.74 69.6024 148.61 69.6758 148.506C69.7492 148.402 69.8445 148.323 69.9617 148.271C70.0789 148.219 70.2026 148.193 70.3328 148.193C70.4358 148.193 70.5198 148.201 70.5849 148.218C70.65 148.235 70.6986 148.25 70.7305 148.264L70.6098 148.626C70.5885 148.619 70.5589 148.61 70.521 148.6C70.4843 148.589 70.4358 148.584 70.3754 148.584C70.2369 148.584 70.1369 148.619 70.0753 148.689C70.015 148.758 69.9848 148.861 69.9848 148.996V152H69.5657ZM71.1828 152V149.273H71.5877V149.685H71.6161C71.6658 149.55 71.7558 149.44 71.886 149.356C72.0162 149.272 72.163 149.23 72.3263 149.23C72.3571 149.23 72.3956 149.231 72.4417 149.232C72.4879 149.233 72.5228 149.235 72.5465 149.237V149.663C72.5323 149.66 72.4997 149.654 72.4488 149.647C72.3991 149.639 72.3464 149.635 72.2908 149.635C72.1582 149.635 72.0398 149.663 71.9357 149.718C71.8327 149.773 71.751 149.849 71.6907 149.946C71.6315 150.042 71.6019 150.151 71.6019 150.274V152H71.1828ZM73.0432 152V149.273H73.4622V152H73.0432ZM73.2563 148.818C73.1746 148.818 73.1042 148.79 73.045 148.735C72.987 148.679 72.958 148.612 72.958 148.534C72.958 148.456 72.987 148.389 73.045 148.333C73.1042 148.278 73.1746 148.25 73.2563 148.25C73.3379 148.25 73.4078 148.278 73.4658 148.333C73.525 148.389 73.5546 148.456 73.5546 148.534C73.5546 148.612 73.525 148.679 73.4658 148.735C73.4078 148.79 73.3379 148.818 73.2563 148.818ZM75.3377 152.057C75.082 152.057 74.8618 151.996 74.6772 151.876C74.4925 151.755 74.3505 151.589 74.251 151.377C74.1516 151.165 74.1019 150.923 74.1019 150.651C74.1019 150.374 74.1528 150.129 74.2546 149.917C74.3576 149.704 74.5008 149.538 74.6843 149.418C74.8689 149.298 75.0844 149.237 75.3306 149.237C75.5223 149.237 75.6951 149.273 75.849 149.344C76.0029 149.415 76.129 149.514 76.2272 149.642C76.3255 149.77 76.3864 149.919 76.4101 150.089H75.9911C75.9591 149.965 75.8881 149.855 75.778 149.759C75.6691 149.662 75.5223 149.614 75.3377 149.614C75.1743 149.614 75.0311 149.656 74.908 149.741C74.7861 149.826 74.6908 149.944 74.6221 150.098C74.5546 150.251 74.5209 150.43 74.5209 150.636C74.5209 150.847 74.5541 151.031 74.6203 151.187C74.6878 151.343 74.7825 151.464 74.9044 151.551C75.0275 151.637 75.1719 151.68 75.3377 151.68C75.4466 151.68 75.5454 151.661 75.6342 151.624C75.723 151.586 75.7981 151.531 75.8597 151.46C75.9212 151.389 75.965 151.304 75.9911 151.205H76.4101C76.3864 151.366 76.3278 151.511 76.2343 151.64C76.142 151.767 76.0195 151.869 75.8668 151.945C75.7153 152.02 75.5389 152.057 75.3377 152.057ZM77.8252 152.064C77.6524 152.064 77.4956 152.031 77.3547 151.966C77.2139 151.9 77.102 151.805 77.0191 151.68C76.9363 151.555 76.8948 151.403 76.8948 151.226C76.8948 151.07 76.9256 150.943 76.9872 150.846C77.0487 150.748 77.131 150.671 77.234 150.615C77.337 150.559 77.4506 150.518 77.5749 150.491C77.7004 150.462 77.8264 150.44 77.9531 150.423C78.1188 150.402 78.2532 150.386 78.3561 150.375C78.4603 150.364 78.5361 150.344 78.5834 150.317C78.6319 150.29 78.6562 150.242 78.6562 150.175V150.161C78.6562 149.985 78.6083 149.849 78.5124 149.752C78.4177 149.655 78.2739 149.607 78.0809 149.607C77.8809 149.607 77.724 149.65 77.6104 149.738C77.4968 149.826 77.4169 149.919 77.3707 150.018L76.973 149.876C77.044 149.711 77.1387 149.582 77.2571 149.489C77.3766 149.396 77.5068 149.331 77.6477 149.294C77.7897 149.256 77.9294 149.237 78.0667 149.237C78.1543 149.237 78.2549 149.248 78.3686 149.269C78.4834 149.289 78.5941 149.331 78.7006 149.395C78.8083 149.459 78.8977 149.556 78.9687 149.685C79.0397 149.814 79.0752 149.987 79.0752 150.203V152H78.6562V151.631H78.6349C78.6065 151.69 78.5591 151.753 78.4929 151.821C78.4266 151.888 78.3384 151.946 78.2283 151.993C78.1182 152.04 77.9839 152.064 77.8252 152.064ZM77.8892 151.688C78.0549 151.688 78.1946 151.655 78.3082 151.59C78.423 151.525 78.5094 151.441 78.5674 151.338C78.6266 151.235 78.6562 151.126 78.6562 151.013V150.629C78.6384 150.651 78.5994 150.67 78.539 150.688C78.4798 150.704 78.4112 150.719 78.3331 150.732C78.2561 150.744 78.1809 150.755 78.1076 150.764C78.0353 150.772 77.9768 150.78 77.9318 150.786C77.8229 150.8 77.7211 150.823 77.6264 150.855C77.5329 150.886 77.4571 150.932 77.3991 150.995C77.3423 151.057 77.3139 151.141 77.3139 151.247C77.3139 151.393 77.3677 151.503 77.4755 151.577C77.5844 151.651 77.7223 151.688 77.8892 151.688ZM80.2591 150.359V152H79.8401V149.273H80.2449V149.699H80.2804C80.3443 149.56 80.4414 149.449 80.5716 149.365C80.7018 149.28 80.8699 149.237 81.0759 149.237C81.2605 149.237 81.4221 149.275 81.5606 149.351C81.6991 149.425 81.8068 149.539 81.8837 149.692C81.9607 149.843 81.9992 150.035 81.9992 150.267V152H81.5801V150.295C81.5801 150.081 81.5245 149.914 81.4132 149.795C81.302 149.674 81.1493 149.614 80.9551 149.614C80.8214 149.614 80.7018 149.643 80.5965 149.701C80.4923 149.759 80.41 149.843 80.3497 149.955C80.2893 150.066 80.2591 150.201 80.2591 150.359ZM63.4811 158H63.0194L64.3547 154.364H64.8092L66.1444 158H65.6828L64.5961 154.939H64.5677L63.4811 158ZM63.6515 156.58H65.5123V156.97H63.6515V156.58ZM66.654 158V155.273H67.0589V155.699H67.0944C67.1512 155.553 67.2429 155.44 67.3696 155.36C67.4962 155.278 67.6483 155.237 67.8259 155.237C68.0058 155.237 68.1556 155.278 68.2751 155.36C68.3959 155.44 68.49 155.553 68.5574 155.699H68.5858C68.6557 155.558 68.7604 155.446 68.9001 155.363C69.0398 155.279 69.2073 155.237 69.4026 155.237C69.6465 155.237 69.8459 155.314 70.001 155.466C70.156 155.618 70.2336 155.854 70.2336 156.175V158H69.8145V156.175C69.8145 155.973 69.7595 155.83 69.6494 155.743C69.5393 155.657 69.4097 155.614 69.2606 155.614C69.0688 155.614 68.9202 155.672 68.8149 155.788C68.7095 155.902 68.6569 156.048 68.6569 156.224V158H68.2307V156.132C68.2307 155.977 68.1804 155.852 68.0798 155.757C67.9792 155.662 67.8496 155.614 67.691 155.614C67.5821 155.614 67.4803 155.643 67.3856 155.701C67.2921 155.759 67.2163 155.839 67.1583 155.942C67.1015 156.044 67.0731 156.162 67.0731 156.295V158H66.654ZM72.1432 158.057C71.8804 158.057 71.6537 157.999 71.4632 157.883C71.2738 157.766 71.1276 157.602 71.0246 157.393C70.9228 157.182 70.8719 156.937 70.8719 156.658C70.8719 156.378 70.9228 156.132 71.0246 155.919C71.1276 155.705 71.2708 155.538 71.4543 155.418C71.6389 155.298 71.8544 155.237 72.1006 155.237C72.2426 155.237 72.3829 155.261 72.5214 155.308C72.6599 155.356 72.786 155.433 72.8996 155.539C73.0132 155.644 73.1038 155.784 73.1713 155.958C73.2387 156.132 73.2725 156.346 73.2725 156.601V156.778H71.1702V156.416H72.8463C72.8463 156.262 72.8155 156.125 72.754 156.004C72.6936 155.884 72.6072 155.788 72.4948 155.718C72.3835 155.649 72.2521 155.614 72.1006 155.614C71.9337 155.614 71.7893 155.655 71.6673 155.738C71.5466 155.82 71.4537 155.926 71.3886 156.058C71.3235 156.189 71.2909 156.33 71.2909 156.48V156.722C71.2909 156.928 71.3264 157.102 71.3975 157.245C71.4697 157.387 71.5697 157.496 71.6975 157.57C71.8254 157.644 71.9739 157.68 72.1432 157.68C72.2533 157.68 72.3527 157.665 72.4415 157.634C72.5315 157.602 72.609 157.555 72.6741 157.492C72.7392 157.428 72.7895 157.349 72.825 157.254L73.2298 157.368C73.1872 157.505 73.1156 157.626 73.015 157.73C72.9144 157.833 72.7901 157.914 72.6421 157.972C72.4942 158.028 72.3279 158.057 72.1432 158.057ZM73.9099 158V155.273H74.3147V155.685H74.3431C74.3928 155.55 74.4828 155.44 74.613 155.356C74.7432 155.272 74.89 155.23 75.0534 155.23C75.0841 155.23 75.1226 155.231 75.1688 155.232C75.2149 155.233 75.2499 155.235 75.2735 155.237V155.663C75.2593 155.66 75.2268 155.654 75.1759 155.647C75.1262 155.639 75.0735 155.635 75.0178 155.635C74.8853 155.635 74.7669 155.663 74.6627 155.718C74.5597 155.773 74.4781 155.849 74.4177 155.946C74.3585 156.042 74.3289 156.151 74.3289 156.274V158H73.9099ZM75.7702 158V155.273H76.1893V158H75.7702ZM75.9833 154.818C75.9016 154.818 75.8312 154.79 75.772 154.735C75.714 154.679 75.685 154.612 75.685 154.534C75.685 154.456 75.714 154.389 75.772 154.333C75.8312 154.278 75.9016 154.25 75.9833 154.25C76.065 154.25 76.1348 154.278 76.1928 154.333C76.252 154.389 76.2816 154.456 76.2816 154.534C76.2816 154.612 76.252 154.679 76.1928 154.735C76.1348 154.79 76.065 154.818 75.9833 154.818ZM78.0647 158.057C77.809 158.057 77.5889 157.996 77.4042 157.876C77.2195 157.755 77.0775 157.589 76.9781 157.377C76.8786 157.165 76.8289 156.923 76.8289 156.651C76.8289 156.374 76.8798 156.129 76.9816 155.917C77.0846 155.704 77.2278 155.538 77.4113 155.418C77.596 155.298 77.8114 155.237 78.0576 155.237C78.2494 155.237 78.4222 155.273 78.5761 155.344C78.73 155.415 78.856 155.514 78.9543 155.642C79.0525 155.77 79.1135 155.919 79.1372 156.089H78.7181C78.6862 155.965 78.6151 155.855 78.5051 155.759C78.3962 155.662 78.2494 155.614 78.0647 155.614C77.9014 155.614 77.7581 155.656 77.635 155.741C77.5131 155.826 77.4178 155.944 77.3492 156.098C77.2817 156.251 77.248 156.43 77.248 156.636C77.248 156.847 77.2811 157.031 77.3474 157.187C77.4149 157.343 77.5096 157.464 77.6315 157.551C77.7546 157.637 77.899 157.68 78.0647 157.68C78.1736 157.68 78.2725 157.661 78.3612 157.624C78.45 157.586 78.5252 157.531 78.5867 157.46C78.6483 157.389 78.6921 157.304 78.7181 157.205H79.1372C79.1135 157.366 79.0549 157.511 78.9614 157.64C78.8691 157.767 78.7465 157.869 78.5938 157.945C78.4423 158.02 78.266 158.057 78.0647 158.057ZM80.5523 158.064C80.3795 158.064 80.2226 158.031 80.0818 157.966C79.9409 157.9 79.829 157.805 79.7462 157.68C79.6633 157.555 79.6219 157.403 79.6219 157.226C79.6219 157.07 79.6527 156.943 79.7142 156.846C79.7758 156.748 79.858 156.671 79.961 156.615C80.064 156.559 80.1776 156.518 80.3019 156.491C80.4274 156.462 80.5535 156.44 80.6801 156.423C80.8459 156.402 80.9802 156.386 81.0832 156.375C81.1874 156.364 81.2631 156.344 81.3105 156.317C81.359 156.29 81.3833 156.242 81.3833 156.175V156.161C81.3833 155.985 81.3353 155.849 81.2394 155.752C81.1447 155.655 81.0009 155.607 80.808 155.607C80.6079 155.607 80.4511 155.65 80.3374 155.738C80.2238 155.826 80.1439 155.919 80.0977 156.018L79.7 155.876C79.771 155.711 79.8657 155.582 79.9841 155.489C80.1037 155.396 80.2339 155.331 80.3747 155.294C80.5168 155.256 80.6565 155.237 80.7938 155.237C80.8814 155.237 80.982 155.248 81.0956 155.269C81.2104 155.289 81.3211 155.331 81.4276 155.395C81.5354 155.459 81.6247 155.556 81.6958 155.685C81.7668 155.814 81.8023 155.987 81.8023 156.203V158H81.3833V157.631H81.3619C81.3335 157.69 81.2862 157.753 81.2199 157.821C81.1536 157.888 81.0654 157.946 80.9553 157.993C80.8453 158.04 80.7109 158.064 80.5523 158.064ZM80.6162 157.688C80.7819 157.688 80.9216 157.655 81.0352 157.59C81.1501 157.525 81.2365 157.441 81.2945 157.338C81.3537 157.235 81.3833 157.126 81.3833 157.013V156.629C81.3655 156.651 81.3264 156.67 81.2661 156.688C81.2069 156.704 81.1382 156.719 81.0601 156.732C80.9832 156.744 80.908 156.755 80.8346 156.764C80.7624 156.772 80.7038 156.78 80.6588 156.786C80.5499 156.8 80.4481 156.823 80.3534 156.855C80.2599 156.886 80.1842 156.932 80.1262 156.995C80.0693 157.057 80.0409 157.141 80.0409 157.247C80.0409 157.393 80.0948 157.503 80.2025 157.577C80.3114 157.651 80.4493 157.688 80.6162 157.688ZM82.9862 156.359V158H82.5671V155.273H82.9719V155.699H83.0075C83.0714 155.56 83.1684 155.449 83.2987 155.365C83.4289 155.28 83.5969 155.237 83.8029 155.237C83.9876 155.237 84.1491 155.275 84.2876 155.351C84.4261 155.425 84.5339 155.539 84.6108 155.692C84.6877 155.843 84.7262 156.035 84.7262 156.267V158H84.3072V156.295C84.3072 156.081 84.2515 155.914 84.1403 155.795C84.029 155.674 83.8763 155.614 83.6822 155.614C83.5484 155.614 83.4289 155.643 83.3235 155.701C83.2193 155.759 83.1371 155.843 83.0767 155.955C83.0163 156.066 82.9862 156.201 82.9862 156.359Z" fill="#DE6B48"/>
<path d="M34.9014 108.364V112H34.4611V108.825H34.4398L33.552 109.415V108.967L34.4611 108.364H34.9014ZM37.1546 112.05C37.0055 112.047 36.8563 112.019 36.7072 111.964C36.558 111.91 36.4219 111.818 36.2988 111.689C36.1757 111.559 36.0768 111.383 36.0023 111.162C35.9277 110.939 35.8904 110.66 35.8904 110.324C35.8904 110.002 35.9206 109.717 35.981 109.468C36.0413 109.218 36.1289 109.008 36.2437 108.838C36.3586 108.666 36.4971 108.536 36.6592 108.447C36.8226 108.358 37.0066 108.314 37.2114 108.314C37.415 108.314 37.5961 108.355 37.7547 108.436C37.9146 108.517 38.0448 108.629 38.1454 108.774C38.246 108.918 38.3111 109.085 38.3407 109.273H37.9074C37.8672 109.109 37.7891 108.974 37.6731 108.866C37.5571 108.758 37.4032 108.705 37.2114 108.705C36.9297 108.705 36.7078 108.827 36.5456 109.072C36.3846 109.317 36.3035 109.661 36.3023 110.104H36.3307C36.397 110.003 36.4757 109.917 36.5669 109.846C36.6592 109.774 36.761 109.718 36.8723 109.679C36.9836 109.64 37.1013 109.621 37.2256 109.621C37.434 109.621 37.6245 109.673 37.7974 109.777C37.9702 109.88 38.1087 110.023 38.2128 110.205C38.317 110.386 38.3691 110.594 38.3691 110.828C38.3691 111.053 38.3188 111.259 38.2182 111.446C38.1176 111.632 37.9761 111.78 37.7938 111.89C37.6127 111.999 37.3996 112.052 37.1546 112.05ZM37.1546 111.659C37.3038 111.659 37.4375 111.622 37.5559 111.547C37.6754 111.473 37.7695 111.373 37.8382 111.247C37.908 111.122 37.943 110.982 37.943 110.828C37.943 110.678 37.9092 110.541 37.8418 110.418C37.7755 110.294 37.6837 110.195 37.5665 110.121C37.4505 110.048 37.318 110.011 37.1688 110.011C37.0564 110.011 36.9516 110.034 36.8545 110.079C36.7575 110.123 36.6722 110.183 36.5989 110.26C36.5266 110.337 36.4698 110.425 36.4284 110.525C36.387 110.623 36.3663 110.726 36.3663 110.835C36.3663 110.98 36.4 111.115 36.4675 111.24C36.5361 111.366 36.6296 111.467 36.748 111.544C36.8676 111.621 37.0031 111.659 37.1546 111.659ZM40.921 111.318V111.126C40.921 110.994 40.9483 110.873 41.0027 110.762C41.0583 110.651 41.1388 110.562 41.2442 110.496C41.3507 110.429 41.4797 110.395 41.6313 110.395C41.7851 110.395 41.9142 110.429 42.0183 110.496C42.1225 110.562 42.2012 110.651 42.2545 110.762C42.3078 110.873 42.3344 110.994 42.3344 111.126V111.318C42.3344 111.451 42.3072 111.573 42.2527 111.684C42.1994 111.794 42.1201 111.883 42.0148 111.95C41.9106 112.017 41.7828 112.05 41.6313 112.05C41.4774 112.05 41.3478 112.017 41.2424 111.95C41.1371 111.883 41.0572 111.794 41.0027 111.684C40.9483 111.573 40.921 111.451 40.921 111.318ZM41.2832 111.126V111.318C41.2832 111.428 41.3093 111.527 41.3614 111.615C41.4135 111.701 41.5034 111.744 41.6313 111.744C41.7555 111.744 41.8431 111.701 41.894 111.615C41.9461 111.527 41.9722 111.428 41.9722 111.318V111.126C41.9722 111.016 41.9473 110.918 41.8976 110.832C41.8479 110.744 41.7591 110.7 41.6313 110.7C41.507 110.7 41.4176 110.744 41.3631 110.832C41.3099 110.918 41.2832 111.016 41.2832 111.126ZM39.11 109.237V109.045C39.11 108.913 39.1372 108.792 39.1916 108.681C39.2473 108.57 39.3278 108.481 39.4331 108.415C39.5396 108.348 39.6687 108.314 39.8202 108.314C39.9741 108.314 40.1031 108.348 40.2073 108.415C40.3114 108.481 40.3901 108.57 40.4434 108.681C40.4967 108.792 40.5233 108.913 40.5233 109.045V109.237C40.5233 109.37 40.4961 109.492 40.4416 109.603C40.3884 109.713 40.3091 109.802 40.2037 109.869C40.0995 109.936 39.9717 109.969 39.8202 109.969C39.6663 109.969 39.5367 109.936 39.4313 109.869C39.326 109.802 39.2461 109.713 39.1916 109.603C39.1372 109.492 39.11 109.37 39.11 109.237ZM39.4722 109.045V109.237C39.4722 109.347 39.4982 109.446 39.5503 109.534C39.6024 109.62 39.6923 109.663 39.8202 109.663C39.9445 109.663 40.0321 109.62 40.083 109.534C40.135 109.446 40.1611 109.347 40.1611 109.237V109.045C40.1611 108.935 40.1362 108.837 40.0865 108.751C40.0368 108.663 39.948 108.619 39.8202 108.619C39.6959 108.619 39.6065 108.663 39.5521 108.751C39.4988 108.837 39.4722 108.935 39.4722 109.045ZM39.2449 112L41.7449 108.364H42.1497L39.6497 112H39.2449ZM27.415 118V114.364H27.8553V115.983H29.7942V114.364H30.2346V118H29.7942V116.374H27.8553V118H27.415ZM31.0593 118V115.273H31.4783V118H31.0593ZM31.2724 114.818C31.1907 114.818 31.1203 114.79 31.0611 114.735C31.0031 114.679 30.9741 114.612 30.9741 114.534C30.9741 114.456 31.0031 114.389 31.0611 114.333C31.1203 114.278 31.1907 114.25 31.2724 114.25C31.354 114.25 31.4239 114.278 31.4819 114.333C31.5411 114.389 31.5707 114.456 31.5707 114.534C31.5707 114.612 31.5411 114.679 31.4819 114.735C31.4239 114.79 31.354 114.818 31.2724 114.818ZM34.1776 115.884L33.8012 115.99C33.7776 115.927 33.7426 115.866 33.6965 115.807C33.6515 115.747 33.5899 115.697 33.5118 115.658C33.4337 115.619 33.3337 115.599 33.2117 115.599C33.0448 115.599 32.9057 115.638 32.7945 115.715C32.6844 115.791 32.6294 115.887 32.6294 116.004C32.6294 116.108 32.6672 116.191 32.743 116.251C32.8187 116.311 32.9371 116.362 33.0981 116.402L33.5029 116.501C33.7468 116.561 33.9285 116.651 34.048 116.773C34.1676 116.894 34.2274 117.049 34.2274 117.24C34.2274 117.396 34.1824 117.536 34.0924 117.659C34.0036 117.782 33.8794 117.879 33.7195 117.95C33.5597 118.021 33.3739 118.057 33.162 118.057C32.8838 118.057 32.6536 117.996 32.4713 117.876C32.289 117.755 32.1736 117.579 32.1251 117.347L32.5228 117.247C32.5607 117.394 32.6323 117.504 32.7377 117.577C32.8442 117.651 32.9833 117.688 33.1549 117.688C33.3502 117.688 33.5053 117.646 33.6201 117.563C33.7361 117.479 33.7941 117.379 33.7941 117.261C33.7941 117.167 33.761 117.087 33.6947 117.023C33.6284 116.958 33.5266 116.91 33.3893 116.878L32.9347 116.771C32.685 116.712 32.5015 116.62 32.3843 116.496C32.2683 116.371 32.2103 116.214 32.2103 116.026C32.2103 115.872 32.2535 115.736 32.3399 115.617C32.4275 115.499 32.5465 115.406 32.6968 115.338C32.8483 115.271 33.02 115.237 33.2117 115.237C33.4816 115.237 33.6935 115.296 33.8474 115.415C34.0025 115.533 34.1125 115.689 34.1776 115.884ZM34.8581 119.023V115.273H35.263V115.706H35.3127C35.3435 115.659 35.3861 115.598 35.4405 115.525C35.4962 115.45 35.5755 115.384 35.6784 115.326C35.7826 115.267 35.9235 115.237 36.101 115.237C36.3307 115.237 36.5331 115.295 36.7083 115.409C36.8835 115.524 37.0202 115.687 37.1184 115.898C37.2167 116.108 37.2658 116.357 37.2658 116.643C37.2658 116.932 37.2167 117.183 37.1184 117.395C37.0202 117.605 36.8841 117.769 36.71 117.885C36.536 117.999 36.3354 118.057 36.1081 118.057C35.9329 118.057 35.7927 118.028 35.6873 117.97C35.582 117.911 35.5009 117.844 35.4441 117.769C35.3873 117.693 35.3435 117.631 35.3127 117.581H35.2772V119.023H34.8581ZM35.2701 116.636C35.2701 116.842 35.3002 117.024 35.3606 117.181C35.421 117.338 35.5092 117.46 35.6252 117.549C35.7412 117.637 35.8832 117.68 36.0513 117.68C36.2265 117.68 36.3727 117.634 36.4899 117.542C36.6083 117.448 36.697 117.323 36.7562 117.165C36.8166 117.007 36.8468 116.83 36.8468 116.636C36.8468 116.445 36.8172 116.272 36.758 116.118C36.7 115.963 36.6118 115.84 36.4934 115.75C36.3762 115.659 36.2289 115.614 36.0513 115.614C35.8809 115.614 35.7376 115.657 35.6216 115.743C35.5056 115.828 35.418 115.948 35.3588 116.102C35.2997 116.255 35.2701 116.433 35.2701 116.636ZM38.7076 118.064C38.5347 118.064 38.3779 118.031 38.237 117.966C38.0962 117.9 37.9843 117.805 37.9015 117.68C37.8186 117.555 37.7772 117.403 37.7772 117.226C37.7772 117.07 37.8079 116.943 37.8695 116.846C37.931 116.748 38.0133 116.671 38.1163 116.615C38.2193 116.559 38.3329 116.518 38.4572 116.491C38.5827 116.462 38.7087 116.44 38.8354 116.423C39.0011 116.402 39.1355 116.386 39.2385 116.375C39.3426 116.364 39.4184 116.344 39.4657 116.317C39.5143 116.29 39.5385 116.242 39.5385 116.175V116.161C39.5385 115.985 39.4906 115.849 39.3947 115.752C39.3 115.655 39.1562 115.607 38.9632 115.607C38.7632 115.607 38.6064 115.65 38.4927 115.738C38.3791 115.826 38.2992 115.919 38.253 116.018L37.8553 115.876C37.9263 115.711 38.021 115.582 38.1394 115.489C38.2589 115.396 38.3891 115.331 38.53 115.294C38.6721 115.256 38.8117 115.237 38.949 115.237C39.0366 115.237 39.1373 115.248 39.2509 115.269C39.3657 115.289 39.4764 115.331 39.5829 115.395C39.6906 115.459 39.78 115.556 39.851 115.685C39.9221 115.814 39.9576 115.987 39.9576 116.203V118H39.5385V117.631H39.5172C39.4888 117.69 39.4415 117.753 39.3752 117.821C39.3089 117.888 39.2207 117.946 39.1106 117.993C39.0005 118.04 38.8662 118.064 38.7076 118.064ZM38.7715 117.688C38.9372 117.688 39.0769 117.655 39.1905 117.59C39.3053 117.525 39.3917 117.441 39.4498 117.338C39.5089 117.235 39.5385 117.126 39.5385 117.013V116.629C39.5208 116.651 39.4817 116.67 39.4213 116.688C39.3622 116.704 39.2935 116.719 39.2154 116.732C39.1384 116.744 39.0633 116.755 38.9899 116.764C38.9177 116.772 38.8591 116.78 38.8141 116.786C38.7052 116.8 38.6034 116.823 38.5087 116.855C38.4152 116.886 38.3394 116.932 38.2814 116.995C38.2246 117.057 38.1962 117.141 38.1962 117.247C38.1962 117.393 38.2501 117.503 38.3578 117.577C38.4667 117.651 38.6046 117.688 38.7715 117.688ZM41.1414 116.359V118H40.7224V115.273H41.1272V115.699H41.1627C41.2267 115.56 41.3237 115.449 41.4539 115.365C41.5841 115.28 41.7522 115.237 41.9582 115.237C42.1428 115.237 42.3044 115.275 42.4429 115.351C42.5814 115.425 42.6891 115.539 42.7661 115.692C42.843 115.843 42.8815 116.035 42.8815 116.267V118H42.4624V116.295C42.4624 116.081 42.4068 115.914 42.2955 115.795C42.1843 115.674 42.0316 115.614 41.8374 115.614C41.7037 115.614 41.5841 115.643 41.4788 115.701C41.3746 115.759 41.2923 115.843 41.232 115.955C41.1716 116.066 41.1414 116.201 41.1414 116.359ZM43.6472 118V115.273H44.0662V118H43.6472ZM43.8603 114.818C43.7786 114.818 43.7082 114.79 43.649 114.735C43.591 114.679 43.562 114.612 43.562 114.534C43.562 114.456 43.591 114.389 43.649 114.333C43.7082 114.278 43.7786 114.25 43.8603 114.25C43.9419 114.25 44.0118 114.278 44.0698 114.333C44.129 114.389 44.1586 114.456 44.1586 114.534C44.1586 114.612 44.129 114.679 44.0698 114.735C44.0118 114.79 43.9419 114.818 43.8603 114.818ZM45.9417 118.057C45.686 118.057 45.4658 117.996 45.2812 117.876C45.0965 117.755 44.9545 117.589 44.855 117.377C44.7556 117.165 44.7059 116.923 44.7059 116.651C44.7059 116.374 44.7568 116.129 44.8586 115.917C44.9616 115.704 45.1048 115.538 45.2883 115.418C45.4729 115.298 45.6884 115.237 45.9346 115.237C46.1263 115.237 46.2992 115.273 46.453 115.344C46.6069 115.415 46.733 115.514 46.8312 115.642C46.9295 115.77 46.9904 115.919 47.0141 116.089H46.5951C46.5631 115.965 46.4921 115.855 46.382 115.759C46.2731 115.662 46.1263 115.614 45.9417 115.614C45.7783 115.614 45.6351 115.656 45.512 115.741C45.3901 115.826 45.2948 115.944 45.2261 116.098C45.1586 116.251 45.1249 116.43 45.1249 116.636C45.1249 116.847 45.1581 117.031 45.2243 117.187C45.2918 117.343 45.3865 117.464 45.5084 117.551C45.6315 117.637 45.776 117.68 45.9417 117.68C46.0506 117.68 46.1494 117.661 46.2382 117.624C46.327 117.586 46.4021 117.531 46.4637 117.46C46.5252 117.389 46.569 117.304 46.5951 117.205H47.0141C46.9904 117.366 46.9318 117.511 46.8383 117.64C46.746 117.767 46.6235 117.869 46.4708 117.945C46.3193 118.02 46.1429 118.057 45.9417 118.057ZM48.9122 114.193L47.7403 118.547H47.3568L48.5287 114.193H48.9122ZM31.1698 124V120.364H31.6102V123.609H33.3005V124H31.1698ZM34.7281 124.064C34.5552 124.064 34.3984 124.031 34.2575 123.966C34.1167 123.9 34.0048 123.805 33.922 123.68C33.8391 123.555 33.7977 123.403 33.7977 123.226C33.7977 123.07 33.8285 122.943 33.89 122.846C33.9516 122.748 34.0338 122.671 34.1368 122.615C34.2398 122.559 34.3534 122.518 34.4777 122.491C34.6032 122.462 34.7293 122.44 34.8559 122.423C35.0216 122.402 35.156 122.386 35.259 122.375C35.3631 122.364 35.4389 122.344 35.4862 122.317C35.5348 122.29 35.559 122.242 35.559 122.175V122.161C35.559 121.985 35.5111 121.849 35.4152 121.752C35.3205 121.655 35.1767 121.607 34.9838 121.607C34.7837 121.607 34.6269 121.65 34.5132 121.738C34.3996 121.826 34.3197 121.919 34.2735 122.018L33.8758 121.876C33.9468 121.711 34.0415 121.582 34.1599 121.489C34.2794 121.396 34.4097 121.331 34.5505 121.294C34.6926 121.256 34.8322 121.237 34.9695 121.237C35.0571 121.237 35.1578 121.248 35.2714 121.269C35.3862 121.289 35.4969 121.331 35.6034 121.395C35.7111 121.459 35.8005 121.556 35.8715 121.685C35.9426 121.814 35.9781 121.987 35.9781 122.203V124H35.559V123.631H35.5377C35.5093 123.69 35.462 123.753 35.3957 123.821C35.3294 123.888 35.2412 123.946 35.1311 123.993C35.021 124.04 34.8867 124.064 34.7281 124.064ZM34.792 123.688C34.9577 123.688 35.0974 123.655 35.211 123.59C35.3258 123.525 35.4123 123.441 35.4703 123.338C35.5294 123.235 35.559 123.126 35.559 123.013V122.629C35.5413 122.651 35.5022 122.67 35.4419 122.688C35.3827 122.704 35.314 122.719 35.2359 122.732C35.1589 122.744 35.0838 122.755 35.0104 122.764C34.9382 122.772 34.8796 122.78 34.8346 122.786C34.7257 122.8 34.6239 122.823 34.5292 122.855C34.4357 122.886 34.3599 122.932 34.3019 122.995C34.2451 123.057 34.2167 123.141 34.2167 123.247C34.2167 123.393 34.2706 123.503 34.3783 123.577C34.4872 123.651 34.6251 123.688 34.792 123.688ZM37.929 121.273V121.628H36.5156V121.273H37.929ZM36.9276 120.619H37.3466V123.219C37.3466 123.337 37.3638 123.426 37.3981 123.485C37.4336 123.543 37.4786 123.582 37.533 123.602C37.5887 123.621 37.6473 123.631 37.7088 123.631C37.755 123.631 37.7929 123.628 37.8224 123.624C37.852 123.618 37.8757 123.613 37.8935 123.609L37.9787 123.986C37.9503 123.996 37.9106 124.007 37.8597 124.018C37.8088 124.03 37.7443 124.036 37.6662 124.036C37.5478 124.036 37.4318 124.01 37.3182 123.959C37.2057 123.908 37.1122 123.831 37.0376 123.727C36.9643 123.622 36.9276 123.491 36.9276 123.332V120.619ZM38.5593 124V121.273H38.9783V124H38.5593ZM38.7724 120.818C38.6907 120.818 38.6203 120.79 38.5611 120.735C38.5031 120.679 38.4741 120.612 38.4741 120.534C38.4741 120.456 38.5031 120.389 38.5611 120.333C38.6203 120.278 38.6907 120.25 38.7724 120.25C38.854 120.25 38.9239 120.278 38.9819 120.333C39.0411 120.389 39.0707 120.456 39.0707 120.534C39.0707 120.612 39.0411 120.679 38.9819 120.735C38.9239 120.79 38.854 120.818 38.7724 120.818ZM40.1649 122.359V124H39.7458V121.273H40.1507V121.699H40.1862C40.2501 121.56 40.3472 121.449 40.4774 121.365C40.6076 121.28 40.7757 121.237 40.9816 121.237C41.1663 121.237 41.3279 121.275 41.4664 121.351C41.6048 121.425 41.7126 121.539 41.7895 121.692C41.8664 121.843 41.9049 122.035 41.9049 122.267V124H41.4859V122.295C41.4859 122.081 41.4302 121.914 41.319 121.795C41.2077 121.674 41.055 121.614 40.8609 121.614C40.7271 121.614 40.6076 121.643 40.5022 121.701C40.3981 121.759 40.3158 121.843 40.2554 121.955C40.195 122.066 40.1649 122.201 40.1649 122.359ZM43.7786 124.057C43.5324 124.057 43.3163 123.998 43.1305 123.881C42.9458 123.764 42.8014 123.6 42.6973 123.389C42.5943 123.179 42.5428 122.932 42.5428 122.651C42.5428 122.366 42.5943 122.118 42.6973 121.907C42.8014 121.695 42.9458 121.53 43.1305 121.413C43.3163 121.296 43.5324 121.237 43.7786 121.237C44.0248 121.237 44.2402 121.296 44.4249 121.413C44.6107 121.53 44.7551 121.695 44.8581 121.907C44.9623 122.118 45.0144 122.366 45.0144 122.651C45.0144 122.932 44.9623 123.179 44.8581 123.389C44.7551 123.6 44.6107 123.764 44.4249 123.881C44.2402 123.998 44.0248 124.057 43.7786 124.057ZM43.7786 123.68C43.9656 123.68 44.1195 123.632 44.2402 123.537C44.361 123.441 44.4503 123.315 44.5083 123.158C44.5663 123.002 44.5953 122.833 44.5953 122.651C44.5953 122.468 44.5663 122.298 44.5083 122.141C44.4503 121.984 44.361 121.856 44.2402 121.759C44.1195 121.662 43.9656 121.614 43.7786 121.614C43.5916 121.614 43.4377 121.662 43.3169 121.759C43.1962 121.856 43.1068 121.984 43.0488 122.141C42.9908 122.298 42.9618 122.468 42.9618 122.651C42.9618 122.833 42.9908 123.002 43.0488 123.158C43.1068 123.315 43.1962 123.441 43.3169 123.537C43.4377 123.632 43.5916 123.68 43.7786 123.68Z" fill="#FFF0D1"/>
<path d="M44.269 51V50.6804L45.4693 49.3665C45.6101 49.2126 45.7261 49.0788 45.8173 48.9652C45.9084 48.8504 45.9759 48.7427 46.0197 48.642C46.0647 48.5402 46.0872 48.4337 46.0872 48.3224C46.0872 48.1946 46.0564 48.0839 45.9949 47.9904C45.9345 47.8969 45.8516 47.8247 45.7463 47.7738C45.6409 47.7229 45.5225 47.6974 45.3912 47.6974C45.2515 47.6974 45.1296 47.7264 45.0254 47.7844C44.9224 47.8413 44.8425 47.9212 44.7857 48.0241C44.7301 48.1271 44.7022 48.2479 44.7022 48.3864H44.2832C44.2832 48.1733 44.3323 47.9863 44.4306 47.8253C44.5288 47.6643 44.6626 47.5388 44.8319 47.4489C45.0023 47.3589 45.1935 47.3139 45.4054 47.3139C45.6184 47.3139 45.8072 47.3589 45.9718 47.4489C46.1363 47.5388 46.2653 47.6602 46.3588 47.8129C46.4524 47.9656 46.4991 48.1354 46.4991 48.3224C46.4991 48.4562 46.4748 48.587 46.4263 48.7148C46.379 48.8415 46.2961 48.983 46.1777 49.1392C46.0605 49.2943 45.8978 49.4837 45.6895 49.7074L44.8727 50.581V50.6094H46.563V51H44.269ZM48.4824 51.0497C48.2149 51.0497 47.987 50.9769 47.7988 50.8313C47.6106 50.6845 47.4668 50.4721 47.3674 50.1939C47.2679 49.9145 47.2182 49.5772 47.2182 49.1818C47.2182 48.7888 47.2679 48.4532 47.3674 48.1751C47.468 47.8957 47.6124 47.6826 47.8006 47.5359C47.99 47.3879 48.2173 47.3139 48.4824 47.3139C48.7476 47.3139 48.9743 47.3879 49.1625 47.5359C49.3519 47.6826 49.4963 47.8957 49.5957 48.1751C49.6963 48.4532 49.7466 48.7888 49.7466 49.1818C49.7466 49.5772 49.6969 49.9145 49.5975 50.1939C49.498 50.4721 49.3542 50.6845 49.166 50.8313C48.9778 50.9769 48.7499 51.0497 48.4824 51.0497ZM48.4824 50.6591C48.7476 50.6591 48.9535 50.5312 49.1003 50.2756C49.2471 50.0199 49.3205 49.6553 49.3205 49.1818C49.3205 48.867 49.2868 48.5988 49.2193 48.3775C49.153 48.1561 49.0571 47.9875 48.9316 47.8714C48.8074 47.7554 48.6576 47.6974 48.4824 47.6974C48.2196 47.6974 48.0143 47.8271 47.8663 48.0863C47.7183 48.3443 47.6444 48.7095 47.6444 49.1818C47.6444 49.4967 47.6775 49.7642 47.7438 49.9844C47.8101 50.2045 47.9054 50.372 48.0297 50.4869C48.1551 50.6017 48.306 50.6591 48.4824 50.6591ZM52.275 50.3182V50.1264C52.275 49.9938 52.3023 49.8725 52.3567 49.7624C52.4123 49.6512 52.4928 49.5624 52.5982 49.4961C52.7047 49.4286 52.8337 49.3949 52.9853 49.3949C53.1391 49.3949 53.2682 49.4286 53.3723 49.4961C53.4765 49.5624 53.5552 49.6512 53.6085 49.7624C53.6618 49.8725 53.6884 49.9938 53.6884 50.1264V50.3182C53.6884 50.4508 53.6612 50.5727 53.6067 50.6839C53.5534 50.794 53.4741 50.8828 53.3688 50.9503C53.2646 51.0166 53.1368 51.0497 52.9853 51.0497C52.8314 51.0497 52.7018 51.0166 52.5964 50.9503C52.4911 50.8828 52.4112 50.794 52.3567 50.6839C52.3023 50.5727 52.275 50.4508 52.275 50.3182ZM52.6373 50.1264V50.3182C52.6373 50.4283 52.6633 50.5271 52.7154 50.6147C52.7675 50.7011 52.8574 50.7443 52.9853 50.7443C53.1096 50.7443 53.1971 50.7011 53.248 50.6147C53.3001 50.5271 53.3262 50.4283 53.3262 50.3182V50.1264C53.3262 50.0163 53.3013 49.9181 53.2516 49.8317C53.2019 49.7441 53.1131 49.7003 52.9853 49.7003C52.861 49.7003 52.7716 49.7441 52.7172 49.8317C52.6639 49.9181 52.6373 50.0163 52.6373 50.1264ZM50.464 48.2372V48.0455C50.464 47.9129 50.4912 47.7915 50.5456 47.6815C50.6013 47.5702 50.6818 47.4814 50.7871 47.4151C50.8936 47.3477 51.0227 47.3139 51.1742 47.3139C51.3281 47.3139 51.4571 47.3477 51.5613 47.4151C51.6654 47.4814 51.7441 47.5702 51.7974 47.6815C51.8507 47.7915 51.8773 47.9129 51.8773 48.0455V48.2372C51.8773 48.3698 51.8501 48.4917 51.7956 48.603C51.7424 48.7131 51.6631 48.8018 51.5577 48.8693C51.4535 48.9356 51.3257 48.9688 51.1742 48.9688C51.0203 48.9688 50.8907 48.9356 50.7853 48.8693C50.68 48.8018 50.6001 48.7131 50.5456 48.603C50.4912 48.4917 50.464 48.3698 50.464 48.2372ZM50.8262 48.0455V48.2372C50.8262 48.3473 50.8522 48.4461 50.9043 48.5337C50.9564 48.6201 51.0463 48.6634 51.1742 48.6634C51.2985 48.6634 51.3861 48.6201 51.437 48.5337C51.4891 48.4461 51.5151 48.3473 51.5151 48.2372V48.0455C51.5151 47.9354 51.4902 47.8371 51.4405 47.7507C51.3908 47.6631 51.302 47.6193 51.1742 47.6193C51.0499 47.6193 50.9605 47.6631 50.9061 47.7507C50.8528 47.8371 50.8262 47.9354 50.8262 48.0455ZM50.5989 51L53.0989 47.3636H53.5037L51.0037 51H50.5989ZM43.1295 57H42.6679L44.0031 53.3636H44.4577L45.7929 57H45.3312L44.2446 53.9389H44.2162L43.1295 57ZM43.3 55.5795H45.1608V55.9702H43.3V55.5795ZM48.2343 54.8835L47.8579 54.9901C47.8342 54.9273 47.7993 54.8664 47.7531 54.8072C47.7081 54.7468 47.6466 54.6971 47.5684 54.658C47.4903 54.619 47.3903 54.5994 47.2684 54.5994C47.1015 54.5994 46.9624 54.6379 46.8511 54.7148C46.741 54.7906 46.686 54.8871 46.686 55.0043C46.686 55.1084 46.7239 55.1907 46.7996 55.2511C46.8754 55.3114 46.9938 55.3617 47.1547 55.402L47.5596 55.5014C47.8034 55.5606 47.9851 55.6512 48.1047 55.7731C48.2242 55.8938 48.284 56.0495 48.284 56.2401C48.284 56.3963 48.239 56.536 48.1491 56.6591C48.0603 56.7822 47.936 56.8793 47.7762 56.9503C47.6164 57.0213 47.4305 57.0568 47.2187 57.0568C46.9405 57.0568 46.7103 56.9964 46.528 56.8757C46.3457 56.755 46.2303 56.5786 46.1817 56.3466L46.5795 56.2472C46.6173 56.3939 46.689 56.504 46.7943 56.5774C46.9008 56.6508 47.0399 56.6875 47.2116 56.6875C47.4069 56.6875 47.5619 56.6461 47.6768 56.5632C47.7928 56.4792 47.8508 56.3786 47.8508 56.2614C47.8508 56.1667 47.8176 56.0874 47.7513 56.0234C47.685 55.9583 47.5832 55.9098 47.4459 55.8778L46.9914 55.7713C46.7416 55.7121 46.5581 55.6204 46.441 55.4961C46.325 55.3706 46.267 55.2138 46.267 55.0256C46.267 54.8717 46.3102 54.7356 46.3966 54.6172C46.4842 54.4988 46.6031 54.4059 46.7535 54.3384C46.905 54.271 47.0766 54.2372 47.2684 54.2372C47.5383 54.2372 47.7501 54.2964 47.904 54.4148C48.0591 54.5331 48.1692 54.6894 48.2343 54.8835ZM48.9148 57V54.2727H49.3338V57H48.9148ZM49.1278 53.8182C49.0462 53.8182 48.9757 53.7904 48.9165 53.7347C48.8585 53.6791 48.8295 53.6122 48.8295 53.5341C48.8295 53.456 48.8585 53.3891 48.9165 53.3335C48.9757 53.2778 49.0462 53.25 49.1278 53.25C49.2095 53.25 49.2794 53.2778 49.3374 53.3335C49.3965 53.3891 49.4261 53.456 49.4261 53.5341C49.4261 53.6122 49.3965 53.6791 49.3374 53.7347C49.2794 53.7904 49.2095 53.8182 49.1278 53.8182ZM50.9039 57.0639C50.731 57.0639 50.5742 57.0314 50.4333 56.9663C50.2925 56.9 50.1806 56.8047 50.0977 56.6804C50.0149 56.5549 49.9735 56.4034 49.9735 56.2259C49.9735 56.0696 50.0042 55.9429 50.0658 55.8459C50.1273 55.7476 50.2096 55.6707 50.3126 55.6151C50.4156 55.5594 50.5292 55.518 50.6535 55.4908C50.779 55.4624 50.905 55.4399 51.0317 55.4233C51.1974 55.402 51.3318 55.386 51.4347 55.3754C51.5389 55.3635 51.6147 55.344 51.662 55.3168C51.7106 55.2895 51.7348 55.2422 51.7348 55.1747V55.1605C51.7348 54.9853 51.6869 54.8492 51.591 54.7521C51.4963 54.6551 51.3525 54.6065 51.1595 54.6065C50.9595 54.6065 50.8026 54.6503 50.689 54.7379C50.5754 54.8255 50.4955 54.919 50.4493 55.0185L50.0516 54.8764C50.1226 54.7107 50.2173 54.5817 50.3357 54.4893C50.4552 54.3958 50.5854 54.3307 50.7263 54.294C50.8683 54.2562 51.008 54.2372 51.1453 54.2372C51.2329 54.2372 51.3335 54.2479 51.4472 54.2692C51.562 54.2893 51.6727 54.3313 51.7792 54.3952C51.8869 54.4592 51.9763 54.5556 52.0473 54.6847C52.1183 54.8137 52.1539 54.9865 52.1539 55.2031V57H51.7348V56.6307H51.7135C51.6851 56.6899 51.6378 56.7532 51.5715 56.8207C51.5052 56.8881 51.417 56.9455 51.3069 56.9929C51.1968 57.0402 51.0625 57.0639 50.9039 57.0639ZM50.9678 56.6875C51.1335 56.6875 51.2732 56.6549 51.3868 56.5898C51.5016 56.5247 51.588 56.4407 51.646 56.3377C51.7052 56.2347 51.7348 56.1264 51.7348 56.0128V55.6293C51.7171 55.6506 51.678 55.6701 51.6176 55.6879C51.5584 55.7044 51.4898 55.7192 51.4117 55.7322C51.3347 55.7441 51.2596 55.7547 51.1862 55.7642C51.114 55.7725 51.0554 55.7796 51.0104 55.7855C50.9015 55.7997 50.7997 55.8228 50.705 55.8548C50.6115 55.8855 50.5357 55.9323 50.4777 55.995C50.4209 56.0566 50.3925 56.1406 50.3925 56.2472C50.3925 56.3928 50.4463 56.5028 50.5541 56.5774C50.663 56.6508 50.8009 56.6875 50.9678 56.6875ZM53.3377 55.3594V57H52.9187V54.2727H53.3235V54.6989H53.359C53.4229 54.5604 53.52 54.4491 53.6502 54.3651C53.7804 54.2798 53.9485 54.2372 54.1545 54.2372C54.3391 54.2372 54.5007 54.2751 54.6392 54.3509C54.7777 54.4254 54.8854 54.5391 54.9624 54.6918C55.0393 54.8433 55.0778 55.035 55.0778 55.267V57H54.6587V55.2955C54.6587 55.0812 54.6031 54.9143 54.4918 54.7947C54.3806 54.674 54.2279 54.6136 54.0337 54.6136C53.9 54.6136 53.7804 54.6426 53.6751 54.7006C53.5709 54.7586 53.4886 54.8433 53.4283 54.9545C53.3679 55.0658 53.3377 55.2008 53.3377 55.3594Z" fill="#DE6B48"/>
<path d="M84.2764 0.182185C86.1766 0.0610913 88.0802 0.000332329 89.9843 0L90 90L84.2764 0.182185Z" fill="#511730"/>
<path d="M76.1559 33.2543V32.892L77.754 30.3636H78.0167V30.9247H77.8392L76.6318 32.8352V32.8636H78.7838V33.2543H76.1559ZM77.8676 34V33.1442V32.9755V30.3636H78.2866V34H77.8676ZM81.3029 33.3182V33.1264C81.3029 32.9938 81.3301 32.8725 81.3845 32.7624C81.4402 32.6512 81.5207 32.5624 81.626 32.4961C81.7326 32.4286 81.8616 32.3949 82.0131 32.3949C82.167 32.3949 82.296 32.4286 82.4002 32.4961C82.5043 32.5624 82.5831 32.6512 82.6363 32.7624C82.6896 32.8725 82.7162 32.9938 82.7162 33.1264V33.3182C82.7162 33.4508 82.689 33.5727 82.6345 33.6839C82.5813 33.794 82.502 33.8828 82.3966 33.9503C82.2925 34.0166 82.1646 34.0497 82.0131 34.0497C81.8592 34.0497 81.7296 34.0166 81.6242 33.9503C81.5189 33.8828 81.439 33.794 81.3845 33.6839C81.3301 33.5727 81.3029 33.4508 81.3029 33.3182ZM81.6651 33.1264V33.3182C81.6651 33.4283 81.6911 33.5271 81.7432 33.6147C81.7953 33.7011 81.8853 33.7443 82.0131 33.7443C82.1374 33.7443 82.225 33.7011 82.2759 33.6147C82.328 33.5271 82.354 33.4283 82.354 33.3182V33.1264C82.354 33.0163 82.3291 32.9181 82.2794 32.8317C82.2297 32.7441 82.1409 32.7003 82.0131 32.7003C81.8888 32.7003 81.7994 32.7441 81.745 32.8317C81.6917 32.9181 81.6651 33.0163 81.6651 33.1264ZM79.4918 31.2372V31.0455C79.4918 30.9129 79.519 30.7915 79.5735 30.6815C79.6291 30.5702 79.7096 30.4814 79.8149 30.4151C79.9215 30.3477 80.0505 30.3139 80.202 30.3139C80.3559 30.3139 80.4849 30.3477 80.5891 30.4151C80.6933 30.4814 80.772 30.5702 80.8252 30.6815C80.8785 30.7915 80.9051 30.9129 80.9051 31.0455V31.2372C80.9051 31.3698 80.8779 31.4917 80.8235 31.603C80.7702 31.7131 80.6909 31.8018 80.5855 31.8693C80.4814 31.9356 80.3535 31.9688 80.202 31.9688C80.0481 31.9688 79.9185 31.9356 79.8132 31.8693C79.7078 31.8018 79.6279 31.7131 79.5735 31.603C79.519 31.4917 79.4918 31.3698 79.4918 31.2372ZM79.854 31.0455V31.2372C79.854 31.3473 79.88 31.4461 79.9321 31.5337C79.9842 31.6201 80.0742 31.6634 80.202 31.6634C80.3263 31.6634 80.4139 31.6201 80.4648 31.5337C80.5169 31.4461 80.5429 31.3473 80.5429 31.2372V31.0455C80.5429 30.9354 80.5181 30.8371 80.4684 30.7507C80.4186 30.6631 80.3299 30.6193 80.202 30.6193C80.0777 30.6193 79.9884 30.6631 79.9339 30.7507C79.8806 30.8371 79.854 30.9354 79.854 31.0455ZM79.6267 34L82.1267 30.3636H82.5316L80.0316 34H79.6267ZM71.6922 36.7543V36.3636H74.4194V36.7543H73.276V40H72.8356V36.7543H71.6922ZM75.3476 40L74.5166 37.2727H74.957L75.5465 39.3608H75.5749L76.1573 37.2727H76.6047L77.18 39.3537H77.2084L77.7979 37.2727H78.2382L77.4073 40H76.9953L76.3987 37.9048H76.3561L75.7595 40H75.3476ZM79.8074 40.0568C79.5612 40.0568 79.3452 39.9982 79.1593 39.881C78.9747 39.7638 78.8302 39.5999 78.7261 39.3892C78.6231 39.1785 78.5716 38.9323 78.5716 38.6506C78.5716 38.3665 78.6231 38.1185 78.7261 37.9066C78.8302 37.6947 78.9747 37.5302 79.1593 37.413C79.3452 37.2958 79.5612 37.2372 79.8074 37.2372C80.0536 37.2372 80.269 37.2958 80.4537 37.413C80.6395 37.5302 80.784 37.6947 80.8869 37.9066C80.9911 38.1185 81.0432 38.3665 81.0432 38.6506C81.0432 38.9323 80.9911 39.1785 80.8869 39.3892C80.784 39.5999 80.6395 39.7638 80.4537 39.881C80.269 39.9982 80.0536 40.0568 79.8074 40.0568ZM79.8074 39.6804C79.9944 39.6804 80.1483 39.6325 80.269 39.5366C80.3898 39.4407 80.4792 39.3146 80.5372 39.1584C80.5952 39.0021 80.6242 38.8329 80.6242 38.6506C80.6242 38.4683 80.5952 38.2984 80.5372 38.141C80.4792 37.9835 80.3898 37.8563 80.269 37.7592C80.1483 37.6622 79.9944 37.6136 79.8074 37.6136C79.6204 37.6136 79.4665 37.6622 79.3457 37.7592C79.225 37.8563 79.1356 37.9835 79.0776 38.141C79.0196 38.2984 78.9906 38.4683 78.9906 38.6506C78.9906 38.8329 79.0196 39.0021 79.0776 39.1584C79.1356 39.3146 79.225 39.4407 79.3457 39.5366C79.4665 39.6325 79.6204 39.6804 79.8074 39.6804ZM84.197 40.0568C83.9508 40.0568 83.7348 39.9982 83.549 39.881C83.3643 39.7638 83.2199 39.5999 83.1157 39.3892C83.0127 39.1785 82.9612 38.9323 82.9612 38.6506C82.9612 38.3665 83.0127 38.1185 83.1157 37.9066C83.2199 37.6947 83.3643 37.5302 83.549 37.413C83.7348 37.2958 83.9508 37.2372 84.197 37.2372C84.4433 37.2372 84.6587 37.2958 84.8434 37.413C85.0292 37.5302 85.1736 37.6947 85.2766 37.9066C85.3808 38.1185 85.4328 38.3665 85.4328 38.6506C85.4328 38.9323 85.3808 39.1785 85.2766 39.3892C85.1736 39.5999 85.0292 39.7638 84.8434 39.881C84.6587 39.9982 84.4433 40.0568 84.197 40.0568ZM84.197 39.6804C84.3841 39.6804 84.538 39.6325 84.6587 39.5366C84.7794 39.4407 84.8688 39.3146 84.9268 39.1584C84.9848 39.0021 85.0138 38.8329 85.0138 38.6506C85.0138 38.4683 84.9848 38.2984 84.9268 38.141C84.8688 37.9835 84.7794 37.8563 84.6587 37.7592C84.538 37.6622 84.3841 37.6136 84.197 37.6136C84.01 37.6136 83.8561 37.6622 83.7354 37.7592C83.6147 37.8563 83.5253 37.9835 83.4673 38.141C83.4093 38.2984 83.3803 38.4683 83.3803 38.6506C83.3803 38.8329 83.4093 39.0021 83.4673 39.1584C83.5253 39.3146 83.6147 39.4407 83.7354 39.5366C83.8561 39.6325 84.01 39.6804 84.197 39.6804ZM86.0725 40V37.2727H86.4773V37.6847H86.5057C86.5554 37.5497 86.6454 37.4402 86.7756 37.3562C86.9058 37.2721 87.0526 37.2301 87.216 37.2301C87.2467 37.2301 87.2852 37.2307 87.3314 37.2319C87.3775 37.2331 87.4124 37.2348 87.4361 37.2372V37.6634C87.4219 37.6598 87.3894 37.6545 87.3385 37.6474C87.2888 37.6391 87.2361 37.6349 87.1804 37.6349C87.0479 37.6349 86.9295 37.6628 86.8253 37.7184C86.7223 37.7728 86.6407 37.8486 86.5803 37.9457C86.5211 38.0415 86.4915 38.151 86.4915 38.2741V40H86.0725ZM73.8752 46V43.2727H74.2801V43.6989H74.3156C74.3724 43.5533 74.4641 43.4402 74.5908 43.3597C74.7174 43.2781 74.8695 43.2372 75.0471 43.2372C75.227 43.2372 75.3768 43.2781 75.4963 43.3597C75.6171 43.4402 75.7112 43.5533 75.7786 43.6989H75.807C75.8769 43.558 75.9816 43.4461 76.1213 43.3633C76.261 43.2792 76.4285 43.2372 76.6238 43.2372C76.8676 43.2372 77.0671 43.3136 77.2222 43.4663C77.3772 43.6178 77.4548 43.8539 77.4548 44.1747V46H77.0357V44.1747C77.0357 43.9735 76.9807 43.8297 76.8706 43.7433C76.7605 43.6568 76.6309 43.6136 76.4818 43.6136C76.29 43.6136 76.1414 43.6716 76.0361 43.7876C75.9307 43.9025 75.8781 44.0481 75.8781 44.2244V46H75.4519V44.1321C75.4519 43.977 75.4016 43.8522 75.301 43.7575C75.2004 43.6616 75.0708 43.6136 74.9122 43.6136C74.8033 43.6136 74.7015 43.6426 74.6068 43.7006C74.5132 43.7586 74.4375 43.8391 74.3795 43.9421C74.3227 44.0439 74.2943 44.1617 74.2943 44.2955V46H73.8752ZM79.3289 46.0568C79.0827 46.0568 78.8666 45.9982 78.6808 45.881C78.4961 45.7638 78.3517 45.5999 78.2476 45.3892C78.1446 45.1785 78.0931 44.9323 78.0931 44.6506C78.0931 44.3665 78.1446 44.1185 78.2476 43.9066C78.3517 43.6947 78.4961 43.5302 78.6808 43.413C78.8666 43.2958 79.0827 43.2372 79.3289 43.2372C79.5751 43.2372 79.7905 43.2958 79.9752 43.413C80.161 43.5302 80.3054 43.6947 80.4084 43.9066C80.5126 44.1185 80.5647 44.3665 80.5647 44.6506C80.5647 44.9323 80.5126 45.1785 80.4084 45.3892C80.3054 45.5999 80.161 45.7638 79.9752 45.881C79.7905 45.9982 79.5751 46.0568 79.3289 46.0568ZM79.3289 45.6804C79.5159 45.6804 79.6698 45.6325 79.7905 45.5366C79.9113 45.4407 80.0006 45.3146 80.0586 45.1584C80.1166 45.0021 80.1456 44.8329 80.1456 44.6506C80.1456 44.4683 80.1166 44.2984 80.0586 44.141C80.0006 43.9835 79.9113 43.8563 79.7905 43.7592C79.6698 43.6622 79.5159 43.6136 79.3289 43.6136C79.1419 43.6136 78.988 43.6622 78.8672 43.7592C78.7465 43.8563 78.6571 43.9835 78.5991 44.141C78.5411 44.2984 78.5121 44.4683 78.5121 44.6506C78.5121 44.8329 78.5411 45.0021 78.5991 45.1584C78.6571 45.3146 78.7465 45.4407 78.8672 45.5366C78.988 45.6325 79.1419 45.6804 79.3289 45.6804ZM81.2043 46V43.2727H81.6092V43.6847H81.6376C81.6873 43.5497 81.7772 43.4402 81.9074 43.3562C82.0377 43.2721 82.1844 43.2301 82.3478 43.2301C82.3786 43.2301 82.417 43.2307 82.4632 43.2319C82.5094 43.2331 82.5443 43.2348 82.568 43.2372V43.6634C82.5538 43.6598 82.5212 43.6545 82.4703 43.6474C82.4206 43.6391 82.3679 43.6349 82.3123 43.6349C82.1797 43.6349 82.0613 43.6628 81.9572 43.7184C81.8542 43.7728 81.7725 43.8486 81.7121 43.9457C81.653 44.0415 81.6234 44.151 81.6234 44.2741V46H81.2043ZM84.1251 46.0568C83.8623 46.0568 83.6357 45.9988 83.4451 45.8828C83.2557 45.7656 83.1095 45.6023 83.0065 45.3928C82.9047 45.1821 82.8538 44.937 82.8538 44.6577C82.8538 44.3783 82.9047 44.1321 83.0065 43.919C83.1095 43.7048 83.2527 43.5379 83.4362 43.4183C83.6209 43.2976 83.8363 43.2372 84.0825 43.2372C84.2246 43.2372 84.3648 43.2609 84.5033 43.3082C84.6418 43.3556 84.7679 43.4325 84.8815 43.5391C84.9952 43.6444 85.0857 43.7841 85.1532 43.9581C85.2207 44.1321 85.2544 44.3464 85.2544 44.6009V44.7784H83.1521V44.4162H84.8283C84.8283 44.2623 84.7975 44.125 84.7359 44.0043C84.6756 43.8835 84.5891 43.7882 84.4767 43.7184C84.3654 43.6486 84.234 43.6136 84.0825 43.6136C83.9156 43.6136 83.7712 43.6551 83.6493 43.7379C83.5285 43.8196 83.4356 43.9261 83.3705 44.0575C83.3054 44.1889 83.2729 44.3298 83.2729 44.4801V44.7216C83.2729 44.9276 83.3084 45.1022 83.3794 45.2454C83.4516 45.3874 83.5516 45.4957 83.6795 45.5703C83.8073 45.6437 83.9559 45.6804 84.1251 45.6804C84.2352 45.6804 84.3347 45.665 84.4234 45.6342C84.5134 45.6023 84.5909 45.5549 84.656 45.4922C84.7211 45.4283 84.7714 45.349 84.807 45.2543L85.2118 45.3679C85.1692 45.5052 85.0976 45.6259 84.9969 45.7301C84.8963 45.8331 84.772 45.9136 84.6241 45.9716C84.4761 46.0284 84.3098 46.0568 84.1251 46.0568ZM73.3869 52V49.2727H73.7918V49.6847H73.8202C73.8699 49.5497 73.9599 49.4402 74.0901 49.3562C74.2203 49.2721 74.3671 49.2301 74.5304 49.2301C74.5612 49.2301 74.5997 49.2307 74.6458 49.2319C74.692 49.2331 74.7269 49.2348 74.7506 49.2372V49.6634C74.7364 49.6598 74.7038 49.6545 74.6529 49.6474C74.6032 49.6391 74.5505 49.6349 74.4949 49.6349C74.3623 49.6349 74.2439 49.6628 74.1398 49.7184C74.0368 49.7728 73.9551 49.8486 73.8948 49.9457C73.8356 50.0415 73.806 50.151 73.806 50.2741V52H73.3869ZM76.0498 52.0639C75.877 52.0639 75.7202 52.0314 75.5793 51.9663C75.4385 51.9 75.3266 51.8047 75.2437 51.6804C75.1609 51.5549 75.1195 51.4034 75.1195 51.2259C75.1195 51.0696 75.1502 50.9429 75.2118 50.8459C75.2733 50.7476 75.3556 50.6707 75.4586 50.6151C75.5616 50.5594 75.6752 50.518 75.7995 50.4908C75.925 50.4624 76.051 50.4399 76.1777 50.4233C76.3434 50.402 76.4778 50.386 76.5807 50.3754C76.6849 50.3635 76.7607 50.344 76.808 50.3168C76.8565 50.2895 76.8808 50.2422 76.8808 50.1747V50.1605C76.8808 49.9853 76.8329 49.8492 76.737 49.7521C76.6423 49.6551 76.4985 49.6065 76.3055 49.6065C76.1055 49.6065 75.9486 49.6503 75.835 49.7379C75.7214 49.8255 75.6415 49.919 75.5953 50.0185L75.1976 49.8764C75.2686 49.7107 75.3633 49.5817 75.4817 49.4893C75.6012 49.3958 75.7314 49.3307 75.8723 49.294C76.0143 49.2562 76.154 49.2372 76.2913 49.2372C76.3789 49.2372 76.4795 49.2479 76.5932 49.2692C76.708 49.2893 76.8187 49.3313 76.9252 49.3952C77.0329 49.4592 77.1223 49.5556 77.1933 49.6847C77.2643 49.8137 77.2998 49.9865 77.2998 50.2031V52H76.8808V51.6307H76.8595C76.8311 51.6899 76.7838 51.7532 76.7175 51.8207C76.6512 51.8881 76.563 51.9455 76.4529 51.9929C76.3428 52.0402 76.2085 52.0639 76.0498 52.0639ZM76.1138 51.6875C76.2795 51.6875 76.4192 51.6549 76.5328 51.5898C76.6476 51.5247 76.734 51.4407 76.792 51.3377C76.8512 51.2347 76.8808 51.1264 76.8808 51.0128V50.6293C76.8631 50.6506 76.824 50.6701 76.7636 50.6879C76.7044 50.7044 76.6358 50.7192 76.5577 50.7322C76.4807 50.7441 76.4056 50.7547 76.3322 50.7642C76.26 50.7725 76.2014 50.7796 76.1564 50.7855C76.0475 50.7997 75.9457 50.8228 75.851 50.8548C75.7575 50.8855 75.6817 50.9323 75.6237 50.995C75.5669 51.0566 75.5385 51.1406 75.5385 51.2472C75.5385 51.3928 75.5923 51.5028 75.7001 51.5774C75.809 51.6508 75.9469 51.6875 76.1138 51.6875ZM79.1726 52.0568C78.9169 52.0568 78.6968 51.9964 78.5121 51.8757C78.3275 51.755 78.1854 51.5887 78.086 51.3768C77.9866 51.1649 77.9368 50.9228 77.9368 50.6506C77.9368 50.3736 77.9877 50.1291 78.0895 49.9173C78.1925 49.7042 78.3357 49.5379 78.5192 49.4183C78.7039 49.2976 78.9193 49.2372 79.1655 49.2372C79.3573 49.2372 79.5301 49.2727 79.684 49.3438C79.8379 49.4148 79.9639 49.5142 80.0622 49.642C80.1604 49.7699 80.2214 49.919 80.2451 50.0895H79.826C79.7941 49.9652 79.7231 49.8551 79.613 49.7592C79.5041 49.6622 79.3573 49.6136 79.1726 49.6136C79.0093 49.6136 78.866 49.6562 78.7429 49.7415C78.621 49.8255 78.5257 49.9445 78.4571 50.0984C78.3896 50.2511 78.3559 50.4304 78.3559 50.6364C78.3559 50.8471 78.389 51.0305 78.4553 51.1868C78.5228 51.343 78.6175 51.4644 78.7394 51.5508C78.8625 51.6372 79.0069 51.6804 79.1726 51.6804C79.2815 51.6804 79.3804 51.6615 79.4691 51.6236C79.5579 51.5857 79.6331 51.5312 79.6946 51.4602C79.7562 51.3892 79.8 51.304 79.826 51.2045H80.2451C80.2214 51.3655 80.1628 51.5105 80.0693 51.6396C79.977 51.7674 79.8544 51.8692 79.7017 51.945C79.5502 52.0195 79.3739 52.0568 79.1726 52.0568ZM82.0011 52.0568C81.7383 52.0568 81.5116 51.9988 81.3211 51.8828C81.1317 51.7656 80.9855 51.6023 80.8825 51.3928C80.7807 51.1821 80.7298 50.937 80.7298 50.6577C80.7298 50.3783 80.7807 50.1321 80.8825 49.919C80.9855 49.7048 81.1287 49.5379 81.3122 49.4183C81.4968 49.2976 81.7123 49.2372 81.9585 49.2372C82.1005 49.2372 82.2408 49.2609 82.3793 49.3082C82.5178 49.3556 82.6439 49.4325 82.7575 49.5391C82.8711 49.6444 82.9617 49.7841 83.0292 49.9581C83.0966 50.1321 83.1304 50.3464 83.1304 50.6009V50.7784H81.0281V50.4162H82.7042C82.7042 50.2623 82.6735 50.125 82.6119 50.0043C82.5515 49.8835 82.4651 49.7882 82.3527 49.7184C82.2414 49.6486 82.11 49.6136 81.9585 49.6136C81.7916 49.6136 81.6472 49.6551 81.5253 49.7379C81.4045 49.8196 81.3116 49.9261 81.2465 50.0575C81.1814 50.1889 81.1488 50.3298 81.1488 50.4801V50.7216C81.1488 50.9276 81.1843 51.1022 81.2554 51.2454C81.3276 51.3874 81.4276 51.4957 81.5554 51.5703C81.6833 51.6437 81.8318 51.6804 82.0011 51.6804C82.1112 51.6804 82.2106 51.665 82.2994 51.6342C82.3894 51.6023 82.4669 51.5549 82.532 51.4922C82.5971 51.4283 82.6474 51.349 82.6829 51.2543L83.0878 51.3679C83.0451 51.5052 82.9735 51.6259 82.8729 51.7301C82.7723 51.8331 82.648 51.9136 82.5 51.9716C82.3521 52.0284 82.1858 52.0568 82.0011 52.0568ZM85.6996 49.8835L85.3232 49.9901C85.2995 49.9273 85.2646 49.8664 85.2184 49.8072C85.1735 49.7468 85.1119 49.6971 85.0338 49.658C84.9557 49.619 84.8556 49.5994 84.7337 49.5994C84.5668 49.5994 84.4277 49.6379 84.3165 49.7148C84.2064 49.7906 84.1513 49.8871 84.1513 50.0043C84.1513 50.1084 84.1892 50.1907 84.265 50.2511C84.3407 50.3114 84.4591 50.3617 84.6201 50.402L85.0249 50.5014C85.2687 50.5606 85.4504 50.6512 85.57 50.7731C85.6896 50.8938 85.7493 51.0495 85.7493 51.2401C85.7493 51.3963 85.7044 51.536 85.6144 51.6591C85.5256 51.7822 85.4013 51.8793 85.2415 51.9503C85.0817 52.0213 84.8959 52.0568 84.684 52.0568C84.4058 52.0568 84.1756 51.9964 83.9933 51.8757C83.811 51.755 83.6956 51.5786 83.6471 51.3466L84.0448 51.2472C84.0827 51.3939 84.1543 51.504 84.2596 51.5774C84.3662 51.6508 84.5053 51.6875 84.6769 51.6875C84.8722 51.6875 85.0273 51.6461 85.1421 51.5632C85.2581 51.4792 85.3161 51.3786 85.3161 51.2614C85.3161 51.1667 85.283 51.0874 85.2167 51.0234C85.1504 50.9583 85.0486 50.9098 84.9113 50.8778L84.4567 50.7713C84.207 50.7121 84.0235 50.6204 83.9063 50.4961C83.7903 50.3706 83.7323 50.2138 83.7323 50.0256C83.7323 49.8717 83.7755 49.7356 83.8619 49.6172C83.9495 49.4988 84.0685 49.4059 84.2188 49.3384C84.3703 49.271 84.5419 49.2372 84.7337 49.2372C85.0036 49.2372 85.2155 49.2964 85.3694 49.4148C85.5244 49.5331 85.6345 49.6894 85.6996 49.8835Z" fill="#511730"/>
<path d="M86.4615 9.36364V13H86.0211V9.82528H85.9998L85.112 10.4148V9.96733L86.0211 9.36364H86.4615ZM89.361 12.3182V12.1264C89.361 11.9938 89.3882 11.8725 89.4426 11.7624C89.4983 11.6512 89.5788 11.5624 89.6841 11.4961C89.7907 11.4286 89.9197 11.3949 90.0712 11.3949C90.2251 11.3949 90.3541 11.4286 90.4583 11.4961C90.5624 11.5624 90.6412 11.6512 90.6944 11.7624C90.7477 11.8725 90.7743 11.9938 90.7743 12.1264V12.3182C90.7743 12.4508 90.7471 12.5727 90.6926 12.6839C90.6394 12.794 90.5601 12.8828 90.4547 12.9503C90.3506 13.0166 90.2227 13.0497 90.0712 13.0497C89.9173 13.0497 89.7877 13.0166 89.6824 12.9503C89.577 12.8828 89.4971 12.794 89.4426 12.6839C89.3882 12.5727 89.361 12.4508 89.361 12.3182ZM89.7232 12.1264V12.3182C89.7232 12.4283 89.7492 12.5271 89.8013 12.6147C89.8534 12.7011 89.9434 12.7443 90.0712 12.7443C90.1955 12.7443 90.2831 12.7011 90.334 12.6147C90.3861 12.5271 90.4121 12.4283 90.4121 12.3182V12.1264C90.4121 12.0163 90.3873 11.9181 90.3375 11.8317C90.2878 11.7441 90.199 11.7003 90.0712 11.7003C89.9469 11.7003 89.8575 11.7441 89.8031 11.8317C89.7498 11.9181 89.7232 12.0163 89.7232 12.1264ZM87.5499 10.2372V10.0455C87.5499 9.91288 87.5771 9.79155 87.6316 9.68146C87.6872 9.57019 87.7677 9.48142 87.873 9.41513C87.9796 9.34766 88.1086 9.31392 88.2601 9.31392C88.414 9.31392 88.543 9.34766 88.6472 9.41513C88.7514 9.48142 88.8301 9.57019 88.8833 9.68146C88.9366 9.79155 88.9632 9.91288 88.9632 10.0455V10.2372C88.9632 10.3698 88.936 10.4917 88.8816 10.603C88.8283 10.7131 88.749 10.8018 88.6436 10.8693C88.5395 10.9356 88.4116 10.9688 88.2601 10.9688C88.1062 10.9688 87.9766 10.9356 87.8713 10.8693C87.7659 10.8018 87.686 10.7131 87.6316 10.603C87.5771 10.4917 87.5499 10.3698 87.5499 10.2372ZM87.9121 10.0455V10.2372C87.9121 10.3473 87.9382 10.4461 87.9902 10.5337C88.0423 10.6201 88.1323 10.6634 88.2601 10.6634C88.3844 10.6634 88.472 10.6201 88.5229 10.5337C88.575 10.4461 88.601 10.3473 88.601 10.2372V10.0455C88.601 9.93537 88.5762 9.83712 88.5265 9.75071C88.4767 9.66312 88.388 9.61932 88.2601 9.61932C88.1358 9.61932 88.0465 9.66312 87.992 9.75071C87.9387 9.83712 87.9121 9.93537 87.9121 10.0455ZM87.6848 13L90.1848 9.36364H90.5897L88.0897 13H87.6848ZM79.6921 17.1818C79.6921 17.5653 79.6229 17.8968 79.4844 18.1761C79.3459 18.4555 79.1559 18.6709 78.9144 18.8224C78.6729 18.974 78.3971 19.0497 78.087 19.0497C77.7769 19.0497 77.5011 18.974 77.2596 18.8224C77.0181 18.6709 76.8281 18.4555 76.6896 18.1761C76.5511 17.8968 76.4819 17.5653 76.4819 17.1818C76.4819 16.7983 76.5511 16.4669 76.6896 16.1875C76.8281 15.9081 77.0181 15.6927 77.2596 15.5412C77.5011 15.3897 77.7769 15.3139 78.087 15.3139C78.3971 15.3139 78.6729 15.3897 78.9144 15.5412C79.1559 15.6927 79.3459 15.9081 79.4844 16.1875C79.6229 16.4669 79.6921 16.7983 79.6921 17.1818ZM79.266 17.1818C79.266 16.867 79.2133 16.6012 79.108 16.3846C79.0038 16.168 78.8623 16.004 78.6836 15.8928C78.506 15.7815 78.3072 15.7259 78.087 15.7259C77.8668 15.7259 77.6674 15.7815 77.4886 15.8928C77.3111 16.004 77.1696 16.168 77.0643 16.3846C76.9601 16.6012 76.908 16.867 76.908 17.1818C76.908 17.4967 76.9601 17.7624 77.0643 17.979C77.1696 18.1957 77.3111 18.3596 77.4886 18.4709C77.6674 18.5821 77.8668 18.6378 78.087 18.6378C78.3072 18.6378 78.506 18.5821 78.6836 18.4709C78.8623 18.3596 79.0038 18.1957 79.108 17.979C79.2133 17.7624 79.266 17.4967 79.266 17.1818ZM80.7947 17.3594V19H80.3757V16.2727H80.7805V16.6989H80.8161C80.88 16.5604 80.977 16.4491 81.1072 16.3651C81.2375 16.2798 81.4055 16.2372 81.6115 16.2372C81.7962 16.2372 81.9577 16.2751 82.0962 16.3509C82.2347 16.4254 82.3424 16.5391 82.4194 16.6918C82.4963 16.8433 82.5348 17.035 82.5348 17.267V19H82.1158V17.2955C82.1158 17.0812 82.0601 16.9143 81.9489 16.7947C81.8376 16.674 81.6849 16.6136 81.4908 16.6136C81.357 16.6136 81.2375 16.6426 81.1321 16.7006C81.0279 16.7586 80.9457 16.8433 80.8853 16.9545C80.8249 17.0658 80.7947 17.2008 80.7947 17.3594ZM84.444 19.0568C84.1812 19.0568 83.9545 18.9988 83.7639 18.8828C83.5745 18.7656 83.4284 18.6023 83.3254 18.3928C83.2236 18.1821 83.1727 17.937 83.1727 17.6577C83.1727 17.3783 83.2236 17.1321 83.3254 16.919C83.4284 16.7048 83.5716 16.5379 83.7551 16.4183C83.9397 16.2976 84.1552 16.2372 84.4014 16.2372C84.5434 16.2372 84.6837 16.2609 84.8222 16.3082C84.9607 16.3556 85.0867 16.4325 85.2004 16.5391C85.314 16.6444 85.4046 16.7841 85.472 16.9581C85.5395 17.1321 85.5732 17.3464 85.5732 17.6009V17.7784H83.471V17.4162H85.1471C85.1471 17.2623 85.1163 17.125 85.0548 17.0043C84.9944 16.8835 84.908 16.7882 84.7955 16.7184C84.6843 16.6486 84.5529 16.6136 84.4014 16.6136C84.2345 16.6136 84.0901 16.6551 83.9681 16.7379C83.8474 16.8196 83.7545 16.9261 83.6894 17.0575C83.6243 17.1889 83.5917 17.3298 83.5917 17.4801V17.7216C83.5917 17.9276 83.6272 18.1022 83.6982 18.2454C83.7704 18.3874 83.8705 18.4957 83.9983 18.5703C84.1262 18.6437 84.2747 18.6804 84.444 18.6804C84.5541 18.6804 84.6535 18.665 84.7423 18.6342C84.8322 18.6023 84.9098 18.5549 84.9749 18.4922C85.04 18.4283 85.0903 18.349 85.1258 18.2543L85.5306 18.3679C85.488 18.5052 85.4164 18.6259 85.3158 18.7301C85.2152 18.8331 85.0909 18.9136 84.9429 18.9716C84.795 19.0284 84.6286 19.0568 84.444 19.0568ZM88.7249 19.0568C88.4787 19.0568 88.2626 18.9982 88.0768 18.881C87.8921 18.7638 87.7477 18.5999 87.6436 18.3892C87.5406 18.1785 87.4891 17.9323 87.4891 17.6506C87.4891 17.3665 87.5406 17.1185 87.6436 16.9066C87.7477 16.6947 87.8921 16.5302 88.0768 16.413C88.2626 16.2958 88.4787 16.2372 88.7249 16.2372C88.9711 16.2372 89.1865 16.2958 89.3712 16.413C89.557 16.5302 89.7014 16.6947 89.8044 16.9066C89.9086 17.1185 89.9607 17.3665 89.9607 17.6506C89.9607 17.9323 89.9086 18.1785 89.8044 18.3892C89.7014 18.5999 89.557 18.7638 89.3712 18.881C89.1865 18.9982 88.9711 19.0568 88.7249 19.0568ZM88.7249 18.6804C88.9119 18.6804 89.0658 18.6325 89.1865 18.5366C89.3073 18.4407 89.3966 18.3146 89.4546 18.1584C89.5126 18.0021 89.5416 17.8329 89.5416 17.6506C89.5416 17.4683 89.5126 17.2984 89.4546 17.141C89.3966 16.9835 89.3073 16.8563 89.1865 16.7592C89.0658 16.6622 88.9119 16.6136 88.7249 16.6136C88.5378 16.6136 88.384 16.6622 88.2632 16.7592C88.1425 16.8563 88.0531 16.9835 87.9951 17.141C87.9371 17.2984 87.9081 17.4683 87.9081 17.6506C87.9081 17.8329 87.9371 18.0021 87.9951 18.1584C88.0531 18.3146 88.1425 18.4407 88.2632 18.5366C88.384 18.6325 88.5378 18.6804 88.7249 18.6804ZM91.7864 16.2727V16.6278H90.373V16.2727H91.7864ZM90.785 15.6193H91.204V18.2188C91.204 18.3371 91.2212 18.4259 91.2555 18.4851C91.291 18.5431 91.336 18.5821 91.3904 18.6023C91.4461 18.6212 91.5047 18.6307 91.5662 18.6307C91.6124 18.6307 91.6503 18.6283 91.6799 18.6236C91.7095 18.6177 91.7331 18.6129 91.7509 18.6094L91.8361 18.9858C91.8077 18.9964 91.7681 19.0071 91.7172 19.0178C91.6663 19.0296 91.6017 19.0355 91.5236 19.0355C91.4052 19.0355 91.2892 19.0101 91.1756 18.9592C91.0632 18.9083 90.9696 18.8307 90.8951 18.7266C90.8217 18.6224 90.785 18.491 90.785 18.3324V15.6193ZM92.8944 17.3594V19H92.4753V15.3636H92.8944V16.6989H92.9299C92.9938 16.558 93.0897 16.4461 93.2175 16.3633C93.3465 16.2792 93.5182 16.2372 93.7324 16.2372C93.9183 16.2372 94.081 16.2745 94.2207 16.3491C94.3604 16.4225 94.4687 16.5355 94.5456 16.6882C94.6238 16.8397 94.6628 17.0327 94.6628 17.267V19H94.2438V17.2955C94.2438 17.0788 94.1876 16.9113 94.0751 16.793C93.9638 16.6734 93.8094 16.6136 93.6117 16.6136C93.4744 16.6136 93.3513 16.6426 93.2424 16.7006C93.1346 16.7586 93.0494 16.8433 92.9867 16.9545C92.9251 17.0658 92.8944 17.2008 92.8944 17.3594ZM96.5729 19.0568C96.3101 19.0568 96.0834 18.9988 95.8928 18.8828C95.7035 18.7656 95.5573 18.6023 95.4543 18.3928C95.3525 18.1821 95.3016 17.937 95.3016 17.6577C95.3016 17.3783 95.3525 17.1321 95.4543 16.919C95.5573 16.7048 95.7005 16.5379 95.884 16.4183C96.0686 16.2976 96.2841 16.2372 96.5303 16.2372C96.6723 16.2372 96.8126 16.2609 96.9511 16.3082C97.0896 16.3556 97.2156 16.4325 97.3293 16.5391C97.4429 16.6444 97.5335 16.7841 97.6009 16.9581C97.6684 17.1321 97.7021 17.3464 97.7021 17.6009V17.7784H95.5999V17.4162H97.276C97.276 17.2623 97.2452 17.125 97.1837 17.0043C97.1233 16.8835 97.0369 16.7882 96.9244 16.7184C96.8132 16.6486 96.6818 16.6136 96.5303 16.6136C96.3634 16.6136 96.219 16.6551 96.097 16.7379C95.9763 16.8196 95.8834 16.9261 95.8183 17.0575C95.7532 17.1889 95.7206 17.3298 95.7206 17.4801V17.7216C95.7206 17.9276 95.7561 18.1022 95.8271 18.2454C95.8994 18.3874 95.9994 18.4957 96.1272 18.5703C96.2551 18.6437 96.4036 18.6804 96.5729 18.6804C96.683 18.6804 96.7824 18.665 96.8712 18.6342C96.9611 18.6023 97.0387 18.5549 97.1038 18.4922C97.1689 18.4283 97.2192 18.349 97.2547 18.2543L97.6595 18.3679C97.6169 18.5052 97.5453 18.6259 97.4447 18.7301C97.3441 18.8331 97.2198 18.9136 97.0718 18.9716C96.9239 19.0284 96.7575 19.0568 96.5729 19.0568ZM98.3396 19V16.2727H98.7444V16.6847H98.7728C98.8225 16.5497 98.9125 16.4402 99.0427 16.3562C99.1729 16.2721 99.3197 16.2301 99.483 16.2301C99.5138 16.2301 99.5523 16.2307 99.5985 16.2319C99.6446 16.2331 99.6795 16.2348 99.7032 16.2372V16.6634C99.689 16.6598 99.6565 16.6545 99.6056 16.6474C99.5558 16.6391 99.5032 16.6349 99.4475 16.6349C99.315 16.6349 99.1966 16.6628 99.0924 16.7184C98.9894 16.7728 98.9078 16.8486 98.8474 16.9457C98.7882 17.0415 98.7586 17.151 98.7586 17.2741V19H98.3396ZM83.1931 25V22.2727H83.5979V22.6847H83.6263C83.676 22.5497 83.766 22.4402 83.8962 22.3562C84.0264 22.2721 84.1732 22.2301 84.3366 22.2301C84.3673 22.2301 84.4058 22.2307 84.452 22.2319C84.4981 22.2331 84.5331 22.2348 84.5567 22.2372V22.6634C84.5425 22.6598 84.51 22.6545 84.4591 22.6474C84.4094 22.6391 84.3567 22.6349 84.301 22.6349C84.1685 22.6349 84.0501 22.6628 83.9459 22.7184C83.843 22.7728 83.7613 22.8486 83.7009 22.9457C83.6417 23.0415 83.6121 23.151 83.6121 23.2741V25H83.1931ZM85.856 25.0639C85.6832 25.0639 85.5263 25.0314 85.3855 24.9663C85.2446 24.9 85.1328 24.8047 85.0499 24.6804C84.967 24.5549 84.9256 24.4034 84.9256 24.2259C84.9256 24.0696 84.9564 23.9429 85.0179 23.8459C85.0795 23.7476 85.1618 23.6707 85.2647 23.6151C85.3677 23.5594 85.4814 23.518 85.6056 23.4908C85.7311 23.4624 85.8572 23.4399 85.9838 23.4233C86.1496 23.402 86.2839 23.386 86.3869 23.3754C86.4911 23.3635 86.5668 23.344 86.6142 23.3168C86.6627 23.2895 86.687 23.2422 86.687 23.1747V23.1605C86.687 22.9853 86.639 22.8492 86.5431 22.7521C86.4484 22.6551 86.3046 22.6065 86.1117 22.6065C85.9116 22.6065 85.7548 22.6503 85.6412 22.7379C85.5275 22.8255 85.4476 22.919 85.4015 23.0185L85.0037 22.8764C85.0748 22.7107 85.1694 22.5817 85.2878 22.4893C85.4074 22.3958 85.5376 22.3307 85.6784 22.294C85.8205 22.2562 85.9602 22.2372 86.0975 22.2372C86.1851 22.2372 86.2857 22.2479 86.3993 22.2692C86.5141 22.2893 86.6248 22.3313 86.7314 22.3952C86.8391 22.4592 86.9284 22.5556 86.9995 22.6847C87.0705 22.8137 87.106 22.9865 87.106 23.2031V25H86.687V24.6307H86.6657C86.6373 24.6899 86.5899 24.7532 86.5236 24.8207C86.4573 24.8881 86.3691 24.9455 86.2591 24.9929C86.149 25.0402 86.0146 25.0639 85.856 25.0639ZM85.9199 24.6875C86.0856 24.6875 86.2253 24.6549 86.339 24.5898C86.4538 24.5247 86.5402 24.4407 86.5982 24.3377C86.6574 24.2347 86.687 24.1264 86.687 24.0128V23.6293C86.6692 23.6506 86.6301 23.6701 86.5698 23.6879C86.5106 23.7044 86.4419 23.7192 86.3638 23.7322C86.2869 23.7441 86.2117 23.7547 86.1383 23.7642C86.0661 23.7725 86.0075 23.7796 85.9625 23.7855C85.8536 23.7997 85.7518 23.8228 85.6571 23.8548C85.5636 23.8855 85.4879 23.9323 85.4299 23.995C85.373 24.0566 85.3446 24.1406 85.3446 24.2472C85.3446 24.3928 85.3985 24.5028 85.5062 24.5774C85.6151 24.6508 85.753 24.6875 85.9199 24.6875ZM88.9788 25.0568C88.7231 25.0568 88.5029 24.9964 88.3183 24.8757C88.1336 24.755 87.9916 24.5887 87.8921 24.3768C87.7927 24.1649 87.743 23.9228 87.743 23.6506C87.743 23.3736 87.7939 23.1291 87.8957 22.9173C87.9987 22.7042 88.1419 22.5379 88.3254 22.4183C88.51 22.2976 88.7255 22.2372 88.9717 22.2372C89.1634 22.2372 89.3363 22.2727 89.4901 22.3438C89.644 22.4148 89.7701 22.5142 89.8683 22.642C89.9666 22.7699 90.0276 22.919 90.0512 23.0895H89.6322C89.6002 22.9652 89.5292 22.8551 89.4191 22.7592C89.3102 22.6622 89.1634 22.6136 88.9788 22.6136C88.8154 22.6136 88.6722 22.6562 88.5491 22.7415C88.4272 22.8255 88.3319 22.9445 88.2632 23.0984C88.1958 23.2511 88.162 23.4304 88.162 23.6364C88.162 23.8471 88.1952 24.0305 88.2615 24.1868C88.3289 24.343 88.4236 24.4644 88.5455 24.5508C88.6686 24.6372 88.8131 24.6804 88.9788 24.6804C89.0877 24.6804 89.1865 24.6615 89.2753 24.6236C89.3641 24.5857 89.4392 24.5312 89.5008 24.4602C89.5624 24.3892 89.6061 24.304 89.6322 24.2045H90.0512C90.0276 24.3655 89.969 24.5105 89.8754 24.6396C89.7831 24.7674 89.6606 24.8692 89.5079 24.945C89.3564 25.0195 89.18 25.0568 88.9788 25.0568ZM91.8073 25.0568C91.5445 25.0568 91.3178 24.9988 91.1272 24.8828C90.9378 24.7656 90.7916 24.6023 90.6887 24.3928C90.5869 24.1821 90.536 23.937 90.536 23.6577C90.536 23.3783 90.5869 23.1321 90.6887 22.919C90.7916 22.7048 90.9349 22.5379 91.1183 22.4183C91.303 22.2976 91.5184 22.2372 91.7646 22.2372C91.9067 22.2372 92.047 22.2609 92.1855 22.3082C92.324 22.3556 92.45 22.4325 92.5637 22.5391C92.6773 22.6444 92.7678 22.7841 92.8353 22.9581C92.9028 23.1321 92.9365 23.3464 92.9365 23.6009V23.7784H90.8343V23.4162H92.5104C92.5104 23.2623 92.4796 23.125 92.4181 23.0043C92.3577 22.8835 92.2713 22.7882 92.1588 22.7184C92.0476 22.6486 91.9162 22.6136 91.7646 22.6136C91.5977 22.6136 91.4533 22.6551 91.3314 22.7379C91.2107 22.8196 91.1177 22.9261 91.0526 23.0575C90.9875 23.1889 90.955 23.3298 90.955 23.4801V23.7216C90.955 23.9276 90.9905 24.1022 91.0615 24.2454C91.1337 24.3874 91.2338 24.4957 91.3616 24.5703C91.4894 24.6437 91.638 24.6804 91.8073 24.6804C91.9173 24.6804 92.0168 24.665 92.1056 24.6342C92.1955 24.6023 92.2731 24.5549 92.3382 24.4922C92.4033 24.4283 92.4536 24.349 92.4891 24.2543L92.8939 24.3679C92.8513 24.5052 92.7797 24.6259 92.6791 24.7301C92.5785 24.8331 92.4542 24.9136 92.3062 24.9716C92.1582 25.0284 91.9919 25.0568 91.8073 25.0568Z" fill="#DE6B48"/>
</g>
<defs>
<clipPath id="clip0_38_44">
<rect width="180" height="180" fill="white"/>
</clipPath>
</defs>
</svg>
