<svg width="180" height="180" viewBox="0 0 180 180" fill="none" xmlns="http://www.w3.org/2000/svg">
<g clip-path="url(#clip0_41_2)">
<path d="M90 0C106.669 0 123.01 4.6292 137.203 13.3716C151.395 22.1139 162.881 34.626 170.379 49.513C177.878 64.4 181.095 81.077 179.671 97.6849C178.248 114.293 172.24 130.179 162.318 143.573C152.396 156.967 138.949 167.343 123.476 173.543C108.003 179.743 91.1121 181.524 74.6863 178.688C58.2605 175.851 42.9451 168.509 30.4472 157.479C17.9494 146.45 8.76023 132.166 3.90405 116.22L90 90V0Z" fill="#FFF0D1"/>
<path d="M3.90402 116.22C-1.02145 100.047 -1.29174 82.8128 3.1241 66.493C7.53994 50.1731 16.4633 35.4271 28.8721 23.9441L90 90L3.90402 116.22Z" fill="#DE6B48"/>
<path d="M28.8721 23.9442C38.4983 15.0362 49.9551 8.33966 62.4406 4.32349L90 90.0001L28.8721 23.9442Z" fill="#822E15"/>
<path d="M62.4407 4.32328C67.7743 2.60762 73.2565 1.39376 78.8159 0.69751L90 89.9999L62.4407 4.32328Z" fill="#6F3503"/>
<path d="M78.8158 0.697622C82.5205 0.233643 86.2506 0.000651651 89.9843 0L90 90L78.8158 0.697622Z" fill="#8F443D"/>
<path d="M113.39 106L115.992 100.852V100.807H112.992V100.182H116.719V100.841L114.128 106H113.39ZM119.824 100.182V106H119.119V100.92H119.085L117.664 101.864V101.148L119.119 100.182H119.824ZM124.463 104.909V104.602C124.463 104.39 124.506 104.196 124.593 104.02C124.682 103.842 124.811 103.7 124.98 103.594C125.15 103.486 125.357 103.432 125.599 103.432C125.845 103.432 126.052 103.486 126.218 103.594C126.385 103.7 126.511 103.842 126.596 104.02C126.681 104.196 126.724 104.39 126.724 104.602V104.909C126.724 105.121 126.681 105.316 126.593 105.494C126.508 105.67 126.381 105.812 126.213 105.92C126.046 106.027 125.842 106.08 125.599 106.08C125.353 106.08 125.145 106.027 124.977 105.92C124.808 105.812 124.681 105.67 124.593 105.494C124.506 105.316 124.463 105.121 124.463 104.909ZM125.042 104.602V104.909C125.042 105.085 125.084 105.243 125.167 105.384C125.251 105.522 125.395 105.591 125.599 105.591C125.798 105.591 125.938 105.522 126.02 105.384C126.103 105.243 126.145 105.085 126.145 104.909V104.602C126.145 104.426 126.105 104.269 126.025 104.131C125.946 103.991 125.804 103.92 125.599 103.92C125.4 103.92 125.257 103.991 125.17 104.131C125.085 104.269 125.042 104.426 125.042 104.602ZM121.565 101.58V101.273C121.565 101.061 121.609 100.866 121.696 100.69C121.785 100.512 121.913 100.37 122.082 100.264C122.252 100.156 122.459 100.102 122.701 100.102C122.948 100.102 123.154 100.156 123.321 100.264C123.487 100.37 123.613 100.512 123.699 100.69C123.784 100.866 123.826 101.061 123.826 101.273V101.58C123.826 101.792 123.783 101.987 123.696 102.165C123.61 102.341 123.484 102.483 123.315 102.591C123.148 102.697 122.944 102.75 122.701 102.75C122.455 102.75 122.248 102.697 122.079 102.591C121.911 102.483 121.783 102.341 121.696 102.165C121.609 101.987 121.565 101.792 121.565 101.58ZM122.145 101.273V101.58C122.145 101.756 122.186 101.914 122.27 102.054C122.353 102.192 122.497 102.261 122.701 102.261C122.9 102.261 123.04 102.192 123.122 102.054C123.205 101.914 123.247 101.756 123.247 101.58V101.273C123.247 101.097 123.207 100.939 123.127 100.801C123.048 100.661 122.906 100.591 122.701 100.591C122.502 100.591 122.359 100.661 122.272 100.801C122.187 100.939 122.145 101.097 122.145 101.273ZM121.781 106L125.781 100.182H126.429L122.429 106H121.781ZM110.894 116L109.303 110.182H110.019L111.235 114.92H111.292L112.531 110.182H113.326L114.565 114.92H114.621L115.837 110.182H116.553L114.962 116H114.235L112.951 111.364H112.906L111.621 116H110.894ZM118.011 113.375V116H117.34V110.182H118.011V112.318H118.067C118.17 112.093 118.323 111.914 118.528 111.781C118.734 111.647 119.009 111.58 119.352 111.58C119.649 111.58 119.909 111.639 120.133 111.759C120.356 111.876 120.53 112.057 120.653 112.301C120.778 112.544 120.84 112.852 120.84 113.227V116H120.17V113.273C120.17 112.926 120.08 112.658 119.9 112.469C119.722 112.277 119.475 112.182 119.158 112.182C118.939 112.182 118.742 112.228 118.567 112.321C118.395 112.414 118.259 112.549 118.158 112.727C118.06 112.905 118.011 113.121 118.011 113.375ZM122.067 116V111.636H122.737V116H122.067ZM122.408 110.909C122.277 110.909 122.164 110.865 122.07 110.776C121.977 110.687 121.93 110.58 121.93 110.455C121.93 110.33 121.977 110.223 122.07 110.134C122.164 110.045 122.277 110 122.408 110C122.538 110 122.65 110.045 122.743 110.134C122.838 110.223 122.885 110.33 122.885 110.455C122.885 110.58 122.838 110.687 122.743 110.776C122.65 110.865 122.538 110.909 122.408 110.909ZM125.863 111.636V112.205H123.602V111.636H125.863ZM124.261 110.591H124.931V114.75C124.931 114.939 124.959 115.081 125.013 115.176C125.07 115.269 125.142 115.331 125.229 115.364C125.318 115.394 125.412 115.409 125.511 115.409C125.585 115.409 125.645 115.405 125.692 115.398C125.74 115.388 125.778 115.381 125.806 115.375L125.942 115.977C125.897 115.994 125.834 116.011 125.752 116.028C125.671 116.047 125.567 116.057 125.442 116.057C125.253 116.057 125.067 116.016 124.886 115.935C124.706 115.853 124.556 115.729 124.437 115.562C124.319 115.396 124.261 115.186 124.261 114.932V110.591ZM128.654 116.091C128.234 116.091 127.871 115.998 127.566 115.812C127.263 115.625 127.029 115.364 126.864 115.028C126.701 114.691 126.62 114.299 126.62 113.852C126.62 113.405 126.701 113.011 126.864 112.67C127.029 112.328 127.258 112.061 127.552 111.869C127.847 111.676 128.192 111.58 128.586 111.58C128.813 111.58 129.038 111.617 129.259 111.693C129.481 111.769 129.683 111.892 129.864 112.062C130.046 112.231 130.191 112.455 130.299 112.733C130.407 113.011 130.461 113.354 130.461 113.761V114.045H127.097V113.466H129.779C129.779 113.22 129.73 113 129.631 112.807C129.535 112.614 129.397 112.461 129.217 112.349C129.039 112.238 128.828 112.182 128.586 112.182C128.319 112.182 128.088 112.248 127.893 112.381C127.7 112.511 127.551 112.682 127.447 112.892C127.343 113.102 127.29 113.328 127.29 113.568V113.955C127.29 114.284 127.347 114.563 127.461 114.793C127.576 115.02 127.737 115.193 127.941 115.312C128.146 115.43 128.383 115.489 128.654 115.489C128.83 115.489 128.989 115.464 129.131 115.415C129.275 115.364 129.399 115.288 129.504 115.188C129.608 115.085 129.688 114.958 129.745 114.807L130.393 114.989C130.325 115.208 130.21 115.402 130.049 115.568C129.888 115.733 129.689 115.862 129.452 115.955C129.216 116.045 128.95 116.091 128.654 116.091Z" fill="#DE6B48"/>
<path d="M84.3315 32V31.6804L85.5318 30.3665C85.6726 30.2126 85.7886 30.0788 85.8798 29.9652C85.9709 29.8504 86.0384 29.7427 86.0822 29.642C86.1272 29.5402 86.1497 29.4337 86.1497 29.3224C86.1497 29.1946 86.1189 29.0839 86.0574 28.9904C85.997 28.8969 85.9141 28.8247 85.8088 28.7738C85.7034 28.7229 85.585 28.6974 85.4537 28.6974C85.314 28.6974 85.1921 28.7264 85.0879 28.7844C84.9849 28.8413 84.905 28.9212 84.8482 29.0241C84.7926 29.1271 84.7647 29.2479 84.7647 29.3864H84.3457C84.3457 29.1733 84.3948 28.9863 84.4931 28.8253C84.5913 28.6643 84.7251 28.5388 84.8944 28.4489C85.0648 28.3589 85.256 28.3139 85.4679 28.3139C85.6809 28.3139 85.8697 28.3589 86.0343 28.4489C86.1988 28.5388 86.3278 28.6602 86.4213 28.8129C86.5149 28.9656 86.5616 29.1354 86.5616 29.3224C86.5616 29.4562 86.5373 29.587 86.4888 29.7148C86.4415 29.8415 86.3586 29.983 86.2402 30.1392C86.123 30.2943 85.9603 30.4837 85.752 30.7074L84.9352 31.581V31.6094H86.6255V32H84.3315ZM89.2125 31.3182V31.1264C89.2125 30.9938 89.2398 30.8725 89.2942 30.7624C89.3498 30.6512 89.4303 30.5624 89.5357 30.4961C89.6422 30.4286 89.7712 30.3949 89.9228 30.3949C90.0766 30.3949 90.2057 30.4286 90.3098 30.4961C90.414 30.5624 90.4927 30.6512 90.546 30.7624C90.5993 30.8725 90.6259 30.9938 90.6259 31.1264V31.3182C90.6259 31.4508 90.5987 31.5727 90.5442 31.6839C90.4909 31.794 90.4116 31.8828 90.3063 31.9503C90.2021 32.0166 90.0743 32.0497 89.9228 32.0497C89.7689 32.0497 89.6393 32.0166 89.5339 31.9503C89.4286 31.8828 89.3487 31.794 89.2942 31.6839C89.2398 31.5727 89.2125 31.4508 89.2125 31.3182ZM89.5748 31.1264V31.3182C89.5748 31.4283 89.6008 31.5271 89.6529 31.6147C89.705 31.7011 89.7949 31.7443 89.9228 31.7443C90.0471 31.7443 90.1346 31.7011 90.1855 31.6147C90.2376 31.5271 90.2637 31.4283 90.2637 31.3182V31.1264C90.2637 31.0163 90.2388 30.9181 90.1891 30.8317C90.1394 30.7441 90.0506 30.7003 89.9228 30.7003C89.7985 30.7003 89.7091 30.7441 89.6547 30.8317C89.6014 30.9181 89.5748 31.0163 89.5748 31.1264ZM87.4015 29.2372V29.0455C87.4015 28.9129 87.4287 28.7915 87.4831 28.6815C87.5388 28.5702 87.6193 28.4814 87.7246 28.4151C87.8311 28.3477 87.9602 28.3139 88.1117 28.3139C88.2656 28.3139 88.3946 28.3477 88.4988 28.4151C88.6029 28.4814 88.6816 28.5702 88.7349 28.6815C88.7882 28.7915 88.8148 28.9129 88.8148 29.0455V29.2372C88.8148 29.3698 88.7876 29.4917 88.7331 29.603C88.6799 29.7131 88.6006 29.8018 88.4952 29.8693C88.391 29.9356 88.2632 29.9688 88.1117 29.9688C87.9578 29.9688 87.8282 29.9356 87.7228 29.8693C87.6175 29.8018 87.5376 29.7131 87.4831 29.603C87.4287 29.4917 87.4015 29.3698 87.4015 29.2372ZM87.7637 29.0455V29.2372C87.7637 29.3473 87.7897 29.4461 87.8418 29.5337C87.8939 29.6201 87.9838 29.6634 88.1117 29.6634C88.236 29.6634 88.3236 29.6201 88.3745 29.5337C88.4266 29.4461 88.4526 29.3473 88.4526 29.2372V29.0455C88.4526 28.9354 88.4277 28.8371 88.378 28.7507C88.3283 28.6631 88.2395 28.6193 88.1117 28.6193C87.9874 28.6193 87.898 28.6631 87.8436 28.7507C87.7903 28.8371 87.7637 28.9354 87.7637 29.0455ZM87.5364 32L90.0364 28.3636H90.4412L87.9412 32H87.5364ZM80.665 38V34.3636H81.9363C82.1896 34.3636 82.3985 34.4074 82.563 34.495C82.7276 34.5814 82.8501 34.698 82.9306 34.8448C83.0111 34.9904 83.0513 35.152 83.0513 35.3295C83.0513 35.4858 83.0235 35.6148 82.9679 35.7166C82.9134 35.8184 82.8412 35.8989 82.7512 35.9581C82.6625 36.0173 82.566 36.0611 82.4618 36.0895V36.125C82.5731 36.1321 82.685 36.1712 82.7974 36.2422C82.9099 36.3132 83.004 36.415 83.0797 36.5476C83.1555 36.6802 83.1934 36.8423 83.1934 37.0341C83.1934 37.2164 83.1519 37.3803 83.0691 37.5259C82.9862 37.6715 82.8554 37.7869 82.6767 37.8722C82.4979 37.9574 82.2653 38 81.9789 38H80.665ZM81.1053 37.6094H81.9789C82.2665 37.6094 82.4707 37.5537 82.5914 37.4425C82.7134 37.33 82.7743 37.1939 82.7743 37.0341C82.7743 36.911 82.743 36.7973 82.6802 36.6932C82.6175 36.5878 82.5281 36.5038 82.4121 36.4411C82.2961 36.3771 82.1588 36.3452 82.0002 36.3452H81.1053V37.6094ZM81.1053 35.9616H81.9221C82.0546 35.9616 82.1742 35.9356 82.2807 35.8835C82.3884 35.8314 82.4737 35.758 82.5364 35.6634C82.6003 35.5687 82.6323 35.4574 82.6323 35.3295C82.6323 35.1697 82.5766 35.0342 82.4654 34.9229C82.3541 34.8105 82.1777 34.7543 81.9363 34.7543H81.1053V35.9616ZM84.2791 34.3636V38H83.8601V34.3636H84.2791ZM85.8492 38.0639C85.6763 38.0639 85.5195 38.0314 85.3786 37.9663C85.2378 37.9 85.1259 37.8047 85.0431 37.6804C84.9602 37.5549 84.9188 37.4034 84.9188 37.2259C84.9188 37.0696 84.9495 36.9429 85.0111 36.8459C85.0727 36.7476 85.1549 36.6707 85.2579 36.6151C85.3609 36.5594 85.4745 36.518 85.5988 36.4908C85.7243 36.4624 85.8503 36.4399 85.977 36.4233C86.1427 36.402 86.2771 36.386 86.3801 36.3754C86.4842 36.3635 86.56 36.344 86.6073 36.3168C86.6559 36.2895 86.6801 36.2422 86.6801 36.1747V36.1605C86.6801 35.9853 86.6322 35.8492 86.5363 35.7521C86.4416 35.6551 86.2978 35.6065 86.1048 35.6065C85.9048 35.6065 85.748 35.6503 85.6343 35.7379C85.5207 35.8255 85.4408 35.919 85.3946 36.0185L84.9969 35.8764C85.0679 35.7107 85.1626 35.5817 85.281 35.4893C85.4005 35.3958 85.5307 35.3307 85.6716 35.294C85.8137 35.2562 85.9533 35.2372 86.0906 35.2372C86.1782 35.2372 86.2789 35.2479 86.3925 35.2692C86.5073 35.2893 86.618 35.3313 86.7245 35.3952C86.8322 35.4592 86.9216 35.5556 86.9926 35.6847C87.0637 35.8137 87.0992 35.9865 87.0992 36.2031V38H86.6801V37.6307H86.6588C86.6304 37.6899 86.5831 37.7532 86.5168 37.8207C86.4505 37.8881 86.3623 37.9455 86.2522 37.9929C86.1421 38.0402 86.0078 38.0639 85.8492 38.0639ZM85.9131 37.6875C86.0788 37.6875 86.2185 37.6549 86.3321 37.5898C86.4469 37.5247 86.5334 37.4407 86.5914 37.3377C86.6505 37.2347 86.6801 37.1264 86.6801 37.0128V36.6293C86.6624 36.6506 86.6233 36.6701 86.5629 36.6879C86.5038 36.7044 86.4351 36.7192 86.357 36.7322C86.28 36.7441 86.2049 36.7547 86.1315 36.7642C86.0593 36.7725 86.0007 36.7796 85.9557 36.7855C85.8468 36.7997 85.745 36.8228 85.6503 36.8548C85.5568 36.8855 85.481 36.9323 85.423 36.995C85.3662 37.0566 85.3378 37.1406 85.3378 37.2472C85.3378 37.3928 85.3917 37.5028 85.4994 37.5774C85.6083 37.6508 85.7462 37.6875 85.9131 37.6875ZM88.9719 38.0568C88.7163 38.0568 88.4961 37.9964 88.3114 37.8757C88.1268 37.755 87.9847 37.5887 87.8853 37.3768C87.7859 37.1649 87.7362 36.9228 87.7362 36.6506C87.7362 36.3736 87.7871 36.1291 87.8888 35.9173C87.9918 35.7042 88.1351 35.5379 88.3185 35.4183C88.5032 35.2976 88.7186 35.2372 88.9648 35.2372C89.1566 35.2372 89.3294 35.2727 89.4833 35.3438C89.6372 35.4148 89.7633 35.5142 89.8615 35.642C89.9598 35.7699 90.0207 35.919 90.0444 36.0895H89.6254C89.5934 35.9652 89.5224 35.8551 89.4123 35.7592C89.3034 35.6622 89.1566 35.6136 88.9719 35.6136C88.8086 35.6136 88.6654 35.6562 88.5423 35.7415C88.4203 35.8255 88.325 35.9445 88.2564 36.0984C88.1889 36.2511 88.1552 36.4304 88.1552 36.6364C88.1552 36.8471 88.1883 37.0305 88.2546 37.1868C88.3221 37.343 88.4168 37.4644 88.5387 37.5508C88.6618 37.6372 88.8062 37.6804 88.9719 37.6804C89.0808 37.6804 89.1797 37.6615 89.2685 37.6236C89.3572 37.5857 89.4324 37.5312 89.494 37.4602C89.5555 37.3892 89.5993 37.304 89.6254 37.2045H90.0444C90.0207 37.3655 89.9621 37.5105 89.8686 37.6396C89.7763 37.7674 89.6538 37.8692 89.5011 37.945C89.3496 38.0195 89.1732 38.0568 88.9719 38.0568ZM91.0476 37.0057L91.0405 36.4872H91.1257L92.3189 35.2727H92.8374L91.5661 36.5582H91.5305L91.0476 37.0057ZM90.657 38V34.3636H91.076V38H90.657ZM92.3899 38L91.3246 36.6506L91.6229 36.3594L92.9226 38H92.3899ZM94.6622 34.1932L93.4903 38.5469H93.1068L94.2787 34.1932H94.6622ZM79.7081 44H79.2465L80.5817 40.3636H81.0363L82.3715 44H81.9098L80.8232 40.9389H80.7948L79.7081 44ZM79.8786 42.5795H81.7394V42.9702H79.8786V42.5795ZM84.0956 41.2727V41.6278H82.6254V41.2727H84.0956ZM83.0657 44V40.8963C83.0657 40.7401 83.1024 40.6098 83.1758 40.5057C83.2492 40.4015 83.3445 40.3234 83.4617 40.2713C83.5789 40.2192 83.7026 40.1932 83.8328 40.1932C83.9358 40.1932 84.0198 40.2015 84.0849 40.218C84.15 40.2346 84.1986 40.25 84.2305 40.2642L84.1098 40.6264C84.0885 40.6193 84.0589 40.6104 84.021 40.5998C83.9843 40.5891 83.9358 40.5838 83.8754 40.5838C83.7369 40.5838 83.6369 40.6187 83.5753 40.6886C83.515 40.7584 83.4848 40.8608 83.4848 40.9957V44H83.0657ZM84.6828 44V41.2727H85.0877V41.6847H85.1161C85.1658 41.5497 85.2558 41.4402 85.386 41.3562C85.5162 41.2721 85.663 41.2301 85.8263 41.2301C85.8571 41.2301 85.8956 41.2307 85.9417 41.2319C85.9879 41.2331 86.0228 41.2348 86.0465 41.2372V41.6634C86.0323 41.6598 85.9997 41.6545 85.9488 41.6474C85.8991 41.6391 85.8464 41.6349 85.7908 41.6349C85.6582 41.6349 85.5398 41.6628 85.4357 41.7184C85.3327 41.7728 85.251 41.8486 85.1907 41.9457C85.1315 42.0415 85.1019 42.151 85.1019 42.2741V44H84.6828ZM86.5432 44V41.2727H86.9622V44H86.5432ZM86.7563 40.8182C86.6746 40.8182 86.6042 40.7904 86.545 40.7347C86.487 40.6791 86.458 40.6122 86.458 40.5341C86.458 40.456 86.487 40.3891 86.545 40.3335C86.6042 40.2778 86.6746 40.25 86.7563 40.25C86.8379 40.25 86.9078 40.2778 86.9658 40.3335C87.025 40.3891 87.0546 40.456 87.0546 40.5341C87.0546 40.6122 87.025 40.6791 86.9658 40.7347C86.9078 40.7904 86.8379 40.8182 86.7563 40.8182ZM88.8377 44.0568C88.582 44.0568 88.3618 43.9964 88.1772 43.8757C87.9925 43.755 87.8505 43.5887 87.751 43.3768C87.6516 43.1649 87.6019 42.9228 87.6019 42.6506C87.6019 42.3736 87.6528 42.1291 87.7546 41.9173C87.8576 41.7042 88.0008 41.5379 88.1843 41.4183C88.3689 41.2976 88.5844 41.2372 88.8306 41.2372C89.0223 41.2372 89.1951 41.2727 89.349 41.3438C89.5029 41.4148 89.629 41.5142 89.7272 41.642C89.8255 41.7699 89.8864 41.919 89.9101 42.0895H89.4911C89.4591 41.9652 89.3881 41.8551 89.278 41.7592C89.1691 41.6622 89.0223 41.6136 88.8377 41.6136C88.6743 41.6136 88.5311 41.6562 88.408 41.7415C88.2861 41.8255 88.1908 41.9445 88.1221 42.0984C88.0546 42.2511 88.0209 42.4304 88.0209 42.6364C88.0209 42.8471 88.0541 43.0305 88.1203 43.1868C88.1878 43.343 88.2825 43.4644 88.4044 43.5508C88.5275 43.6372 88.6719 43.6804 88.8377 43.6804C88.9466 43.6804 89.0454 43.6615 89.1342 43.6236C89.223 43.5857 89.2981 43.5312 89.3597 43.4602C89.4212 43.3892 89.465 43.304 89.4911 43.2045H89.9101C89.8864 43.3655 89.8278 43.5105 89.7343 43.6396C89.642 43.7674 89.5195 43.8692 89.3668 43.945C89.2153 44.0195 89.0389 44.0568 88.8377 44.0568ZM91.3252 44.0639C91.1524 44.0639 90.9956 44.0314 90.8547 43.9663C90.7139 43.9 90.602 43.8047 90.5191 43.6804C90.4363 43.5549 90.3948 43.4034 90.3948 43.2259C90.3948 43.0696 90.4256 42.9429 90.4872 42.8459C90.5487 42.7476 90.631 42.6707 90.734 42.6151C90.837 42.5594 90.9506 42.518 91.0749 42.4908C91.2004 42.4624 91.3264 42.4399 91.4531 42.4233C91.6188 42.402 91.7532 42.386 91.8561 42.3754C91.9603 42.3635 92.0361 42.344 92.0834 42.3168C92.1319 42.2895 92.1562 42.2422 92.1562 42.1747V42.1605C92.1562 41.9853 92.1083 41.8492 92.0124 41.7521C91.9177 41.6551 91.7739 41.6065 91.5809 41.6065C91.3809 41.6065 91.224 41.6503 91.1104 41.7379C90.9968 41.8255 90.9169 41.919 90.8707 42.0185L90.473 41.8764C90.544 41.7107 90.6387 41.5817 90.7571 41.4893C90.8766 41.3958 91.0068 41.3307 91.1477 41.294C91.2897 41.2562 91.4294 41.2372 91.5667 41.2372C91.6543 41.2372 91.7549 41.2479 91.8686 41.2692C91.9834 41.2893 92.0941 41.3313 92.2006 41.3952C92.3083 41.4592 92.3977 41.5556 92.4687 41.6847C92.5397 41.8137 92.5752 41.9865 92.5752 42.2031V44H92.1562V43.6307H92.1349C92.1065 43.6899 92.0591 43.7532 91.9929 43.8207C91.9266 43.8881 91.8384 43.9455 91.7283 43.9929C91.6182 44.0402 91.4839 44.0639 91.3252 44.0639ZM91.3892 43.6875C91.5549 43.6875 91.6946 43.6549 91.8082 43.5898C91.923 43.5247 92.0094 43.4407 92.0674 43.3377C92.1266 43.2347 92.1562 43.1264 92.1562 43.0128V42.6293C92.1384 42.6506 92.0994 42.6701 92.039 42.6879C91.9798 42.7044 91.9112 42.7192 91.8331 42.7322C91.7561 42.7441 91.6809 42.7547 91.6076 42.7642C91.5353 42.7725 91.4768 42.7796 91.4318 42.7855C91.3229 42.7997 91.2211 42.8228 91.1264 42.8548C91.0329 42.8855 90.9571 42.9323 90.8991 42.995C90.8423 43.0566 90.8139 43.1406 90.8139 43.2472C90.8139 43.3928 90.8677 43.5028 90.9755 43.5774C91.0844 43.6508 91.2223 43.6875 91.3892 43.6875ZM93.7591 42.3594V44H93.3401V41.2727H93.7449V41.6989H93.7804C93.8443 41.5604 93.9414 41.4491 94.0716 41.3651C94.2018 41.2798 94.3699 41.2372 94.5759 41.2372C94.7605 41.2372 94.9221 41.2751 95.0606 41.3509C95.1991 41.4254 95.3068 41.5391 95.3837 41.6918C95.4607 41.8433 95.4992 42.035 95.4992 42.267V44H95.0801V42.2955C95.0801 42.0812 95.0245 41.9143 94.9132 41.7947C94.802 41.674 94.6493 41.6136 94.4551 41.6136C94.3214 41.6136 94.2018 41.6426 94.0965 41.7006C93.9923 41.7586 93.91 41.8433 93.8497 41.9545C93.7893 42.0658 93.7591 42.2008 93.7591 42.3594ZM76.9811 50H76.5194L77.8547 46.3636H78.3092L79.6444 50H79.1828L78.0961 46.9389H78.0677L76.9811 50ZM77.1515 48.5795H79.0123V48.9702H77.1515V48.5795ZM80.154 50V47.2727H80.5589V47.6989H80.5944C80.6512 47.5533 80.7429 47.4402 80.8696 47.3597C80.9962 47.2781 81.1483 47.2372 81.3259 47.2372C81.5058 47.2372 81.6556 47.2781 81.7751 47.3597C81.8959 47.4402 81.99 47.5533 82.0574 47.6989H82.0858C82.1557 47.558 82.2604 47.4461 82.4001 47.3633C82.5398 47.2792 82.7073 47.2372 82.9026 47.2372C83.1465 47.2372 83.3459 47.3136 83.501 47.4663C83.656 47.6178 83.7336 47.8539 83.7336 48.1747V50H83.3145V48.1747C83.3145 47.9735 83.2595 47.8297 83.1494 47.7433C83.0393 47.6568 82.9097 47.6136 82.7606 47.6136C82.5688 47.6136 82.4202 47.6716 82.3149 47.7876C82.2095 47.9025 82.1569 48.0481 82.1569 48.2244V50H81.7307V48.1321C81.7307 47.977 81.6804 47.8522 81.5798 47.7575C81.4792 47.6616 81.3496 47.6136 81.191 47.6136C81.0821 47.6136 80.9803 47.6426 80.8856 47.7006C80.7921 47.7586 80.7163 47.8391 80.6583 47.9421C80.6015 48.0439 80.5731 48.1617 80.5731 48.2955V50H80.154ZM85.6432 50.0568C85.3804 50.0568 85.1537 49.9988 84.9632 49.8828C84.7738 49.7656 84.6276 49.6023 84.5246 49.3928C84.4228 49.1821 84.3719 48.937 84.3719 48.6577C84.3719 48.3783 84.4228 48.1321 84.5246 47.919C84.6276 47.7048 84.7708 47.5379 84.9543 47.4183C85.1389 47.2976 85.3544 47.2372 85.6006 47.2372C85.7426 47.2372 85.8829 47.2609 86.0214 47.3082C86.1599 47.3556 86.286 47.4325 86.3996 47.5391C86.5132 47.6444 86.6038 47.7841 86.6713 47.9581C86.7387 48.1321 86.7725 48.3464 86.7725 48.6009V48.7784H84.6702V48.4162H86.3463C86.3463 48.2623 86.3155 48.125 86.254 48.0043C86.1936 47.8835 86.1072 47.7882 85.9948 47.7184C85.8835 47.6486 85.7521 47.6136 85.6006 47.6136C85.4337 47.6136 85.2893 47.6551 85.1673 47.7379C85.0466 47.8196 84.9537 47.9261 84.8886 48.0575C84.8235 48.1889 84.7909 48.3298 84.7909 48.4801V48.7216C84.7909 48.9276 84.8264 49.1022 84.8975 49.2454C84.9697 49.3874 85.0697 49.4957 85.1975 49.5703C85.3254 49.6437 85.4739 49.6804 85.6432 49.6804C85.7533 49.6804 85.8527 49.665 85.9415 49.6342C86.0315 49.6023 86.109 49.5549 86.1741 49.4922C86.2392 49.4283 86.2895 49.349 86.325 49.2543L86.7298 49.3679C86.6872 49.5052 86.6156 49.6259 86.515 49.7301C86.4144 49.8331 86.2901 49.9136 86.1421 49.9716C85.9942 50.0284 85.8279 50.0568 85.6432 50.0568ZM87.4099 50V47.2727H87.8147V47.6847H87.8431C87.8928 47.5497 87.9828 47.4402 88.113 47.3562C88.2432 47.2721 88.39 47.2301 88.5534 47.2301C88.5841 47.2301 88.6226 47.2307 88.6688 47.2319C88.7149 47.2331 88.7499 47.2348 88.7735 47.2372V47.6634C88.7593 47.6598 88.7268 47.6545 88.6759 47.6474C88.6262 47.6391 88.5735 47.6349 88.5178 47.6349C88.3853 47.6349 88.2669 47.6628 88.1627 47.7184C88.0597 47.7728 87.9781 47.8486 87.9177 47.9457C87.8585 48.0415 87.8289 48.151 87.8289 48.2741V50H87.4099ZM89.2702 50V47.2727H89.6893V50H89.2702ZM89.4833 46.8182C89.4016 46.8182 89.3312 46.7904 89.272 46.7347C89.214 46.6791 89.185 46.6122 89.185 46.5341C89.185 46.456 89.214 46.3891 89.272 46.3335C89.3312 46.2778 89.4016 46.25 89.4833 46.25C89.565 46.25 89.6348 46.2778 89.6928 46.3335C89.752 46.3891 89.7816 46.456 89.7816 46.5341C89.7816 46.6122 89.752 46.6791 89.6928 46.7347C89.6348 46.7904 89.565 46.8182 89.4833 46.8182ZM91.5647 50.0568C91.309 50.0568 91.0889 49.9964 90.9042 49.8757C90.7195 49.755 90.5775 49.5887 90.4781 49.3768C90.3786 49.1649 90.3289 48.9228 90.3289 48.6506C90.3289 48.3736 90.3798 48.1291 90.4816 47.9173C90.5846 47.7042 90.7278 47.5379 90.9113 47.4183C91.096 47.2976 91.3114 47.2372 91.5576 47.2372C91.7494 47.2372 91.9222 47.2727 92.0761 47.3438C92.23 47.4148 92.356 47.5142 92.4543 47.642C92.5525 47.7699 92.6135 47.919 92.6372 48.0895H92.2181C92.1862 47.9652 92.1151 47.8551 92.0051 47.7592C91.8962 47.6622 91.7494 47.6136 91.5647 47.6136C91.4014 47.6136 91.2581 47.6562 91.135 47.7415C91.0131 47.8255 90.9178 47.9445 90.8492 48.0984C90.7817 48.2511 90.748 48.4304 90.748 48.6364C90.748 48.8471 90.7811 49.0305 90.8474 49.1868C90.9149 49.343 91.0096 49.4644 91.1315 49.5508C91.2546 49.6372 91.399 49.6804 91.5647 49.6804C91.6736 49.6804 91.7725 49.6615 91.8612 49.6236C91.95 49.5857 92.0252 49.5312 92.0867 49.4602C92.1483 49.3892 92.1921 49.304 92.2181 49.2045H92.6372C92.6135 49.3655 92.5549 49.5105 92.4614 49.6396C92.3691 49.7674 92.2465 49.8692 92.0938 49.945C91.9423 50.0195 91.766 50.0568 91.5647 50.0568ZM94.0523 50.0639C93.8795 50.0639 93.7226 50.0314 93.5818 49.9663C93.4409 49.9 93.329 49.8047 93.2462 49.6804C93.1633 49.5549 93.1219 49.4034 93.1219 49.2259C93.1219 49.0696 93.1527 48.9429 93.2142 48.8459C93.2758 48.7476 93.358 48.6707 93.461 48.6151C93.564 48.5594 93.6776 48.518 93.8019 48.4908C93.9274 48.4624 94.0535 48.4399 94.1801 48.4233C94.3459 48.402 94.4802 48.386 94.5832 48.3754C94.6874 48.3635 94.7631 48.344 94.8105 48.3168C94.859 48.2895 94.8833 48.2422 94.8833 48.1747V48.1605C94.8833 47.9853 94.8353 47.8492 94.7394 47.7521C94.6447 47.6551 94.5009 47.6065 94.308 47.6065C94.1079 47.6065 93.9511 47.6503 93.8374 47.7379C93.7238 47.8255 93.6439 47.919 93.5977 48.0185L93.2 47.8764C93.271 47.7107 93.3657 47.5817 93.4841 47.4893C93.6037 47.3958 93.7339 47.3307 93.8747 47.294C94.0168 47.2562 94.1565 47.2372 94.2938 47.2372C94.3814 47.2372 94.482 47.2479 94.5956 47.2692C94.7104 47.2893 94.8211 47.3313 94.9276 47.3952C95.0354 47.4592 95.1247 47.5556 95.1958 47.6847C95.2668 47.8137 95.3023 47.9865 95.3023 48.2031V50H94.8833V49.6307H94.8619C94.8335 49.6899 94.7862 49.7532 94.7199 49.8207C94.6536 49.8881 94.5654 49.9455 94.4553 49.9929C94.3453 50.0402 94.2109 50.0639 94.0523 50.0639ZM94.1162 49.6875C94.2819 49.6875 94.4216 49.6549 94.5352 49.5898C94.6501 49.5247 94.7365 49.4407 94.7945 49.3377C94.8537 49.2347 94.8833 49.1264 94.8833 49.0128V48.6293C94.8655 48.6506 94.8264 48.6701 94.7661 48.6879C94.7069 48.7044 94.6382 48.7192 94.5601 48.7322C94.4832 48.7441 94.408 48.7547 94.3346 48.7642C94.2624 48.7725 94.2038 48.7796 94.1588 48.7855C94.0499 48.7997 93.9481 48.8228 93.8534 48.8548C93.7599 48.8855 93.6842 48.9323 93.6262 48.995C93.5693 49.0566 93.5409 49.1406 93.5409 49.2472C93.5409 49.3928 93.5948 49.5028 93.7025 49.5774C93.8114 49.6508 93.9493 49.6875 94.1162 49.6875ZM96.4862 48.3594V50H96.0671V47.2727H96.4719V47.6989H96.5075C96.5714 47.5604 96.6684 47.4491 96.7987 47.3651C96.9289 47.2798 97.0969 47.2372 97.3029 47.2372C97.4876 47.2372 97.6491 47.2751 97.7876 47.3509C97.9261 47.4254 98.0339 47.5391 98.1108 47.6918C98.1877 47.8433 98.2262 48.035 98.2262 48.267V50H97.8072V48.2955C97.8072 48.0812 97.7515 47.9143 97.6403 47.7947C97.529 47.674 97.3763 47.6136 97.1822 47.6136C97.0484 47.6136 96.9289 47.6426 96.8235 47.7006C96.7193 47.7586 96.6371 47.8433 96.5767 47.9545C96.5163 48.0658 96.4862 48.2008 96.4862 48.3594Z" fill="#DE6B48"/>
<path d="M73.9821 9.04972C73.7477 9.04972 73.5388 9.00947 73.3553 8.92898C73.173 8.84848 73.028 8.73662 72.9203 8.59339C72.8137 8.44898 72.7557 8.28149 72.7463 8.09091H73.1937C73.2032 8.2081 73.2434 8.3093 73.3145 8.39453C73.3855 8.47857 73.4784 8.54368 73.5932 8.58984C73.708 8.63601 73.8353 8.65909 73.975 8.65909C74.1312 8.65909 74.2697 8.63187 74.3904 8.57741C74.5112 8.52296 74.6059 8.44721 74.6745 8.35014C74.7432 8.25308 74.7775 8.14062 74.7775 8.01278C74.7775 7.87902 74.7444 7.76125 74.6781 7.65945C74.6118 7.55646 74.5147 7.47597 74.3869 7.41797C74.2591 7.35997 74.1028 7.33097 73.9181 7.33097H73.627V6.94034H73.9181C74.0626 6.94034 74.1892 6.9143 74.2981 6.86222C74.4082 6.81013 74.494 6.73674 74.5556 6.64205C74.6183 6.54735 74.6497 6.43608 74.6497 6.30824C74.6497 6.18513 74.6225 6.07801 74.568 5.98686C74.5136 5.89571 74.4366 5.82469 74.3372 5.77379C74.2389 5.72289 74.1229 5.69744 73.9892 5.69744C73.8637 5.69744 73.7453 5.72053 73.6341 5.76669C73.524 5.81167 73.434 5.87737 73.3642 5.96378C73.2943 6.04901 73.2565 6.15199 73.2505 6.27273H72.8244C72.8315 6.08215 72.8889 5.91525 72.9966 5.77202C73.1043 5.6276 73.2452 5.51515 73.4192 5.43466C73.5944 5.35417 73.7868 5.31392 73.9963 5.31392C74.2212 5.31392 74.4141 5.35949 74.5751 5.45064C74.7361 5.5406 74.8598 5.65956 74.9462 5.80753C75.0326 5.95549 75.0758 6.11529 75.0758 6.28693C75.0758 6.49171 75.022 6.66631 74.9142 6.81072C74.8077 6.95514 74.6627 7.05516 74.4792 7.1108V7.1392C74.7089 7.17708 74.8882 7.27474 75.0172 7.43217C75.1462 7.58842 75.2108 7.78196 75.2108 8.01278C75.2108 8.21046 75.1569 8.38802 75.0492 8.54545C74.9426 8.7017 74.7971 8.82481 74.6124 8.91477C74.4277 9.00473 74.2176 9.04972 73.9821 9.04972ZM77.7907 8.31818V8.12642C77.7907 7.99384 77.8179 7.87251 77.8723 7.76243C77.928 7.65116 78.0085 7.56238 78.1138 7.49609C78.2203 7.42862 78.3494 7.39489 78.5009 7.39489C78.6548 7.39489 78.7838 7.42862 78.888 7.49609C78.9921 7.56238 79.0708 7.65116 79.1241 7.76243C79.1774 7.87251 79.204 7.99384 79.204 8.12642V8.31818C79.204 8.45076 79.1768 8.57268 79.1223 8.68395C79.0691 8.79403 78.9898 8.88281 78.8844 8.95028C78.7802 9.01657 78.6524 9.04972 78.5009 9.04972C78.347 9.04972 78.2174 9.01657 78.112 8.95028C78.0067 8.88281 77.9268 8.79403 77.8723 8.68395C77.8179 8.57268 77.7907 8.45076 77.7907 8.31818ZM78.1529 8.12642V8.31818C78.1529 8.42827 78.1789 8.52711 78.231 8.6147C78.2831 8.70111 78.373 8.74432 78.5009 8.74432C78.6252 8.74432 78.7128 8.70111 78.7637 8.6147C78.8158 8.52711 78.8418 8.42827 78.8418 8.31818V8.12642C78.8418 8.01634 78.8169 7.91809 78.7672 7.83168C78.7175 7.74408 78.6287 7.70028 78.5009 7.70028C78.3766 7.70028 78.2872 7.74408 78.2328 7.83168C78.1795 7.91809 78.1529 8.01634 78.1529 8.12642ZM75.9796 6.23722V6.04545C75.9796 5.91288 76.0068 5.79155 76.0613 5.68146C76.1169 5.57019 76.1974 5.48142 76.3027 5.41513C76.4093 5.34766 76.5383 5.31392 76.6898 5.31392C76.8437 5.31392 76.9727 5.34766 77.0769 5.41513C77.181 5.48142 77.2598 5.57019 77.313 5.68146C77.3663 5.79155 77.3929 5.91288 77.3929 6.04545V6.23722C77.3929 6.36979 77.3657 6.49171 77.3113 6.60298C77.258 6.71307 77.1787 6.80185 77.0733 6.86932C76.9692 6.93561 76.8413 6.96875 76.6898 6.96875C76.5359 6.96875 76.4063 6.93561 76.301 6.86932C76.1956 6.80185 76.1157 6.71307 76.0613 6.60298C76.0068 6.49171 75.9796 6.36979 75.9796 6.23722ZM76.3418 6.04545V6.23722C76.3418 6.3473 76.3678 6.44614 76.4199 6.53374C76.472 6.62015 76.562 6.66335 76.6898 6.66335C76.8141 6.66335 76.9017 6.62015 76.9526 6.53374C77.0047 6.44614 77.0307 6.3473 77.0307 6.23722V6.04545C77.0307 5.93537 77.0059 5.83712 76.9561 5.75071C76.9064 5.66312 76.8176 5.61932 76.6898 5.61932C76.5655 5.61932 76.4761 5.66312 76.4217 5.75071C76.3684 5.83712 76.3418 5.93537 76.3418 6.04545ZM76.1145 9L78.6145 5.36364H79.0194L76.5194 9H76.1145ZM68.1922 11.7543V11.3636H70.9194V11.7543H69.776V15H69.3356V11.7543H68.1922ZM71.8476 15L71.0166 12.2727H71.457L72.0465 14.3608H72.0749L72.6573 12.2727H73.1047L73.68 14.3537H73.7084L74.2979 12.2727H74.7382L73.9073 15H73.4953L72.8987 12.9048H72.8561L72.2595 15H71.8476ZM76.3074 15.0568C76.0612 15.0568 75.8452 14.9982 75.6593 14.881C75.4747 14.7638 75.3302 14.5999 75.2261 14.3892C75.1231 14.1785 75.0716 13.9323 75.0716 13.6506C75.0716 13.3665 75.1231 13.1185 75.2261 12.9066C75.3302 12.6947 75.4747 12.5302 75.6593 12.413C75.8452 12.2958 76.0612 12.2372 76.3074 12.2372C76.5536 12.2372 76.769 12.2958 76.9537 12.413C77.1395 12.5302 77.284 12.6947 77.3869 12.9066C77.4911 13.1185 77.5432 13.3665 77.5432 13.6506C77.5432 13.9323 77.4911 14.1785 77.3869 14.3892C77.284 14.5999 77.1395 14.7638 76.9537 14.881C76.769 14.9982 76.5536 15.0568 76.3074 15.0568ZM76.3074 14.6804C76.4944 14.6804 76.6483 14.6325 76.769 14.5366C76.8898 14.4407 76.9792 14.3146 77.0372 14.1584C77.0952 14.0021 77.1242 13.8329 77.1242 13.6506C77.1242 13.4683 77.0952 13.2984 77.0372 13.141C76.9792 12.9835 76.8898 12.8563 76.769 12.7592C76.6483 12.6622 76.4944 12.6136 76.3074 12.6136C76.1204 12.6136 75.9665 12.6622 75.8457 12.7592C75.725 12.8563 75.6356 12.9835 75.5776 13.141C75.5196 13.2984 75.4906 13.4683 75.4906 13.6506C75.4906 13.8329 75.5196 14.0021 75.5776 14.1584C75.6356 14.3146 75.725 14.4407 75.8457 14.5366C75.9665 14.6325 76.1204 14.6804 76.3074 14.6804ZM80.697 15.0568C80.4508 15.0568 80.2348 14.9982 80.049 14.881C79.8643 14.7638 79.7199 14.5999 79.6157 14.3892C79.5127 14.1785 79.4612 13.9323 79.4612 13.6506C79.4612 13.3665 79.5127 13.1185 79.6157 12.9066C79.7199 12.6947 79.8643 12.5302 80.049 12.413C80.2348 12.2958 80.4508 12.2372 80.697 12.2372C80.9433 12.2372 81.1587 12.2958 81.3434 12.413C81.5292 12.5302 81.6736 12.6947 81.7766 12.9066C81.8808 13.1185 81.9328 13.3665 81.9328 13.6506C81.9328 13.9323 81.8808 14.1785 81.7766 14.3892C81.6736 14.5999 81.5292 14.7638 81.3434 14.881C81.1587 14.9982 80.9433 15.0568 80.697 15.0568ZM80.697 14.6804C80.8841 14.6804 81.038 14.6325 81.1587 14.5366C81.2794 14.4407 81.3688 14.3146 81.4268 14.1584C81.4848 14.0021 81.5138 13.8329 81.5138 13.6506C81.5138 13.4683 81.4848 13.2984 81.4268 13.141C81.3688 12.9835 81.2794 12.8563 81.1587 12.7592C81.038 12.6622 80.8841 12.6136 80.697 12.6136C80.51 12.6136 80.3561 12.6622 80.2354 12.7592C80.1147 12.8563 80.0253 12.9835 79.9673 13.141C79.9093 13.2984 79.8803 13.4683 79.8803 13.6506C79.8803 13.8329 79.9093 14.0021 79.9673 14.1584C80.0253 14.3146 80.1147 14.4407 80.2354 14.5366C80.3561 14.6325 80.51 14.6804 80.697 14.6804ZM82.5725 15V12.2727H82.9773V12.6847H83.0057C83.0554 12.5497 83.1454 12.4402 83.2756 12.3562C83.4058 12.2721 83.5526 12.2301 83.716 12.2301C83.7467 12.2301 83.7852 12.2307 83.8314 12.2319C83.8775 12.2331 83.9124 12.2348 83.9361 12.2372V12.6634C83.9219 12.6598 83.8894 12.6545 83.8385 12.6474C83.7888 12.6391 83.7361 12.6349 83.6804 12.6349C83.5479 12.6349 83.4295 12.6628 83.3253 12.7184C83.2223 12.7728 83.1407 12.8486 83.0803 12.9457C83.0211 13.0415 82.9915 13.151 82.9915 13.2741V15H82.5725ZM70.3752 21V18.2727H70.7801V18.6989H70.8156C70.8724 18.5533 70.9641 18.4402 71.0908 18.3597C71.2174 18.2781 71.3695 18.2372 71.5471 18.2372C71.727 18.2372 71.8768 18.2781 71.9963 18.3597C72.1171 18.4402 72.2112 18.5533 72.2786 18.6989H72.307C72.3769 18.558 72.4816 18.4461 72.6213 18.3633C72.761 18.2792 72.9285 18.2372 73.1238 18.2372C73.3676 18.2372 73.5671 18.3136 73.7222 18.4663C73.8772 18.6178 73.9548 18.8539 73.9548 19.1747V21H73.5357V19.1747C73.5357 18.9735 73.4807 18.8297 73.3706 18.7433C73.2605 18.6568 73.1309 18.6136 72.9818 18.6136C72.79 18.6136 72.6414 18.6716 72.5361 18.7876C72.4307 18.9025 72.3781 19.0481 72.3781 19.2244V21H71.9519V19.1321C71.9519 18.977 71.9016 18.8522 71.801 18.7575C71.7004 18.6616 71.5708 18.6136 71.4122 18.6136C71.3033 18.6136 71.2015 18.6426 71.1068 18.7006C71.0132 18.7586 70.9375 18.8391 70.8795 18.9421C70.8227 19.0439 70.7943 19.1617 70.7943 19.2955V21H70.3752ZM75.8289 21.0568C75.5827 21.0568 75.3666 20.9982 75.1808 20.881C74.9961 20.7638 74.8517 20.5999 74.7476 20.3892C74.6446 20.1785 74.5931 19.9323 74.5931 19.6506C74.5931 19.3665 74.6446 19.1185 74.7476 18.9066C74.8517 18.6947 74.9961 18.5302 75.1808 18.413C75.3666 18.2958 75.5827 18.2372 75.8289 18.2372C76.0751 18.2372 76.2905 18.2958 76.4752 18.413C76.661 18.5302 76.8054 18.6947 76.9084 18.9066C77.0126 19.1185 77.0647 19.3665 77.0647 19.6506C77.0647 19.9323 77.0126 20.1785 76.9084 20.3892C76.8054 20.5999 76.661 20.7638 76.4752 20.881C76.2905 20.9982 76.0751 21.0568 75.8289 21.0568ZM75.8289 20.6804C76.0159 20.6804 76.1698 20.6325 76.2905 20.5366C76.4113 20.4407 76.5006 20.3146 76.5586 20.1584C76.6166 20.0021 76.6456 19.8329 76.6456 19.6506C76.6456 19.4683 76.6166 19.2984 76.5586 19.141C76.5006 18.9835 76.4113 18.8563 76.2905 18.7592C76.1698 18.6622 76.0159 18.6136 75.8289 18.6136C75.6419 18.6136 75.488 18.6622 75.3672 18.7592C75.2465 18.8563 75.1571 18.9835 75.0991 19.141C75.0411 19.2984 75.0121 19.4683 75.0121 19.6506C75.0121 19.8329 75.0411 20.0021 75.0991 20.1584C75.1571 20.3146 75.2465 20.4407 75.3672 20.5366C75.488 20.6325 75.6419 20.6804 75.8289 20.6804ZM77.7043 21V18.2727H78.1092V18.6847H78.1376C78.1873 18.5497 78.2772 18.4402 78.4074 18.3562C78.5377 18.2721 78.6844 18.2301 78.8478 18.2301C78.8786 18.2301 78.917 18.2307 78.9632 18.2319C79.0094 18.2331 79.0443 18.2348 79.068 18.2372V18.6634C79.0538 18.6598 79.0212 18.6545 78.9703 18.6474C78.9206 18.6391 78.8679 18.6349 78.8123 18.6349C78.6797 18.6349 78.5613 18.6628 78.4572 18.7184C78.3542 18.7728 78.2725 18.8486 78.2121 18.9457C78.153 19.0415 78.1234 19.151 78.1234 19.2741V21H77.7043ZM80.6251 21.0568C80.3623 21.0568 80.1357 20.9988 79.9451 20.8828C79.7557 20.7656 79.6095 20.6023 79.5065 20.3928C79.4047 20.1821 79.3538 19.937 79.3538 19.6577C79.3538 19.3783 79.4047 19.1321 79.5065 18.919C79.6095 18.7048 79.7527 18.5379 79.9362 18.4183C80.1209 18.2976 80.3363 18.2372 80.5825 18.2372C80.7246 18.2372 80.8648 18.2609 81.0033 18.3082C81.1418 18.3556 81.2679 18.4325 81.3815 18.5391C81.4952 18.6444 81.5857 18.7841 81.6532 18.9581C81.7207 19.1321 81.7544 19.3464 81.7544 19.6009V19.7784H79.6521V19.4162H81.3283C81.3283 19.2623 81.2975 19.125 81.2359 19.0043C81.1756 18.8835 81.0891 18.7882 80.9767 18.7184C80.8654 18.6486 80.734 18.6136 80.5825 18.6136C80.4156 18.6136 80.2712 18.6551 80.1493 18.7379C80.0285 18.8196 79.9356 18.9261 79.8705 19.0575C79.8054 19.1889 79.7729 19.3298 79.7729 19.4801V19.7216C79.7729 19.9276 79.8084 20.1022 79.8794 20.2454C79.9516 20.3874 80.0516 20.4957 80.1795 20.5703C80.3073 20.6437 80.4559 20.6804 80.6251 20.6804C80.7352 20.6804 80.8347 20.665 80.9234 20.6342C81.0134 20.6023 81.0909 20.5549 81.156 20.4922C81.2211 20.4283 81.2714 20.349 81.307 20.2543L81.7118 20.3679C81.6692 20.5052 81.5976 20.6259 81.4969 20.7301C81.3963 20.8331 81.272 20.9136 81.1241 20.9716C80.9761 21.0284 80.8098 21.0568 80.6251 21.0568ZM69.8869 27V24.2727H70.2918V24.6847H70.3202C70.3699 24.5497 70.4599 24.4402 70.5901 24.3562C70.7203 24.2721 70.8671 24.2301 71.0304 24.2301C71.0612 24.2301 71.0997 24.2307 71.1458 24.2319C71.192 24.2331 71.2269 24.2348 71.2506 24.2372V24.6634C71.2364 24.6598 71.2038 24.6545 71.1529 24.6474C71.1032 24.6391 71.0505 24.6349 70.9949 24.6349C70.8623 24.6349 70.7439 24.6628 70.6398 24.7184C70.5368 24.7728 70.4551 24.8486 70.3948 24.9457C70.3356 25.0415 70.306 25.151 70.306 25.2741V27H69.8869ZM72.5498 27.0639C72.377 27.0639 72.2202 27.0314 72.0793 26.9663C71.9385 26.9 71.8266 26.8047 71.7437 26.6804C71.6609 26.5549 71.6195 26.4034 71.6195 26.2259C71.6195 26.0696 71.6502 25.9429 71.7118 25.8459C71.7733 25.7476 71.8556 25.6707 71.9586 25.6151C72.0616 25.5594 72.1752 25.518 72.2995 25.4908C72.425 25.4624 72.551 25.4399 72.6777 25.4233C72.8434 25.402 72.9778 25.386 73.0807 25.3754C73.1849 25.3635 73.2607 25.344 73.308 25.3168C73.3565 25.2895 73.3808 25.2422 73.3808 25.1747V25.1605C73.3808 24.9853 73.3329 24.8492 73.237 24.7521C73.1423 24.6551 72.9985 24.6065 72.8055 24.6065C72.6055 24.6065 72.4486 24.6503 72.335 24.7379C72.2214 24.8255 72.1415 24.919 72.0953 25.0185L71.6976 24.8764C71.7686 24.7107 71.8633 24.5817 71.9817 24.4893C72.1012 24.3958 72.2314 24.3307 72.3723 24.294C72.5143 24.2562 72.654 24.2372 72.7913 24.2372C72.8789 24.2372 72.9795 24.2479 73.0932 24.2692C73.208 24.2893 73.3187 24.3313 73.4252 24.3952C73.5329 24.4592 73.6223 24.5556 73.6933 24.6847C73.7643 24.8137 73.7998 24.9865 73.7998 25.2031V27H73.3808V26.6307H73.3595C73.3311 26.6899 73.2838 26.7532 73.2175 26.8207C73.1512 26.8881 73.063 26.9455 72.9529 26.9929C72.8428 27.0402 72.7085 27.0639 72.5498 27.0639ZM72.6138 26.6875C72.7795 26.6875 72.9192 26.6549 73.0328 26.5898C73.1476 26.5247 73.234 26.4407 73.292 26.3377C73.3512 26.2347 73.3808 26.1264 73.3808 26.0128V25.6293C73.3631 25.6506 73.324 25.6701 73.2636 25.6879C73.2044 25.7044 73.1358 25.7192 73.0577 25.7322C72.9807 25.7441 72.9056 25.7547 72.8322 25.7642C72.76 25.7725 72.7014 25.7796 72.6564 25.7855C72.5475 25.7997 72.4457 25.8228 72.351 25.8548C72.2575 25.8855 72.1817 25.9323 72.1237 25.995C72.0669 26.0566 72.0385 26.1406 72.0385 26.2472C72.0385 26.3928 72.0923 26.5028 72.2001 26.5774C72.309 26.6508 72.4469 26.6875 72.6138 26.6875ZM75.6726 27.0568C75.4169 27.0568 75.1968 26.9964 75.0121 26.8757C74.8275 26.755 74.6854 26.5887 74.586 26.3768C74.4866 26.1649 74.4368 25.9228 74.4368 25.6506C74.4368 25.3736 74.4877 25.1291 74.5895 24.9173C74.6925 24.7042 74.8357 24.5379 75.0192 24.4183C75.2039 24.2976 75.4193 24.2372 75.6655 24.2372C75.8573 24.2372 76.0301 24.2727 76.184 24.3438C76.3379 24.4148 76.4639 24.5142 76.5622 24.642C76.6604 24.7699 76.7214 24.919 76.7451 25.0895H76.326C76.2941 24.9652 76.2231 24.8551 76.113 24.7592C76.0041 24.6622 75.8573 24.6136 75.6726 24.6136C75.5093 24.6136 75.366 24.6562 75.2429 24.7415C75.121 24.8255 75.0257 24.9445 74.9571 25.0984C74.8896 25.2511 74.8559 25.4304 74.8559 25.6364C74.8559 25.8471 74.889 26.0305 74.9553 26.1868C75.0228 26.343 75.1175 26.4644 75.2394 26.5508C75.3625 26.6372 75.5069 26.6804 75.6726 26.6804C75.7815 26.6804 75.8804 26.6615 75.9691 26.6236C76.0579 26.5857 76.1331 26.5312 76.1946 26.4602C76.2562 26.3892 76.3 26.304 76.326 26.2045H76.7451C76.7214 26.3655 76.6628 26.5105 76.5693 26.6396C76.477 26.7674 76.3544 26.8692 76.2017 26.945C76.0502 27.0195 75.8739 27.0568 75.6726 27.0568ZM78.5011 27.0568C78.2383 27.0568 78.0116 26.9988 77.8211 26.8828C77.6317 26.7656 77.4855 26.6023 77.3825 26.3928C77.2807 26.1821 77.2298 25.937 77.2298 25.6577C77.2298 25.3783 77.2807 25.1321 77.3825 24.919C77.4855 24.7048 77.6287 24.5379 77.8122 24.4183C77.9968 24.2976 78.2123 24.2372 78.4585 24.2372C78.6005 24.2372 78.7408 24.2609 78.8793 24.3082C79.0178 24.3556 79.1439 24.4325 79.2575 24.5391C79.3711 24.6444 79.4617 24.7841 79.5292 24.9581C79.5966 25.1321 79.6304 25.3464 79.6304 25.6009V25.7784H77.5281V25.4162H79.2042C79.2042 25.2623 79.1735 25.125 79.1119 25.0043C79.0515 24.8835 78.9651 24.7882 78.8527 24.7184C78.7414 24.6486 78.61 24.6136 78.4585 24.6136C78.2916 24.6136 78.1472 24.6551 78.0253 24.7379C77.9045 24.8196 77.8116 24.9261 77.7465 25.0575C77.6814 25.1889 77.6488 25.3298 77.6488 25.4801V25.7216C77.6488 25.9276 77.6843 26.1022 77.7554 26.2454C77.8276 26.3874 77.9276 26.4957 78.0554 26.5703C78.1833 26.6437 78.3318 26.6804 78.5011 26.6804C78.6112 26.6804 78.7106 26.665 78.7994 26.6342C78.8894 26.6023 78.9669 26.5549 79.032 26.4922C79.0971 26.4283 79.1474 26.349 79.1829 26.2543L79.5878 26.3679C79.5451 26.5052 79.4735 26.6259 79.3729 26.7301C79.2723 26.8331 79.148 26.9136 79 26.9716C78.8521 27.0284 78.6858 27.0568 78.5011 27.0568ZM82.1996 24.8835L81.8232 24.9901C81.7995 24.9273 81.7646 24.8664 81.7184 24.8072C81.6735 24.7468 81.6119 24.6971 81.5338 24.658C81.4557 24.619 81.3556 24.5994 81.2337 24.5994C81.0668 24.5994 80.9277 24.6379 80.8165 24.7148C80.7064 24.7906 80.6513 24.8871 80.6513 25.0043C80.6513 25.1084 80.6892 25.1907 80.765 25.2511C80.8407 25.3114 80.9591 25.3617 81.1201 25.402L81.5249 25.5014C81.7687 25.5606 81.9504 25.6512 82.07 25.7731C82.1896 25.8938 82.2493 26.0495 82.2493 26.2401C82.2493 26.3963 82.2044 26.536 82.1144 26.6591C82.0256 26.7822 81.9013 26.8793 81.7415 26.9503C81.5817 27.0213 81.3959 27.0568 81.184 27.0568C80.9058 27.0568 80.6756 26.9964 80.4933 26.8757C80.311 26.755 80.1956 26.5786 80.1471 26.3466L80.5448 26.2472C80.5827 26.3939 80.6543 26.504 80.7596 26.5774C80.8662 26.6508 81.0053 26.6875 81.1769 26.6875C81.3722 26.6875 81.5273 26.6461 81.6421 26.5632C81.7581 26.4792 81.8161 26.3786 81.8161 26.2614C81.8161 26.1667 81.783 26.0874 81.7167 26.0234C81.6504 25.9583 81.5486 25.9098 81.4113 25.8778L80.9567 25.7713C80.707 25.7121 80.5235 25.6204 80.4063 25.4961C80.2903 25.3706 80.2323 25.2138 80.2323 25.0256C80.2323 24.8717 80.2755 24.7356 80.3619 24.6172C80.4495 24.4988 80.5685 24.4059 80.7188 24.3384C80.8703 24.271 81.0419 24.2372 81.2337 24.2372C81.5036 24.2372 81.7155 24.2964 81.8694 24.4148C82.0244 24.5331 82.1345 24.6894 82.1996 24.8835Z" fill="#D6907B"/>
<path d="M28.9209 60.3636V64H28.4806V60.8253H28.4593L27.5715 61.4148V60.9673L28.4806 60.3636H28.9209ZM31.1315 64.0497C30.8877 64.0497 30.6722 64.0065 30.4852 63.9201C30.2994 63.8325 30.1544 63.7124 30.0502 63.5597C29.946 63.4058 29.8945 63.2306 29.8957 63.0341C29.8945 62.8802 29.9247 62.7382 29.9863 62.608C30.0478 62.4766 30.1319 62.3671 30.2384 62.2795C30.3461 62.1907 30.4663 62.1345 30.5989 62.1108V62.0895C30.4248 62.0445 30.2864 61.9469 30.1834 61.7965C30.0804 61.645 30.0295 61.4728 30.0307 61.2798C30.0295 61.0952 30.0762 60.93 30.1709 60.7844C30.2656 60.6388 30.3958 60.524 30.5616 60.44C30.7285 60.3559 30.9185 60.3139 31.1315 60.3139C31.3422 60.3139 31.5304 60.3559 31.6962 60.44C31.8619 60.524 31.9921 60.6388 32.0868 60.7844C32.1827 60.93 32.2312 61.0952 32.2324 61.2798C32.2312 61.4728 32.1785 61.645 32.0744 61.7965C31.9714 61.9469 31.8347 62.0445 31.6642 62.0895V62.1108C31.7956 62.1345 31.914 62.1907 32.0193 62.2795C32.1247 62.3671 32.2087 62.4766 32.2714 62.608C32.3342 62.7382 32.3661 62.8802 32.3673 63.0341C32.3661 63.2306 32.3129 63.4058 32.2075 63.5597C32.1034 63.7124 31.9583 63.8325 31.7725 63.9201C31.5878 64.0065 31.3742 64.0497 31.1315 64.0497ZM31.1315 63.6591C31.2961 63.6591 31.4381 63.6325 31.5577 63.5792C31.6772 63.5259 31.7695 63.4508 31.8347 63.3537C31.8998 63.2566 31.9329 63.143 31.9341 63.0128C31.9329 62.8755 31.8974 62.7541 31.8275 62.6488C31.7577 62.5434 31.6624 62.4606 31.5417 62.4002C31.4221 62.3398 31.2854 62.3097 31.1315 62.3097C30.9765 62.3097 30.838 62.3398 30.716 62.4002C30.5953 62.4606 30.5 62.5434 30.4302 62.6488C30.3615 62.7541 30.3278 62.8755 30.329 63.0128C30.3278 63.143 30.3592 63.2566 30.4231 63.3537C30.4882 63.4508 30.5811 63.5259 30.7018 63.5792C30.8226 63.6325 30.9658 63.6591 31.1315 63.6591ZM31.1315 61.9332C31.2617 61.9332 31.3771 61.9072 31.4778 61.8551C31.5796 61.803 31.6595 61.7302 31.7175 61.6367C31.7755 61.5432 31.8051 61.4337 31.8062 61.3082C31.8051 61.1851 31.7761 61.078 31.7192 60.9869C31.6624 60.8945 31.5837 60.8235 31.4831 60.7738C31.3825 60.7229 31.2653 60.6974 31.1315 60.6974C30.9954 60.6974 30.8764 60.7229 30.7746 60.7738C30.6728 60.8235 30.5941 60.8945 30.5385 60.9869C30.4829 61.078 30.4556 61.1851 30.4568 61.3082C30.4556 61.4337 30.4834 61.5432 30.5403 61.6367C30.5983 61.7302 30.6782 61.803 30.78 61.8551C30.8818 61.9072 30.9989 61.9332 31.1315 61.9332ZM34.9015 63.3182V63.1264C34.9015 62.9938 34.9287 62.8725 34.9832 62.7624C35.0388 62.6512 35.1193 62.5624 35.2247 62.4961C35.3312 62.4286 35.4602 62.3949 35.6117 62.3949C35.7656 62.3949 35.8946 62.4286 35.9988 62.4961C36.103 62.5624 36.1817 62.6512 36.235 62.7624C36.2882 62.8725 36.3149 62.9938 36.3149 63.1264V63.3182C36.3149 63.4508 36.2876 63.5727 36.2332 63.6839C36.1799 63.794 36.1006 63.8828 35.9953 63.9503C35.8911 64.0166 35.7632 64.0497 35.6117 64.0497C35.4578 64.0497 35.3282 64.0166 35.2229 63.9503C35.1175 63.8828 35.0376 63.794 34.9832 63.6839C34.9287 63.5727 34.9015 63.4508 34.9015 63.3182ZM35.2637 63.1264V63.3182C35.2637 63.4283 35.2898 63.5271 35.3418 63.6147C35.3939 63.7011 35.4839 63.7443 35.6117 63.7443C35.736 63.7443 35.8236 63.7011 35.8745 63.6147C35.9266 63.5271 35.9526 63.4283 35.9526 63.3182V63.1264C35.9526 63.0163 35.9278 62.9181 35.8781 62.8317C35.8283 62.7441 35.7396 62.7003 35.6117 62.7003C35.4874 62.7003 35.3981 62.7441 35.3436 62.8317C35.2903 62.9181 35.2637 63.0163 35.2637 63.1264ZM33.0904 61.2372V61.0455C33.0904 60.9129 33.1176 60.7915 33.1721 60.6815C33.2277 60.5702 33.3082 60.4814 33.4136 60.4151C33.5201 60.3477 33.6491 60.3139 33.8006 60.3139C33.9545 60.3139 34.0836 60.3477 34.1877 60.4151C34.2919 60.4814 34.3706 60.5702 34.4239 60.6815C34.4771 60.7915 34.5038 60.9129 34.5038 61.0455V61.2372C34.5038 61.3698 34.4765 61.4917 34.4221 61.603C34.3688 61.7131 34.2895 61.8018 34.1842 61.8693C34.08 61.9356 33.9522 61.9688 33.8006 61.9688C33.6468 61.9688 33.5171 61.9356 33.4118 61.8693C33.3064 61.8018 33.2265 61.7131 33.1721 61.603C33.1176 61.4917 33.0904 61.3698 33.0904 61.2372ZM33.4526 61.0455V61.2372C33.4526 61.3473 33.4787 61.4461 33.5308 61.5337C33.5828 61.6201 33.6728 61.6634 33.8006 61.6634C33.9249 61.6634 34.0125 61.6201 34.0634 61.5337C34.1155 61.4461 34.1416 61.3473 34.1416 61.2372V61.0455C34.1416 60.9354 34.1167 60.8371 34.067 60.7507C34.0173 60.6631 33.9285 60.6193 33.8006 60.6193C33.6764 60.6193 33.587 60.6631 33.5325 60.7507C33.4793 60.8371 33.4526 60.9354 33.4526 61.0455ZM33.2254 64L35.7254 60.3636H36.1302L33.6302 64H33.2254ZM21.415 70V66.3636H21.8553V67.983H23.7942V66.3636H24.2346V70H23.7942V68.3736H21.8553V70H21.415ZM25.0593 70V67.2727H25.4783V70H25.0593ZM25.2724 66.8182C25.1907 66.8182 25.1203 66.7904 25.0611 66.7347C25.0031 66.6791 24.9741 66.6122 24.9741 66.5341C24.9741 66.456 25.0031 66.3891 25.0611 66.3335C25.1203 66.2778 25.1907 66.25 25.2724 66.25C25.354 66.25 25.4239 66.2778 25.4819 66.3335C25.5411 66.3891 25.5707 66.456 25.5707 66.5341C25.5707 66.6122 25.5411 66.6791 25.4819 66.7347C25.4239 66.7904 25.354 66.8182 25.2724 66.8182ZM28.1776 67.8835L27.8012 67.9901C27.7776 67.9273 27.7426 67.8664 27.6965 67.8072C27.6515 67.7468 27.5899 67.6971 27.5118 67.658C27.4337 67.619 27.3337 67.5994 27.2117 67.5994C27.0448 67.5994 26.9057 67.6379 26.7945 67.7148C26.6844 67.7906 26.6294 67.8871 26.6294 68.0043C26.6294 68.1084 26.6672 68.1907 26.743 68.2511C26.8187 68.3114 26.9371 68.3617 27.0981 68.402L27.5029 68.5014C27.7468 68.5606 27.9285 68.6512 28.048 68.7731C28.1676 68.8938 28.2274 69.0495 28.2274 69.2401C28.2274 69.3963 28.1824 69.536 28.0924 69.6591C28.0036 69.7822 27.8794 69.8793 27.7195 69.9503C27.5597 70.0213 27.3739 70.0568 27.162 70.0568C26.8838 70.0568 26.6536 69.9964 26.4713 69.8757C26.289 69.755 26.1736 69.5786 26.1251 69.3466L26.5228 69.2472C26.5607 69.3939 26.6323 69.504 26.7377 69.5774C26.8442 69.6508 26.9833 69.6875 27.1549 69.6875C27.3502 69.6875 27.5053 69.6461 27.6201 69.5632C27.7361 69.4792 27.7941 69.3786 27.7941 69.2614C27.7941 69.1667 27.761 69.0874 27.6947 69.0234C27.6284 68.9583 27.5266 68.9098 27.3893 68.8778L26.9347 68.7713C26.685 68.7121 26.5015 68.6204 26.3843 68.4961C26.2683 68.3706 26.2103 68.2138 26.2103 68.0256C26.2103 67.8717 26.2535 67.7356 26.3399 67.6172C26.4275 67.4988 26.5465 67.4059 26.6968 67.3384C26.8483 67.271 27.02 67.2372 27.2117 67.2372C27.4816 67.2372 27.6935 67.2964 27.8474 67.4148C28.0025 67.5331 28.1125 67.6894 28.1776 67.8835ZM28.8581 71.0227V67.2727H29.263V67.706H29.3127C29.3435 67.6586 29.3861 67.5982 29.4405 67.5249C29.4962 67.4503 29.5755 67.384 29.6784 67.326C29.7826 67.2668 29.9235 67.2372 30.101 67.2372C30.3307 67.2372 30.5331 67.2946 30.7083 67.4094C30.8835 67.5243 31.0202 67.687 31.1184 67.8977C31.2167 68.1084 31.2658 68.357 31.2658 68.6435C31.2658 68.9323 31.2167 69.1826 31.1184 69.3945C31.0202 69.6052 30.8841 69.7686 30.71 69.8846C30.536 69.9994 30.3354 70.0568 30.1081 70.0568C29.9329 70.0568 29.7927 70.0278 29.6873 69.9698C29.582 69.9106 29.5009 69.8437 29.4441 69.7692C29.3873 69.6934 29.3435 69.6307 29.3127 69.581H29.2772V71.0227H28.8581ZM29.2701 68.6364C29.2701 68.8423 29.3002 69.024 29.3606 69.1815C29.421 69.3377 29.5092 69.4602 29.6252 69.549C29.7412 69.6366 29.8832 69.6804 30.0513 69.6804C30.2265 69.6804 30.3727 69.6342 30.4899 69.5419C30.6083 69.4484 30.697 69.3229 30.7562 69.1655C30.8166 69.0069 30.8468 68.8305 30.8468 68.6364C30.8468 68.4446 30.8172 68.2718 30.758 68.1179C30.7 67.9628 30.6118 67.8403 30.4934 67.7504C30.3762 67.6592 30.2289 67.6136 30.0513 67.6136C29.8809 67.6136 29.7376 67.6568 29.6216 67.7433C29.5056 67.8285 29.418 67.948 29.3588 68.1019C29.2997 68.2546 29.2701 68.4328 29.2701 68.6364ZM32.7076 70.0639C32.5347 70.0639 32.3779 70.0314 32.237 69.9663C32.0962 69.9 31.9843 69.8047 31.9015 69.6804C31.8186 69.5549 31.7772 69.4034 31.7772 69.2259C31.7772 69.0696 31.8079 68.9429 31.8695 68.8459C31.931 68.7476 32.0133 68.6707 32.1163 68.6151C32.2193 68.5594 32.3329 68.518 32.4572 68.4908C32.5827 68.4624 32.7087 68.4399 32.8354 68.4233C33.0011 68.402 33.1355 68.386 33.2385 68.3754C33.3426 68.3635 33.4184 68.344 33.4657 68.3168C33.5143 68.2895 33.5385 68.2422 33.5385 68.1747V68.1605C33.5385 67.9853 33.4906 67.8492 33.3947 67.7521C33.3 67.6551 33.1562 67.6065 32.9632 67.6065C32.7632 67.6065 32.6064 67.6503 32.4927 67.7379C32.3791 67.8255 32.2992 67.919 32.253 68.0185L31.8553 67.8764C31.9263 67.7107 32.021 67.5817 32.1394 67.4893C32.2589 67.3958 32.3891 67.3307 32.53 67.294C32.6721 67.2562 32.8117 67.2372 32.949 67.2372C33.0366 67.2372 33.1373 67.2479 33.2509 67.2692C33.3657 67.2893 33.4764 67.3313 33.5829 67.3952C33.6906 67.4592 33.78 67.5556 33.851 67.6847C33.9221 67.8137 33.9576 67.9865 33.9576 68.2031V70H33.5385V69.6307H33.5172C33.4888 69.6899 33.4415 69.7532 33.3752 69.8207C33.3089 69.8881 33.2207 69.9455 33.1106 69.9929C33.0005 70.0402 32.8662 70.0639 32.7076 70.0639ZM32.7715 69.6875C32.9372 69.6875 33.0769 69.6549 33.1905 69.5898C33.3053 69.5247 33.3917 69.4407 33.4498 69.3377C33.5089 69.2347 33.5385 69.1264 33.5385 69.0128V68.6293C33.5208 68.6506 33.4817 68.6701 33.4213 68.6879C33.3622 68.7044 33.2935 68.7192 33.2154 68.7322C33.1384 68.7441 33.0633 68.7547 32.9899 68.7642C32.9177 68.7725 32.8591 68.7796 32.8141 68.7855C32.7052 68.7997 32.6034 68.8228 32.5087 68.8548C32.4152 68.8855 32.3394 68.9323 32.2814 68.995C32.2246 69.0566 32.1962 69.1406 32.1962 69.2472C32.1962 69.3928 32.2501 69.5028 32.3578 69.5774C32.4667 69.6508 32.6046 69.6875 32.7715 69.6875ZM35.1414 68.3594V70H34.7224V67.2727H35.1272V67.6989H35.1627C35.2267 67.5604 35.3237 67.4491 35.4539 67.3651C35.5841 67.2798 35.7522 67.2372 35.9582 67.2372C36.1428 67.2372 36.3044 67.2751 36.4429 67.3509C36.5814 67.4254 36.6891 67.5391 36.7661 67.6918C36.843 67.8433 36.8815 68.035 36.8815 68.267V70H36.4624V68.2955C36.4624 68.0812 36.4068 67.9143 36.2955 67.7947C36.1843 67.674 36.0316 67.6136 35.8374 67.6136C35.7037 67.6136 35.5841 67.6426 35.4788 67.7006C35.3746 67.7586 35.2923 67.8433 35.232 67.9545C35.1716 68.0658 35.1414 68.2008 35.1414 68.3594ZM37.6472 70V67.2727H38.0662V70H37.6472ZM37.8603 66.8182C37.7786 66.8182 37.7082 66.7904 37.649 66.7347C37.591 66.6791 37.562 66.6122 37.562 66.5341C37.562 66.456 37.591 66.3891 37.649 66.3335C37.7082 66.2778 37.7786 66.25 37.8603 66.25C37.9419 66.25 38.0118 66.2778 38.0698 66.3335C38.129 66.3891 38.1586 66.456 38.1586 66.5341C38.1586 66.6122 38.129 66.6791 38.0698 66.7347C38.0118 66.7904 37.9419 66.8182 37.8603 66.8182ZM39.9417 70.0568C39.686 70.0568 39.4658 69.9964 39.2812 69.8757C39.0965 69.755 38.9545 69.5887 38.855 69.3768C38.7556 69.1649 38.7059 68.9228 38.7059 68.6506C38.7059 68.3736 38.7568 68.1291 38.8586 67.9173C38.9616 67.7042 39.1048 67.5379 39.2883 67.4183C39.4729 67.2976 39.6884 67.2372 39.9346 67.2372C40.1263 67.2372 40.2992 67.2727 40.453 67.3438C40.6069 67.4148 40.733 67.5142 40.8312 67.642C40.9295 67.7699 40.9904 67.919 41.0141 68.0895H40.5951C40.5631 67.9652 40.4921 67.8551 40.382 67.7592C40.2731 67.6622 40.1263 67.6136 39.9417 67.6136C39.7783 67.6136 39.6351 67.6562 39.512 67.7415C39.3901 67.8255 39.2948 67.9445 39.2261 68.0984C39.1586 68.2511 39.1249 68.4304 39.1249 68.6364C39.1249 68.8471 39.1581 69.0305 39.2243 69.1868C39.2918 69.343 39.3865 69.4644 39.5084 69.5508C39.6315 69.6372 39.776 69.6804 39.9417 69.6804C40.0506 69.6804 40.1494 69.6615 40.2382 69.6236C40.327 69.5857 40.4021 69.5312 40.4637 69.4602C40.5252 69.3892 40.569 69.304 40.5951 69.2045H41.0141C40.9904 69.3655 40.9318 69.5105 40.8383 69.6396C40.746 69.7674 40.6235 69.8692 40.4708 69.945C40.3193 70.0195 40.1429 70.0568 39.9417 70.0568ZM42.9122 66.1932L41.7403 70.5469H41.3568L42.5287 66.1932H42.9122ZM25.1698 76V72.3636H25.6102V75.6094H27.3005V76H25.1698ZM28.7281 76.0639C28.5552 76.0639 28.3984 76.0314 28.2575 75.9663C28.1167 75.9 28.0048 75.8047 27.922 75.6804C27.8391 75.5549 27.7977 75.4034 27.7977 75.2259C27.7977 75.0696 27.8285 74.9429 27.89 74.8459C27.9516 74.7476 28.0338 74.6707 28.1368 74.6151C28.2398 74.5594 28.3534 74.518 28.4777 74.4908C28.6032 74.4624 28.7293 74.4399 28.8559 74.4233C29.0216 74.402 29.156 74.386 29.259 74.3754C29.3631 74.3635 29.4389 74.344 29.4862 74.3168C29.5348 74.2895 29.559 74.2422 29.559 74.1747V74.1605C29.559 73.9853 29.5111 73.8492 29.4152 73.7521C29.3205 73.6551 29.1767 73.6065 28.9838 73.6065C28.7837 73.6065 28.6269 73.6503 28.5132 73.7379C28.3996 73.8255 28.3197 73.919 28.2735 74.0185L27.8758 73.8764C27.9468 73.7107 28.0415 73.5817 28.1599 73.4893C28.2794 73.3958 28.4097 73.3307 28.5505 73.294C28.6926 73.2562 28.8322 73.2372 28.9695 73.2372C29.0571 73.2372 29.1578 73.2479 29.2714 73.2692C29.3862 73.2893 29.4969 73.3313 29.6034 73.3952C29.7111 73.4592 29.8005 73.5556 29.8715 73.6847C29.9426 73.8137 29.9781 73.9865 29.9781 74.2031V76H29.559V75.6307H29.5377C29.5093 75.6899 29.462 75.7532 29.3957 75.8207C29.3294 75.8881 29.2412 75.9455 29.1311 75.9929C29.021 76.0402 28.8867 76.0639 28.7281 76.0639ZM28.792 75.6875C28.9577 75.6875 29.0974 75.6549 29.211 75.5898C29.3258 75.5247 29.4123 75.4407 29.4703 75.3377C29.5294 75.2347 29.559 75.1264 29.559 75.0128V74.6293C29.5413 74.6506 29.5022 74.6701 29.4419 74.6879C29.3827 74.7044 29.314 74.7192 29.2359 74.7322C29.1589 74.7441 29.0838 74.7547 29.0104 74.7642C28.9382 74.7725 28.8796 74.7796 28.8346 74.7855C28.7257 74.7997 28.6239 74.8228 28.5292 74.8548C28.4357 74.8855 28.3599 74.9323 28.3019 74.995C28.2451 75.0566 28.2167 75.1406 28.2167 75.2472C28.2167 75.3928 28.2706 75.5028 28.3783 75.5774C28.4872 75.6508 28.6251 75.6875 28.792 75.6875ZM31.929 73.2727V73.6278H30.5156V73.2727H31.929ZM30.9276 72.6193H31.3466V75.2188C31.3466 75.3371 31.3638 75.4259 31.3981 75.4851C31.4336 75.5431 31.4786 75.5821 31.533 75.6023C31.5887 75.6212 31.6473 75.6307 31.7088 75.6307C31.755 75.6307 31.7929 75.6283 31.8224 75.6236C31.852 75.6177 31.8757 75.6129 31.8935 75.6094L31.9787 75.9858C31.9503 75.9964 31.9106 76.0071 31.8597 76.0178C31.8088 76.0296 31.7443 76.0355 31.6662 76.0355C31.5478 76.0355 31.4318 76.0101 31.3182 75.9592C31.2057 75.9083 31.1122 75.8307 31.0376 75.7266C30.9643 75.6224 30.9276 75.491 30.9276 75.3324V72.6193ZM32.5593 76V73.2727H32.9783V76H32.5593ZM32.7724 72.8182C32.6907 72.8182 32.6203 72.7904 32.5611 72.7347C32.5031 72.6791 32.4741 72.6122 32.4741 72.5341C32.4741 72.456 32.5031 72.3891 32.5611 72.3335C32.6203 72.2778 32.6907 72.25 32.7724 72.25C32.854 72.25 32.9239 72.2778 32.9819 72.3335C33.0411 72.3891 33.0707 72.456 33.0707 72.5341C33.0707 72.6122 33.0411 72.6791 32.9819 72.7347C32.9239 72.7904 32.854 72.8182 32.7724 72.8182ZM34.1649 74.3594V76H33.7458V73.2727H34.1507V73.6989H34.1862C34.2501 73.5604 34.3472 73.4491 34.4774 73.3651C34.6076 73.2798 34.7757 73.2372 34.9816 73.2372C35.1663 73.2372 35.3279 73.2751 35.4664 73.3509C35.6048 73.4254 35.7126 73.5391 35.7895 73.6918C35.8664 73.8433 35.9049 74.035 35.9049 74.267V76H35.4859V74.2955C35.4859 74.0812 35.4302 73.9143 35.319 73.7947C35.2077 73.674 35.055 73.6136 34.8609 73.6136C34.7271 73.6136 34.6076 73.6426 34.5022 73.7006C34.3981 73.7586 34.3158 73.8433 34.2554 73.9545C34.195 74.0658 34.1649 74.2008 34.1649 74.3594ZM37.7786 76.0568C37.5324 76.0568 37.3163 75.9982 37.1305 75.881C36.9458 75.7638 36.8014 75.5999 36.6973 75.3892C36.5943 75.1785 36.5428 74.9323 36.5428 74.6506C36.5428 74.3665 36.5943 74.1185 36.6973 73.9066C36.8014 73.6947 36.9458 73.5302 37.1305 73.413C37.3163 73.2958 37.5324 73.2372 37.7786 73.2372C38.0248 73.2372 38.2402 73.2958 38.4249 73.413C38.6107 73.5302 38.7551 73.6947 38.8581 73.9066C38.9623 74.1185 39.0144 74.3665 39.0144 74.6506C39.0144 74.9323 38.9623 75.1785 38.8581 75.3892C38.7551 75.5999 38.6107 75.7638 38.4249 75.881C38.2402 75.9982 38.0248 76.0568 37.7786 76.0568ZM37.7786 75.6804C37.9656 75.6804 38.1195 75.6325 38.2402 75.5366C38.361 75.4407 38.4503 75.3146 38.5083 75.1584C38.5663 75.0021 38.5953 74.8329 38.5953 74.6506C38.5953 74.4683 38.5663 74.2984 38.5083 74.141C38.4503 73.9835 38.361 73.8563 38.2402 73.7592C38.1195 73.6622 37.9656 73.6136 37.7786 73.6136C37.5916 73.6136 37.4377 73.6622 37.3169 73.7592C37.1962 73.8563 37.1068 73.9835 37.0488 74.141C36.9908 74.2984 36.9618 74.4683 36.9618 74.6506C36.9618 74.8329 36.9908 75.0021 37.0488 75.1584C37.1068 75.3146 37.1962 75.4407 37.3169 75.5366C37.4377 75.6325 37.5916 75.6804 37.7786 75.6804Z" fill="#FFF0D1"/>
<path d="M55.5306 33L57.157 29.7827V29.7543H55.282V29.3636H57.6116V29.7756L55.9922 33H55.5306ZM60.1271 32.3182V32.1264C60.1271 31.9938 60.1543 31.8725 60.2088 31.7624C60.2644 31.6512 60.3449 31.5624 60.4502 31.4961C60.5568 31.4286 60.6858 31.3949 60.8373 31.3949C60.9912 31.3949 61.1202 31.4286 61.2244 31.4961C61.3286 31.5624 61.4073 31.6512 61.4605 31.7624C61.5138 31.8725 61.5404 31.9938 61.5404 32.1264V32.3182C61.5404 32.4508 61.5132 32.5727 61.4588 32.6839C61.4055 32.794 61.3262 32.8828 61.2208 32.9503C61.1167 33.0166 60.9888 33.0497 60.8373 33.0497C60.6834 33.0497 60.5538 33.0166 60.4485 32.9503C60.3431 32.8828 60.2632 32.794 60.2088 32.6839C60.1543 32.5727 60.1271 32.4508 60.1271 32.3182ZM60.4893 32.1264V32.3182C60.4893 32.4283 60.5153 32.5271 60.5674 32.6147C60.6195 32.7011 60.7095 32.7443 60.8373 32.7443C60.9616 32.7443 61.0492 32.7011 61.1001 32.6147C61.1522 32.5271 61.1782 32.4283 61.1782 32.3182V32.1264C61.1782 32.0163 61.1534 31.9181 61.1036 31.8317C61.0539 31.7441 60.9652 31.7003 60.8373 31.7003C60.713 31.7003 60.6237 31.7441 60.5692 31.8317C60.5159 31.9181 60.4893 32.0163 60.4893 32.1264ZM58.316 30.2372V30.0455C58.316 29.9129 58.3432 29.7915 58.3977 29.6815C58.4533 29.5702 58.5338 29.4814 58.6392 29.4151C58.7457 29.3477 58.8747 29.3139 59.0262 29.3139C59.1801 29.3139 59.3091 29.3477 59.4133 29.4151C59.5175 29.4814 59.5962 29.5702 59.6495 29.6815C59.7027 29.7915 59.7294 29.9129 59.7294 30.0455V30.2372C59.7294 30.3698 59.7021 30.4917 59.6477 30.603C59.5944 30.7131 59.5151 30.8018 59.4098 30.8693C59.3056 30.9356 59.1777 30.9688 59.0262 30.9688C58.8724 30.9688 58.7427 30.9356 58.6374 30.8693C58.532 30.8018 58.4521 30.7131 58.3977 30.603C58.3432 30.4917 58.316 30.3698 58.316 30.2372ZM58.6782 30.0455V30.2372C58.6782 30.3473 58.7043 30.4461 58.7563 30.5337C58.8084 30.6201 58.8984 30.6634 59.0262 30.6634C59.1505 30.6634 59.2381 30.6201 59.289 30.5337C59.3411 30.4461 59.3671 30.3473 59.3671 30.2372V30.0455C59.3671 29.9354 59.3423 29.8371 59.2926 29.7507C59.2429 29.6631 59.1541 29.6193 59.0262 29.6193C58.9019 29.6193 58.8126 29.6631 58.7581 29.7507C58.7049 29.8371 58.6782 29.9354 58.6782 30.0455ZM58.4509 33L60.951 29.3636H61.3558L58.8558 33H58.4509ZM52.6295 39H52.1679L53.5031 35.3636H53.9577L55.2929 39H54.8312L53.7446 35.9389H53.7162L52.6295 39ZM52.8 37.5795H54.6608V37.9702H52.8V37.5795ZM57.7343 36.8835L57.3579 36.9901C57.3342 36.9273 57.2993 36.8664 57.2531 36.8072C57.2081 36.7468 57.1466 36.6971 57.0684 36.658C56.9903 36.619 56.8903 36.5994 56.7684 36.5994C56.6015 36.5994 56.4624 36.6379 56.3511 36.7148C56.241 36.7906 56.186 36.8871 56.186 37.0043C56.186 37.1084 56.2239 37.1907 56.2996 37.2511C56.3754 37.3114 56.4938 37.3617 56.6547 37.402L57.0596 37.5014C57.3034 37.5606 57.4851 37.6512 57.6047 37.7731C57.7242 37.8938 57.784 38.0495 57.784 38.2401C57.784 38.3963 57.739 38.536 57.6491 38.6591C57.5603 38.7822 57.436 38.8793 57.2762 38.9503C57.1164 39.0213 56.9305 39.0568 56.7187 39.0568C56.4405 39.0568 56.2103 38.9964 56.028 38.8757C55.8457 38.755 55.7303 38.5786 55.6817 38.3466L56.0795 38.2472C56.1173 38.3939 56.189 38.504 56.2943 38.5774C56.4008 38.6508 56.5399 38.6875 56.7116 38.6875C56.9069 38.6875 57.0619 38.6461 57.1768 38.5632C57.2928 38.4792 57.3508 38.3786 57.3508 38.2614C57.3508 38.1667 57.3176 38.0874 57.2513 38.0234C57.185 37.9583 57.0832 37.9098 56.9459 37.8778L56.4914 37.7713C56.2416 37.7121 56.0581 37.6204 55.941 37.4961C55.825 37.3706 55.767 37.2138 55.767 37.0256C55.767 36.8717 55.8102 36.7356 55.8966 36.6172C55.9842 36.4988 56.1031 36.4059 56.2535 36.3384C56.405 36.271 56.5766 36.2372 56.7684 36.2372C57.0383 36.2372 57.2501 36.2964 57.404 36.4148C57.5591 36.5331 57.6692 36.6894 57.7343 36.8835ZM58.4148 39V36.2727H58.8338V39H58.4148ZM58.6278 35.8182C58.5462 35.8182 58.4757 35.7904 58.4165 35.7347C58.3585 35.6791 58.3295 35.6122 58.3295 35.5341C58.3295 35.456 58.3585 35.3891 58.4165 35.3335C58.4757 35.2778 58.5462 35.25 58.6278 35.25C58.7095 35.25 58.7794 35.2778 58.8374 35.3335C58.8965 35.3891 58.9261 35.456 58.9261 35.5341C58.9261 35.6122 58.8965 35.6791 58.8374 35.7347C58.7794 35.7904 58.7095 35.8182 58.6278 35.8182ZM60.4039 39.0639C60.231 39.0639 60.0742 39.0314 59.9333 38.9663C59.7925 38.9 59.6806 38.8047 59.5977 38.6804C59.5149 38.5549 59.4735 38.4034 59.4735 38.2259C59.4735 38.0696 59.5042 37.9429 59.5658 37.8459C59.6273 37.7476 59.7096 37.6707 59.8126 37.6151C59.9156 37.5594 60.0292 37.518 60.1535 37.4908C60.279 37.4624 60.405 37.4399 60.5317 37.4233C60.6974 37.402 60.8318 37.386 60.9347 37.3754C61.0389 37.3635 61.1147 37.344 61.162 37.3168C61.2106 37.2895 61.2348 37.2422 61.2348 37.1747V37.1605C61.2348 36.9853 61.1869 36.8492 61.091 36.7521C60.9963 36.6551 60.8525 36.6065 60.6595 36.6065C60.4595 36.6065 60.3026 36.6503 60.189 36.7379C60.0754 36.8255 59.9955 36.919 59.9493 37.0185L59.5516 36.8764C59.6226 36.7107 59.7173 36.5817 59.8357 36.4893C59.9552 36.3958 60.0854 36.3307 60.2263 36.294C60.3683 36.2562 60.508 36.2372 60.6453 36.2372C60.7329 36.2372 60.8335 36.2479 60.9472 36.2692C61.062 36.2893 61.1727 36.3313 61.2792 36.3952C61.3869 36.4592 61.4763 36.5556 61.5473 36.6847C61.6183 36.8137 61.6539 36.9865 61.6539 37.2031V39H61.2348V38.6307H61.2135C61.1851 38.6899 61.1378 38.7532 61.0715 38.8207C61.0052 38.8881 60.917 38.9455 60.8069 38.9929C60.6968 39.0402 60.5625 39.0639 60.4039 39.0639ZM60.4678 38.6875C60.6335 38.6875 60.7732 38.6549 60.8868 38.5898C61.0016 38.5247 61.088 38.4407 61.146 38.3377C61.2052 38.2347 61.2348 38.1264 61.2348 38.0128V37.6293C61.2171 37.6506 61.178 37.6701 61.1176 37.6879C61.0584 37.7044 60.9898 37.7192 60.9117 37.7322C60.8347 37.7441 60.7596 37.7547 60.6862 37.7642C60.614 37.7725 60.5554 37.7796 60.5104 37.7855C60.4015 37.7997 60.2997 37.8228 60.205 37.8548C60.1115 37.8855 60.0357 37.9323 59.9777 37.995C59.9209 38.0566 59.8925 38.1406 59.8925 38.2472C59.8925 38.3928 59.9463 38.5028 60.0541 38.5774C60.163 38.6508 60.3009 38.6875 60.4678 38.6875ZM62.8377 37.3594V39H62.4187V36.2727H62.8235V36.6989H62.859C62.9229 36.5604 63.02 36.4491 63.1502 36.3651C63.2804 36.2798 63.4485 36.2372 63.6545 36.2372C63.8391 36.2372 64.0007 36.2751 64.1392 36.3509C64.2777 36.4254 64.3854 36.5391 64.4624 36.6918C64.5393 36.8433 64.5778 37.035 64.5778 37.267V39H64.1587V37.2955C64.1587 37.0812 64.1031 36.9143 63.9918 36.7947C63.8806 36.674 63.7279 36.6136 63.5337 36.6136C63.4 36.6136 63.2804 36.6426 63.1751 36.7006C63.0709 36.7586 62.9886 36.8433 62.9283 36.9545C62.8679 37.0658 62.8377 37.2008 62.8377 37.3594Z" fill="#FFF0D1"/>
</g>
<defs>
<clipPath id="clip0_41_2">
<rect width="180" height="180" fill="white"/>
</clipPath>
</defs>
</svg>
