<svg xmlns="http://www.w3.org/2000/svg" viewBox="0 0 48 48" fill="#df9567"><link xmlns="" type="text/css" rel="stylesheet" id="dark-mode-custom-link" fill="#df9567"/><link xmlns="" type="text/css" rel="stylesheet" id="dark-mode-general-link" fill="#df9567"/><style xmlns="" lang="en" type="text/css" id="dark-mode-custom-style"/><style xmlns="" lang="en" type="text/css" id="dark-mode-native-style"/><style xmlns="" lang="en" type="text/css" id="dark-mode-native-sheet"/><path fill-rule="evenodd" clip-rule="evenodd" d="M10.833 22.827C11.2185 21.303 11.757 19.9875 12.4605 18.897C14.025 16.473 16.5165 14.9895 20.5755 14.9895C21.4035 14.9895 22.0755 14.319 22.0755 13.4895C22.0755 12.6615 21.4035 11.9895 20.5755 11.9895C15.6345 11.9895 12.126 13.881 9.939 17.271C7.8315 20.5395 7.0755 25.0125 7.0755 29.9895C7.0755 35.9895 8.5755 37.4895 14.5755 37.4895C20.5755 37.4895 22.0755 35.9895 22.0755 29.9895C22.0755 23.9895 20.5755 22.4895 14.5755 22.4895C13.0545 22.4895 11.8245 22.5855 10.833 22.827Z" fill="#df9567"/><path fill-rule="evenodd" clip-rule="evenodd" d="M28.833 22.827C29.2185 21.303 29.757 19.9875 30.4605 18.897C32.025 16.473 34.5165 14.9895 38.5755 14.9895C39.4035 14.9895 40.0755 14.319 40.0755 13.4895C40.0755 12.6615 39.4035 11.9895 38.5755 11.9895C33.6345 11.9895 30.126 13.881 27.939 17.271C25.8315 20.5395 25.0755 25.0125 25.0755 29.9895C25.0755 35.9895 26.5755 37.4895 32.5755 37.4895C38.5755 37.4895 40.0755 35.9895 40.0755 29.9895C40.0755 23.9895 38.5755 22.4895 32.5755 22.4895C31.0545 22.4895 29.8245 22.5855 28.833 22.827Z" fill="#df9567"/></svg>